<svg xmlns="http://www.w3.org/2000/svg" width="160" height="80" fill="none"><rect width="160" height="80" fill="#312359" rx="40"/><g clip-path="url(#a)"><mask id="b" width="134" height="81" x="13" y="-4" maskUnits="userSpaceOnUse" style="mask-type:luminance"><path fill="#fff" d="M146.057-4H13.942v80.755h132.115z"/></mask><g mask="url(#b)"><mask id="c" width="150" height="155" x="5" y="-12" maskUnits="userSpaceOnUse" style="mask-type:luminance"><path fill="#fff" d="M80.02-11.31c-41.4 0-74.963 34.359-74.963 76.742s33.563 76.742 74.963 76.742c41.401 0 74.964-34.359 74.964-76.742S121.421-11.311 80.02-11.311m0 125.961c-26.552 0-48.078-22.035-48.078-49.22 0-27.183 21.524-49.218 48.078-49.218s48.078 22.035 48.078 49.219-21.524 49.219-48.078 49.219"/></mask><g mask="url(#c)"><path fill="url(#d)" d="M23.235-6.578V101.06h113.57V-6.578z" opacity=".65"/><path fill="url(#e)" d="M55.148 1.254v78.118h85.94V1.254z" opacity=".56"/><path fill="url(#f)" d="M22.16 15.445v79.141H128.47v-79.14z" opacity=".5"/><path fill="url(#g)" d="M80.02 111.375c28.671 0 51.913-21.99 51.913-49.115S108.691 13.145 80.02 13.145 28.108 35.135 28.108 62.26s23.242 49.115 51.912 49.115"/></g><path fill="#fff" d="M47.083 58.494V48.328H57.81v2.3h-7.1v1.703h6.532v1.975H50.71v1.888h7.24v2.3H47.08zM58.944 58.494V48.328h4.492l5.441 6.603h.015v-6.603h3.529v10.166h-4.492l-5.44-6.688h-.016v6.688zM73.184 55.144l3.188-.838c.142 1.193.991 1.888 2.168 1.888 1.063 0 1.814-.655 1.814-1.746v-6.12h3.74v6.29c0 2.571-1.997 4.104-5.355 4.104s-5.27-1.32-5.555-3.578M85.114 53.412c0-3.281 2.977-5.44 7.453-5.44 4.478 0 7.454 2.159 7.454 5.44 0 3.28-2.976 5.439-7.454 5.439-4.476 0-7.453-2.172-7.453-5.44m11.151 0c0-1.69-1.473-2.813-3.698-2.813s-3.712 1.123-3.712 2.813 1.488 2.813 3.712 2.813 3.698-1.123 3.698-2.813M104.37 58.494v-3.478l-4.917-6.688h3.911l2.877 4.259h.015l2.734-4.26h3.968l-4.847 6.689v3.478z"/><path fill="#fff" d="M80.02 15.933a47.5 47.5 0 0 1 18.446 3.775 48.4 48.4 0 0 1 15.717 10.75 49.7 49.7 0 0 1 10.501 16.09 50.6 50.6 0 0 1 3.673 17.732h-.377a37 37 0 0 0-.119-2.273 48 48 0 0 0-1.635-8.94 49 49 0 0 0-2.227-6.228 49.1 49.1 0 0 0-10.701-15.475 50 50 0 0 0-15.272-10.182l-.134-.056a46.2 46.2 0 0 0-17.871-3.67z"/><path fill="#fff" d="M80.193 15.933a47.5 47.5 0 0 0-18.446 3.775 48.4 48.4 0 0 0-15.717 10.75 49.7 49.7 0 0 0-10.501 16.09 50.6 50.6 0 0 0-3.673 17.732h.377a37 37 0 0 1 .119-2.273c.261-3.03.812-6.03 1.635-8.94a49 49 0 0 1 2.228-6.228 49.1 49.1 0 0 1 10.7-15.475 50 50 0 0 1 15.272-10.182l.134-.056a46.2 46.2 0 0 1 17.872-3.67z"/></g></g><defs><radialGradient id="d" cx="0" cy="0" r="1" gradientTransform="matrix(54.7475 0 0 53.2991 80.032 47.31)" gradientUnits="userSpaceOnUse"><stop offset=".48" stop-color="#fff" stop-opacity=".9"/><stop offset=".55" stop-color="#fff" stop-opacity=".62"/><stop offset=".63" stop-color="#fff" stop-opacity=".36"/><stop offset=".68" stop-color="#fff" stop-opacity=".2"/><stop offset=".71" stop-color="#fff" stop-opacity=".14"/><stop offset=".73" stop-color="#fff" stop-opacity=".11"/><stop offset=".81" stop-color="#fff" stop-opacity=".03"/><stop offset=".86" stop-color="#fff" stop-opacity="0"/></radialGradient><radialGradient id="e" cx="0" cy="0" r="1" gradientTransform="matrix(-30.9791 -26.6113 17.419 -21.2517 99.885 41.743)" gradientUnits="userSpaceOnUse"><stop offset=".58" stop-color="#fff" stop-opacity=".8"/><stop offset=".65" stop-color="#fff" stop-opacity=".53"/><stop offset=".72" stop-color="#fff" stop-opacity=".3"/><stop offset=".78" stop-color="#fff" stop-opacity=".14"/><stop offset=".83" stop-color="#fff" stop-opacity=".04"/><stop offset=".86" stop-color="#fff" stop-opacity="0"/></radialGradient><radialGradient id="f" cx="0" cy="0" r="1" gradientTransform="matrix(43.6801 0 0 40.342 75.196 55.063)" gradientUnits="userSpaceOnUse"><stop offset=".72" stop-color="#fff"/><stop offset=".79" stop-color="#fff" stop-opacity=".74"/><stop offset=".89" stop-color="#fff" stop-opacity=".35"/><stop offset=".96" stop-color="#fff" stop-opacity=".1"/><stop offset="1" stop-color="#fff" stop-opacity="0"/></radialGradient><radialGradient id="g" cx="0" cy="0" r="1" gradientTransform="matrix(49.9558 0 0 50.6345 79.816 62.26)" gradientUnits="userSpaceOnUse"><stop offset=".88" stop-color="#fff" stop-opacity=".99"/><stop offset=".89" stop-color="#fff" stop-opacity=".78"/><stop offset=".9" stop-color="#fff" stop-opacity=".6"/><stop offset=".91" stop-color="#fff" stop-opacity=".44"/><stop offset=".92" stop-color="#fff" stop-opacity=".3"/><stop offset=".93" stop-color="#fff" stop-opacity=".19"/><stop offset=".94" stop-color="#fff" stop-opacity=".11"/><stop offset=".96" stop-color="#fff" stop-opacity=".05"/><stop offset=".97" stop-color="#fff" stop-opacity=".01"/><stop offset=".99" stop-color="#fff" stop-opacity="0"/></radialGradient><clipPath id="a"><path fill="#fff" d="M20 1h117v69H20z"/></clipPath></defs></svg>