<svg width="160" height="80" fill="none" xmlns="http://www.w3.org/2000/svg">
<rect width="160" height="80" rx="40" fill="#312359"/>
<g clip-path="url(#clip0_7703_924)">
<path d="M17.8127 49.201C18.3069 48.9919 18.573 48.7259 18.573 48.4408V43.2332C18.554 42.777 18.782 42.3399 19.1621 42.0928C19.5423 41.8267 19.9984 41.6747 20.4545 41.6747C21.5949 41.7127 22.7162 41.5036 23.7426 41.0475C24.5408 40.6864 25.206 40.0782 25.6431 39.337C26.0993 38.5387 26.4034 37.6835 26.5554 36.7712C26.5744 36.5621 26.6695 36.4291 26.7645 36.4291C26.8595 36.4291 26.9165 36.5241 26.9165 36.7142C26.9545 38.2536 26.2893 39.7361 25.092 40.7244C23.7616 41.7697 22.108 42.2829 20.4355 42.2068C20.0744 42.2068 19.7323 42.3209 19.4472 42.5109C19.1621 42.644 18.9531 42.9101 18.9341 43.2332V48.6308C18.9341 48.9539 18.611 49.296 17.9838 49.6952C17.7937 49.6381 17.6797 49.5431 17.6797 49.4101C17.6797 49.296 17.7367 49.239 17.8127 49.201ZM20.2075 34.2244C20.7206 33.9203 21.3098 33.7492 21.899 33.7683C22.9823 33.7112 23.9896 34.2244 24.5978 35.1177C24.6358 35.1747 24.6548 35.2507 24.6548 35.3267C24.6548 35.4408 24.5788 35.5548 24.4648 35.5738C24.4078 35.5738 24.3127 35.5548 24.2937 35.4788C23.9896 35.1177 23.6285 34.8136 23.2104 34.5855C22.7923 34.3574 22.3171 34.2244 21.842 34.1864C21.4238 34.1864 21.0057 34.3004 20.6446 34.5285C20.5496 34.5855 20.4545 34.6045 20.3405 34.6235C20.1885 34.6045 20.1314 34.5285 20.1314 34.4525C20.1124 34.3194 20.1314 34.2624 20.2075 34.2244ZM35.4121 49.239L42.6914 49.296C42.8434 49.296 42.9955 49.239 43.1285 49.144C43.2806 49.049 43.3756 48.8969 43.3946 48.7259C43.3946 48.6498 43.4326 48.5548 43.5086 48.5168C43.5656 48.4408 43.6607 48.4028 43.7557 48.4028C43.8697 48.4028 43.9078 48.5358 43.9078 48.8019C43.8317 49.087 43.6607 49.334 43.4326 49.5241C43.2426 49.6952 42.9955 49.8092 42.7484 49.8282H35.4502C35.2411 49.8282 35.1271 49.7332 35.1271 49.5431C35.1271 49.353 35.1841 49.239 35.4121 49.239ZM37.1607 34.7946C37.2747 34.8896 37.3317 35.0226 37.3317 35.1557C37.3317 35.2887 37.2937 35.3457 37.1797 35.3457C37.0466 35.3267 36.9326 35.2697 36.8566 35.1747L35.9823 34.4335C35.9063 34.3574 35.8683 34.2624 35.8683 34.1484C35.8683 33.9583 36.0203 33.8443 36.3434 33.8443H42.0642C42.2352 33.8443 42.4063 33.7873 42.5393 33.6732C42.6914 33.5782 42.8054 33.4261 42.8624 33.2551C42.8814 33.084 42.9765 32.989 43.0715 32.989C43.1285 32.989 43.1665 33.008 43.2045 33.046C43.2425 33.084 43.2806 33.1411 43.2616 33.1981C43.2616 33.5212 43.1095 33.8063 42.8434 33.9963C42.5583 34.1864 42.2352 34.3004 41.8931 34.3004H36.5335L37.1607 34.7946ZM36.3624 46.4642C36.3624 46.8823 36.2674 47.0914 36.1154 47.0914C35.9633 47.0914 35.8683 46.8823 35.8683 46.4642V42.682C35.8683 42.2449 36.0393 41.8457 36.3624 41.5606C36.6475 41.2756 37.0466 41.1045 37.4458 41.1045L41.437 41.0475C41.6271 41.0285 41.8171 40.9335 41.9311 40.7814C42.0832 40.6484 42.1972 40.4583 42.2352 40.2492C42.2923 40.0782 42.3683 39.9642 42.4823 39.9642C42.6344 39.9642 42.7294 40.0972 42.7294 40.3633C42.7294 40.6674 42.5773 40.9715 42.3113 41.1425C42.0832 41.3516 41.7981 41.4656 41.513 41.4656H37.6928C37.3697 41.4656 37.0466 41.5797 36.7806 41.7697C36.4765 41.9788 36.3054 42.3399 36.3434 42.701V46.4642H36.3624ZM39.0042 38.0066C39.0613 38.0446 39.0803 38.1206 39.0993 38.1776C39.0993 38.3107 39.0423 38.3677 38.8902 38.3677C38.7762 38.3487 38.6621 38.2916 38.5861 38.2156L36.6285 36.6381C36.5145 36.5811 36.4575 36.4671 36.4575 36.334C36.4575 36.182 36.5525 36.125 36.7045 36.125C36.7996 36.125 36.8946 36.182 36.9516 36.258L39.0042 38.0066ZM61.4882 42.739C61.4882 42.5299 61.5452 42.4159 61.6592 42.4159C61.7733 42.4159 61.8493 42.4729 61.9063 42.625C61.9443 42.72 61.9633 42.834 61.9633 42.9291C61.9633 43.1381 61.8683 43.3472 61.7162 43.4992C61.6022 43.6513 61.4121 43.7273 61.2221 43.7463H55.7104C55.4063 43.7463 55.2542 43.6513 55.2542 43.4802C55.2542 43.3472 55.3873 43.2712 55.6534 43.2332H61.1271C61.3931 43.2332 61.4882 43.0811 61.4882 42.739ZM69.2235 49.353H74.5072C74.6782 49.353 74.8303 49.296 74.9633 49.201C75.0773 49.106 75.1344 48.9539 75.1344 48.8019C75.1534 48.7068 75.2294 48.6498 75.3244 48.6498C75.4955 48.6498 75.5715 48.7449 75.5715 48.9349C75.5335 49.201 75.3814 49.4291 75.1724 49.5811C74.9633 49.7332 74.7162 49.8282 74.4501 49.8282H69.1665C68.9575 49.8282 68.8244 49.7712 68.8244 49.6381C68.8434 49.4481 68.9765 49.353 69.2235 49.353ZM69.5086 33.8253C69.5086 33.5022 69.6037 33.3311 69.7937 33.3311C69.9838 33.3311 70.0788 33.5212 70.0788 33.9013V46.7873C70.0788 47.0533 69.9838 47.2054 69.7937 47.2054C69.6037 47.2054 69.5086 47.0533 69.5086 46.7492V33.8253ZM82.6797 33.7112C82.6797 33.3501 82.7937 33.1601 82.9838 33.1601C83.1548 33.1601 83.2309 33.3121 83.2309 33.6352V48.1937C83.2499 48.5738 83.1548 48.9729 82.9458 49.296C82.7937 49.5051 82.5657 49.6381 82.2996 49.6381C82.0145 49.6381 81.8624 49.5051 81.8624 49.277C81.8624 49.163 81.9575 49.106 82.1095 49.106C82.2996 49.106 82.4706 48.9919 82.5466 48.8209C82.6227 48.6308 82.6797 48.4408 82.6797 48.2317V33.7112ZM92.5437 47.0723C92.6387 47.1484 92.6958 47.2624 92.6958 47.3764C92.7148 47.4715 92.6387 47.5665 92.5437 47.5665C92.5247 47.5665 92.5057 47.5665 92.4867 47.5665C92.3727 47.5475 92.2586 47.4905 92.1826 47.4145C91.7835 47.0723 91.4414 46.6352 91.2133 46.1601C91.0232 45.6469 90.9282 45.0957 90.9472 44.5256C90.9662 44.2405 91.0423 43.9744 91.1373 43.7273C91.2893 43.3852 91.4604 43.0431 91.6314 42.682C91.8405 42.2639 92.0306 41.9408 92.1256 41.7127C92.2206 41.5036 92.2776 41.2946 92.2966 41.0665C92.2966 40.8004 92.3347 40.6674 92.4487 40.6674C92.6387 40.6674 92.7718 40.8004 92.8858 41.0665C92.8858 41.3326 92.8288 41.5797 92.6958 41.8077C92.5247 42.1308 92.3537 42.4539 92.1446 42.777C91.9545 43.1001 91.7835 43.4232 91.6314 43.7463C91.4984 44.0884 91.4414 44.4685 91.4604 44.8297C91.4034 45.7229 91.8025 46.5782 92.5437 47.0723ZM92.7908 36.0299C92.7718 36.3911 92.6958 36.6001 92.6007 36.6001C92.5437 36.6001 92.4677 36.5431 92.4107 36.4291C92.3537 36.315 92.3157 36.182 92.2966 36.0299C92.3347 35.3077 92.6768 34.6425 93.2089 34.1674C93.7411 33.7302 94.4063 33.5022 95.0905 33.5212C95.4326 33.5212 95.7747 33.5782 96.1168 33.6922C96.2689 33.7302 96.5349 33.8443 96.9151 33.9963C97.2762 34.1484 97.5803 34.2624 97.7893 34.3194C97.9414 34.3764 98.0934 34.4145 98.2455 34.4335C98.4355 34.4525 98.6256 34.3194 98.6636 34.1294C98.6826 34.0914 98.7206 34.0723 98.7776 34.0723C98.9297 34.0723 98.9867 34.1864 98.9867 34.4145C98.8156 34.7185 98.5116 34.9086 98.1694 34.8896C97.7893 34.8326 97.4092 34.7376 97.0481 34.5855C96.573 34.3954 96.2118 34.2624 95.9458 34.1674C95.5846 34.0723 95.2235 34.0343 94.8624 34.0343C94.3113 34.0533 93.8171 34.3194 93.475 34.7566C93.0569 35.0797 92.8288 35.5358 92.7908 36.0299ZM93.437 49.163C93.8931 49.277 94.3683 49.334 94.8434 49.334C95.7557 49.334 96.668 49.125 97.4852 48.7259C98.2645 48.3457 98.9297 47.7756 99.4048 47.0533C99.956 46.2171 100.241 45.2288 100.222 44.2405C100.279 43.0051 99.7089 41.8077 98.7016 41.0855C98.6446 41.0475 98.6066 40.9905 98.5876 40.9145C98.5876 40.8574 98.6256 40.7814 98.7396 40.7434C98.8157 40.7054 98.9107 40.6864 99.0057 40.6864C100.127 41.4846 100.792 42.796 100.773 44.1835C100.773 45.2668 100.45 46.3121 99.861 47.2244C99.3858 48.0797 98.6446 48.7639 97.7513 49.182C96.782 49.6571 95.7367 49.9042 94.6534 49.9042C94.1782 49.9042 93.7031 49.8662 93.2469 49.7712C92.9618 49.7332 92.8288 49.6191 92.8288 49.4101C92.8858 49.201 93.0569 49.163 93.437 49.163ZM108.49 37.4364L105.677 35.0607C105.601 35.0036 105.544 34.9086 105.525 34.8136C105.525 34.6615 105.62 34.6045 105.772 34.6045C105.829 34.6045 105.886 34.6235 105.924 34.6615L108.832 37.1703C108.965 37.3033 109.041 37.3794 109.041 37.4744C109.041 37.5694 108.984 37.6074 108.87 37.6074C108.718 37.5884 108.604 37.5314 108.49 37.4364ZM108.49 33.8443H114.419C114.933 33.8443 115.18 33.6542 115.18 33.2551C115.199 33.1791 115.275 33.103 115.351 33.103C115.522 33.103 115.598 33.1601 115.598 33.3121C115.579 33.5972 115.465 33.8633 115.294 34.0723C115.028 34.2814 114.686 34.3764 114.343 34.3384H108.433C108.243 34.3384 108.129 34.2814 108.129 34.1294C108.129 33.9393 108.224 33.8443 108.49 33.8443ZM110.713 37.9495C110.713 37.5504 110.77 37.3604 110.922 37.3604C111.055 37.3604 111.093 37.4934 111.093 37.7595V48.5358C111.093 48.8399 110.998 49.125 110.827 49.3721C110.694 49.6191 110.428 49.7902 110.143 49.7902C109.991 49.7902 109.934 49.6952 109.934 49.5431C109.934 49.4101 109.953 49.353 110.029 49.353C110.428 49.334 110.713 48.9919 110.694 48.5928L110.713 37.9495ZM122.896 33.7112C122.896 33.3501 123.01 33.1601 123.2 33.1601C123.371 33.1601 123.447 33.3121 123.447 33.6352V48.1937C123.466 48.5738 123.371 48.9729 123.162 49.296C123.01 49.5051 122.782 49.6381 122.516 49.6381C122.231 49.6381 122.079 49.5051 122.079 49.277C122.079 49.163 122.174 49.106 122.326 49.106C122.516 49.106 122.687 48.9919 122.763 48.8209C122.839 48.6308 122.896 48.4408 122.896 48.2317V33.7112ZM133.843 46.065C133.995 46.1411 134.091 46.2931 134.11 46.4642C134.11 46.5972 134.052 46.6352 133.938 46.6352C133.824 46.6352 133.71 46.5782 133.634 46.5022C131.886 44.9247 130.993 43.1381 131.012 41.1425C131.031 39.7741 131.411 38.4247 132.114 37.2463C132.513 36.5431 133.045 35.9349 133.691 35.4408C134.414 34.8896 135.212 34.4715 136.048 34.1674C136.846 33.8633 137.683 33.7112 138.519 33.7112C138.994 33.7112 139.488 33.7873 139.944 33.9203C140.229 33.9393 140.362 34.0533 140.362 34.1864C140.362 34.3004 140.267 34.3574 140.096 34.3574C139.982 34.3574 139.887 34.3384 139.792 34.3004C139.355 34.1674 138.899 34.0914 138.424 34.0914C137.207 34.1104 136.029 34.4525 134.984 35.0607C133.938 35.6118 133.064 36.4481 132.456 37.4364C131.829 38.5197 131.487 39.7361 131.487 40.9905C131.43 42.9101 132.228 44.5826 133.843 46.065ZM134.908 49.144C134.718 49.049 134.604 48.9539 134.604 48.8399C134.604 48.7259 134.699 48.6878 134.87 48.6878C135.022 48.6878 135.155 48.7259 135.288 48.8209C136.2 49.258 137.188 49.4671 138.196 49.4481C138.861 49.4481 139.545 49.3721 140.191 49.201C140.762 49.068 141.313 48.8399 141.807 48.5358C142.187 48.3267 142.453 47.9846 142.586 47.5855C142.7 47.2434 142.833 47.0914 142.928 47.0914C143.08 47.0914 143.175 47.2624 143.175 47.6045C143.118 48.0797 142.852 48.4978 142.434 48.7259C141.845 49.125 141.199 49.4101 140.533 49.5621C139.754 49.7712 138.956 49.8662 138.158 49.8662C137.017 49.9042 135.896 49.6571 134.908 49.144ZM142.225 34.7376C142.301 34.7756 142.377 34.8136 142.472 34.7946C142.738 34.7946 142.871 34.6425 142.871 34.3194C142.89 34.1294 142.833 33.9393 142.7 33.8063C142.681 33.7492 142.662 33.7112 142.643 33.6542C142.643 33.5022 142.757 33.4452 142.947 33.4452C143.08 33.4452 143.194 33.5022 143.251 33.6162C143.346 33.8063 143.403 34.0153 143.403 34.2244C143.403 34.4905 143.308 34.7566 143.118 34.9656C142.947 35.1367 142.7 35.2507 142.453 35.2507C142.339 35.2507 142.206 35.2317 142.111 35.1557C141.959 35.0416 141.902 34.9466 141.902 34.8516C141.845 34.7756 141.959 34.7376 142.225 34.7376Z" fill="#D11172"/>
<path d="M22.8492 43.5372C23.3053 44.2974 23.8185 45.2287 24.4457 46.35C24.8638 47.1483 25.3389 47.9275 25.8331 48.6878C26.1372 49.1249 26.4033 49.334 26.6313 49.334C26.7074 49.334 26.7644 49.315 26.8214 49.277C26.9544 49.277 27.0305 49.315 27.0305 49.429C27.0305 49.524 26.9734 49.6 26.8784 49.6381C26.7644 49.6951 26.6313 49.7331 26.5173 49.7521C26.1752 49.7331 25.8711 49.543 25.7001 49.2579C25.453 48.9348 25.0539 48.1936 24.4457 47.0913C23.8375 45.9889 23.2293 44.9816 22.6211 44.1074M19.5992 39.0708L17.1664 34.7755C17.1474 34.6995 17.1284 34.6234 17.1284 34.5284C17.1284 34.4144 17.1474 34.3764 17.2234 34.3764C17.3565 34.3954 17.4705 34.4714 17.5275 34.5854L20.1313 39.0898M60.9939 45.2857L61.9252 48.2696C61.9442 48.3837 61.9632 48.5167 61.9822 48.6117C61.9822 48.9158 61.8682 49.2009 61.6591 49.41C61.4691 49.6381 61.184 49.7521 60.8799 49.7521C60.6518 49.7521 60.4237 49.6761 60.2337 49.543L52.2132 44.2404C51.9471 44.0884 51.8141 43.9363 51.8141 43.8223C51.8141 43.7272 51.9091 43.6702 52.0612 43.6702C52.1942 43.6702 52.3272 43.7082 52.4603 43.7843L60.3857 49.1819C60.5378 49.277 60.7278 49.315 60.8989 49.296C61.26 49.296 61.4691 49.1249 61.4691 48.7638C61.4691 48.5927 61.431 48.4217 61.374 48.2696L60.4047 44.9626M59.1693 41.1044L56.7936 33.4641C56.7936 33.122 56.8506 32.9509 56.9837 32.9509C57.1167 32.9509 57.1927 33.046 57.2498 33.217L59.7585 41.0854M52.4033 45.5138C52.3653 45.4758 52.3082 45.4378 52.2512 45.4188L50.9778 49.0869C50.9018 49.277 50.7688 49.448 50.5787 49.562C50.3886 49.6951 50.1606 49.7521 49.9325 49.7521C49.6854 49.7331 49.5714 49.6381 49.5714 49.505C49.5714 49.315 49.7234 49.2009 50.0465 49.2009C50.1606 49.1819 50.2746 49.1249 50.3696 49.0489C50.4837 48.9729 50.5597 48.8778 50.6167 48.7448L51.8331 45.1527M53.1825 41.1044L54.836 36.2579C54.855 36.1059 54.9881 35.9919 55.1401 35.9919C55.2922 35.9919 55.3492 36.1249 55.3492 36.391L53.7527 41.1234M91.9354 39.546C91.9164 39.4889 91.8974 39.4319 91.8404 39.3749C91.8024 39.3179 91.7264 39.2419 91.6884 39.1848C91.6313 39.1278 91.5743 39.0708 91.5363 39.0138C91.5363 38.7667 91.5933 38.6527 91.7454 38.6527C91.8214 38.6527 91.8974 38.6717 91.9544 38.7477C92.4486 39.2989 93.0378 39.774 93.684 40.1351C94.4442 40.5533 95.2424 40.8954 96.0597 41.1615C96.2117 41.1805 96.2688 41.2565 96.2688 41.3325C96.2878 41.4655 96.2117 41.5796 96.0787 41.6176H96.0217C95.7936 41.5796 95.5656 41.5226 95.3375 41.4465C95.1474 41.3895 94.8813 41.2755 94.5582 41.1424L93.912 40.8764L91.9354 39.546Z" fill="#D11172"/>
<path d="M22.6023 44.1641C22.5833 44.4872 22.6023 44.8103 22.6594 45.1334L25.4152 49.7328C25.6243 50.0939 26.0424 50.303 26.4605 50.246C26.8787 50.246 27.2778 50.0939 27.6009 49.8279C27.943 49.5998 28.133 49.2197 28.133 48.8015C28.114 48.4975 28.019 48.2124 27.848 47.9653L25.0921 43.3089C24.864 42.9668 24.4459 42.7767 24.0278 42.8337C23.3626 42.8337 22.9444 43.0998 22.8304 43.632L22.6023 44.1641ZM22.1082 35.9346C22.2412 36.1437 22.3553 36.3527 22.4503 36.5428L22.7734 37.132C22.8874 37.322 23.0205 37.5311 23.1155 37.7401C23.2105 37.5691 23.2675 37.379 23.2675 37.17C23.2675 36.8469 23.1345 36.5238 22.9064 36.2957C22.6974 36.0676 22.4123 35.9346 22.1082 35.9346ZM20.1316 39.1656C20.9488 39.2036 21.7471 39.1276 22.5453 38.9185C22.3363 38.5004 21.9751 37.8732 21.462 37.0369C21.1199 36.5618 20.8538 36.0106 20.7018 35.4404C20.7018 35.1934 20.8538 34.9843 21.1009 34.9463C21.348 34.8513 21.633 34.7942 21.8991 34.7942C22.5073 34.7942 23.0965 35.0033 23.5716 35.3834C24.0658 35.7825 24.3509 36.3907 24.3129 37.0369C24.3129 37.322 24.2749 37.5881 24.1798 37.8542C24.0468 38.5194 23.6096 39.0896 22.9825 39.3746C22.2792 39.6407 21.538 39.7548 20.7968 39.7358H18.288C17.8889 39.7168 17.4898 39.7548 17.0906 39.8498C16.8626 39.8878 16.6535 40.0399 16.5395 40.2679C16.4064 40.553 16.3684 40.8761 16.3874 41.1992V48.7635C16.3684 49.1437 16.5015 49.5048 16.7865 49.7899C17.0336 50.0179 17.3757 50.151 17.7178 50.151C18.117 50.151 18.4971 50.0179 18.8202 49.7899C19.1243 49.5618 19.2953 49.2197 19.2953 48.8396L19.2383 44.1261C19.2003 43.727 19.3523 43.3469 19.6374 43.0618C19.9225 42.8527 20.2646 42.7197 20.6067 42.7197C20.9678 42.7007 21.2909 42.6817 21.538 42.6817C22.6974 42.5866 23.7997 42.2255 24.788 41.6173C25.5863 41.0852 26.2325 40.3439 26.6506 39.4697C27.0307 38.6714 27.2398 37.7782 27.2398 36.8849C27.2968 35.8206 26.9737 34.7752 26.3275 33.939C25.8143 33.3118 25.2061 32.7796 24.5029 32.3615C23.7997 32.0004 23.0395 31.7913 22.2412 31.7913H18.7251C18.117 31.7533 17.5088 31.9814 17.0526 32.3805C16.6345 32.7416 16.4064 33.2548 16.4254 33.8059C16.4254 34.2241 16.5395 34.6232 16.7485 34.9843L19.2003 39.2036H20.1316V39.1656ZM17.3757 38.4624L15.4371 35.1553C15.152 34.6802 15 34.11 15 33.5589C15 32.7416 15.3041 31.9624 15.8743 31.3732C16.5775 30.708 17.5088 30.3849 18.4781 30.4609H22.6784C23.7997 30.4419 24.902 30.765 25.8523 31.3732C26.7456 31.9814 27.4868 32.7986 27.962 33.7869C28.4371 34.7752 28.6842 35.8776 28.6842 36.9799C28.6842 38.0062 28.4751 39.0325 28.038 39.9638C27.6009 40.9141 26.9167 41.7314 26.0614 42.3396L28.8363 46.8249C29.2354 47.4331 29.4635 48.1363 29.4825 48.8586C29.5015 49.5998 29.1784 50.322 28.5892 50.7782C28.019 51.2533 27.2778 51.5194 26.5366 51.5004C25.6243 51.5764 24.75 51.1013 24.2749 50.303C22.1652 46.8059 20.9868 44.7913 20.6827 44.2782V48.6495C20.7208 49.4287 20.3977 50.189 19.8085 50.7021C19.2193 51.1773 18.4781 51.4434 17.7368 51.4434C17.0526 51.4624 16.3874 51.2343 15.8553 50.7972C15.3231 50.341 15.019 49.6758 15.057 48.9726V41.0662C15.038 40.42 15.2281 39.7738 15.5892 39.2226C16.0073 38.6714 16.6915 38.3863 17.3757 38.4624ZM35.1842 50.227H42.7485C43.1857 50.246 43.5848 50.0749 43.8699 49.7518C44.155 49.4668 44.307 49.0676 44.307 48.6685C44.307 48.2694 44.155 47.8893 43.8699 47.6042C43.5468 47.3001 43.1097 47.129 42.6725 47.167H38.0921C37.1798 47.167 36.7237 46.8249 36.7237 46.1217V43.3089C36.7237 42.4916 37.1228 42.0735 37.902 42.0735H41.4181C42.4254 42.0545 43.2237 41.2562 43.2617 40.2489C43.2237 39.6407 42.9196 39.0706 42.4254 38.7094L37.807 34.7752H41.7412C42.2734 34.8132 42.8246 34.6422 43.2427 34.3001C43.5848 34.034 43.7749 33.6159 43.7939 33.1787C43.7939 32.7986 43.6418 32.4375 43.3377 32.1904C42.9766 31.8863 42.5015 31.7533 42.0453 31.7723H35.0322C34.481 31.7343 33.9298 31.8863 33.4927 32.2094C33.1506 32.4565 32.9605 32.8746 32.9795 33.2928C33.0366 34.034 33.3977 34.7182 34.0058 35.1553L38.5673 38.9945H35.1272C34.7091 38.9755 34.3099 39.1656 34.0439 39.4887C33.8158 39.7928 33.6637 40.1729 33.6447 40.553V48.3074C33.6257 48.7635 33.7018 49.2387 33.9108 49.6568C34.1009 50.0369 34.519 50.227 35.1842 50.227ZM34.8801 37.5881L32.5994 35.5735C31.9532 35.0033 31.5731 34.1861 31.6111 33.3118C31.6111 32.8176 31.7251 32.3425 31.9532 31.9053C32.1813 31.4682 32.5424 31.1071 32.9795 30.86C33.4927 30.5749 34.0629 30.4419 34.652 30.4609H42.3494C43.1096 30.4229 43.8509 30.727 44.364 31.2782C44.8772 31.7913 45.1433 32.4945 45.1243 33.2358C45.1243 34.015 44.8012 34.7562 44.212 35.2694C43.4708 35.8776 42.5015 36.1817 41.5512 36.1056L43.8889 38.2723C44.4401 38.8045 44.7251 39.5267 44.7061 40.2869C44.7251 41.0472 44.4401 41.7884 43.9269 42.3586C43.3757 42.9668 42.5775 43.2899 41.7602 43.2518H38.1491V45.8746L43.0716 45.9317C43.7749 45.9127 44.4591 46.2168 44.9152 46.7489C45.3713 47.3001 45.6184 47.9843 45.5994 48.7065C45.6564 50.189 44.4971 51.4244 43.0146 51.4814H34.9371C33.2266 51.4814 32.3523 50.5501 32.3523 48.6685V40.477C32.3523 39.8118 32.5614 39.1656 32.9605 38.6144C33.3977 38.0062 34.1199 37.6261 34.8801 37.5881ZM55.4254 39.6787L55.0833 41.1992H55.9196L55.4254 39.6787ZM60.386 45.0574C60.2149 44.9814 60.0058 44.9624 59.8158 44.9624C59.2266 44.9244 58.6564 45.2855 58.4664 45.8556C57.5921 45.3235 56.7939 44.7913 56.0906 44.2782H61.1082C61.8304 44.3162 62.4386 43.765 62.4766 43.0428C62.4766 43.0048 62.4766 42.9477 62.4766 42.9097C62.4766 42.5866 62.3626 42.2635 62.1535 41.9975C61.9064 41.7314 61.5643 41.5983 61.2222 41.6363H52.2515C51.8713 41.6363 51.4912 41.8074 51.2632 42.1115C50.9971 42.3966 50.826 42.7577 50.807 43.1568C50.807 43.613 51.0731 44.0501 51.4722 44.2591L59.8158 49.9229C60.1009 50.132 60.462 50.246 60.8041 50.265C61.2222 50.265 61.6404 50.0749 61.8874 49.7328C62.1155 49.4858 62.2675 49.1627 62.3246 48.8206C62.2105 48.0603 62.0205 47.3381 61.7544 46.6159C61.4883 45.8366 61.2412 45.4185 60.9751 45.3805L60.386 45.0574ZM60.2149 41.1992L57.6301 33.1407C57.4971 32.7226 57.231 32.3805 56.8509 32.1714C56.4708 31.9244 56.0336 31.8103 55.5775 31.8103C55.1404 31.8103 54.7222 31.9434 54.3611 32.1714C53.981 32.4375 53.7149 32.8176 53.5819 33.2548L48.5833 47.9273C48.4693 48.2124 48.4313 48.4975 48.4313 48.8015C48.4123 49.2197 48.5643 49.6378 48.8874 49.9039C49.1725 50.17 49.5336 50.303 49.9328 50.303C50.2558 50.303 50.5599 50.208 50.826 50.0369C51.0921 49.8659 51.2822 49.5808 51.3772 49.2767L52.5936 45.7226C52.5366 45.6846 52.4795 45.6276 52.4225 45.5896C52.3845 45.5515 52.3275 45.5135 52.2705 45.4945L51.8523 45.2094L51.0921 44.6013C50.598 44.2591 50.2939 43.708 50.3129 43.0998C50.3129 42.5866 50.4839 42.1115 50.826 41.7314C51.1681 41.3322 51.6623 41.1232 52.1944 41.1422H54.095L55.5775 36.9229L56.8509 41.1422L60.2149 41.1992ZM47.348 47.6422L52.4795 32.6086C52.7076 31.9434 53.1637 31.3922 53.7529 31.0311C54.3611 30.651 55.0643 30.4609 55.7866 30.4609C56.4518 30.4609 57.098 30.651 57.6491 31.0311C58.2193 31.4302 58.6184 32.0004 58.7895 32.6846L61.2982 40.458C61.9444 40.439 62.5526 40.7051 62.9898 41.1992C63.4269 41.6553 63.655 42.2825 63.655 42.9097C63.655 43.746 63.2368 44.5252 62.5336 44.9624L63.5599 47.9653C63.617 48.1934 63.655 48.4404 63.655 48.6875C63.655 49.1817 63.5029 49.6568 63.2368 50.0749C62.9708 50.5121 62.5906 50.8542 62.1345 51.1013C61.6974 51.3293 61.2222 51.4814 60.7281 51.5004C60.2719 51.5194 59.8348 51.3863 59.4737 51.1393L53.5439 47.148L52.5746 49.6378C52.3845 50.189 52.0044 50.6451 51.5102 50.9302C50.4079 51.6144 48.9825 51.5194 47.9751 50.6641C47.424 50.208 47.1009 49.5048 47.1389 48.7825C47.1579 48.3834 47.2149 48.0223 47.348 47.6422ZM67.4371 33.6159V48.3834C67.4181 48.8586 67.5132 49.3337 67.7412 49.7518C67.9313 50.0749 68.4254 50.246 69.1857 50.246H74.3933C74.8304 50.265 75.2485 50.1129 75.5336 49.7899C75.8187 49.5048 75.9708 49.1056 75.9518 48.7065C75.9708 47.9653 75.4006 47.3381 74.6594 47.3001H71.5804C71.1053 47.3001 70.8012 47.167 70.6681 46.882C70.5351 46.6539 70.4591 46.4068 70.4591 46.1407V33.5589C70.4781 33.0647 70.326 32.5896 70.0219 32.2094C69.7558 31.9053 69.3757 31.7343 68.9766 31.7343C68.5585 31.7343 68.1784 31.9053 67.8933 32.2094C67.5702 32.6086 67.4181 33.1027 67.4371 33.6159ZM66.1067 33.8059C66.0877 33.1787 66.2398 32.5515 66.5249 31.9814C66.7529 31.5062 67.133 31.1261 67.5892 30.86C68.6725 30.2328 70.0599 30.4039 70.9342 31.3162C71.5234 31.9244 71.8085 32.7606 71.7515 33.6159V45.4185C71.7515 45.8556 71.9985 46.0647 72.4357 46.0647H74.2982C75.8187 45.9507 77.1301 47.091 77.2442 48.6115C77.2442 48.6875 77.2442 48.7825 77.2442 48.8586C77.2632 49.5428 77.0161 50.227 76.5599 50.7401C76.0468 51.2913 75.3246 51.5764 74.5833 51.5194H68.8626C68.0833 51.5384 67.3421 51.2153 66.848 50.6071C66.3728 50.0369 66.1067 49.3147 66.1067 48.5735V33.8059ZM80.4942 33.5589V48.1173C80.4561 48.6685 80.6272 49.2197 80.9503 49.6758C81.1974 50.0179 81.5965 50.227 82.0336 50.246C82.4708 50.246 82.8699 50.0369 83.136 49.7138C83.4781 49.3337 83.6491 48.8206 83.6111 48.3074V33.5589C83.6491 33.0457 83.4781 32.5515 83.155 32.1714C82.8699 31.8673 82.4898 31.6963 82.0716 31.6963C81.6535 31.6963 81.2354 31.8673 80.9693 32.1904C80.6462 32.5706 80.4752 33.0647 80.4942 33.5589ZM79.2588 33.4638C79.2208 32.6466 79.5249 31.8483 80.133 31.2782C80.6842 30.765 81.4064 30.4799 82.1667 30.4799C82.8889 30.4609 83.5731 30.746 84.0863 31.2401C84.6374 31.8103 84.9415 32.5896 84.8845 33.3878V48.3454C84.9035 48.9536 84.7705 49.5618 84.4854 50.0939C84.2573 50.5501 83.8962 50.9302 83.4591 51.1773C83.0599 51.4244 82.5848 51.5384 82.1096 51.5384C81.3494 51.5384 80.6082 51.2343 80.095 50.6641C79.5059 50.0369 79.1827 49.1817 79.2208 48.3264V33.4638H79.2588ZM94.0643 42.7577C93.5512 43.3279 93.2661 44.0311 93.2471 44.7913C93.2281 45.2475 93.4561 45.6846 93.8553 45.9127C94.6535 46.3688 95.6228 46.3498 96.383 45.8746C96.7442 45.6086 96.9532 45.1904 96.9342 44.7533C96.9152 44.2211 96.6111 43.746 96.136 43.5179C95.4708 43.1758 94.7675 42.9287 94.0643 42.7577ZM93.7792 41.0472C93.7792 41.1612 93.8553 41.2562 93.9503 41.2942C94.5585 41.5033 95.0336 41.6553 95.3567 41.7694C95.7178 41.9024 96.098 42.0735 96.4401 42.2445C96.8392 42.4536 97.2003 42.7197 97.5234 43.0238C97.8275 43.3089 98.0175 43.67 98.1126 44.0691C98.1506 44.2782 98.1696 44.5062 98.1696 44.7153C98.2076 45.4945 97.8465 46.2358 97.2193 46.6919C96.6301 47.167 95.9079 47.4521 95.1667 47.4901C94.3684 47.4901 93.5702 47.2811 92.867 46.882C92.1828 46.5208 91.7646 45.8176 91.8026 45.0384C91.8216 44.5062 91.9547 43.9741 92.2018 43.4989C92.3348 43.2138 92.4868 42.9668 92.6769 42.7197C92.867 42.4726 93.019 42.2065 93.133 41.9214C93.2091 41.7314 93.2471 41.5223 93.2471 41.3132C93.2471 41.0091 93.1521 40.7241 92.962 40.496C92.7719 40.2679 92.4868 40.1349 92.1828 40.1539C91.6696 40.1919 91.1564 40.382 90.7573 40.6861C90.0921 41.1422 89.5599 41.7884 89.2178 42.5296C88.8757 43.2708 88.7047 44.0881 88.7047 44.9053C88.7047 45.7796 88.8757 46.6349 89.2559 47.4141C89.5789 48.1363 90.1111 48.7445 90.7763 49.1627C91.9547 49.9039 93.3041 50.284 94.6915 50.284C95.6988 50.284 96.6871 50.0749 97.6184 49.6568C98.5117 49.2577 99.2909 48.6685 99.9181 47.9273C100.507 47.2051 100.925 46.3498 101.096 45.4375C101.154 45.0764 101.192 44.7153 101.192 44.3542C101.192 42.0735 100.051 40.477 97.7325 39.5837C97.4094 39.4507 97.0102 39.2986 96.5351 39.1466C96.117 39.0135 95.7178 38.8615 95.3187 38.6904C94.9766 38.5384 94.6345 38.3673 94.3304 38.1773C93.6082 37.8352 93.1711 37.113 93.1901 36.3147C93.1901 35.8396 93.3801 35.3644 93.7602 35.0603C94.2354 34.6802 94.8246 34.5091 95.4328 34.5472C96.174 34.6992 96.8772 34.9653 97.5424 35.3264C97.6944 35.3834 97.8655 35.4214 98.0175 35.4214C98.4167 35.4214 98.7968 35.2694 99.1009 35.0033C99.405 34.7752 99.595 34.4141 99.595 34.034C99.595 33.4638 99.1769 32.9317 98.3596 32.4565C97.4854 31.9624 96.4971 31.6963 95.5088 31.7153C94.5395 31.7153 93.5702 31.9434 92.6959 32.3615C91.8406 32.7796 91.1564 33.4448 90.7193 34.2811C90.3772 34.9653 90.1871 35.7065 90.2061 36.4668C90.1871 37.6831 90.7193 38.8615 91.6506 39.6217C91.7076 39.6787 91.7836 39.7168 91.8596 39.7168C92.3728 39.6217 92.905 39.7548 93.3421 40.0779C93.5512 40.3249 93.7412 40.667 93.7792 41.0472ZM90.0161 39.7548C89.2939 38.8045 88.8947 37.6451 88.8757 36.4477C88.8947 35.3264 89.2368 34.2241 89.864 33.2928C90.4532 32.3615 91.3085 31.6203 92.3348 31.1831C93.3801 30.708 94.5205 30.4609 95.6798 30.4609C96.174 30.4609 96.6681 30.4989 97.1623 30.5939C98.2266 30.784 99.1959 31.2591 99.9942 31.9814C100.564 32.4755 100.906 33.1977 100.925 33.958C100.925 34.6422 100.64 35.2884 100.127 35.7255C99.576 36.2197 98.8538 36.4858 98.1126 36.4668C97.3523 36.4477 96.6111 36.2387 95.9459 35.8586C95.7368 35.7255 95.4898 35.6685 95.2237 35.6875C94.7295 35.7065 94.4825 35.9346 94.4825 36.2957C94.5015 36.6188 94.6915 36.9039 94.9766 37.0559C95.3947 37.341 95.8509 37.5691 96.326 37.7211C96.8772 37.9112 97.4284 38.1393 98.0366 38.3673C98.5687 38.5574 99.0819 38.8045 99.576 39.1086C100.526 39.6217 101.306 40.401 101.838 41.3703C102.313 42.2635 102.56 43.2708 102.56 44.2972C102.56 45.2284 102.389 46.1597 102.047 47.034C101.724 47.8703 101.249 48.6115 100.621 49.2387C99.8611 49.9989 98.9678 50.5881 97.9605 50.9682C96.9532 51.3483 95.8699 51.5574 94.8056 51.5574C93.3041 51.5764 91.8216 51.2153 90.5102 50.4741C89.3319 49.8659 88.4006 48.8586 87.9254 47.6232C87.6404 46.8249 87.4883 45.9887 87.4883 45.1524C87.4123 43.0428 88.3626 41.0472 90.0161 39.7548ZM108.49 39.2036V48.6115C108.471 49.0486 108.661 49.4668 108.984 49.7518C109.307 50.0369 109.725 50.189 110.162 50.189C110.523 50.189 110.885 50.0559 111.151 49.7899C111.436 49.4858 111.588 49.0676 111.569 48.6495V38.0062C111.588 37.6071 111.455 37.227 111.208 36.9229C110.846 36.5428 110.447 36.2007 110.01 35.8776C109.573 35.5735 109.174 35.2124 108.832 34.7942H114.439C114.876 34.8132 115.313 34.6612 115.655 34.3761C115.94 34.11 116.092 33.7489 116.092 33.3878C116.092 32.9507 115.902 32.5515 115.579 32.2855C115.18 31.9434 114.667 31.7723 114.154 31.8103H105.449C105.088 31.8293 104.727 32.0004 104.499 32.2855C104.213 32.5896 104.042 32.9887 104.061 33.4068C104.08 34.034 104.385 34.6042 104.898 34.9653C105.297 35.2884 105.696 35.6115 106.114 35.9536C106.551 36.2957 106.874 36.5808 107.159 36.7899C107.444 37.0369 107.73 37.284 107.977 37.5691C108.338 38.0442 108.528 38.6144 108.49 39.2036ZM107.235 48.6115V40.2109C107.254 39.6977 107.178 39.2036 107.026 38.7094C106.741 38.2343 106.38 37.8162 105.924 37.4931C105.639 37.284 105.411 37.0749 105.24 36.9609C105.069 36.8469 104.822 36.6378 104.499 36.3527C104.175 36.0866 103.947 35.8776 103.776 35.7255C103.624 35.5735 103.472 35.4024 103.339 35.2314C102.921 34.6802 102.712 33.996 102.731 33.3118C102.712 32.5706 102.959 31.8483 103.453 31.2972C103.985 30.708 104.765 30.4039 105.563 30.4419H114.268C114.876 30.4229 115.465 30.5749 115.978 30.879C116.434 31.1451 116.814 31.5252 117.061 31.9814C117.308 32.4185 117.423 32.9127 117.423 33.4068C117.442 34.129 117.175 34.8132 116.681 35.3264C116.149 35.8776 115.389 36.1817 114.629 36.1246H112.253C112.519 36.2577 112.709 36.5048 112.766 36.7899C112.861 37.284 112.899 37.7782 112.88 38.2723V48.7445C112.918 49.4858 112.652 50.227 112.12 50.7591C111.626 51.2343 110.942 51.4814 110.257 51.4434C109.231 51.4624 108.262 50.9492 107.673 50.0939C107.349 49.6758 107.197 49.1437 107.235 48.6115ZM120.711 33.5589V48.1173C120.673 48.6685 120.844 49.2197 121.167 49.6758C121.414 50.0179 121.813 50.227 122.25 50.246C122.687 50.246 123.086 50.0369 123.352 49.7138C123.675 49.3147 123.846 48.8206 123.827 48.3074V33.5589C123.865 33.0457 123.694 32.5515 123.371 32.1714C123.086 31.8673 122.706 31.6963 122.288 31.6963C121.87 31.6963 121.452 31.8673 121.186 32.1904C120.863 32.5706 120.692 33.0647 120.711 33.5589ZM119.475 33.4638C119.437 32.6466 119.741 31.8483 120.349 31.2782C120.901 30.765 121.623 30.4799 122.383 30.4799C123.105 30.4799 123.789 30.746 124.303 31.2401C124.854 31.8103 125.158 32.5896 125.101 33.3878V48.3454C125.12 48.9536 124.987 49.5618 124.702 50.0939C124.474 50.5501 124.113 50.9302 123.675 51.1773C123.276 51.4244 122.801 51.5384 122.326 51.5384C121.566 51.5384 120.825 51.2343 120.311 50.6641C119.722 50.0369 119.399 49.1817 119.437 48.3264L119.475 33.4638ZM141.408 46.4448C140.382 46.996 139.222 47.2811 138.044 47.2811C136.961 47.2811 135.877 46.996 134.946 46.4448C133.083 45.3425 131.924 43.3469 131.867 41.1802C131.886 38.8995 133.064 36.7899 134.984 35.5925C135.972 34.9843 137.094 34.6612 138.253 34.6612C139.507 34.6992 140.743 35.0223 141.845 35.6305C142.358 35.9156 142.985 35.8015 143.366 35.3454C143.613 35.0603 143.727 34.7182 143.727 34.3571C143.727 33.5399 143.251 32.9507 142.282 32.5515C141.009 32.0194 139.64 31.7533 138.253 31.7533C136.961 31.7533 135.687 32.0194 134.509 32.5325C133.368 33.0267 132.342 33.7679 131.506 34.6802C130.67 35.5925 129.985 36.6378 129.51 37.7782C129.035 38.9375 128.788 40.1729 128.788 41.4273C128.807 42.6437 129.092 43.822 129.605 44.9244C130.118 45.9887 130.841 46.958 131.734 47.7562C132.608 48.5545 133.635 49.2007 134.737 49.6378C135.801 50.0749 136.961 50.303 138.12 50.303C139.773 50.322 141.389 49.8279 142.738 48.8776C143.213 48.6115 143.518 48.0983 143.537 47.5472C143.537 47.186 143.385 46.8439 143.137 46.5969C142.871 46.3308 142.51 46.1977 142.149 46.1977C141.902 46.2358 141.636 46.3118 141.408 46.4448ZM143.575 49.8089C141.94 50.9302 140.001 51.5194 138.025 51.5004C136.694 51.5004 135.364 51.2343 134.129 50.7211C132.893 50.208 131.753 49.4667 130.765 48.5355C129.795 47.6232 128.997 46.5399 128.427 45.3425C127.857 44.1831 127.553 42.9097 127.534 41.6173C127.515 39.6787 128.009 37.7591 128.959 36.0676C129.871 34.3761 131.221 32.9697 132.855 31.9814C134.471 30.9931 136.333 30.4609 138.234 30.4609C139.811 30.4799 141.351 30.822 142.776 31.4492C143.442 31.7153 144.031 32.1524 144.449 32.7226C144.791 33.2168 144.981 33.8059 144.981 34.4141C144.981 35.0603 144.753 35.7065 144.316 36.1817C143.879 36.6758 143.251 36.9609 142.586 36.9419C142.054 36.9419 141.541 36.8089 141.066 36.5428C140.211 36.1056 139.26 35.8586 138.291 35.8206C137.341 35.8015 136.409 36.0676 135.63 36.5998C134.851 37.0939 134.224 37.7782 133.787 38.5954C133.368 39.3366 133.14 40.1919 133.14 41.0472C133.14 41.9024 133.368 42.7387 133.806 43.4799C134.262 44.2401 134.889 44.8673 135.649 45.3235C136.428 45.7796 137.322 46.0267 138.234 46.0077C139.222 46.0077 140.211 45.7416 141.066 45.2475C141.484 45.0004 141.959 44.8673 142.434 44.8483C143.099 44.8293 143.727 45.1334 144.145 45.6466C144.582 46.1597 144.829 46.8059 144.81 47.4901C144.848 48.4784 144.373 49.3337 143.575 49.8089Z" fill="#D11172"/>
</g>
<defs>
<clipPath id="clip0_7703_924">
<rect width="130" height="21.1155" fill="white" transform="translate(15 30.4423)"/>
</clipPath>
</defs>
</svg>
