<svg width="160" height="80" fill="none" xmlns="http://www.w3.org/2000/svg">
<rect width="160" height="80" rx="40" fill="#312359"/>
<path fill-rule="evenodd" clip-rule="evenodd" d="M21.3604 39.7979L38.9679 35.3061L40.9443 30.5L21.3604 35.6206V39.7979ZM35.8686 42.6276L21.3604 44.6489V40.6064L37.6204 38.3156L35.8686 42.6276ZM33.1287 49.5H21.3604V45.4574H34.8355L33.1287 49.5ZM53.3864 41.909H49.5235V44.1099H56.9349V47.3889H45.7505V33.5544H56.9349V33.5993L55.5425 36.7884H49.5235V38.8995H54.689L53.3864 41.909ZM97.7647 34.857C96.7316 34.0036 95.3392 33.5544 93.5874 33.5544H87.6583V47.344H91.4763V43.3913H93.3628C95.1595 43.3913 96.5519 42.9421 97.6749 42.0887C98.7529 41.2352 99.2919 39.9776 99.2919 38.4054C99.3368 36.9232 98.7978 35.7104 97.7647 34.857ZM94.89 39.9326C94.4857 40.2471 93.9467 40.4267 93.273 40.4267H91.4763V36.7884H93.273C93.9917 36.7884 94.5307 36.9232 94.89 37.2376C95.2943 37.552 95.4739 38.0012 95.4739 38.5851C95.4739 39.169 95.2943 39.6182 94.89 39.9326ZM100.639 33.5544H104.457V44.0201H110.521L109.129 47.3889H100.639V33.5544ZM117.079 33.4645L112.138 45.143L111.195 47.344H112.498H115.238L116.226 44.8735H121.526L122.514 47.344H126.602L120.717 33.4196H117.079V33.4645ZM117.304 41.909L118.876 38.0012L120.403 41.909H117.304ZM131.497 38.5851L134.372 33.5544H138.639L133.384 42.1336V47.3889H129.566V42.1785L124.311 33.5544H128.668L131.497 38.5851ZM68.254 33.5544L65.1098 42.3132L61.9656 33.5544H57.6984L63.3131 47.4787H66.8615L72.4762 33.5544H68.254ZM71.7576 40.5166C71.7576 36.5638 74.9916 33.3298 78.9443 33.3298C82.8971 33.3298 86.0862 36.5189 86.1311 40.5166C86.1311 44.4693 82.8971 47.7033 78.9443 47.7033C74.9916 47.7033 71.7576 44.4693 71.7576 40.5166ZM75.1713 40.4716C75.1713 42.5378 76.8781 44.2447 78.9443 44.2447C81.0105 44.2447 82.7174 42.5378 82.7174 40.4716C82.7174 38.4055 81.0105 36.6986 78.9443 36.6986C76.8781 36.6986 75.1713 38.4055 75.1713 40.4716Z" fill="white"/>
</svg>
