<svg width="160" height="80" fill="none" xmlns="http://www.w3.org/2000/svg">
<rect width="160" height="80" rx="40" fill="#312359"/>
<path d="M37.0607 33.5257C38.0975 32.7697 38.8881 31.7467 39.3528 30.585C37.723 29.6487 35.7152 29.3921 33.801 30.0579C33.7247 30.0822 33.6554 30.1203 33.5826 30.1481C33.0832 28.7228 32.029 27.471 30.9124 26.5C29.7958 27.4675 28.7312 28.7228 28.2319 30.1481C28.1591 30.1203 28.0897 30.0857 28.0134 30.0579C26.0993 29.3921 24.0915 29.6487 22.4616 30.585C22.9263 31.7467 23.717 32.7732 24.7538 33.5257C21.7057 34.9544 20.3013 37.7113 20.3013 40.2081C20.3013 43.2632 22.4825 46.1241 25.1699 49.2277C27.4967 51.9152 28.1417 53.5 30.909 53.5C33.6762 53.5 34.3177 51.9152 36.648 49.2277C39.3355 46.1241 41.5167 43.2632 41.5167 40.2081C41.5167 37.7113 40.1122 34.9544 37.0641 33.5257H37.0607Z" fill="#FF3F13"/>
<path d="M35.6911 38.724C34.6265 37.6594 32.6257 37.2537 30.9057 38.3183V32.2948L26.2382 37.8814C24.4662 39.6534 24.8199 41.8242 26.1203 43.1246C27.1849 44.1892 29.1857 44.595 30.9057 43.5304V49.5539L35.5732 43.9673C37.3487 42.1953 36.9915 40.0244 35.6911 38.724Z" fill="white"/>
<path d="M46.6582 46.2353V42.9895C47.1957 43.4646 47.9378 43.853 48.881 44.1894C49.8242 44.5257 50.7154 44.6818 51.5477 44.6818C52.8619 44.6818 53.5312 44.3627 53.5312 43.7108C53.5312 43.3398 53.3266 43.1802 53.0318 42.986C52.8827 42.8612 52.4215 42.7398 52.1996 42.667L51.031 42.3306L50.0878 42.0671L49.2347 41.7481C48.8637 41.6059 48.5862 41.4845 48.3817 41.3597C48.0106 41.0961 47.4003 40.673 47.1229 40.2292C46.8801 39.7888 46.6582 39.1368 46.6582 38.4121C46.6582 36.0297 48.6417 34.7085 51.7523 34.7085C53.3266 34.7085 54.79 35.0449 56.1424 35.7315V38.7831C55.5667 38.4467 54.8836 38.1659 54.086 37.937C53.2884 37.7081 52.529 37.5833 51.7904 37.5833C50.6599 37.5833 50.0843 37.8468 50.0843 38.3947C50.0843 38.6236 50.2334 38.8005 50.6218 38.96L51.2148 39.1542C51.6031 39.279 52.4562 39.4905 52.9937 39.6466C54.2351 40.035 55.2165 40.5274 55.9204 41.11C56.6244 41.6926 56.9746 42.5214 56.9746 43.579C56.9746 44.7962 56.4753 45.7499 55.4939 46.4711C54.5125 47.1959 53.233 47.5462 51.6794 47.5462C49.6786 47.5462 48.0106 47.1058 46.6582 46.2215V46.2353Z" fill="white"/>
<path d="M58.6133 47.3104V34.9617H61.9492V44.5223H68.1737V47.3104H58.6133Z" fill="white"/>
<path d="M75.4349 47.5563C73.4722 47.5563 71.8424 46.9391 70.5455 45.6872C69.2486 44.4354 68.6001 42.9165 68.6001 41.134C68.6001 39.3516 69.2486 37.8362 70.5455 36.5843C71.8424 35.3325 73.4722 34.7152 75.4349 34.7152C77.3977 34.7152 79.0275 35.3325 80.3244 36.5843C81.6213 37.8362 82.2698 39.3551 82.2698 41.134C82.2698 42.913 81.6213 44.4319 80.3244 45.6872C79.0275 46.9391 77.3977 47.5563 75.4349 47.5563ZM75.4349 44.6295C76.4163 44.6295 77.2139 44.2932 77.8623 43.6412C78.5108 42.9893 78.8437 42.1432 78.8437 41.1375C78.8437 40.1319 78.5108 39.2857 77.8623 38.6338C77.2139 37.9818 76.4163 37.6455 75.4349 37.6455C74.4536 37.6455 73.6387 37.9818 72.9902 38.6338C72.3417 39.2857 72.0262 40.1319 72.0262 41.1375C72.0262 42.1432 72.3417 42.9893 72.9902 43.6412C73.6387 44.2932 74.4536 44.6295 75.4349 44.6295Z" fill="white"/>
<path d="M86.6369 47.3104V37.7497H82.7461V34.9617H93.8809V37.7497H89.9728V47.3104H86.6369Z" fill="white"/>
<path d="M101.178 47.5563C99.2154 47.5563 97.5856 46.9391 96.2886 45.6872C94.9917 44.4354 94.3433 42.9165 94.3433 41.134C94.3433 39.3516 94.9917 37.8362 96.2886 36.5843C97.5856 35.3325 99.2154 34.7152 101.178 34.7152C103.141 34.7152 104.771 35.3325 106.068 36.5843C107.364 37.8362 108.013 39.3551 108.013 41.134C108.013 42.913 107.364 44.4319 106.068 45.6872C104.771 46.9391 103.141 47.5563 101.178 47.5563ZM101.178 44.6295C102.159 44.6295 102.957 44.2932 103.605 43.6412C104.254 42.9893 104.587 42.1432 104.587 41.1375C104.587 40.1319 104.254 39.2857 103.605 38.6338C102.957 37.9818 102.159 37.6455 101.178 37.6455C100.197 37.6455 99.3818 37.9818 98.7334 38.6338C98.0849 39.2857 97.7694 40.1319 97.7694 41.1375C97.7694 42.1432 98.0849 42.9893 98.7334 43.6412C99.3818 44.2932 100.197 44.6295 101.178 44.6295Z" fill="white"/>
<path d="M109.696 47.3104V34.9617H115.477C116.923 34.9617 118.071 35.3154 118.924 36.0367C119.777 36.7614 120.203 37.6769 120.203 38.8248C120.203 39.9726 119.777 40.9054 118.924 41.6302C118.071 42.3549 116.923 42.7052 115.477 42.7052H113.032V47.3104H109.696ZM113.032 40.094H115.238C116.202 40.094 116.829 39.6362 116.829 38.8594C116.829 38.0827 116.219 37.6423 115.238 37.6423H113.032V40.094Z" fill="white"/>
<path d="M121.328 47.3104V34.9617H124.664V47.3104H121.328Z" fill="white"/>
<path d="M125.599 47.3102L131.047 34.8921H134.251L139.699 47.3102H136.124L135.031 44.6989H130.215L129.122 47.3102H125.603H125.599ZM131.269 42.1605H133.974L132.621 38.8627L131.269 42.1605Z" fill="white"/>
</svg>
