<svg xmlns="http://www.w3.org/2000/svg" width="160" height="80" fill="none"><rect width="160" height="80" fill="#312359" rx="40"/><g clip-path="url(#a)"><path fill="#fff" d="M138.465 35.207h2.516v9.187h5.335v2.302h-7.851zm-4.613 11.489h2.516v-11.49h-2.516zm-10.953-1.746a7.27 7.27 0 0 0 4.857 1.834c2.468 0 4.204-1.278 4.204-3.56v-.03c0-1.999-1.307-2.838-3.628-3.442-1.98-.507-2.468-.751-2.468-1.512v-.03c0-.555.507-1.004 1.473-1.004.965 0 1.96.43 2.975 1.132l1.306-1.902c-1.16-.937-2.584-1.463-4.252-1.463s-4.008 1.375-4.008 3.462v.03c0 2.282 1.482 2.925 3.794 3.51 1.911.488 2.301.82 2.301 1.463v.03c0 .673-.624 1.082-1.648 1.082s-2.39-.546-3.414-1.394l-1.482 1.785m-.517 1.794-4.906-11.567h-2.321l-4.906 11.567h2.565l3.463-8.534 1.502 3.706h-2.019l-.898 2.224h3.814l1.053 2.604h2.653M92.274 35.207c3.6 0 6.076 2.477 6.076 5.715v.03c0 3.228-2.486 5.744-6.076 5.744h-3.93v-11.49zm3.453 5.744c0-2.038-1.385-3.462-3.453-3.462H90.86v6.925h1.414c2.058 0 3.453-1.395 3.453-3.433zm-13.001-.234v1.98h1.19v1.22c-.634.458-1.453.692-2.37.692-2.029 0-3.462-1.541-3.462-3.648v-.03c0-1.95 1.453-3.578 3.286-3.578 1.834 0 2.107.429 2.995 1.16l1.59-1.921c-1.19-1.014-2.439-1.58-4.497-1.58-3.462 0-5.998 2.672-5.998 5.94v.029c0 3.394 2.448 5.91 6.018 5.91s3.706-.82 4.886-1.824v-4.36h-3.618zm-12.562 0v1.98h1.19v1.22c-.634.458-1.453.692-2.37.692-2.029 0-3.462-1.541-3.462-3.648v-.03c0-1.95 1.453-3.578 3.286-3.578 1.834 0 2.107.429 2.995 1.16l1.59-1.921c-1.19-1.014-2.439-1.58-4.497-1.58-3.462 0-5.998 2.672-5.998 5.94v.029c0 3.394 2.448 5.91 6.018 5.91s3.706-.82 4.886-1.824v-4.36h-3.619zm-13.918 5.979h2.517V42.99l4.398-7.783h-2.857l-2.78 5.11-2.73-5.11h-2.946l4.398 7.832zm50.443-4.106c1.454-.546 2.449-1.707 2.449-3.56V39c0-1.082-.342-1.989-.986-2.623-.751-.75-1.882-1.16-3.335-1.16H99.97v11.489h2.516v-9.217h2.126c1.229 0 1.98.556 1.98 1.639v.029c0 .965-.702 1.629-1.931 1.629h-1.239v2.233h.663l2.448 3.677h2.946l-2.799-4.106z"/><path fill="#F26739" d="M45.762 42.931a15.7 15.7 0 0 1-.693 3.765c-6.066-.36-11.48-3.101-15.351-7.295-3.863 4.194-9.285 6.934-15.342 7.295a16 16 0 0 1-.692-3.765 18.8 18.8 0 0 0 5.803-1.13 16.6 16.6 0 0 0-5.52-3.034 15.8 15.8 0 0 1 1.18-3.609 20.3 20.3 0 0 1 7.997 4.828 18.8 18.8 0 0 0 3.687-3.062 16.73 16.73 0 0 1-9.51-5.228 16.2 16.2 0 0 1 2.741-2.624 13 13 0 0 0 5.355 3.58 22.8 22.8 0 0 1-1.522-5.716c1.2-.448 2.448-.76 3.706-.936a18.8 18.8 0 0 0 2.117 6.905A18.8 18.8 0 0 0 31.834 26a15.6 15.6 0 0 1 3.706.956c-.263 2-.78 3.91-1.521 5.715a13 13 0 0 0 5.354-3.58c1.034.781 1.95 1.659 2.74 2.615a16.74 16.74 0 0 1-9.508 5.237 19.2 19.2 0 0 0 3.686 3.063 20.35 20.35 0 0 1 7.998-4.828c.536 1.15.926 2.37 1.18 3.608a16.6 16.6 0 0 0-5.52 3.034 19.1 19.1 0 0 0 5.803 1.13zM31.62 57.883v-5.394l5.452-7.1a23.5 23.5 0 0 1-3.375-1.833l-3.97 5.169-3.969-5.17a23.5 23.5 0 0 1-3.375 1.834l5.452 7.1v5.394c1.268.146 2.536.146 3.794 0z"/></g><defs><clipPath id="a"><path fill="#fff" d="M13.684 26h132.633v32H13.684z"/></clipPath></defs></svg>