<svg xmlns="http://www.w3.org/2000/svg" width="160" height="80" fill="none"><rect width="160" height="80" fill="#312359" rx="40"/><path fill="#EB2027" d="M33.742 51.981c.122-.178.2-.388.223-.602.021-.194.026-.39.24-.473.351-.138.717.054.988.272.138.112.674.773.674.773-.13-1.846-1.984-3.525-4.834-3.681a15 15 0 0 0-1.686 0c-2.85.157-4.705 1.835-4.834 3.681 0 0 .536-.66.674-.773.271-.22.637-.41.988-.272.213.084.219.277.24.473.023.214.1.424.223.602.298.432.828.583 1.31.715.48.131 1.017.187 1.496.02.184-.065.355-.165.49-.305.065-.067.19-.209.257-.209.068 0 .193.142.257.209.135.14.307.24.49.304.478.168 1.015.113 1.496-.02.479-.132 1.008-.282 1.308-.714"/><path fill="#EB2027" d="M43.74 40.61s-.123 1.697-.2 2.602c-.194 2.301-.678 4.584-2.356 6.259-.536.536-1.323.654-1.323.654.539-1.12 1.152-2.213 1.597-3.372.445-1.155.727-2.375 1.078-3.567 0 0-1.18.423-1.44.49.018-.227 1.223-4.715 1.223-4.717-.061.07-2.056 4.327-2.13 4.491a.18.18 0 0 0 .047.214c.835.704.557 1.988.203 2.406-.51.601-1.135 1.164-1.543 2.119-.166.389-.473 1.519-.473 1.519-.08-.029-.2-2.504.554-3.583.38-.544.383-2.017-.161-2.296-.561-.287-.64-.595-.266-1.128l-.011-.028c-1.73-.158-1.178-1.916-2.485-1.983.344-.244.755-.161 1.118.038.368.202.35.208.58.543.112.162.572.468.779.515 1.64.368 1.478-1.292 1.478-1.292-.828-.047-1.526-.379-1.58-.937.473-.038 1.044.075 1.384-.155.31-.211.538-.789.538-1.212-.85.384-.85.384-1.266.04 1.296-1.322 2.42-4.562 2.375-5.619.51.43.607.815.728 1.076.886-.359 1.561-.472 1.435-1.714l-.981.505a4 4 0 0 1 .2-.437c.128-.235.324-.39.504-.582.372-.4.78-.922.951-1.442.114-.343.183-.7.225-1.059.045-.368.1-.778.043-1.148-.095-.631-.579-1.236-1.343-1.112-.407.066-.769.266-1.14.426q-.625.27-1.263.507c-.422.156-.853.282-1.278.421-.468.155-2.636.307-3.113.363l1.835.292a.9.9 0 0 0 .393-.024c.425-.12 1.436-.406 1.83-.49.458-.1 1.695-.322 2.118.3-.259.531-1.144.895-1.231 1.029l-.013.019c.699-.193 1.011-.038 1.011-.038-.52.484-.776.946-1.09 1.609-.36.764-.529 1.815-.854 2.592-.289.691-.657 1.35-1.09 1.959-.461.648-1.001 1.109-1.625 1.47a11 11 0 0 0 1.5-2.129c1.07-2.02 1.134-4.238 1.303-4.93-.489.214-1.514.097-1.514.097s1.664-.768 2.144-1.02c-.254-.145-.481-.228-.701-.25-1.092-.112-1.502.231-2.209.332-.361.052-2.94-.83-3.465-.948l.046.004a63 63 0 0 0-1.287-.285q-.085-.019-.17-.036-.577-.088-1.156-.151a37 37 0 0 0-1.843-.116 4 4 0 0 0-.334 0c-.383.017-1.329.062-1.843.116q-.579.063-1.155.15-.087.02-.17.037-.647.134-1.288.285l.047-.004c-.526.117-3.103 1-3.466.948-.705-.1-1.116-.444-2.208-.332-.22.022-.448.105-.702.25.48.252 2.145 1.02 2.145 1.02s-1.026.117-1.515-.096c.168.692.233 2.91 1.303 4.93.332.625.908 1.49 1.5 2.127a5.04 5.04 0 0 1-1.624-1.47 10.2 10.2 0 0 1-1.09-1.958c-.326-.777-.494-1.83-.855-2.592-.314-.663-.572-1.125-1.09-1.609 0 0 .311-.156 1.012.038q-.007-.01-.013-.02c-.088-.134-.973-.497-1.232-1.029.423-.62 1.661-.4 2.12-.3.39.085 1.402.37 1.829.491a.9.9 0 0 0 .393.024l1.835-.292c-.478-.056-2.646-.21-3.113-.363-.426-.14-.856-.267-1.278-.421a26 26 0 0 1-1.264-.507c-.37-.16-.732-.36-1.14-.426-.764-.124-1.248.481-1.343 1.112-.056.37-.001.778.043 1.148.043.36.113.716.225 1.06.17.519.578 1.04.952 1.441.18.193.376.346.503.582q.114.212.2.437l-.98-.505c-.125 1.242.55 1.355 1.435 1.714.12-.261.218-.646.727-1.076-.044 1.057 1.08 4.297 2.375 5.618-.415.345-.415.345-1.266-.039 0 .423.23 1.001.539 1.212.34.23.91.117 1.383.155-.053.56-.752.89-1.58.937 0 0-.16 1.66 1.479 1.292.207-.047.666-.353.778-.515.23-.335.21-.341.58-.543.364-.2.775-.282 1.118-.038-1.306.067-.754 1.825-2.484 1.983l-.012.028c.375.533.297.842-.265 1.128-.544.279-.542 1.752-.162 2.296.755 1.077.634 3.554.555 3.583 0 0-.309-1.13-.474-1.52-.407-.953-1.033-1.517-1.542-2.118-.354-.418-.633-1.703.203-2.406a.18.18 0 0 0 .047-.214c-.074-.164-2.07-4.422-2.13-4.49 0 0 1.204 4.49 1.223 4.716-.26-.067-1.44-.49-1.44-.49.35 1.192.633 2.412 1.078 3.567.445 1.157 1.058 2.25 1.597 3.372 0 0-.788-.118-1.324-.654-1.677-1.675-2.161-3.958-2.355-6.259-.077-.906-.2-2.603-.2-2.603-.224.857-.496 1.487-.63 2.35-.196 1.277-.356 1.74-.049 3.49.028.16.156.674.246.815 1.142 1.784 3.586 5.308 3.586 5.308l.128-1.122 1.746 3.867c0-.849-.434-3.176.48-3.573.3-.13.723.184.73.591.006.462.004 1.494.004 1.494.677-.379.945-.583 1.282-.733.522-.232 1.54-.442 2.631-.157q-.017-.013-.044-.03a3.05 3.05 0 0 0-2.4-.411c-.157.038-.31.073-.457.092a.23.23 0 0 1-.255-.291 109 109 0 0 0 .588-2.094c.163-.629.084-1.224.008-1.856-.184-.603-.541-1.09-1.232-1.225-.24-.047-.285-.364-.319-.56a7 7 0 0 1-.12-.982 5.1 5.1 0 0 1 .426-2.275 4 4 0 0 1 .63-.984c.27-.308.587-.511.91-.752a1 1 0 0 0 .055-.048c.278-.245.274-.498.285-.84.024-.67.542-.93 1.148-1.065a1.5 1.5 0 0 0-.366.414c-.075.132-.075.782-.087.947-.045.646-.144.821-1.128 1.106l2.257 1.83c-1.237.297-1.764-.608-2.528-1.107.061 1.468 1.5 1.582 2.253 2.321-.039.073-1.396-.08-2.487-.46.483 1.019 1.33.844 2.036 1.115-.325.317-1.005.281-1.494.372-.175.033-.318-.014-.486.052.113.17.189.395.345.499.403.27.825.532 1.274.709.233.092.562.065.807-.022.986-.35 1.961-.73 3.014-1.13a.69.69 0 0 0 .442-.623c.01-.387.02-.812-.035-1.229-.028-.217-.33-.49-.565-.574-1.077-.381-2.24-1.172-2.571-1.9-.25-.549-.168-2.163-.176-2.409-.005-.168-.097-.829-.405-1.339-.171-.256-.448-.45-.633-.56-.346-.205-.742-.327-1.127-.447-1.652-.517-2.382-1.645-2.956-2.798-.137-.273-.312-.817-.434-1.264a.43.43 0 0 1 .331-.535c.102.274.142.471.279.764.225.486.546.763 1.16.767 1.371.009 2.69.24 3.439 1.66.177.334.398.672.665.972-.422-.32-.674-.79-1.27-1.374-.778-.761-1.745-.818-2.248-.822-.71-.007-1.073-.18-1.073-.18.242.45.656.501 1.35.588q.129.016.266.058c-.187.402-.161.899.144 1.239.304.338.827.446 1.208.173a.9.9 0 0 0 .293-.352q.256.243.509.526c.83.934 1.92.968 1.92.968s-.153-.81-.241-1.223c.636-.26.308-.653-.032-1.019-.462-.497-.93-.99-1.42-1.51.495-.14.857-.391 1.099-.607 0 0-1.156.246-2.216.165a.77.77 0 0 1-.465-.24l-.004-.006c.78-.142 1.946-.605 2.335-.832-1.364-.837-3.034-.4-4.16-.93.95-.052 1.68-.147 2.66-.411.834-.224 2.459-.89 2.44-.984h-3.522c1.106-.499 2.082-1.217 3.361-1.191.529.01 1.24.11 1.87.173.297.03.78.03 1.077 0 .63-.062 1.342-.163 1.87-.173 1.28-.026 2.255.692 3.362 1.19h-3.516c-.017.096 1.608.76 2.44.985.98.262 1.71.357 2.662.41-1.127.532-2.797.096-4.16.931.388.227 1.554.69 2.334.832l-.004.005a.76.76 0 0 1-.465.24c-1.06.082-2.215-.164-2.216-.164a2.8 2.8 0 0 0 1.099.607c-.49.52-.958 1.012-1.42 1.51-.34.366-.668.759-.032 1.019-.09.414-.24 1.223-.24 1.223s1.089-.035 1.92-.968a9 9 0 0 1 .508-.526c.063.14.164.26.293.352.381.273.904.165 1.208-.173.306-.341.332-.837.144-1.24a2 2 0 0 1 .267-.057c.694-.085 1.107-.138 1.35-.588 0 0-.364.173-1.074.18-.502.005-1.47.062-2.248.822-.596.583-.847 1.053-1.27 1.374.266-.3.488-.639.665-.973.75-1.419 2.07-1.649 3.438-1.66.615-.003.936-.28 1.161-.766.136-.291.176-.49.279-.764a.295.295 0 0 1 .38.353c-.119.47-.327 1.135-.482 1.446-.574 1.152-1.304 2.281-2.955 2.798-.385.12-.78.243-1.127.448-.184.109-.462.303-.634.56-.306.51-.4 1.17-.405 1.338-.006.246.076 1.86-.175 2.41-.332.727-1.494 1.518-2.572 1.9-.236.083-.536.355-.565.573-.056.417-.045.842-.035 1.229a.69.69 0 0 0 .443.623c1.051.402 2.027.782 3.014 1.13.246.087.575.114.807.022.449-.177.87-.439 1.274-.71.156-.105.233-.329.344-.498-.168-.066-.31-.02-.485-.052-.488-.091-1.17-.055-1.494-.372.705-.27 1.553-.096 2.034-1.115-1.092.38-2.448.532-2.487.46.754-.739 2.192-.853 2.253-2.321-.764.5-1.291 1.404-2.527 1.107l2.256-1.83c-.982-.285-1.081-.46-1.128-1.106-.012-.165-.012-.815-.087-.947a1.5 1.5 0 0 0-.366-.414c.606.135 1.124.395 1.148 1.064.012.343.006.598.285.841q.027.025.056.048c.322.242.639.445.91.752.257.295.468.629.63.984.322.71.453 1.505.425 2.275a7 7 0 0 1-.12.983c-.035.195-.08.513-.319.56-.69.135-1.047.621-1.232 1.224-.076.634-.155 1.229.008 1.856.112.43.427 1.53.588 2.094a.23.23 0 0 1-.255.291 5 5 0 0 1-.458-.092 3.05 3.05 0 0 0-2.401.412q-.026.017-.043.03c1.089-.285 2.11-.075 2.631.158.337.15.605.354 1.282.733 0 0-.003-1.033.004-1.495.006-.407.428-.72.73-.59.914.396.48 2.723.48 3.572.002-.001 1.609-3.563 1.745-3.866l.13 1.121c0-.001 2.443-3.524 3.585-5.308.09-.14.217-.656.246-.815.305-1.75.147-2.21-.05-3.49-.134-.863-.406-1.493-.63-2.35"/><path fill="#EB2027" d="M33.073 41.102c0-.426-.401-.624-.401-.624-.059.735-.8 1.052-2.469 1.08-1.67-.028-2.437-.345-2.496-1.08 0 0-.4.198-.4.624 0 .438.448.53.598.57.415.115 1.033.394 2.27.394s1.885-.279 2.3-.393c.15-.042.598-.133.598-.572M59.707 48.095h-4.593l-3.48-5.458h-.037v5.458h-3.69v-14.19h5.516q2.22 0 3.576 1.091 1.355 1.094 1.355 3.276 0 1.526-.819 2.634-.82 1.112-2.286 1.375zm-8.11-7.83h.356q.51 0 .95-.064.442-.066.809-.254a1.43 1.43 0 0 0 .584-.547q.215-.356.215-.903 0-.546-.215-.903a1.46 1.46 0 0 0-.584-.546 2.6 2.6 0 0 0-.809-.254 6.4 6.4 0 0 0-.95-.065h-.356zM64.393 37.03v2.37h4.16v3.125h-4.16v2.447h4.385v3.124h-8.073V33.906h8.073v3.124zM71.055 33.905h5.232q1.47 0 2.786.536a7.09 7.09 0 0 1 3.867 3.792A6.95 6.95 0 0 1 83.494 41q0 1.468-.564 2.767a7 7 0 0 1-1.562 2.267 7.3 7.3 0 0 1-2.314 1.515 7.2 7.2 0 0 1-2.767.546h-5.232zm3.691 11.066h.828q.845 0 1.58-.235.737-.235 1.3-.725t.883-1.252q.32-.762.32-1.76 0-1.86-1.11-2.916-1.11-1.053-2.937-1.054h-.864zM95.727 48.095H92.04V37.03H88.99v-3.124h9.787v3.124h-3.05zM103.803 48.095h-3.69v-14.19h3.69zM120.363 40.172q-.037 1.845-.31 3.124t-1.14 2.484q-1.016 1.41-2.521 2.1-1.506.686-3.331.686-1.657-.001-3.049-.536a7 7 0 0 1-2.409-1.534 6.7 6.7 0 0 1-1.563-2.38q-.547-1.384-.547-3.04 0-1.713.555-3.125t1.582-2.429a6.9 6.9 0 0 1 2.445-1.552q1.424-.536 3.116-.536 2.22 0 3.857.998 1.637.996 2.542 2.974l-3.501 1.468q-.396-1.055-1.187-1.656-.79-.602-1.882-.603-.865 0-1.561.377a3.44 3.44 0 0 0-1.168 1.025 4.9 4.9 0 0 0-.715 1.449 5.55 5.55 0 0 0 0 3.257q.246.8.725 1.44.48.64 1.186 1.005.707.367 1.589.367 1.243.001 2.051-.64.81-.64.923-1.826h-3.007v-2.897zM125.746 37.03v2.37h4.159v3.125h-4.159v2.447h4.384v3.124h-8.073V33.906h8.073v3.124zM144.209 48.095h-4.593l-3.481-5.458h-.037v5.458h-3.691v-14.19h5.516q2.22 0 3.576 1.091 1.355 1.094 1.355 3.276 0 1.526-.819 2.634-.819 1.112-2.286 1.375zm-8.111-7.83h.357q.51 0 .95-.064a2.6 2.6 0 0 0 .808-.254q.368-.187.584-.547.215-.356.215-.903 0-.546-.215-.903a1.45 1.45 0 0 0-.584-.546 2.6 2.6 0 0 0-.808-.254 6.4 6.4 0 0 0-.95-.065h-.357z"/></svg>