<svg width="100" height="100" viewBox="0 0 100 100" fill="none" xmlns="http://www.w3.org/2000/svg">
<g id="Background">
<path id="Vector" d="M50.0018 50.0018L0 51.9572V48.0428L50.0018 50.0018Z" fill="url(#paint0_radial_2414_12256)"/>
<path id="Vector_2" d="M100 48.0428V51.9572L50.002 50.0018L100 48.0428Z" fill="url(#paint1_radial_2414_12256)"/>
<path id="Vector_3" d="M50.0021 50.0016L4.5548 70.9447L3.05762 67.3242L50.0021 50.0016Z" fill="url(#paint2_radial_2414_12256)"/>
<path id="Vector_4" d="M95.4458 29.0586L96.9465 32.6756L50.002 50.0017L95.4458 29.0586Z" fill="url(#paint3_radial_2414_12256)"/>
<path id="Vector_5" d="M50.0023 50.0016L16.0287 86.7421L13.2617 83.9716L50.0023 50.0016Z" fill="url(#paint4_radial_2414_12256)"/>
<path id="Vector_6" d="M83.972 13.2614L86.7425 16.0283L50.002 50.0019L83.972 13.2614Z" fill="url(#paint5_radial_2414_12256)"/>
<path id="Vector_7" d="M50.0017 50.0016L32.6756 96.9461L29.0586 95.4454L50.0017 50.0016Z" fill="url(#paint6_radial_2414_12256)"/>
<path id="Vector_8" d="M67.3245 3.05713L70.9451 4.55432L50.002 50.0016L67.3245 3.05713Z" fill="url(#paint7_radial_2414_12256)"/>
<path id="Vector_9" d="M50.0019 50.0016L51.9573 99.9999H48.043L50.0019 50.0016Z" fill="url(#paint8_radial_2414_12256)"/>
<path id="Vector_10" d="M48.043 0H51.9573L50.0019 50.0018L48.043 0Z" fill="url(#paint9_radial_2414_12256)"/>
<path id="Vector_11" d="M50.002 50.0016L70.9451 95.4454L67.3245 96.9461L50.002 50.0016Z" fill="url(#paint10_radial_2414_12256)"/>
<path id="Vector_12" d="M29.0586 4.55432L32.6756 3.05713L50.0017 50.0016L29.0586 4.55432Z" fill="url(#paint11_radial_2414_12256)"/>
<path id="Vector_13" d="M50.002 50.0016L86.7425 83.9716L83.972 86.7421L50.002 50.0016Z" fill="url(#paint12_radial_2414_12256)"/>
<path id="Vector_14" d="M13.2617 16.0283L16.0287 13.2614L50.0023 50.0019L13.2617 16.0283Z" fill="url(#paint13_radial_2414_12256)"/>
<path id="Vector_15" d="M50.002 50.0016L96.9465 67.3242L95.4458 70.9447L50.002 50.0016Z" fill="url(#paint14_radial_2414_12256)"/>
<path id="Vector_16" d="M3.05762 32.6756L4.5548 29.0586L50.0021 50.0017L3.05762 32.6756Z" fill="url(#paint15_radial_2414_12256)"/>
<path id="Vector_17" d="M50.0018 50.0016L1.34323 61.6747L0.577148 57.8338L50.0018 50.0016Z" fill="url(#paint16_radial_2414_12256)"/>
<path id="Vector_18" d="M98.657 38.3253L99.4231 42.1662L50.002 50.002L98.657 38.3253Z" fill="url(#paint17_radial_2414_12256)"/>
<path id="Vector_19" d="M50.0017 50.0016L9.51469 79.4066L7.33887 76.1499L50.0017 50.0016Z" fill="url(#paint18_radial_2414_12256)"/>
<path id="Vector_20" d="M90.4855 20.5933L92.6613 23.85L50.002 50.0018L90.4855 20.5933Z" fill="url(#paint19_radial_2414_12256)"/>
<path id="Vector_21" d="M50.0013 50.0016L23.8495 92.6609L20.5928 90.4851L50.0013 50.0016Z" fill="url(#paint20_radial_2414_12256)"/>
<path id="Vector_22" d="M76.1503 7.33887L79.407 9.51468L50.002 50.0017L76.1503 7.33887Z" fill="url(#paint21_radial_2414_12256)"/>
<path id="Vector_23" d="M50.0019 50.0016L42.1661 99.4227L38.3252 98.6566L50.0019 50.0016Z" fill="url(#paint22_radial_2414_12256)"/>
<path id="Vector_24" d="M57.8342 0.577148L61.6751 1.34323L50.002 50.0018L57.8342 0.577148Z" fill="url(#paint23_radial_2414_12256)"/>
<path id="Vector_25" d="M50.002 50.0016L61.6751 98.6566L57.8342 99.4227L50.002 50.0016Z" fill="url(#paint24_radial_2414_12256)"/>
<path id="Vector_26" d="M38.3252 1.34323L42.1661 0.577148L50.0019 50.0018L38.3252 1.34323Z" fill="url(#paint25_radial_2414_12256)"/>
<path id="Vector_27" d="M50.002 50.0016L79.407 90.4851L76.1503 92.6609L50.002 50.0016Z" fill="url(#paint26_radial_2414_12256)"/>
<path id="Vector_28" d="M20.5928 9.51468L23.8495 7.33887L50.0013 50.0017L20.5928 9.51468Z" fill="url(#paint27_radial_2414_12256)"/>
<path id="Vector_29" d="M50.002 50.0016L92.6613 76.1499L90.4855 79.4066L50.002 50.0016Z" fill="url(#paint28_radial_2414_12256)"/>
<path id="Vector_30" d="M7.33887 23.85L9.51469 20.5933L50.0017 50.0018L7.33887 23.85Z" fill="url(#paint29_radial_2414_12256)"/>
<path id="Vector_31" d="M50.002 50.0016L99.4231 57.8338L98.657 61.6747L50.002 50.0016Z" fill="url(#paint30_radial_2414_12256)"/>
<path id="Vector_32" d="M0.577148 42.1662L1.34323 38.3253L50.0018 50.002L0.577148 42.1662Z" fill="url(#paint31_radial_2414_12256)"/>
</g>
<defs>
<radialGradient id="paint0_radial_2414_12256" cx="0" cy="0" r="1" gradientUnits="userSpaceOnUse" gradientTransform="translate(25.0009 50) rotate(62.5577) scale(2.71257 27.336)">
<stop stop-color="#333333"/>
<stop offset="1" stop-color="#191919" stop-opacity="0"/>
</radialGradient>
<radialGradient id="paint1_radial_2414_12256" cx="0" cy="0" r="1" gradientUnits="userSpaceOnUse" gradientTransform="translate(75.0011 50) rotate(62.5593) scale(2.71253 27.3345)">
<stop stop-color="#333333"/>
<stop offset="1" stop-color="#191919" stop-opacity="0"/>
</radialGradient>
<radialGradient id="paint2_radial_2414_12256" cx="0" cy="0" r="1" gradientUnits="userSpaceOnUse" gradientTransform="translate(26.5299 60.4731) rotate(84.7934) scale(12.9334 28.7993)">
<stop stop-color="#333333"/>
<stop offset="1" stop-color="#191919" stop-opacity="0"/>
</radialGradient>
<radialGradient id="paint3_radial_2414_12256" cx="0" cy="0" r="1" gradientUnits="userSpaceOnUse" gradientTransform="translate(73.4742 39.5302) rotate(84.7934) scale(12.9334 28.7993)">
<stop stop-color="#333333"/>
<stop offset="1" stop-color="#191919" stop-opacity="0"/>
</radialGradient>
<radialGradient id="paint4_radial_2414_12256" cx="0" cy="0" r="1" gradientUnits="userSpaceOnUse" gradientTransform="translate(31.632 68.3719) rotate(87.6721) scale(22.6141 22.6141)">
<stop stop-color="#333333"/>
<stop offset="1" stop-color="#191919" stop-opacity="0"/>
</radialGradient>
<radialGradient id="paint5_radial_2414_12256" cx="0" cy="0" r="1" gradientUnits="userSpaceOnUse" gradientTransform="translate(68.3722 31.6316) rotate(87.6721) scale(22.6141 22.6141)">
<stop stop-color="#333333"/>
<stop offset="1" stop-color="#191919" stop-opacity="0"/>
</radialGradient>
<radialGradient id="paint6_radial_2414_12256" cx="0" cy="0" r="1" gradientUnits="userSpaceOnUse" gradientTransform="translate(39.5302 73.4738) rotate(88.961) scale(28.8756 12.8992)">
<stop stop-color="#333333"/>
<stop offset="1" stop-color="#191919" stop-opacity="0"/>
</radialGradient>
<radialGradient id="paint7_radial_2414_12256" cx="0" cy="0" r="1" gradientUnits="userSpaceOnUse" gradientTransform="translate(60.4735 26.5294) rotate(88.961) scale(28.8756 12.8992)">
<stop stop-color="#333333"/>
<stop offset="1" stop-color="#191919" stop-opacity="0"/>
</radialGradient>
<radialGradient id="paint8_radial_2414_12256" cx="0" cy="0" r="1" gradientUnits="userSpaceOnUse" gradientTransform="translate(50.0002 75.0008) rotate(89.8176) scale(30.7491 2.41131)">
<stop stop-color="#333333"/>
<stop offset="1" stop-color="#191919" stop-opacity="0"/>
</radialGradient>
<radialGradient id="paint9_radial_2414_12256" cx="0" cy="0" r="1" gradientUnits="userSpaceOnUse" gradientTransform="translate(50.0002 25.0009) rotate(89.8177) scale(30.7513 2.41131)">
<stop stop-color="#333333"/>
<stop offset="1" stop-color="#191919" stop-opacity="0"/>
</radialGradient>
<radialGradient id="paint10_radial_2414_12256" cx="0" cy="0" r="1" gradientUnits="userSpaceOnUse" gradientTransform="translate(60.4735 73.4738) rotate(88.961) scale(28.8756 12.8992)">
<stop stop-color="#333333"/>
<stop offset="1" stop-color="#191919" stop-opacity="0"/>
</radialGradient>
<radialGradient id="paint11_radial_2414_12256" cx="0" cy="0" r="1" gradientUnits="userSpaceOnUse" gradientTransform="translate(39.5302 26.5294) rotate(88.961) scale(28.8756 12.8992)">
<stop stop-color="#333333"/>
<stop offset="1" stop-color="#191919" stop-opacity="0"/>
</radialGradient>
<radialGradient id="paint12_radial_2414_12256" cx="0" cy="0" r="1" gradientUnits="userSpaceOnUse" gradientTransform="translate(68.3722 68.3719) rotate(87.6721) scale(22.6141 22.6141)">
<stop stop-color="#333333"/>
<stop offset="1" stop-color="#191919" stop-opacity="0"/>
</radialGradient>
<radialGradient id="paint13_radial_2414_12256" cx="0" cy="0" r="1" gradientUnits="userSpaceOnUse" gradientTransform="translate(31.632 31.6316) rotate(87.6721) scale(22.6141 22.6141)">
<stop stop-color="#333333"/>
<stop offset="1" stop-color="#191919" stop-opacity="0"/>
</radialGradient>
<radialGradient id="paint14_radial_2414_12256" cx="0" cy="0" r="1" gradientUnits="userSpaceOnUse" gradientTransform="translate(73.4742 60.4731) rotate(84.7934) scale(12.9334 28.7993)">
<stop stop-color="#333333"/>
<stop offset="1" stop-color="#191919" stop-opacity="0"/>
</radialGradient>
<radialGradient id="paint15_radial_2414_12256" cx="0" cy="0" r="1" gradientUnits="userSpaceOnUse" gradientTransform="translate(26.5299 39.5302) rotate(84.7934) scale(12.9334 28.7993)">
<stop stop-color="#333333"/>
<stop offset="1" stop-color="#191919" stop-opacity="0"/>
</radialGradient>
<radialGradient id="paint16_radial_2414_12256" cx="0" cy="0" r="1" gradientUnits="userSpaceOnUse" gradientTransform="translate(25.2895 55.8382) rotate(80.2338) scale(7.28456 30.0052)">
<stop stop-color="#333333"/>
<stop offset="1" stop-color="#191919" stop-opacity="0"/>
</radialGradient>
<radialGradient id="paint17_radial_2414_12256" cx="0" cy="0" r="1" gradientUnits="userSpaceOnUse" gradientTransform="translate(74.7125 44.1636) rotate(80.2373) scale(7.28667 30.0034)">
<stop stop-color="#333333"/>
<stop offset="1" stop-color="#191919" stop-opacity="0"/>
</radialGradient>
<radialGradient id="paint18_radial_2414_12256" cx="0" cy="0" r="1" gradientUnits="userSpaceOnUse" gradientTransform="translate(28.6703 64.7041) rotate(86.6245) scale(18.1155 26.2354)">
<stop stop-color="#333333"/>
<stop offset="1" stop-color="#191919" stop-opacity="0"/>
</radialGradient>
<radialGradient id="paint19_radial_2414_12256" cx="0" cy="0" r="1" gradientUnits="userSpaceOnUse" gradientTransform="translate(71.3316 35.2975) rotate(86.6252) scale(18.1177 26.2333)">
<stop stop-color="#333333"/>
<stop offset="1" stop-color="#191919" stop-opacity="0"/>
</radialGradient>
<radialGradient id="paint20_radial_2414_12256" cx="0" cy="0" r="1" gradientUnits="userSpaceOnUse" gradientTransform="translate(35.297 71.3313) rotate(88.3947) scale(26.2458 18.109)">
<stop stop-color="#333333"/>
<stop offset="1" stop-color="#191919" stop-opacity="0"/>
</radialGradient>
<radialGradient id="paint21_radial_2414_12256" cx="0" cy="0" r="1" gradientUnits="userSpaceOnUse" gradientTransform="translate(64.7045 28.6703) rotate(88.395) scale(26.2479 18.1069)">
<stop stop-color="#333333"/>
<stop offset="1" stop-color="#191919" stop-opacity="0"/>
</radialGradient>
<radialGradient id="paint22_radial_2414_12256" cx="0" cy="0" r="1" gradientUnits="userSpaceOnUse" gradientTransform="translate(44.1635 74.7122) rotate(89.4497) scale(30.3954 7.19268)">
<stop stop-color="#333333"/>
<stop offset="1" stop-color="#191919" stop-opacity="0"/>
</radialGradient>
<radialGradient id="paint23_radial_2414_12256" cx="0" cy="0" r="1" gradientUnits="userSpaceOnUse" gradientTransform="translate(55.8385 25.2895) rotate(89.4499) scale(30.3975 7.19052)">
<stop stop-color="#333333"/>
<stop offset="1" stop-color="#191919" stop-opacity="0"/>
</radialGradient>
<radialGradient id="paint24_radial_2414_12256" cx="0" cy="0" r="1" gradientUnits="userSpaceOnUse" gradientTransform="translate(55.8385 74.7122) rotate(89.4499) scale(30.3954 7.19052)">
<stop stop-color="#333333"/>
<stop offset="1" stop-color="#191919" stop-opacity="0"/>
</radialGradient>
<radialGradient id="paint25_radial_2414_12256" cx="0" cy="0" r="1" gradientUnits="userSpaceOnUse" gradientTransform="translate(44.1635 25.2895) rotate(89.4497) scale(30.3975 7.19268)">
<stop stop-color="#333333"/>
<stop offset="1" stop-color="#191919" stop-opacity="0"/>
</radialGradient>
<radialGradient id="paint26_radial_2414_12256" cx="0" cy="0" r="1" gradientUnits="userSpaceOnUse" gradientTransform="translate(64.7045 71.3313) rotate(88.3949) scale(26.2458 18.1069)">
<stop stop-color="#333333"/>
<stop offset="1" stop-color="#191919" stop-opacity="0"/>
</radialGradient>
<radialGradient id="paint27_radial_2414_12256" cx="0" cy="0" r="1" gradientUnits="userSpaceOnUse" gradientTransform="translate(35.297 28.6703) rotate(88.3948) scale(26.2479 18.109)">
<stop stop-color="#333333"/>
<stop offset="1" stop-color="#191919" stop-opacity="0"/>
</radialGradient>
<radialGradient id="paint28_radial_2414_12256" cx="0" cy="0" r="1" gradientUnits="userSpaceOnUse" gradientTransform="translate(71.3316 64.7041) rotate(86.6248) scale(18.1155 26.2333)">
<stop stop-color="#333333"/>
<stop offset="1" stop-color="#191919" stop-opacity="0"/>
</radialGradient>
<radialGradient id="paint29_radial_2414_12256" cx="0" cy="0" r="1" gradientUnits="userSpaceOnUse" gradientTransform="translate(28.6703 35.2975) rotate(86.6249) scale(18.1177 26.2354)">
<stop stop-color="#333333"/>
<stop offset="1" stop-color="#191919" stop-opacity="0"/>
</radialGradient>
<radialGradient id="paint30_radial_2414_12256" cx="0" cy="0" r="1" gradientUnits="userSpaceOnUse" gradientTransform="translate(74.7125 55.8382) rotate(80.2344) scale(7.28454 30.0031)">
<stop stop-color="#333333"/>
<stop offset="1" stop-color="#191919" stop-opacity="0"/>
</radialGradient>
<radialGradient id="paint31_radial_2414_12256" cx="0" cy="0" r="1" gradientUnits="userSpaceOnUse" gradientTransform="translate(25.2895 44.1636) rotate(80.2366) scale(7.28668 30.0054)">
<stop stop-color="#333333"/>
<stop offset="1" stop-color="#191919" stop-opacity="0"/>
</radialGradient>
</defs>
</svg>
