<svg xmlns="http://www.w3.org/2000/svg" width="160" height="80" fill="none"><rect width="160" height="80" fill="#312359" rx="40"/><path fill="#D79AF3" d="M56.49 38.57c-.27-2.13-.93-4.2-1.94-6.09-5.18-1.11-9.6-4.45-12.09-9.13-1.23-.26-2.48-.4-3.74-.4-1.31 0-2.61.14-3.89.43a17.95 17.95 0 0 1-11.92 9.07c-.97 1.82-1.62 3.81-1.91 5.87 3.33 3.35 5.2 7.88 5.19 12.61 0 .85-.06 1.71-.18 2.55 1.47 1.48 3.18 2.69 5.06 3.57 4.85-2.3 10.48-2.3 15.33 0 1.99-.94 3.78-2.24 5.3-3.83a17.871 17.871 0 0 1 4.79-14.65M38.75 53.96c-7.25 0-13.13-5.87-13.13-13.12s5.87-13.13 13.12-13.13 13.13 5.87 13.13 13.12S46 53.95 38.75 53.96"/><path fill="#D79AF3" d="m36.21 47.4-2.19-6.17v-1.2h1.94v-4.21h-2.5V47.4h-1.98V34.14h5.26c.8 0 1.2.4 1.2 1.21v4.83c0 .79-.39 1.19-1.18 1.21h-.68l2.19 5.93v.07h-2.06zM44.83 47.4h-4.18c-.79 0-1.18-.4-1.18-1.21V35.36c0-.81.4-1.21 1.2-1.21h4.15c.81 0 1.21.4 1.22 1.2v2.82h-2v-2.34h-2.58v9.89h2.59v-3.73h-1.48V40.3h3.48v5.88c0 .82-.4 1.22-1.22 1.22M66.97 48.21l-2.94-8.29V38.3h2.61v-5.65h-3.36V48.2h-2.66V30.39h7.07c1.07 0 1.61.54 1.61 1.62v6.49c0 1.06-.53 1.6-1.58 1.62h-.92l2.94 7.98v.09zM71.37 48.21V30.39h7.32v2.35h-4.66v5.2h4.01v2.32h-4.01v5.59h4.73v2.35h-7.39zM86.04 48.24h-2.66l-3.41-17.79v-.05h2.68l1.98 12.22.07 1.52.07-1.52 2-12.22h2.65v.05zM99.52 47.79c-.32.3-.75.45-1.19.42h-5.78c-1.06 0-1.59-.54-1.58-1.62V32.02c0-1.08.53-1.62 1.58-1.62h5.78c.44-.03.87.12 1.19.42.3.33.45.77.42 1.21v14.55c.03.44-.12.88-.42 1.21m-2.24-15.14h-3.67v13.29h3.66zM102.08 48.21V30.39h2.66v15.44h4.34v2.38zM115.45 48.24h-2.66l-3.4-17.8v-.05h2.68l1.98 12.22.07 1.52.07-1.52 2.01-12.22h2.66v.05zM120.37 48.21V30.39h7.32v2.35h-4.66v5.2h4.01v2.32h-4.01v5.59h4.73v2.35h-7.39zM135.92 48.21l-2.94-8.29V38.3h2.62v-5.65h-3.36V48.2h-2.67V30.39h7.06c1.07 0 1.61.54 1.61 1.62v6.49q0 1.59-1.59 1.62h-.91l2.94 7.98v.09zM102.2 51.83h-3.33v3.09h3.33v-1.24h-1.72v-.54h2.41v1.36c0 .39-.07.65-.21.79s-.4.21-.79.21h-2.75c-.39 0-.64-.07-.79-.21s-.21-.4-.21-.79v-2.24c0-.39.07-.65.21-.79s.4-.21.79-.21h2.75c.27-.03.55.04.78.2.15.13.22.38.22.75v.11l-.71.14zM105.33 55.51l2.32-4.24h.76l2.37 4.24h-.79l-.54-1.04h-2.87l-.54 1.04zm1.54-1.59h2.28l-1.14-2.17zM113.95 52.02c.02.21.04.42.03.62v2.86h-.6v-4.24h.58l2.06 2.76 1.92-2.76h.66v4.24h-.66v-2.87l.03-.62c-.07.16-.16.32-.26.46l-1.62 2.36h-.18l-1.69-2.29c-.1-.16-.19-.33-.27-.52M122.04 55.51v-4.24h.7v4.24zM126.19 55.51v-4.24h.45l3.17 2.84c.18.16.34.34.49.53-.05-.35-.07-.69-.07-1.04v-2.32h.66v4.24h-.38l-3.26-2.95-.21-.19c-.09-.09-.17-.18-.23-.29.04.31.05.62.05.93v2.5zM138.29 51.83h-3.32v3.09h3.32v-1.24h-1.72v-.54H139v1.36c0 .39-.07.65-.21.79s-.4.21-.79.21h-2.75q-.57 0-.78-.21c-.14-.14-.21-.4-.21-.79v-2.24c0-.39.07-.65.21-.79q.21-.21.78-.21H138c.27-.03.55.04.78.2.17.21.25.48.22.75v.11l-.71.14z"/></svg>