<svg xmlns="http://www.w3.org/2000/svg" width="160" height="80" fill="none"><rect width="160" height="80" fill="#312359" rx="40"/><g clip-path="url(#a)"><path fill="#fff" d="M50.565 52.776q-.735 0-1.138.552t-.403 1.537q0 2.052 1.54 2.052.648 0 1.567-.323v1.09a4.4 4.4 0 0 1-1.688.314q-1.338 0-2.048-.812-.71-.811-.71-2.331 0-.957.348-1.677.349-.72 1.002-1.103.652-.385 1.53-.385c.584 0 1.194.144 1.795.433l-.42 1.058a7 7 0 0 0-.692-.286 2.1 2.1 0 0 0-.685-.122zM68.475 57.917v-6.134h1.302v6.134zM88.726 57.917h-1.301v-5.052h-1.666v-1.082h4.633v1.082h-1.666zM108.285 54.308l1.28-2.527h1.402l-2.035 3.747v2.388h-1.292V55.57l-2.036-3.79h1.409z"/><path fill="#FFFC00" d="M111.266 35.483h-1.432c-.263 0-.293 0-.321-.27a5.2 5.2 0 0 0-.437-1.645c-.569-1.227-1.543-1.9-2.868-2.052-.742-.086-1.481-.04-2.201.2-1.032.342-1.749 1.023-2.194 2.003-.211.463-.324.953-.392 1.453q-.01.08-.014.158-.008.142-.149.148l-.198.004h-2.786q-.1.001-.199-.004c-.094-.003-.142-.054-.156-.145-.03-.183-.055-.367-.097-.548-.144-.625-.37-1.217-.736-1.749-.669-.975-1.603-1.481-2.778-1.544a5.2 5.2 0 0 0-1.502.116c-1.267.308-2.13 1.084-2.625 2.278-.174.417-.29.852-.337 1.305-.03.287-.035.29-.347.29H86.87q-.16.002-.319 0c-.17-.007-.205-.04-.187-.223a7 7 0 0 1 .08-.59c.223-1.282.648-2.488 1.371-3.576 1.069-1.608 2.566-2.573 4.458-2.933a9 9 0 0 1 1.78-.157c1.474.012 2.781.484 3.93 1.404.531.425.99.92 1.41 1.455q.108.143.22.281c.05.063.11.07.164.005q.129-.15.253-.306a9 9 0 0 1 1.467-1.452 6.54 6.54 0 0 1 3.946-1.386 8 8 0 0 1 2.703.386c1.472.486 2.597 1.414 3.427 2.707.669 1.04 1.07 2.186 1.295 3.396.044.235.072.472.099.708.031.277.028.278-.268.282h-1.4329999999999998zM43.116 36.427c.505 0 1.008-.003 1.513 0 .183 0 .212.031.215.205.005.278-.009.558 0 .836.025.632.116 1.21.347 1.781.417 1.028 1.077 1.852 2.057 2.398.6.335 1.248.527 1.926.593.808.078 1.616.06 2.413-.136 1.866-.458 3.048-1.632 3.622-3.446.116-.369.147-.69.162-1.136-.012-.304-.003-.61.002-.915.002-.138.036-.177.156-.177q1.573-.005 3.144 0c.122 0 .153.038.157.178.028 1.024.004 2.04-.272 3.04-.311 1.123-.774 2.171-1.488 3.1-.944 1.226-2.169 2.051-3.635 2.528-.953.31-1.934.453-2.934.48-1.04.028-2.067-.05-3.078-.305-2.532-.64-4.287-2.181-5.32-4.563a8.9 8.9 0 0 1-.714-2.722c-.048-.526-.015-1.06-.018-1.59 0-.098.058-.146.148-.148q.36-.004.716-.004h.875zM55.414 35.466c-.07-.103-.079-.21-.1-.312q-.494-2.395-2.774-3.273a6 6 0 0 0-1.903-.382c-.866-.04-1.724 0-2.563.242-1.098.319-1.992.917-2.605 1.9a4.5 4.5 0 0 0-.606 1.63c-.034.198-.045.21-.217.21q-1.533.006-3.064 0c-.185 0-.22-.04-.193-.21.04-.249.082-.497.136-.744.267-1.206.742-2.322 1.474-3.32 1.025-1.399 2.39-2.312 4.047-2.8a10.3 10.3 0 0 1 2.469-.393c1.133-.051 2.253.033 3.355.316 1.46.375 2.733 1.076 3.766 2.187.864.93 1.45 2.02 1.834 3.224q.187.587.292 1.197.03.176.042.355c.01.148-.025.187-.18.189q-.636.004-1.273.003H55.68c-.092 0-.183-.011-.267-.016zM27.422 28.086c.954 0 1.909.014 2.864-.005a6.6 6.6 0 0 1 1.884.247c1.124.308 2.17.78 3.093 1.502 1.322 1.034 2.117 2.387 2.425 4.03.068.364.095.736.137 1.104q.015.14.013.279c0 .212-.02.232-.22.24q-.058.002-.118 0h-2.784q-.1 0-.199-.003c-.094-.003-.15-.051-.15-.147 0-.267-.034-.528-.083-.79a3.84 3.84 0 0 0-.692-1.633c-.56-.754-1.337-1.147-2.237-1.329a5 5 0 0 0-.949-.095h-2.905q-.099 0-.198.008c-.078.006-.116.056-.119.131a7 7 0 0 0-.006.319v3.183c0 .36-.002.358-.346.356h-2.784q-.12 0-.238-.01c-.057-.007-.096-.044-.101-.104a4 4 0 0 1-.011-.278q-.002-3.303-.002-6.605c0-.433-.012-.4.422-.4h3.304M68.118 45.76H63.26q-.18.001-.358-.005c-.075-.001-.125-.042-.13-.118a4 4 0 0 1-.007-.278V36.88c0-.492-.044-.452.447-.453H65.8q.139-.002.278.006c.074.003.125.04.13.119q.01.2.01.397v4.856c0 .507-.05.475.468.475h6.408c.493 0 .452-.036.452.45v2.588c0 .106 0 .213-.008.317-.005.077-.053.117-.13.12q-.178.005-.357.005h-4.937zM130.513 28.003h5.295q.18 0 .358.006c.077.003.124.046.13.12q.01.12.008.24v2.747c0 .08.001.16-.006.239-.008.073-.052.122-.129.125a7 7 0 0 1-.318.006h-3.185c-.35 0-.351.003-.353.349q-.002 1.572 0 3.145c0 .106.002.213-.003.319-.006.151-.033.18-.195.181a281 281 0 0 1-3.105-.002q-.145 0-.157-.14a7 7 0 0 1-.009-.358v-2.947q.002-.139 0-.278c-.008-.252-.019-.269-.277-.269-1.087-.003-2.176 0-3.264-.003-.659-.003-.57.083-.573-.566-.005-.823 0-1.645 0-2.469q-.002-.159.006-.318c.005-.075.05-.12.127-.124q.179-.006.357-.006h5.296zM117.256 41.102v-4.337c0-.347-.028-.35.347-.35h2.786q.099-.001.198.004c.096.008.139.064.141.158 0 .08.005.16.005.24v8.633c-.007.304-.007.307-.313.307q-1.432.002-2.864 0l-.119-.001c-.148-.01-.172-.035-.178-.199-.003-.106 0-.212 0-.319v-4.137zM109.529 41.074v-4.297c0-.372-.031-.363.375-.361h2.705q.139 0 .278.01a.11.11 0 0 1 .103.102q.013.179.013.358V45.4q.002.1-.004.2c-.009.121-.043.15-.179.159q-.08.003-.16.001h-2.784q-.12 0-.238-.01c-.059-.004-.098-.041-.101-.1a6 6 0 0 1-.01-.359v-4.217zM101.404 41.102v4.257c0 .415.021.401-.379.401H98.28c-.08 0-.16 0-.237-.009a.11.11 0 0 1-.104-.102 2 2 0 0 1-.01-.237v-8.594c0-.397-.029-.403.38-.403h2.746q.12-.002.238.009c.059.005.098.044.101.102q.009.178.008.357v4.218zM78.077 41.102v-4.377c.006-.303.006-.307.313-.309.954-.003 1.91 0 2.865 0q.08-.002.16.006c.095.008.137.064.139.158l.003.199v8.754c-.008.2-.026.224-.236.224-1.008.003-2.016 0-3.023 0h-.04c-.146-.01-.173-.036-.178-.198-.004-.106-.001-.213-.001-.319V41.1zM27.148 45.58c-.083.06-.178.05-.27.05H24.01q-.08.002-.159-.006c-.09-.006-.15-.047-.152-.145l-.003-.278V36.96q0-.18.003-.358c.007-.148.036-.175.196-.184q.099-.004.198-.003h2.668q.139 0 .278.009c.075.005.123.044.126.123q.007.16.007.32v8.36c0 .12.02.24-.029.352zM37.84 41.159v4.372999999999999c-.007.203-.026.225-.235.227-1.008.003-2.014 0-3.022 0a1 1 0 0 1-.119-.011c-.06-.01-.092-.052-.095-.108a4 4 0 0 1-.01-.278V36.89c.005-.345.005-.348.353-.348h2.783l.16.001c.144.008.173.04.181.2.005.12.003.24.003.358zM86.348 41.1v-4.18q0-.178.008-.357c.003-.075.044-.122.12-.128q.1-.008.199-.008h2.786q.08 0 .16.003c.132.008.166.038.174.161q.007.139.006.278v8.52q.001.12-.006.238c-.006.074-.047.122-.125.127a3 3 0 0 1-.16.006h-2.9450000000000003c-.19-.008-.21-.025-.218-.2-.005-.106-.002-.212-.002-.319v-4.14zM132.313 41.14v4.22c0 .42.019.4-.378.4h-2.707a6 6 0 0 1-.239-.006c-.078-.005-.12-.053-.125-.127q-.007-.139-.006-.278 0-4.22.002-8.44c0-.54-.052-.479.498-.48.836-.004 1.672 0 2.508 0q.16-.001.319.007c.076.005.117.053.12.129q.008.178.008.357v4.22zM120.733 31.755v3.225c0 .092.003.186 0 .278-.008.197-.03.224-.238.224a953 953 0 0 1-3.025 0c-.18 0-.205-.03-.213-.208-.003-.08 0-.16 0-.24v-6.567q-.002-.139.004-.278c.007-.153.032-.175.195-.184h3.064c.185 0 .206.026.214.207.005.093.002.186.002.279v3.264zM78.077 31.744v-3.385c0-.359 0-.356.347-.356h2.788q.12-.001.237.013c.058.006.096.045.1.104a4 4 0 0 1 .01.278v6.69c0 .406.015.397-.388.395h-2.708q-.139 0-.278-.01c-.061-.005-.095-.05-.099-.105a6 6 0 0 1-.009-.318v-3.3059999999999996M66.219 31.743v3.383c0 .353-.003.356-.343.357q-1.391.002-2.786 0-.098 0-.198-.008c-.08-.004-.117-.057-.12-.13-.007-.107-.005-.213-.005-.32V28.46c0-.499-.04-.457.442-.458h2.627q.12-.001.239.004c.098.003.139.063.14.154q.005.159.004.318v3.2649999999999997"/></g><defs><clipPath id="a"><path fill="#fff" d="M23.696 28h112.607v30H23.696z"/></clipPath></defs></svg>