<svg xmlns="http://www.w3.org/2000/svg" width="160" height="80" fill="none"><rect width="160" height="80" fill="#312359" rx="40"/><path fill="#D79AF3" fill-rule="evenodd" d="m36.424 23.377-15.52 29.275L40.765 31.88l9.127 11.243-10.259 9.737-6.243-5.423 6.6 10.194 11.099-13.035 7.573 9.33-5.164-12.159 9.176-10.776-9.802 9.303-9.313-21.925zM71.05 42.011h1.908l-.87-1.501-3.997-6.912-3.994 6.912-.874 1.501h1.911l.87-1.501 2.087-3.607 2.086 3.607zm8.127-6.912.87-1.501H78.14l-.874 1.501-2.086 3.607-2.086-3.607-.87-1.501h-1.91l.873 1.501 3.993 6.912zm7.987 6.912h-1.908l-.873-1.501-2.086-3.607-2.086 3.607-.874 1.501H77.43l.873-1.501 3.994-6.912 3.993 6.912zm7.649-6.9V33.61h-9.53v1.501h3.91v6.912H90.9v-6.912zm7.88 6.9h-1.911l-.87-1.501-2.086-3.607-2.086 3.607-.874 1.501H92.96l.87-1.501 3.997-6.912 3.993 6.912zm9.901.012-.874-1.501-1.352-2.387q.383-.034.737-.18a2.29 2.29 0 0 0 1.501-2.074 2.17 2.17 0 0 0-.749-1.611 2.74 2.74 0 0 0-1.816-.66h-6.026v8.413h1.706v-3.87h1.702a1.75 1.75 0 0 1 1.447.722l.042.071.891 1.576.892 1.501zm-2.208-5.446a.9.9 0 0 1-.357.074l-4.32.012V35.11h4.32a.93.93 0 0 1 .615.216.72.72 0 0 1 .245.702.73.73 0 0 1-.503.548m15.847-2.953v6.516c0 1.06-.785 1.91-1.727 1.91h-7.592c-.954 0-1.723-.85-1.723-1.91v-6.516h.695v6.516a1.096 1.096 0 0 0 1.028 1.14h7.592a1.096 1.096 0 0 0 1.028-1.14v-6.516zm12.863 8.411-4.927-4.205 4.927-4.206h-1.129l-4.362 3.723-4.347-3.723h-1.144l4.926 4.206-4.926 4.205h1.144l4.347-3.723 4.362 3.723z" clip-rule="evenodd"/></svg>