<svg xmlns="http://www.w3.org/2000/svg" width="24" height="24" fill="none"><path stroke="#C1AFF0" stroke-linecap="round" stroke-linejoin="round" stroke-width="1.5" d="M4 7.208C4 4.802 4.026 4 7.208 4s3.209.802 3.209 3.208.01 3.209-3.209 3.209S4 9.615 4 7.208M14.083 7.208c0-2.406.026-3.208 3.209-3.208 3.182 0 3.208.802 3.208 3.208s.01 3.209-3.208 3.209-3.209-.802-3.209-3.209M4 17.292c0-2.407.026-3.209 3.208-3.209s3.209.802 3.209 3.209.01 3.208-3.209 3.208S4 19.698 4 17.292M14.083 17.292c0-2.407.026-3.209 3.209-3.209 3.182 0 3.208.802 3.208 3.209s.01 3.208-3.208 3.208-3.209-.802-3.209-3.208" clip-rule="evenodd"/></svg>