<svg xmlns="http://www.w3.org/2000/svg" width="160" height="80" fill="none"><rect width="160" height="80" fill="#312359" rx="40"/><path fill="#fff" d="M84.024 40.724v7.785c0 3.491-1.583 4.91-5.257 5.62l-.2-1.545c2.693-.62 3.839-1.565 3.839-3.639V48.6c-.636.782-1.602 1.347-2.91 1.347-2.675 0-3.658-2.42-3.658-4.73s.983-4.729 3.657-4.729c1.31 0 2.275.581 2.91 1.363v-1.127zm-1.618 6.13v-3.236c-.51-.928-1.274-1.564-2.474-1.564-1.855 0-2.455 1.545-2.455 3.182s.6 3.201 2.438 3.201c1.219 0 1.982-.673 2.492-1.582zM88.354 41.506c.709-.527 1.838-1.018 3.437-1.018 2.183 0 3.728.91 3.728 3.747v6.111h-1.601v-.692c-.8.527-1.783.818-2.837.818-1.928 0-3.457-.983-3.457-3.092s1.546-3.22 3.674-3.22c.855 0 1.765.182 2.528.51v-.328c0-1.71-.855-2.219-2.237-2.219-1.018 0-1.838.272-2.547.764l-.692-1.382zm5.475 6.967v-2.674a6.5 6.5 0 0 0-2.11-.364c-1.381 0-2.454.564-2.454 1.855s.983 1.746 2.201 1.746c.764 0 1.656-.201 2.365-.565zM101.269 40.724v1.146c.673-.91 1.637-1.382 2.874-1.382 1.309 0 2.329.527 2.819 1.746.692-1.146 1.746-1.746 3.128-1.746 1.873 0 3.165 1.073 3.165 3.766v6.092h-1.727v-5.91c0-1.673-.782-2.31-1.982-2.31-.964 0-1.727.417-2.237 1.655v6.565h-1.727v-5.91c0-1.673-.782-2.31-1.966-2.31-.945 0-1.764.417-2.255 1.636v6.584h-1.728v-9.622zM118.639 46.127c.201 2 1.347 2.892 2.62 2.892.945 0 1.673-.492 2.11-1.127l1.146 1c-.527.727-1.602 1.69-3.329 1.69-2.292 0-4.165-1.71-4.165-5.093s1.691-5.001 4.056-5.001 4.075 1.783 4.075 5.001c0 .237-.019.437-.036.636h-6.475zm0-1.292h4.893c-.201-1.838-1.146-2.783-2.438-2.783s-2.273 1-2.455 2.783M134.956 43.252c-.636-.673-1.71-1.219-2.946-1.219s-1.801.527-1.801 1.182c0 .491.31.782.82 1 .855.363 2.256.58 3.328 1.11.983.49 1.456 1.127 1.456 2.237 0 2.256-1.928 3.019-3.839 3.019-1.765 0-3.165-.655-3.874-1.364l.673-1.455c.692.655 1.873 1.22 3.182 1.22 1.238 0 2.147-.492 2.147-1.42 0-.527-.309-.837-1.037-1.127-1.037-.419-2.383-.655-3.201-1.056-.819-.4-1.363-1.073-1.363-2.128 0-1.765 1.528-2.765 3.583-2.765 1.638 0 2.856.638 3.511 1.274l-.638 1.49z"/><path fill="url(#a)" d="M74.563 29.048c-3.874 2.608-5.613-1.846-5.613-1.846-3.698-7.05 1.871-9.21 1.871-9.21-.627-.097-2.604-.38-4.743 1.635-2.058 1.938-3.034 2.094-4.335 2-3.656-.273-5.065-3.955-3.604-6.646 1.536-2.822 5.633-2.82 7.768-2.916 3.218-.143 4.915-1.676 4.915-1.676s-2.663 1.044-5.64.12c-3.694-1.15-5.12-1.113-6.754-1.052-5.25.2-9.132 3.695-10.628 4.708s-1.865 1.448-4.31 2.77a171 171 0 0 0-3.784 2.138c.335-1.206 1.068-2.826 2.952-4.509.83-.743 1.46-1.4 1.46-1.4-4.357 1.436-8.97 5.096-11.358 8.653-1.185 1.764-1.608 2.696-2.186 3.49-.694.952-1.49 1.771-2.183 2.403-.469.429-.982.805-1.533 1.12l-2.756 1.59v26.756L47.31 70.554 70.52 57.176V46.143q-.001-.866.092-1.726c.443-4.037 1.363-5.433 1.63-5.968 2.98-5.96 2.317-9.398 2.317-9.398zm-5.737 27.148-21.514 12.4-21.513-12.4V31.399L47.312 19l21.514 12.4z"/><path fill="url(#b)" d="M39.853 32.163h-6.552a.17.17 0 0 0-.17.167l-.404 22.668c0 .095.074.173.17.173h5.86a.17.17 0 0 0 .17-.172l-.097-11.325s3.583 4.114 7.439 7.997c3.259 3.28 7.368 3.486 8.405 3.5a.17.17 0 0 0 .171-.17V42.793c0-.054-2.891.221-7.078-3.53-2.979-2.668-7.299-6.6-7.798-7.056a.17.17 0 0 0-.114-.044z"/><path fill="url(#c)" d="M47.615 37.28s3.308 4.165 7.23 4.165v-9.233a.17.17 0 0 0-.17-.17h-6.89a.17.17 0 0 0-.17.17v5.07z"/><path fill="url(#d)" d="M60.513 52.957s3.09-1.729 3.458-3.359c.253-1.122.07-1.846-.245-2.344-.502-.792-1.331-1.539-3.458-1.457-2.611.1-3.307 2.553-3.264 3.242l2.33.444s.036-1.634 1.106-1.59c1.067.046 1.083 1.219.742 1.698-1.04 1.467-4.22 3.45-4.22 3.45v2.143h7.099l.073-2.223h-3.621z"/><path fill="#F19000" d="M60.923 17.042c-.063.683.712 1.603 1.822 1.057 1.328-.651.568-2.088-.362-2.149-.699-.046-1.39.315-1.46 1.09z"/><path fill="#B40000" d="M32.728 54.997a.17.17 0 0 0 .17.174h5.86a.17.17 0 0 0 .17-.172l-.014-1.528h-6.159zM46.269 49.969c-3.856-3.883-7.44-7.997-7.44-7.997l.016 1.717c.243.279 3.706 4.236 7.424 7.98 3.259 3.28 7.368 3.486 8.405 3.5a.17.17 0 0 0 .171-.17v-1.528c-.625 0-5.088.012-8.576-3.5z"/><path fill="url(#e)" d="M63.449 16.967c-.079-.517-.544-.983-1.066-1.017-.699-.046-1.39.315-1.46 1.09-.03.316.122.682.402.931 0-.511.138-1.224.79-1.424.829-.255 1.194.124 1.332.418z"/><path fill="url(#f)" d="M70.319 30.953c.639 1.086.93 2.636.93 2.636l1.915-1.786c.442-.41 1.347-1.694 1.45-2.23-.018-.346-.052-.526-.052-.526-2.83 1.904-4.52.04-5.226-1.102 0 0 .437 2.08.983 3.006z"/><path fill="url(#g)" d="M59.267 22.774c1.001 1.038 5.59 3.862 6.144 4.019 0 0-.519-3.38.518-5.59.83-1.765 2.736-2.873 3.47-3.249-.9.11-2.083.503-3.322 1.67-2.059 1.938-3.034 2.094-4.335 1.999-2.011-.15-3.34-1.331-3.888-2.812h-.002s.414 2.922 1.417 3.961z"/><path fill="url(#h)" d="M56.514 21.385s-.87-1.71-.724-3.777c.157-2.234 1.413-3.742 2.5-4.478 0 0-4.237 1.316-5.36 4.394-.902 2.47 3.584 3.863 3.584 3.863z"/><path fill="url(#i)" d="M37.305 22.152c-1.304 1.122-1.48 2.058-1.48 2.058s3.404-2.342 5.602-3.452c2.197-1.11 7.271-3.776 9.932-6.003 3.712-3.106 5.902-3.84 7.884-3.944 3.655-.194 3.932.313 5.576.47 3.606.346 5.102-.633 5.102-.633-1.029.233-2.817.455-4.738-.141-3.694-1.15-5.12-1.112-6.754-1.051-5.251.199-9.132 3.694-10.629 4.707-1.495 1.014-1.864 1.449-4.309 2.771a171 171 0 0 0-3.784 2.137s-1.636 2.42-2.404 3.08z"/><path fill="url(#j)" d="M32.953 24.5c2.354-2.306 3.235-4.528 3.67-5.203s1.472-2.245 4.128-4.08c1.961-1.354 2.971-1.914 2.986-1.922-4.243 1.518-8.656 5.07-10.975 8.52-1.185 1.765-1.608 2.696-2.186 3.49-.495.68-1.042 1.29-1.566 1.814 0 0 1.59-.314 3.944-2.62z"/><path fill="#FDFFAE" stroke="#FDFFAE" stroke-miterlimit="10" stroke-width=".009" d="M54.723 44.818c.008 0 .06.003.122.003V42.79c0-.055-2.891.22-7.08-3.531-2.979-2.667-7.298-6.6-7.798-7.055a.17.17 0 0 0-.114-.044h-6.552a.17.17 0 0 0-.17.166l-.034 1.874h6.69c.676.617 4.862 4.425 7.75 7.01 2.46 2.204 5.012 3.484 7.184 3.606z"/><defs><linearGradient id="a" x1="49.364" x2="49.364" y1="70.552" y2="21.993" gradientUnits="userSpaceOnUse"><stop stop-color="#ED0000"/><stop offset="1" stop-color="#F19000"/></linearGradient><linearGradient id="b" x1="43.787" x2="43.787" y1="55.169" y2="32.163" gradientUnits="userSpaceOnUse"><stop stop-color="#ED0000"/><stop offset="1" stop-color="#F19000"/></linearGradient><linearGradient id="c" x1="51.229" x2="51.229" y1="41.445" y2="32.042" gradientUnits="userSpaceOnUse"><stop stop-color="#ED0000"/><stop offset="1" stop-color="#F19000"/></linearGradient><linearGradient id="d" x1="60.547" x2="60.547" y1="55.183" y2="45.79" gradientUnits="userSpaceOnUse"><stop stop-color="#ED0000"/><stop offset="1" stop-color="#F19000"/></linearGradient><linearGradient id="e" x1="62.184" x2="62.184" y1="18.456" y2="16.43" gradientUnits="userSpaceOnUse"><stop stop-color="#F29400"/><stop offset="1" stop-color="#EE3534"/></linearGradient><linearGradient id="f" x1="71.976" x2="71.976" y1="30.764" y2="21.603" gradientUnits="userSpaceOnUse"><stop stop-color="#F29400"/><stop offset="1" stop-color="#EE3534"/></linearGradient><linearGradient id="g" x1="63.626" x2="63.626" y1="30.801" y2="17.83" gradientUnits="userSpaceOnUse"><stop stop-color="#F29400"/><stop offset="1" stop-color="#EE3534"/></linearGradient><linearGradient id="h" x1="55.55" x2="55.55" y1="27.084" y2="15.175" gradientUnits="userSpaceOnUse"><stop stop-color="#F29400"/><stop offset="1" stop-color="#EE3534"/></linearGradient><linearGradient id="i" x1="52.873" x2="52.873" y1="29.424" y2="12.905" gradientUnits="userSpaceOnUse"><stop stop-color="#F29400"/><stop offset="1" stop-color="#EE3534"/></linearGradient><linearGradient id="j" x1="36.373" x2="36.373" y1="31.082" y2="17.254" gradientUnits="userSpaceOnUse"><stop stop-color="#F29400"/><stop offset="1" stop-color="#EE3534"/></linearGradient></defs></svg>