<svg width="11" height="11" viewBox="0 0 11 11" fill="none" xmlns="http://www.w3.org/2000/svg">
<g id="Star 1" filter="url(#filter0_d_1339_25448)">
<path d="M5.02447 1.46353C5.17415 1.00287 5.82585 1.00287 5.97553 1.46353L6.39806 2.76393C6.46499 2.96994 6.65697 3.10942 6.87358 3.10942H8.24091C8.72527 3.10942 8.92666 3.72923 8.5348 4.01393L7.42861 4.81763C7.25337 4.94495 7.18004 5.17063 7.24698 5.37664L7.6695 6.67705C7.81918 7.1377 7.29194 7.52077 6.90008 7.23607L5.79389 6.43237C5.61865 6.30505 5.38135 6.30505 5.20611 6.43237L4.09992 7.23607C3.70806 7.52077 3.18082 7.13771 3.33049 6.67705L3.75302 5.37664C3.81996 5.17063 3.74663 4.94495 3.57139 4.81763L2.4652 4.01393C2.07334 3.72923 2.27473 3.10942 2.75909 3.10942H4.12642C4.34303 3.10942 4.53501 2.96994 4.60194 2.76393L5.02447 1.46353Z" fill="#ECC3FF"/>
</g>
<defs>
<filter id="filter0_d_1339_25448" x="0.258179" y="0.118042" width="10.4836" height="10.2158" filterUnits="userSpaceOnUse" color-interpolation-filters="sRGB">
<feFlood flood-opacity="0" result="BackgroundImageFix"/>
<feColorMatrix in="SourceAlpha" type="matrix" values="0 0 0 0 0 0 0 0 0 0 0 0 0 0 0 0 0 0 127 0" result="hardAlpha"/>
<feOffset dy="1"/>
<feGaussianBlur stdDeviation="1"/>
<feComposite in2="hardAlpha" operator="out"/>
<feColorMatrix type="matrix" values="0 0 0 0 0 0 0 0 0 0 0 0 0 0 0 0 0 0 0.9 0"/>
<feBlend mode="normal" in2="BackgroundImageFix" result="effect1_dropShadow_1339_25448"/>
<feBlend mode="normal" in="SourceGraphic" in2="effect1_dropShadow_1339_25448" result="shape"/>
</filter>
</defs>
</svg>
