<svg xmlns="http://www.w3.org/2000/svg" width="160" height="80" fill="none"><rect width="160" height="80" fill="#312359" rx="40"/><path fill="#D79AF3" fill-rule="evenodd" d="M91.491 5.964 67.93 38.116l10.214.58-2.969 9.142V44.65q0-.06-.06-.068h-9.078q-.06 0-.068.068v12.115q0 .068.068.068h6.218l-4.325 13.319.696-1.277-.58 1.741 8.19-14.074v.223q0 .068.068.068h9.078q.06 0 .06-.068v-7.527q0-.06-.06-.069h-4.454q-.06 0-.068.069v2.939q0 .068.069.068h1.436v1.512h-3.052v-2.504l2.092-3.596h3.977q.06 0 .06-.06V44.65q0-.06-.06-.068h-2.187l7.949-13.662h-.812l.464-.929h-.929l.348-.696-7.66.116 9.634-24.027-.929 1.277zM54 56.764V44.65q.009-.068.069-.068h10.615q.06.008.06.068v8.364q0 .069-.06.068h-2.742l2.573 3.683v.068h-3.719q-2.633-3.734-2.676-3.75h-1.043v3.682q0 .068-.06.068h-2.949q-.068 0-.068-.068m7.642-6.757v-2.35h-4.565v2.35zm10.49 3.75v-6.1h-3.087v6.1zm14.395 3.008V44.65q.008-.068.068-.068h2.95q.06.008.06.068v9.107h3.017V44.65q.008-.068.068-.068h2.95q.068.008.068.068v12.115q0 .068-.069.068h-9.044q-.069 0-.068-.068m10.266 0V44.65q.009-.068.069-.068h9.078q.06.008.06.068v2.947q0 .06-.06.06h-6.07v1.513h6.07q.06.008.06.068v2.939q0 .068-.06.068h-6.07v1.512h6.07q.06.009.06.06v2.948q0 .068-.06.068h-9.078q-.069 0-.069-.068" clip-rule="evenodd"/></svg>