<svg xmlns="http://www.w3.org/2000/svg" width="160" height="80" fill="none"><rect width="160" height="80" fill="#312359" rx="40"/><g fill="#fff" clip-path="url(#a)"><path d="M54.066 37.263c-.015-.034-.024-.068-.04-.105-.911-2.125-4.376-2.77-8.37-1.798l-.657-.39c1.967-.805 3.926-1.228 5.567-1.111 2.448.176 3.645 1.501 3.5 3.404m-3.552 4.466c-2.562 3.1-7.19 5.248-10.339 5.026-3.144-.227-3.621-2.922-1.058-6.022.05-.064.106-.126.159-.19l.008 3.889a1.15 1.15 0 0 0 1.704 1.059l9.417-5.461c.735-.455.658-1.468-.036-1.86l-3.818-2.09c1.032-.295 2.022-.434 2.903-.372 3.146.227 3.62 2.92 1.061 6.021m-11.978 6.694c-2.89-.207-4.043-2.018-3.29-4.485-.005.41.062.804.222 1.172 1.13 2.64 6.2 2.998 11.324.806.106-.044.21-.094.313-.139-2.877 1.767-6.081 2.821-8.57 2.646m3.331-13.806 6.321 3.788c.468.267.524.96.027 1.268l-6.385 3.703a.784.784 0 0 1-1.159-.727l-.03-7.353a.817.817 0 0 1 1.227-.68m14.63 1.366c-1.324-3.096-6.825-3.778-12.78-1.774l-2.643-1.575a1.207 1.207 0 0 0-1.808 1.002l.002 2.556c-5.132 2.925-8.108 7.134-6.841 10.096 1.468 3.423 8.044 3.892 14.69 1.046s10.845-7.928 9.38-11.352M61.781 40.443l-.574 2.01c-.086.307-.151.585-.204.826a3 3 0 0 0-.077.545q0 .32.187.503.199.184.522.183.505 0 1.05-.541.54-.543 1.044-1.558c.404-.867.735-1.721.988-2.576.245-.843.375-1.508.375-1.981q-.001-.516-.22-.827c-.146-.208-.333-.315-.552-.315-.501 0-.957.307-1.375.913q-.627.915-1.164 2.818m-3.607-4.668a56 56 0 0 0 2.548-.255 38 38 0 0 0 2.337-.354l-.632 2.155c.63-.834 1.233-1.446 1.81-1.822.566-.389 1.155-.574 1.773-.574.84 0 1.494.252 1.948.756q.688.764.687 2.166 0 1.185-.468 2.49a9.6 9.6 0 0 1-1.317 2.43c-.654.874-1.343 1.529-2.08 1.962-.74.436-1.52.657-2.353.657-.34 0-.66-.045-.961-.143a2.8 2.8 0 0 1-.809-.421l-.647 2.336c-.045.14-.08.29-.095.436a2.5 2.5 0 0 0-.032.433c0 .281.085.484.26.598q.263.169 1.062.214v.546h-6.033v-.57a1 1 0 0 0 .089-.01.4.4 0 0 1 .086-.012q.563.002.842-.279c.189-.186.381-.672.584-1.464l2.401-9.303c.042-.149.074-.3.1-.444.024-.14.038-.255.038-.331q-.001-.382-.239-.52c-.161-.106-.462-.152-.9-.152v-.525"/><path d="M69.244 30.643c.902-.07 1.764-.162 2.601-.276a31 31 0 0 0 2.361-.405l-3.313 12.474a4 4 0 0 0-.075.26 1.4 1.4 0 0 0-.06.318q0 .223.089.344a.32.32 0 0 0 .272.126q.176.001.408-.238.23-.236.894-1.238l.53.381c-.666 1.058-1.307 1.828-1.91 2.305-.603.475-1.228.713-1.883.713-.577 0-1.027-.152-1.34-.462q-.47-.465-.468-1.331.002-.426.48-2.25l.032-.124 2.2-8.12.082-.33c.14-.534.202-.878.202-1.027q.001-.305-.221-.452c-.146-.096-.376-.148-.691-.148h-.189v-.52"/><path d="M79.619 37.102q.001-.447-.204-.713a.65.65 0 0 0-.536-.263q-.473-.002-.913.442-.44.449-1.017 1.489c-.45.827-.805 1.632-1.06 2.427q-.39 1.199-.39 2.04c0 .342.073.605.215.806a.7.7 0 0 0 .58.284c.354 0 .718-.2 1.094-.612q.562-.614 1.066-1.727c.353-.827.63-1.633.845-2.402q.319-1.16.319-1.77m3.997-1.83-1.767 6.17v.022q-.404 1.424-.404 1.66c0 .148.025.265.088.357a.26.26 0 0 0 .237.132c.285 0 .66-.327 1.107-.984q.204-.284.31-.44l.514.384c-.576.964-1.15 1.677-1.738 2.13q-.88.681-1.895.68-.845 0-1.283-.354c-.298-.244-.444-.59-.444-1.052 0-.137.011-.314.042-.522q.04-.318.134-.817c-.534.928-1.117 1.62-1.744 2.065a3.5 3.5 0 0 1-2.097.68c-.77 0-1.424-.236-1.885-.708-.463-.48-.693-1.128-.693-1.953 0-.951.219-1.95.667-3.008a9.5 9.5 0 0 1 1.785-2.783q.885-.967 1.84-1.489.959-.52 1.843-.52c.589 0 1 .13 1.326.39q.487.395.64 1.194l.325-1.234z"/><path d="M82.586 36.126v-.57a73 73 0 0 0 2.621-.332c.882-.129 1.363-.19 1.43-.19.354 0 .819 1.484 1.382 4.458q.342 1.778.562 2.852 1.006-1.941 1.376-2.826c.246-.586.368-1.024.368-1.303 0-.216-.206-.479-.618-.778-.411-.303-.622-.65-.622-1.034q-.001-.667.433-1.075.427-.403 1.141-.403c.476 0 .84.135 1.105.403.262.272.398.653.398 1.136q-.002.914-.917 2.939-.917 2.016-2.5 4.558c-1.196 1.933-2.288 3.336-3.267 4.224q-1.47 1.331-2.83 1.33-.902 0-1.42-.383-.516-.384-.517-1.054c0-.407.148-.737.448-1.005q.446-.397 1.13-.397.539.002 1.156.405c.408.273.687.402.824.402q.368 0 .84-.59c.323-.397.484-.771.484-1.133q0-.396-.075-1.004a32 32 0 0 0-.225-1.496 98 98 0 0 0-.63-3.464 36 36 0 0 0-.58-2.453q-.226-.77-.459-1.007c-.153-.155-.403-.232-.76-.232h-.028a2 2 0 0 1-.254.023"/><path d="M96.372 42.594q-1 1.34-1.957 2.05-.946.718-1.732.717c-.424 0-.753-.134-.996-.39q-.366-.394-.367-1.055 0-.233.05-.52c.028-.195.076-.412.14-.64l1.9-7.067h-2.001l.186-.608a4.8 4.8 0 0 0 2.285-1.172c.661-.606 1.261-1.442 1.788-2.514h.683l-.893 3.547h1.828l-.185.746h-1.885l-1.825 6.827a5 5 0 0 0-.096.419c-.014.125-.03.24-.03.336q-.001.339.16.52c.1.121.25.18.434.18.239 0 .52-.133.852-.409q.497-.409 1.255-1.332l.407.366z"/><path d="M98.239 40.267c1.47-.067 2.71-.45 3.705-1.14 1.001-.702 1.495-1.49 1.495-2.383q0-.45-.238-.675-.233-.219-.716-.22c-.891 0-1.719.384-2.477 1.168-.759.789-1.346 1.87-1.768 3.251m-.175.748a6 6 0 0 0-.143.73 4 4 0 0 0-.047.633c0 .592.15 1.043.461 1.355.305.312.756.542 1.342.542s1.242-.26 1.973-.638q1.112-.563 2.488-1.701l.485.697q-1.64 1.409-3.092 2.074c-.963.451-1.908.672-2.836.672s-1.623-.262-2.123-.776c-.505-.521-.755-1.251-.755-2.203 0-.953.196-1.836.589-2.773a8.4 8.4 0 0 1 1.606-2.498 7.2 7.2 0 0 1 2.157-1.594 5.7 5.7 0 0 1 2.425-.553c.764 0 1.362.17 1.804.507q.664.503.665 1.385c0 1.06-.65 1.98-1.935 2.753-1.288.772-2.976 1.232-5.063 1.391"/><path d="m112.437 41.162-.029 1.338q-1.036 1.445-2.261 2.163a5.23 5.23 0 0 1-2.676.713q-1.589.001-2.587-1.018-.991-1.008-.991-2.675 0-1.224.561-2.495c.37-.853.89-1.608 1.555-2.28a6.6 6.6 0 0 1 2.043-1.409 5.6 5.6 0 0 1 2.301-.502c.826 0 1.483.184 1.972.543q.734.538.735 1.438.001.537-.383.92a1.22 1.22 0 0 1-.902.383c-.286 0-.517-.086-.695-.266q-.265-.266-.264-.696c0-.202.069-.432.214-.7q.209-.395.208-.493c0-.123-.069-.224-.216-.3-.147-.078-.34-.116-.59-.116-.509 0-1.024.149-1.555.453q-.79.463-1.384 1.257a7.9 7.9 0 0 0-1.116 2.048 6.3 6.3 0 0 0-.384 2.115c0 .783.206 1.41.625 1.867.424.457.99.767 1.707.767.566 0 1.122-.252 1.669-.587.549-.342 1.459-1.021 2.444-2.467"/><path d="m111.19 45.385 3.743-12.897q.032-.118.046-.245c.014-.078.017-.16.017-.226q-.002-.345-.178-.477c-.119-.078-.458-.122-1.012-.122h-.852l.131-.588c.687-.027 1.33-.104 1.927-.216.593-.118 1.16-.27 1.685-.47h.676l-2.591 8.908c1.327-1.287 2.549-2.282 3.66-2.998 1.109-.704 1.994-1.062 2.656-1.062.348 0 .601.078.768.236.164.163.251.408.251.741q0 .155-.049.374a7 7 0 0 1-.119.502l-1.89 6.068a4 4 0 0 0-.089.389 2.3 2.3 0 0 0-.039.412c0 .077.039.145.106.209.068.06.151.165.241.165.185 0 .443-.194.768-.432q.487-.36 1.029-.98l.386.314c-.652.768-1.278 1.36-1.881 1.763q-.907.61-1.67.611-.5-.001-.787-.23c-.194-.156-.287-.363-.287-.633q-.001-.143.029-.308c.02-.108.058-.227.103-.356l1.942-6.276q.053-.206.072-.314c.011-.069.015-.137.015-.194q.001-.24-.144-.369-.138-.12-.407-.12-.415-.001-1.221.494c-.543.332-1.161.806-1.871 1.419-.636.542-1.106 1.005-1.401 1.386q-.442.576-.645 1.193l-1.289 4.329c-.146-.022-.667-.037-.818-.047s.069-.01-.086-.01c-.156 0-.317 0-.469.01q-.222.014-.459.047"/></g><defs><clipPath id="a"><path fill="#fff" d="M18 16.628h124v46.745H18z"/></clipPath></defs></svg>