<svg xmlns="http://www.w3.org/2000/svg" width="160" height="80" fill="none"><rect width="160" height="80" fill="#312359" rx="40"/><path fill="#fff" d="M49.583 62.899a58.551 58.551 0 0 0-3.479-.741c-1.791-.32-2.108-.53-2.952-.848-.674-.254-3.022-1.377-4.11-1.907 0 0-.764-.393-.926-.564-.353-.37.1-.789.1-.789s-.247.4.006.683c.124.139.769.422.769.422v-2.612l-.073-2.814c.421.389 2.644 2.089 3.2 2.556.631.53 1.03.573 2.195 1.743.421.422.317 1.165 1.475 2.33.807.812 3.31 2.374 3.743 2.53zM47.598 35.408s-.229.52-1.037 1.047c-.471.307-.898.478-1.174.47 0 0 .404-.05 1.081-.485.851-.545 1.129-1.032 1.129-1.032zM41.705 37.085s-2.77-.009-3.693-.029c-2.41-.053-3.706-.214-3.693-.143.04.217 1.614.216 3.737.216 1.679 0 3.65-.046 3.65-.046zM55.992 37.503s4.56 1.457 5.224 2.494c.666 1.037-.3 3.099-.628 3.294-.327.197-4.545-5.146-4.598-5.79zM71.615 30.19c-.157 0-16.45-5.022-23.553-6.222-8.166-1.378-14.058-2.44-22.783-2.362 0 0 3.945-1.405 23.043 2.074 10.52 1.915 23.291 6.51 23.291 6.51z"/><path fill="#fff" d="M50.603 51.814c-1.366.098-2.245-.455-2.161-.458.595-.012.636-.174.701-.272-.227 0-.609.084-1.467-.152-.857-.236-2.06-1.371-2.44-1.96l.683.49a7 7 0 0 0-.469-.713c-.026-.032.152-.362.282-.46-.468.078-.92-.135-1.082-.297.547 0 .878-.327.975-.49l-.39-.098c.13-.099.337-.394.572-.63.293-.294.14-.417.89-1.134.553-.529 1.736-1.689 1.951-1.863.471-.38 2.518-.597 4.142-.101 2.53.772 2.764 1.465 3.077 1.472.166.005.568-.251.976-.553a4 4 0 0 0-.497-.225c-.315-.106-3.33-1.811-3.798-2.45-.336-.457-1.3-1.411-1.791-1.8.843-.53.738-1.271 1.37-2.013.631-.741 1.16-1.377 1.16-1.8 0-.422-.633-.318-1.055-1.376-.184-.46.035-1.236.21-1.589-.035-.071-.21-.254-.631-.423-.527-.211-.95-.105-1.687 0-.739.106-.95.954-2.004 3.177-.843 1.78-1.896 1.907-3.795 1.907-2.143 0-6.704-.106-8.222-.106s-2.109-.282-2.214-.422c.352 1.307 1.097 4.194 1.265 5.296.21 1.377.55 5.55 1.896 8.157 1.252 2.421 3.931 4.104 4.36 4.425 1.496 1.119 3.825 2.562 5.655 3.307 1.348.679 3.55.777 4.427.636.739-.742 2.32-3.814 2.635-5.191l.082-.306c-.515-.824-2.387-2.071-3.612-1.983zm-.095-9.793c.005-.304.062-.807.123-.797.067.012.005.632.016.83.011.2.108.847.026.847-.224 0-.171-.577-.165-.881zm-1.443-3.158c.243-.144.573.05.832.194.26.145.386.576.386.576.044.233-.998.826-1.339.803-.343-.023-.265-.359-.38-.703s.26-.726.501-.87m-1.413.154c0 1.263.029 1.329.614 1.727.583.4 1.394.439 1.394.439h.032c-1.185.166-1.261.021-1.83-.31-.567-.331-.21-1.856-.21-1.856"/><path fill="#fff" d="M47.134 48.505s.205-.308.64-.361c.214-.026.598-.01.956.016h.01c.37.027 1.457.144 1.563.16 0 0 .122.098.236.107.142.01.271-.229.539-.186.267.043.267.448.326.448.013 0 .23-.518.44-.498.209.02.557-.117.927.301.445.503.68.9.344 1.176-.068.056-.354.086-.412.091-.234.023-.171-.265-.248-.217-.095.06-.02.304-.112.309-.093.004-.024-.669-.165-.58s-.024.583-.148.556c-.125-.03-.153-.463-.26-.373-.109.09-.053.535-.166.397-.112-.137.104-.79-.048-.755s-.137.978-.265.985-.227-.256-.267-.11.001.244-.319.27-.178-.176-.294-.153c-.117.024-.036.231-.204.161-.168-.068-.108-.263-.196-.178s-.177.101-.212.064c-.036-.036-.081-.477-.154-.38-.072.097-.03-.731-.133-.667s-.31.77-.409.807c-.1.037-.052-.66-.179-.64-.128.02-.068.701-.157.636-.086-.066.049-.576-.128-.462-.176.115-.2.377-.432.353s-.457-.308-.353-.445c.104-.138.18-.265.064-.28-.117-.016-.272-.073-.18-.175s.665-.485.53-.503c-.136-.015-1.068.188-1.134.122h.002zM49.98 43.984c-.026-.004-.26-.021-.248.054.011.076.043.265.183.226.141-.038.044-.128.178-.124.134.006.04.228.19.19.149-.039-.016-.18.07-.189.084-.008.033.182.14.133s.051-.153.263-.14c.212.014-.018.189.128.149.147-.039.067-.19.187-.145.12.048.074.215.15.118.077-.098.26-.23.11-.262-.15-.03-.73-.016-.754.023s-.044-.014-.17-.027-.324.007-.423-.007zM83.635 40.662q-2.63 0-3.796-1.315-1.156-1.313-1.155-4.182V33.28h3.795v2.41q0 .668.197 1.05.207.374.708.374c.335 0 .59-.103.72-.308q.208-.306.208-1.007 0-.886-.175-1.478a3.2 3.2 0 0 0-.61-1.139q-.426-.547-1.189-1.27l-1.722-1.642q-1.931-1.83-1.931-4.183c0-1.568.379-2.894 1.134-3.755q1.145-1.293 3.305-1.293 2.64 0 3.74 1.413 1.112 1.413 1.113 4.292H84.07V25.42q0-.394-.229-.613-.218-.219-.6-.219-.458 0-.676.263-.208.253-.208.657 0 .406.218.876.218.471.862 1.084l2.214 2.136q.665.635 1.22 1.347.558.7.895 1.642.339.93.34 2.279 0 2.716-1.004 4.26-.992 1.532-3.468 1.532zm5.312-.175V21.214h3.817v6.888h1.811v-6.888h3.817v19.273h-3.817v-8.74h-1.811v8.74zm10.28 0 1.854-19.273h6.512l1.821 19.273h-3.632l-.274-3.11h-2.311l-.241 3.11h-3.73zm4.243-6.188h1.745l-.839-9.8h-.175zm6.779 6.188.208-19.273h5.279q2.073 0 3.119 1.162 1.047 1.15 1.047 3.372v9.024q0 2.738-.96 4.227c-.632.993-1.954 1.49-3.546 1.49h-5.149zm4.07-3.407h.666q1.059 0 1.059-1.03v-9.943q0-.965-.262-1.237-.251-.285-1.036-.285h-.425V37.08zm8.615 3.407v-6.34l-3.065-12.934h3.806l1.068 6.527 1.069-6.527h3.795l-3.053 12.933v6.341zM84.729 61.286V42.013h3.838v15.989h3.948v3.285h-7.788zm8.637 0 1.854-19.273h6.511l1.821 19.273H99.92l-.273-3.11h-2.312l-.24 3.11h-3.73m4.242-6.188h1.745l-.84-9.801h-.175l-.731 9.8zm6.779 6.188V42.013h5.279q2.072 0 3.12 1.161 1.047 1.151 1.047 3.373v9.024q0 2.738-.961 4.226-.95 1.49-3.337 1.49h-5.148zm3.862-3.407h.665q1.059 0 1.059-1.03v-9.944q0-.963-.262-1.237-.25-.284-1.036-.284h-.425V57.88zm8.614 3.407v-6.341l-3.065-12.934h3.808l1.068 6.527 1.069-6.527h3.795l-3.053 12.934v6.34h-3.622M132.07 21.213v.261h-.54v1.595h-.275v-1.595h-.539v-.261zm1.254 1.857h-.256l-.547-1.469v1.469h-.274v-1.857h.399l.552 1.468.54-1.468h.411v1.857h-.275V21.6z"/></svg>