<svg xmlns="http://www.w3.org/2000/svg" width="160" height="80" fill="none"><rect width="160" height="80" fill="#312359" rx="40"/><g clip-path="url(#a)"><path fill="#fff" d="M77.595 42.574c-.686 0-1.33-.368-1.679-.962L68.512 29.02h3.218l5.865 9.977 5.865-9.977h3.218l-7.401 12.592c-.35.594-.993.962-1.679.962zM101.311 42.574c-.686 0-1.33-.368-1.678-.962L92.228 29.02h3.219l5.864 9.977 5.865-9.977h3.219l-7.402 12.592a1.96 1.96 0 0 1-1.679.962zM90.837 29.02h-2.773v13.554h2.773zM110.407 37.812c0 .733.164 1.441.488 2.1.816 1.666 2.569 2.662 4.427 2.662h6.91a4.774 4.774 0 0 0 4.774-4.762v-4.028c0-.733-.164-1.44-.489-2.1-.816-1.666-2.569-2.661-4.427-2.661h-6.91a4.78 4.78 0 0 0-4.353 2.81 4.7 4.7 0 0 0-.42 1.951zm14.119-.831c0 1.728-1.4 3.125-3.131 3.125h-5.386a3.13 3.13 0 0 1-3.132-3.125v-2.368a3.13 3.13 0 0 1 3.135-3.126h5.386a3.13 3.13 0 0 1 3.131 3.126v2.368zM89.693 53.416l-.996-1.691H85.55l.782-1.326h1.583l-1.703-2.897-3.478 5.914h-1.905l4.743-8.066h1.28l4.742 8.066zM105.683 45.35h-1.642v8.066h1.642zM100.687 45.35h1.712v8.066h-1.641v-5.36L98.21 51.92a1.01 1.01 0 0 1-1.694.01l-2.548-3.866v5.349h-1.641v-8.066h1.712l3.324 5.045 3.32-5.045zM118.597 48.664v1.444c0 1.014.825 1.843 1.846 1.843h5.089v-1.828h-3.466v-1.471h4.937v4.767h-7.036a2.833 2.833 0 0 1-2.839-2.838v-2.39c0-.402.084-.794.248-1.162a2.85 2.85 0 0 1 2.591-1.676h7.036v1.472h-6.557a1.846 1.846 0 0 0-1.846 1.842zM71.687 48.661v1.444c0 1.017.828 1.843 1.846 1.843h5.091V50.12h-3.468V48.65h4.94v4.77h-7.04a2.833 2.833 0 0 1-2.838-2.838v-2.393a2.841 2.841 0 0 1 2.838-2.838h7.04v1.472h-6.564c-1.02 0-1.845.828-1.845 1.842z"/><path fill="url(#b)" d="M48.354 32.826c-1.076.494-2.733.494-3.806 0-1.233-.575-1.233-1.5 0-2.075 1.07-.5 2.727-.5 3.806 0 1.234.575 1.234 1.5 0 2.075"/><path fill="url(#c)" d="M35.484 44.577c-.829-.529-1.494-.136-1.481.875.015 1.014.698 2.26 1.533 2.789.829.525 1.493.136 1.478-.878-.013-1.008-.693-2.26-1.527-2.786zm3.283-1.945c-.829-.528-1.493-.136-1.481.875.015 1.014.699 2.26 1.527 2.789.835.526 1.5.136 1.481-.878-.012-1.008-.698-2.26-1.527-2.786m3.286-1.944c-.834-.529-1.493-.136-1.48.875.012 1.014.698 2.26 1.527 2.788.834.526 1.493.136 1.48-.878-.012-1.008-.698-2.26-1.527-2.785m0 0c-.834-.529-1.493-.136-1.48.875.012 1.014.698 2.26 1.527 2.788.834.526 1.493.136 1.48-.878-.012-1.008-.698-2.26-1.527-2.785m-3.286 1.944c-.829-.528-1.493-.136-1.481.875.015 1.014.699 2.26 1.527 2.789.835.526 1.5.136 1.481-.878-.012-1.008-.698-2.26-1.527-2.786m-3.284 1.945c-.828-.529-1.493-.136-1.48.875.015 1.014.698 2.26 1.533 2.789.829.525 1.493.136 1.478-.878-.013-1.008-.693-2.26-1.527-2.786zm10.967-23.03c-10.74 0-19.45 8.71-19.45 19.45s8.71 19.456 19.45 19.456 19.456-8.713 19.456-19.456-8.713-19.45-19.456-19.45m-.575 34.695L32.37 48.448V32.894l13.505 7.8v15.551zM32.985 31.82l13.465-5.646 13.532 5.686-13.532 7.738zm14.108 24.387V40.654l13.436-7.69v15.484zm9.977-19.444c-.813.433-1.466 1.611-1.453 2.638.006 1.02.67 1.493 1.48 1.06.817-.433 1.466-1.61 1.46-2.63-.013-1.027-.677-1.5-1.487-1.068m-.047 8.363c-.813.433-1.465 1.617-1.453 2.638.006 1.02.671 1.499 1.481 1.066.816-.433 1.465-1.617 1.46-2.637-.013-1.02-.678-1.5-1.488-1.067m-3.116-2.578c-.813.433-1.466 1.617-1.453 2.637.006 1.02.67 1.5 1.487 1.067.813-.433 1.46-1.617 1.453-2.637-.006-1.027-.671-1.5-1.487-1.067m-3.253-2.455c-.816.433-1.465 1.61-1.459 2.637.006 1.02.677 1.494 1.487 1.06.813-.432 1.466-1.61 1.453-2.636-.006-1.02-.67-1.494-1.48-1.06m-.043 8.366c-.816.433-1.465 1.611-1.46 2.637.013 1.02.678 1.5 1.488 1.067.813-.433 1.465-1.617 1.453-2.637-.006-1.027-.67-1.5-1.48-1.067M42.1 44.351c.834.526 1.493.136 1.48-.878-.012-1.008-.698-2.26-1.527-2.785-.834-.529-1.493-.136-1.48.875.012 1.014.698 2.26 1.527 2.788m-3.287 1.945c.835.526 1.5.136 1.481-.878-.012-1.008-.698-2.26-1.527-2.786-.829-.528-1.493-.136-1.481.875.015 1.014.699 2.26 1.527 2.789m-3.28 1.945c.829.525 1.493.136 1.478-.878-.013-1.008-.693-2.26-1.528-2.786-.828-.529-1.493-.136-1.48.875.015 1.014.698 2.26 1.533 2.789z"/><path fill="#fff" d="M116.306 45.35v6.851c0 1.076-1.298 1.614-2.059.853l-5.274-5.429v5.791h-1.648V45.35h1.734l5.599 5.763V45.35z"/></g><defs><linearGradient id="b" x1="31.857" x2="69.64" y1="17.191" y2="54.977" gradientUnits="userSpaceOnUse"><stop stop-color="#8F3F00"/><stop offset=".07" stop-color="#C87200"/><stop offset=".15" stop-color="#C87200"/><stop offset=".22" stop-color="#DB900D"/><stop offset=".31" stop-color="#DB900D"/><stop offset=".41" stop-color="#F0B61B"/><stop offset=".53" stop-color="#BF7400"/><stop offset=".68" stop-color="#F0B61B"/><stop offset=".75" stop-color="#DB900D"/><stop offset=".84" stop-color="#C87200"/><stop offset=".92" stop-color="#C87200"/><stop offset="1" stop-color="#8F3F00"/></linearGradient><linearGradient id="c" x1="27.25" x2="65.037" y1="21.798" y2="59.584" gradientUnits="userSpaceOnUse"><stop stop-color="#8F3F00"/><stop offset=".07" stop-color="#C87200"/><stop offset=".15" stop-color="#C87200"/><stop offset=".22" stop-color="#DB900D"/><stop offset=".31" stop-color="#DB900D"/><stop offset=".41" stop-color="#F0B61B"/><stop offset=".53" stop-color="#BF7400"/><stop offset=".68" stop-color="#F0B61B"/><stop offset=".75" stop-color="#DB900D"/><stop offset=".84" stop-color="#C87200"/><stop offset=".92" stop-color="#C87200"/><stop offset="1" stop-color="#8F3F00"/></linearGradient><clipPath id="a"><path fill="#fff" d="M27 21.547h100v38.906H27z"/></clipPath></defs></svg>