<svg xmlns="http://www.w3.org/2000/svg" width="160" height="80" fill="none"><rect width="160" height="80" fill="#312359" rx="40"/><path fill="#fff" d="m64.323 54.641-.505 9.993-8.193.366-.444-10.359zm10.168.777.174 9.39-9.672.192.326-10.884zm20.942 9.365-8.301-.438-.03-9.532 8.43-.672zm9.386-.044-8.39-.22.14-9.9 8.057-.162zm-18.96-.555-10.084.387.156-10.064 10.13-.163zm14.791-8.082c-2.089 0-3.138 1.05-3.138 2.337 0 2.584 3.725 1.881 3.725 2.753 0 .237-.231.376-.876.376-.741 0-1.588-.248-2.224-.634l-.731 1.704c.674.425 1.81.713 2.936.713 2.088 0 3.137-1.07 3.137-2.337 0-2.555-3.725-1.862-3.725-2.694 0-.238.212-.436.876-.436.588 0 1.213.169 1.877.515l.684-1.693c-.703-.406-1.637-.604-2.541-.604m-40.415 0c-2.223 0-3.811 1.495-3.811 3.624s1.588 3.624 3.763 3.624c.992 0 2.118-.306 2.936-.88v-2.932H61.15v1.753c-.28.119-.549.168-.828.168-.972 0-1.608-.693-1.608-1.733 0-1.07.636-1.733 1.637-1.733.596 0 1.087.258 1.51.763l1.454-1.318c-.683-.861-1.751-1.336-3.08-1.336m5.517 7.09h2.31l.453-1.208h2.56l.453 1.208h2.348l-2.945-6.932h-2.233zm11.069 0h2.07v-3.05l1.462 2.426h1.001l1.463-2.535.02 3.16h2.07l-.02-6.933h-1.868l-2.136 3.694-2.195-3.694h-1.867zm11.761 0h5.602V61.43h-3.369v-.91h2.85v-1.684h-2.85v-.812h3.244V56.26h-5.477zM70.45 60.301H69.14l.655-1.743zm15.49-15.686.724 7.336-3.431.152-.191-2.351-2.726.227-.095 2.029-3.28-.057.496-6.787 2.383-4.91 3.356-.133zm18.776 0 .725 7.336-3.431.152-.191-2.351-2.726.227-.095 2.029-3.28-.057.496-6.787 2.383-4.91 3.356-.133zm-40.07-4.171-.305 4-2.287 1.403 2.345 1.024.8 4.967-4.003.227-.21-3.28-2.096-1.402.133 4.474-3.794.132-.152-11.697 3.584-.056.076 4.663 1.944-1.403.096-3.299zm26.841 8.095 3.507-.095-.095 3.564-7.206-.17.077-1.48s.095-9.647.095-10.103l3.889-.171zm-15.575 1.005-.4 2.142-5.623.227-3.355-.379.285-11.242 8.198-.132zm-6.08-.872 2.459-.095-.248-5.062-2.116-.114zM80.62 45.43l-.171 1.706 2.325-.133-.133-1.535-1.03-2.18zm18.777 0-.172 1.706 2.326-.133-.133-1.535-1.03-2.18zM85.615 18.758c1.166-2.128 14.102-7.141 19.56-.24-1.518-.251-3.485-.272-5.375.605.017.003 4.599.99 7.051 2.626q.226.698.385 1.487c.645 3.21.052 5.707-1.161 7.627-.364-1.004-1.251-2.774-2.929-2.545 0 0 1.135 2.605 1.423 4.383-2.482 2.398-5.957 3.484-8.03 3.784-.027.74-.115 1.371-.264 1.852H85.583c-.248-3.056-2.646-6.852-3.387-7.58-.849-.836-1.94-.849-2.243-.834-.304-.015-1.395-.002-2.244.833-.74.729-3.139 4.525-3.387 7.58H63.666c-.15-.482-.238-1.117-.266-1.86-2.078-.312-5.51-1.4-7.969-3.775.288-1.775 1.42-4.376 1.423-4.383-1.678-.229-2.565 1.54-2.93 2.545-1.212-1.92-1.805-4.417-1.16-7.627q.16-.788.385-1.487c2.456-1.64 7.051-2.626 7.051-2.626-1.89-.877-3.857-.856-5.376-.604 5.447-6.886 18.335-1.912 19.553.225 2.476-.692 4.718-.884 5.48-.916l.081-.002h.064l.082.002c.767.032 3.034.226 5.53.93m-13.799 9.16c-1.496-.128-3.476 1.731-3.641 4.162-.234 3.444 1.374 4.881 2.88 4.626.9-.154 1.77-.763 2.362-1.762.414-.632.704-1.448.79-2.427.11-1.288-.152-2.47-.655-3.28-.42-.762-1.027-1.258-1.736-1.32m19.927 4.162c-.165-2.43-2.145-4.29-3.642-4.162-.833.071-1.525.745-1.94 1.746-.351.773-.52 1.776-.427 2.853.066.754.254 1.411.525 1.963.578 1.275 1.57 2.05 2.603 2.226 1.506.255 3.115-1.182 2.88-4.626m8.125-7.289c-1.02-2.564-3.405-3.382-6.63-3.261-.709.026-1.299.069-1.79.12a8.3 8.3 0 0 1 1.508 1.693c1.456 2.199 2.472 5.093 3.044 7.815 2.414-.29 3.86-2.177 3.868-2.187 0 0 .965-1.752 0-4.18M66.763 21.53c-3.226-.121-5.611.697-6.63 3.261-.966 2.428 0 4.18 0 4.18.005.007 1.428 1.867 3.81 2.18.571-2.72 1.587-5.611 3.042-7.809a8.3 8.3 0 0 1 1.514-1.697c-.481-.05-1.054-.09-1.736-.115"/></svg>