<svg width="41" height="19" fill="none" xmlns="http://www.w3.org/2000/svg">
<rect x="2" width="36" height="19" rx="9.5" fill="#C6FF77"/>
<path d="M13.65 12.93C13.203 12.1367 12.72 11.3534 12.2 10.58C11.68 9.80668 11.127 9.07667 10.54 8.39V12.93H9V6H10.27C10.49 6.22 10.733 6.49 11 6.81C11.267 7.13 11.537 7.47333 11.81 7.84C12.09 8.2 12.367 8.57667 12.64 8.97C12.913 9.35667 13.17 9.72998 13.41 10.09V6H14.96V12.93H13.65ZM16.558 12.93V6H21.238V7.31H18.118V8.67H20.888V9.94998H18.118V11.62H21.468V12.93H16.558ZM27.273 6.74C27.353 7.01333 27.44 7.32333 27.533 7.67C27.633 8.01 27.736 8.36333 27.843 8.73C27.956 9.09667 28.07 9.46333 28.183 9.82998C28.296 10.1967 28.406 10.5367 28.513 10.85C28.6 10.51 28.686 10.14 28.773 9.73998C28.866 9.34 28.953 8.92667 29.033 8.5C29.113 8.07333 29.19 7.65 29.263 7.23C29.343 6.80333 29.416 6.39333 29.483 6H31.103C30.87 7.16 30.6 8.33667 30.293 9.53C29.993 10.7234 29.666 11.8567 29.313 12.93H27.883C27.65 12.29 27.423 11.62 27.203 10.92C26.983 10.2134 26.766 9.50667 26.553 8.8C26.34 9.50667 26.126 10.2134 25.913 10.92C25.7 11.62 25.476 12.29 25.243 12.93H23.813C23.46 11.8567 23.13 10.7234 22.823 9.53C22.523 8.33667 22.256 7.16 22.023 6H23.713C23.78 6.39333 23.853 6.80333 23.933 7.23C24.013 7.65 24.096 8.07333 24.183 8.5C24.27 8.92667 24.356 9.34 24.443 9.73998C24.536 10.14 24.63 10.51 24.723 10.85C24.843 10.5234 24.96 10.1767 25.073 9.80998C25.186 9.44333 25.296 9.07667 25.403 8.71C25.51 8.34333 25.606 7.99 25.693 7.65C25.786 7.31 25.87 7.00667 25.943 6.74H27.273Z" fill="#3A125D"/>
</svg>
