<svg width="160" height="80" fill="none" xmlns="http://www.w3.org/2000/svg">
<rect width="160" height="80" rx="40" fill="#312359"/>
<path d="M36.2095 33.5199C33.2365 31.7991 30.0618 30.7309 26.8633 30.2681C25.6587 33.2766 25 36.5641 25 40C25 43.4358 25.6646 46.7233 26.8633 49.7318C30.0677 49.269 33.2365 48.2008 36.2095 46.48C39.1824 44.7591 41.6926 42.5457 43.6923 40C41.6926 37.4542 39.1824 35.2408 36.2095 33.5199ZM37.3429 40C36.4765 41.1037 35.3906 42.065 34.0969 42.8068C32.8092 43.5545 31.4325 44.0173 30.0499 44.2131C29.5277 42.9077 29.2429 41.4835 29.2429 39.994C29.2429 38.5046 29.5277 37.0804 30.0499 35.7749C31.4385 35.9766 32.8092 36.4395 34.0969 37.1813C35.3846 37.9349 36.4765 38.8962 37.3429 40ZM56.6464 45.6551H53.7803L50.0833 40.3263H51.2761C52.908 40.3263 53.7328 39.5727 53.7328 38.3206C53.7328 37.0567 52.908 36.3149 51.2761 36.3149H49.0924V45.6551H46.422V34.143H51.4185C54.5042 34.143 56.4328 35.7393 56.4328 38.3206C56.4328 40.0474 55.5605 41.3114 54.0592 41.9523L56.6464 45.6551ZM63.2036 45.851C66.4851 45.851 68.4315 43.9758 68.4315 40.5874V34.149H65.7909V40.4984C65.7909 42.6881 64.8533 43.5901 63.2155 43.5901C61.6014 43.5901 60.6401 42.6881 60.6401 40.4984V34.149H57.9697V40.5934C57.9757 43.9817 59.922 45.851 63.2036 45.851ZM78.4423 39.6736C79.3799 39.1811 79.9733 38.2909 79.9733 37.1397C79.9733 35.3476 78.4898 34.149 75.6058 34.149H69.9684V45.6611H75.9381C78.9704 45.6611 80.5548 44.5099 80.5548 42.5219C80.5548 41.0681 79.73 40.083 78.4423 39.6736ZM75.2794 36.1547C76.5849 36.1547 77.2911 36.5997 77.2911 37.5017C77.2911 38.4037 76.579 38.8665 75.2794 38.8665H72.6269V36.1547H75.2794ZM75.7423 43.6494H72.6269V40.807H75.7423C77.1249 40.807 77.8726 41.2698 77.8726 42.2371C77.8667 43.2222 77.1249 43.6494 75.7423 43.6494ZM91.9305 34.149H89.3076L86.2219 39.2641L83.1362 34.149H80.3056L84.774 41.5487V45.6611H87.4443V41.5844L91.9305 34.149ZM98.4639 34.149H93.4674V45.6611H96.1377V36.3149H98.3155C99.9474 36.3149 100.772 37.0567 100.772 38.3206C100.772 39.5727 99.9474 40.3085 98.3155 40.3085H97.1228L97.1169 42.4804H98.4639C101.55 42.4804 103.478 40.8841 103.478 38.3206C103.478 35.7393 101.55 34.149 98.4639 34.149ZM105.009 45.6551H111.816L112.789 43.4833H107.685V34.149H105.015V45.6551H105.009ZM123.506 45.6551H126.307L121.144 34.143H118.503L113.358 45.6551H116.094L117.115 43.1866H122.473L123.506 45.6551ZM117.981 41.169L119.809 36.7599L121.636 41.169H117.981ZM135 34.149H132.377L129.291 39.2641L126.206 34.149H123.369L127.838 41.5487V45.6611H130.508V41.5844L135 34.149Z" fill="white"/>
</svg>
