<svg xmlns="http://www.w3.org/2000/svg" width="160" height="80" fill="none"><rect width="160" height="80" fill="#312359" rx="40"/><g fill-rule="evenodd" clip-path="url(#a)" clip-rule="evenodd"><path fill="#fff" d="M87.12 14H74.793l2.146 25.228h8.007zm15.69 9.818c-8.31 0-13.633 2.148-14.52 8.217h10.271c.327-1.54 1.728-2.054 4.249-2.054 3.267 0 4.061 1.167 4.061 3.454v.607c-16.433-.793-19.934 2.661-19.934 8.45 0 5.136 3.781 7.563 10.83 7.563 4.482 0 7.423-1.494 9.104-3.174v2.474h11.485v-15.92c0-8.216-7.33-9.617-15.546-9.617m4.061 18.72c-1.26 1.168-3.221 2.008-5.696 2.008-1.493 0-3.22-.326-3.22-2.24 0-2.568 3.174-2.755 8.916-2.475zm-49.054-18.72c7.517 0 16.62 3.828 15.967 15.406H52.262c.607 2.335 2.38 3.969 5.789 3.969 2.38 0 3.921-.887 4.855-2.241H73.41c-1.587 6.816-8.403 9.103-15.36 9.103-8.216 0-16.713-3.501-16.713-13.118s8.404-13.119 16.48-13.119m5.136 10.551c-.654-2.288-2.195-3.688-5.136-3.688-3.268 0-4.855 1.54-5.509 3.688zm-9.093 24.5h-5.385v2.035h2.502c-.238.62-.846 1.191-2.144 1.191-1.62 0-2.68-.845-2.68-2.44 0-1.584.821-2.43 2.441-2.43 1.204 0 1.811.382 2.18 1.048h2.907c-.536-2.095-2.656-2.952-5.075-2.952-2.68 0-5.313 1.154-5.313 4.334 0 3.19 2.597 4.345 5.528 4.345 3.228 0 5.36-1.476 5.039-5.132m13.088 4.952h2.942l-3.86-8.334h-3.637l-3.848 8.334h2.942l.525-1.285h4.4zm-4.15-3.214 1.197-3.012h.469l1.174 3.012zm39.707 1.297h-5.516v-1.392h5.063v-1.93h-5.063v-1.166h5.397v-1.929h-8.22v8.334h8.339zm11.338-3.32h-.001c-1.244-.12-2.114-.204-2.114-.727 0-.477.596-.643 1.739-.643 1.085 0 1.752.25 1.752.821h2.87c0-1.44-1.048-2.714-4.586-2.714-3.24 0-4.586.976-4.586 2.666 0 1.667.905 2.203 3.466 2.596.5.077.93.136 1.298.187h.001c1.398.193 1.906.263 1.906.706 0 .464-.667.631-1.787.631-1.168 0-2.121-.214-2.121-.988h-2.954c0 1.75 1.394 2.881 4.92 2.881 3.276 0 4.98-.821 4.98-2.822 0-2.094-1.801-2.283-4.385-2.555l-.047-.005zm-30.909-3.097-1.954 5.477-1.953-5.477h-4.122v8.334h2.823v-5.417l2.002 5.417h2.496l2.001-5.417.005 5.417h2.824v-8.334z"/><path fill="#FF1351" d="M84.81 46.53a9 9 0 0 0-2.445-.843 9 9 0 0 0 2.444-.845c.365-.186.572-.498.572-.895 0-.498-.352-.895-.849-.976a1 1 0 0 1-.559-.279 1 1 0 0 1-.28-.559c-.08-.496-.479-.849-.975-.849-.397 0-.709.207-.895.572a9 9 0 0 0-.844 2.446 9 9 0 0 0-.844-2.446c-.185-.365-.498-.572-.894-.572-.498 0-.895.352-.976.849-.032.211-.13.407-.28.559a1 1 0 0 1-.558.279c-.497.08-.849.48-.849.976 0 .396.207.709.572.895.77.397 1.593.68 2.444.844a9 9 0 0 0-2.444.845c-.365.185-.572.497-.572.894 0 .498.352.895.849.976.211.032.407.13.559.28.15.152.247.347.279.558.08.497.48.849.976.849.397 0 .709-.207.894-.572.397-.77.682-1.593.845-2.444a9 9 0 0 0 .845 2.444c.186.365.498.572.894.572.498 0 .896-.352.976-.849.032-.21.13-.406.28-.559.152-.15.347-.247.558-.279.497-.08.85-.48.85-.976-.002-.396-.209-.708-.574-.894"/></g><defs><clipPath id="a"><path fill="#fff" d="M41.337 14h77.326v50H41.337z"/></clipPath></defs></svg>