<svg xmlns="http://www.w3.org/2000/svg" width="160" height="80" fill="none"><rect width="160" height="80" fill="#312359" rx="40"/><path fill="#fff" d="M85.335 54q-.437 0-.797-.214a1.6 1.6 0 0 1-.571-.571 1.54 1.54 0 0 1-.213-.797V46.82q0-.438.213-.797t.571-.572q.36-.213.797-.213h7.154v1.314h-6.972a.436.436 0 0 0-.45.45v5.232a.436.436 0 0 0 .45.45h6.972V54zM97.745 54q-.437 0-.797-.214a1.6 1.6 0 0 1-.572-.571 1.53 1.53 0 0 1-.213-.797V46.82q0-.438.213-.797t.572-.572.797-.213h5.597q.438 0 .797.213t.571.572.213.797v5.597q0 .438-.213.797t-.571.571a1.54 1.54 0 0 1-.797.213zm.037-1.315h5.524a.27.27 0 0 0 .207-.091.3.3 0 0 0 .085-.213v-5.524a.3.3 0 0 0-.085-.213.27.27 0 0 0-.207-.092h-5.524a.3.3 0 0 0-.213.092.3.3 0 0 0-.09.213v5.524q0 .12.09.213a.3.3 0 0 0 .213.091M108.695 54V45.25h7.167q.438 0 .803.22.365.219.578.577.212.36.213.785v2.458q0 .438-.213.797a1.6 1.6 0 0 1-1.381.785l-5.852.012V54zm1.619-4.454h5.524q.122 0 .207-.085a.28.28 0 0 0 .085-.207V46.87a.3.3 0 0 0-.085-.213.28.28 0 0 0-.207-.091h-5.524a.3.3 0 0 0-.213.09.3.3 0 0 0-.091.214v2.384q0 .122.091.207.09.085.213.085m5.56 4.453-2.737-3.273h1.715l2.556 3.03v.243zM121.168 54V45.25h7.166q.438 0 .804.22.365.219.577.577.213.36.213.785v2.458q0 .438-.213.797a1.59 1.59 0 0 1-1.381.785l-5.852.012V54zm1.618-4.454h5.524a.28.28 0 0 0 .206-.085.28.28 0 0 0 .086-.207V46.87a.3.3 0 0 0-.086-.213.27.27 0 0 0-.206-.091h-5.524a.29.29 0 0 0-.213.09.3.3 0 0 0-.092.214v2.384q0 .122.092.207.09.085.213.085M134.758 54q-.437 0-.797-.214a1.6 1.6 0 0 1-.571-.571 1.53 1.53 0 0 1-.213-.797v-.511h1.314v.475q0 .12.091.212a.3.3 0 0 0 .213.092h5.524a.27.27 0 0 0 .207-.092.3.3 0 0 0 .085-.212V50.58a.3.3 0 0 0-.085-.22.28.28 0 0 0-.207-.084h-5.56q-.438 0-.797-.213a1.6 1.6 0 0 1-.572-.573 1.54 1.54 0 0 1-.212-.797v-1.873q0-.438.212-.797.213-.359.572-.572t.797-.213h5.597q.437 0 .797.213.358.213.572.572.213.36.213.797v.511h-1.326v-.474a.3.3 0 0 0-.085-.213.27.27 0 0 0-.207-.092h-5.524a.3.3 0 0 0-.213.092.3.3 0 0 0-.091.213v1.8q0 .135.091.22a.3.3 0 0 0 .213.084h5.56q.438 0 .797.213t.573.572q.212.36.213.797v1.874q0 .438-.213.797t-.573.571a1.54 1.54 0 0 1-.797.213h-5.598M32.2 37.142v-1.857h-4.642l2.144-3.714h7.141v9.285H23.001c-3.064 0-5.57-2.507-5.57-5.57V31.57C17.43 28.508 19.936 26 23 26h13.842v3.714H24.412a2.346 2.346 0 0 0-2.34 2.34v2.748a2.346 2.346 0 0 0 2.34 2.34zM39.09 40.856 47.665 26h5.36l8.578 14.856h-5.36l-5.897-10.213-5.897 10.213zM64.013 40.856V26h4.635l7.392 9.003L83.433 26h4.635v14.856h-4.643v-8.994l-7.385 8.994-7.386-8.994v8.994H64.01zM91.608 26h4.643v14.856h-4.643zM99.79 40.856V26h4.652l11.047 9.882V26h4.643v14.856h-4.652l-11.047-9.881v9.88zM137.927 37.142v-1.857h-4.642l2.144-3.714h7.141v9.285h-13.843c-3.063 0-5.57-2.507-5.57-5.57V31.57c0-3.063 2.507-5.571 5.57-5.571h13.843v3.714h-12.432a2.347 2.347 0 0 0-2.339 2.34v2.748a2.346 2.346 0 0 0 2.339 2.34z"/><path fill="url(#a)" d="m46.505 40.895 3.837-6.644s4.079 6.55 3.836 6.644c-.244.095-7.673 0-7.673 0"/><defs><linearGradient id="a" x1="50.346" x2="50.346" y1="33.562" y2="39.771" gradientUnits="userSpaceOnUse"><stop stop-color="#16307C"/><stop offset=".95" stop-color="#28BCEA"/></linearGradient></defs></svg>