<svg width="160" height="80" fill="none" xmlns="http://www.w3.org/2000/svg">
<rect width="160" height="80" rx="40" fill="#312359"/>
<path fill-rule="evenodd" clip-rule="evenodd" d="M67.6739 34.9134C67.7259 34.8654 67.7779 34.8161 67.83 34.7667C67.934 34.668 68.0381 34.5693 68.1421 34.4812C68.5804 34.097 69.0156 33.7098 69.4508 33.3226C69.886 32.9354 70.3213 32.5482 70.7595 32.164C72.3443 30.7593 73.1848 28.9823 73.4009 26.8932C73.4661 26.241 73.5412 25.5986 73.6172 24.9483L73.641 24.7441C73.7611 23.6996 74.1453 22.7631 74.6615 21.8626C75.3219 20.71 76.1383 19.6535 77.0388 18.6809C78.1194 17.5403 79.416 16.7119 80.8928 16.1836C81.8293 15.8475 82.7898 15.5713 83.7503 15.3432C84.4827 15.1751 85.2271 15.043 85.9715 15.019C88.949 14.899 91.8305 15.3312 94.4959 16.7479C95.5285 17.3002 96.537 17.9005 97.5215 18.5369C98.1218 18.9211 98.7101 19.0171 99.3825 18.825C100.415 18.5369 101.46 18.2727 102.516 18.0446C103.693 17.7805 104.869 17.5403 106.058 17.3362C106.742 17.2162 107.439 17.1682 108.135 17.1321C108.447 17.1201 108.759 17.1802 109.072 17.2402C109.864 17.4083 110.26 17.9726 110.512 18.693C110.933 19.8696 111.281 21.0582 111.497 22.2948C111.523 22.4461 111.551 22.5973 111.578 22.7486C111.687 23.3537 111.797 23.9589 111.845 24.564C111.904 25.3379 111.922 26.1176 111.939 26.8991V26.8994C111.947 27.2333 111.954 27.5675 111.965 27.9018C111.965 27.9658 111.966 28.0298 111.968 28.0939C111.97 28.2219 111.973 28.35 111.965 28.4781C111.932 29.5484 111.67 30.5876 111.412 31.615L111.412 31.6151L111.353 31.8518C111.317 31.9839 111.317 32.14 111.365 32.2721C111.965 33.8929 112.481 35.5498 112.757 37.2667C113.034 38.9476 113.274 40.6284 113.226 42.3333C113.197 43.3731 113.136 44.413 113.076 45.4464L113.075 45.4558C113.061 45.696 113.047 45.9359 113.034 46.1753C113.024 46.3337 112.993 46.4993 112.963 46.6609C112.954 46.7076 112.946 46.7539 112.938 46.7997C112.906 46.9598 112.875 47.1212 112.844 47.2827C112.783 47.6055 112.721 47.9283 112.649 48.2404C112.624 48.3463 112.6 48.4523 112.575 48.5581L112.575 48.5583L112.575 48.5584L112.575 48.5586C112.445 49.1126 112.316 49.6653 112.145 50.2094C112.003 50.6454 111.818 51.0727 111.634 51.4988L111.634 51.499L111.633 51.5026L111.631 51.5062L111.596 51.5884C111.575 51.637 111.554 51.6856 111.533 51.7342L111.533 51.7346L111.533 51.7349L111.532 51.7351L111.532 51.7354C111.172 52.5514 110.812 53.3675 110.416 54.1715C110.31 54.3843 110.179 54.5875 110.049 54.7902L110.049 54.7902L110.049 54.7903L110.049 54.7903C109.974 54.9078 109.898 55.0251 109.828 55.144C109.312 56.0085 108.651 56.7409 107.979 57.4732C107.611 57.862 107.179 58.1863 106.747 58.5107L106.655 58.5803L106.562 58.6499C106.453 58.7343 106.343 58.819 106.234 58.9037C105.722 59.3009 105.212 59.6962 104.677 60.0426C103.717 60.6669 102.72 61.1952 101.628 61.5794C101.156 61.7441 100.69 61.9304 100.224 62.1165L100.224 62.1165C99.7055 62.3238 99.1871 62.5309 98.6621 62.708C97.6416 63.0442 96.585 63.3203 95.5405 63.5844C95.2276 63.6671 94.9118 63.7323 94.5973 63.7973L94.5972 63.7973C94.2722 63.8644 93.9487 63.9313 93.6315 64.0167C92.4549 64.3288 91.2542 64.5329 90.0416 64.665C89.4928 64.7199 88.9439 64.7539 88.3898 64.7882C88.2166 64.7989 88.0429 64.8097 87.8685 64.8211C87.5281 64.8381 87.1878 64.8571 86.8472 64.876L86.847 64.876C85.9861 64.924 85.1234 64.972 84.2546 64.9892C82.3456 65.0372 80.4366 64.9292 78.5516 64.581C75.9942 64.1127 73.5209 63.3803 71.0957 62.4679C69.835 61.9876 68.5984 61.4713 67.4458 60.775C66.5213 60.2107 65.6448 59.5864 64.9124 58.7939C63.9279 57.7374 63.1355 56.5608 62.9674 55.084C62.8474 54.0034 63.0875 52.9949 63.5917 52.0464C64.024 51.242 64.6123 50.5696 65.4047 50.1014C65.5488 50.0173 65.7049 49.9453 65.8729 49.8973L65.8731 49.8972L65.8732 49.8972L65.8734 49.8971L65.8736 49.8971C66.3176 49.7531 66.7616 49.6091 67.2176 49.4891C67.7579 49.345 68.2982 49.2369 68.8985 49.2489C68.8745 49.357 68.8505 49.441 68.8265 49.5251C68.6224 50.1854 68.4183 50.8578 68.4543 51.5662C68.4903 52.2385 68.7064 52.8148 69.2107 53.271C69.751 53.7753 70.3873 54.1115 71.1317 54.1835C72.0682 54.2916 72.7405 53.8233 73.2568 53.091C73.557 52.6707 73.8211 52.2265 73.9532 51.7222C73.9652 51.6622 74.0852 51.5902 74.1213 51.6022C74.6124 51.8273 75.1297 51.7995 75.6509 51.7715L75.6512 51.7715C75.7414 51.7667 75.8318 51.7618 75.9222 51.7583H76.2824C76.2439 51.8582 76.2104 51.9557 76.1779 52.0504C76.1088 52.2513 76.0441 52.4393 75.9462 52.6107C75.586 53.247 75.2018 53.8714 74.8056 54.4957C74.7216 54.6278 74.6015 54.7358 74.4814 54.8439C74.4125 54.9057 74.3439 54.968 74.2755 55.0303C73.9986 55.2821 73.7233 55.5325 73.4249 55.7443C73.2221 55.8762 72.9679 55.9395 72.7274 55.9994C72.6832 56.0104 72.6394 56.0213 72.5965 56.0325C71.3478 56.3206 70.2072 55.9845 69.0906 55.4562C68.2742 55.072 67.6259 54.5077 67.0856 53.7873C66.6979 53.2704 66.542 52.6763 66.3841 52.0742L66.3839 52.0735L66.3837 52.0728L66.3827 52.069C66.365 52.0015 66.3473 51.9339 66.3292 51.8663L66.3241 51.8405C66.3136 51.7864 66.3018 51.7258 66.2812 51.6742C66.2331 51.5662 66.1611 51.5421 66.077 51.6382C65.4887 52.3226 65.1045 53.091 65.1165 54.0274C65.1165 54.112 65.1148 54.1965 65.1131 54.281L65.1131 54.2813C65.1057 54.6409 65.0982 55.0005 65.2246 55.3601C65.3807 55.8284 65.6448 56.2246 65.945 56.6088C66.4733 57.2811 67.1456 57.7854 67.878 58.2296C67.99 58.2974 68.102 58.3656 68.2141 58.434C68.6188 58.6807 69.0251 58.9285 69.4388 59.1541C69.9551 59.4303 70.4834 59.6824 71.0356 59.9105C71.9001 60.2827 72.7766 60.6309 73.665 60.9551C74.0012 61.0831 74.348 61.1792 74.6948 61.2752L74.6949 61.2752C74.8683 61.3233 75.0417 61.3713 75.2138 61.4233C76.2944 61.7715 77.411 62.0236 78.5396 62.1797C79.0274 62.2505 79.5152 62.3007 79.9996 62.3505L79.9997 62.3505L79.9998 62.3506L79.9998 62.3506L80.0007 62.3507C80.2551 62.3768 80.5086 62.4029 80.7607 62.4318C81.337 62.4919 81.9253 62.5399 82.5136 62.5759C82.7469 62.5896 82.9802 62.5877 83.2135 62.5857H83.2138C83.3886 62.5843 83.5634 62.5828 83.7383 62.5879L84.4347 62.6059L85.131 62.6239C85.2457 62.6279 85.3604 62.6345 85.4756 62.6411L85.4759 62.6411L85.4761 62.6411L85.4764 62.6411C85.7105 62.6545 85.9463 62.668 86.1876 62.66C86.3862 62.6533 86.5812 62.6248 86.7745 62.5965C86.9317 62.5735 87.0879 62.5507 87.2441 62.5399C87.5118 62.5193 87.7756 62.5144 88.0399 62.5095H88.04H88.04H88.0401C88.2381 62.5058 88.4364 62.5022 88.6369 62.4919C88.7969 62.4839 88.957 62.4545 89.1171 62.4252C89.1971 62.4105 89.2772 62.3958 89.3572 62.3838C89.5894 62.3478 89.8215 62.3131 90.0536 62.2784L90.0537 62.2784C90.5179 62.209 90.9821 62.1397 91.4463 62.0597C92.5509 61.8675 93.6555 61.6634 94.7601 61.4473C95.0751 61.3887 95.3813 61.3077 95.6894 61.2262L95.6895 61.2262L95.6896 61.2262L95.6897 61.2262L95.69 61.2261C95.8865 61.1741 96.0839 61.1219 96.2849 61.0751C96.621 60.9911 96.9572 60.907 97.2814 60.799C97.8457 60.6069 98.398 60.4028 98.9503 60.1987C99.0332 60.1681 99.1178 60.1391 99.2028 60.11L99.2029 60.11L99.203 60.1099L99.2032 60.1099L99.2032 60.1098L99.2033 60.1098L99.2034 60.1098C99.3519 60.0589 99.5017 60.0076 99.6466 59.9465C99.9948 59.8025 100.355 59.6464 100.691 59.4783L100.789 59.4323C101.166 59.2552 101.55 59.0749 101.904 58.854C102.72 58.3497 103.513 57.8214 104.305 57.2811C104.989 56.8129 105.578 56.2246 106.118 55.5883C106.706 54.8919 107.271 54.1835 107.799 53.4511C108.031 53.1262 108.22 52.7653 108.41 52.4018L108.41 52.4017L108.411 52.4017L108.411 52.4016C108.466 52.2952 108.522 52.1885 108.579 52.0824C108.843 51.5782 109.108 51.0619 109.336 50.5456C109.744 49.6451 110.152 48.7327 110.356 47.7602C110.584 46.7036 110.788 45.6351 110.933 44.5665C111.052 43.693 111.076 42.7956 111.1 41.91L111.101 41.9011C111.108 41.5487 111.082 41.1914 111.055 40.8354L111.055 40.8352C111.04 40.6334 111.025 40.432 111.017 40.2322C111.013 40.1396 111.01 40.0457 111.007 39.9514L111.007 39.9508L111.007 39.9503C111.002 39.7635 110.996 39.575 110.981 39.3918C110.957 39.0436 110.921 38.7074 110.86 38.3713L110.845 38.2835L110.845 38.2832C110.718 37.5553 110.589 36.8176 110.416 36.1021C110.212 35.2736 109.96 34.4572 109.708 33.6408C109.651 33.4586 109.582 33.2797 109.513 33.1024L109.513 33.1023C109.45 32.9407 109.387 32.7805 109.336 32.6202C109.276 32.4161 109.156 32.3561 108.939 32.3441C108.723 32.3321 108.507 32.3081 108.315 32.224C108.111 32.14 108.087 31.9719 108.219 31.7918L108.304 31.6792L108.394 31.5602L108.394 31.5601C108.587 31.3044 108.779 31.0509 108.963 30.7833C109.03 30.6882 109.074 30.5781 109.119 30.4649C109.131 30.4351 109.143 30.4051 109.156 30.3751C109.163 30.3531 109.169 30.3312 109.175 30.3096C109.189 30.2602 109.203 30.2127 109.228 30.171C109.624 29.4626 109.804 28.7062 109.9 27.8898C109.984 27.2054 109.972 26.5451 109.912 25.8727C109.876 25.5398 109.845 25.2068 109.814 24.8739L109.814 24.8731C109.762 24.3179 109.711 23.7626 109.636 23.2073C109.564 22.667 109.42 22.1388 109.276 21.6105C109.156 21.1862 109.025 20.762 108.894 20.3377L108.894 20.3359C108.828 20.1244 108.763 19.913 108.699 19.7015C108.483 19.0171 108.291 18.873 107.559 18.9451C107.448 18.954 107.337 18.9627 107.225 18.9714L107.225 18.9714C106.589 19.021 105.949 19.071 105.326 19.1732C104.898 19.2402 104.483 19.3481 104.067 19.4562C103.887 19.503 103.706 19.5499 103.525 19.5934L103.351 19.6325L103.351 19.6326C103.034 19.7038 102.711 19.7764 102.396 19.8576C101.94 19.9776 101.484 20.1097 101.027 20.2417L101.027 20.2418C100.835 20.2898 100.643 20.3378 100.439 20.3858C100.322 20.4112 100.206 20.4381 100.09 20.465L100.09 20.4651C99.766 20.5402 99.4454 20.6146 99.1183 20.65C98.458 20.722 97.7976 20.674 97.2093 20.3138C97.0096 20.1939 96.8098 20.0719 96.6097 19.9496L96.6095 19.9495C96.1483 19.6677 95.6852 19.3847 95.2163 19.1252C95.1307 19.0776 95.0449 19.0297 94.959 18.9818L94.9571 18.9807L94.9553 18.9797C94.2832 18.6045 93.6005 18.2235 92.8991 17.9366C92.0706 17.5884 91.2062 17.3122 90.3297 17.0961C89.6454 16.928 88.937 16.856 88.2286 16.796C87.4722 16.7239 86.7279 16.7119 85.9715 16.832C85.8257 16.8544 85.6747 16.8585 85.5234 16.8626C85.3506 16.8673 85.1774 16.872 85.011 16.904C84.3026 17.0361 83.6062 17.2042 82.8979 17.3843C81.9013 17.6364 80.9888 18.0686 80.1364 18.6089C79.38 19.0892 78.6957 19.6775 78.0953 20.3498C77.363 21.1662 76.7867 22.0907 76.3184 23.0752C75.9462 23.8677 75.634 24.6841 75.466 25.5365C75.3339 26.2329 75.2378 26.9413 75.1538 27.6496C75.121 27.9555 75.1007 28.2639 75.0803 28.5726V28.5726L75.0803 28.5728C75.0559 28.9424 75.0315 29.3123 74.9857 29.6787C74.8897 30.3871 74.6615 31.0594 74.2773 31.6717C73.677 32.6322 72.7766 33.2566 71.8641 33.8689C71.5698 34.0675 71.28 34.2752 70.9892 34.4836C70.8055 34.6153 70.6213 34.7472 70.4353 34.8774L70.4199 34.8878C70.3515 34.9336 70.2741 34.9855 70.2072 34.9855C69.6545 34.9935 69.0964 34.9908 68.5401 34.9881C68.2626 34.9868 67.9856 34.9855 67.7099 34.9855C67.6859 34.9615 67.6739 34.9375 67.6739 34.9134ZM94.9762 42.5134L94.9924 42.4817L95.0036 42.4602C95.0298 42.4099 95.0543 42.363 95.0722 42.3093C95.1585 41.9992 95.2466 41.69 95.3345 41.3811L95.3346 41.3807L95.3348 41.3799C95.5769 40.5293 95.8182 39.6816 96.0207 38.8275C96.1882 38.1194 96.3316 37.4064 96.4753 36.6917C96.5582 36.2794 96.6413 35.8666 96.7291 35.4537C96.7411 35.3817 96.8612 35.2976 96.9332 35.2856C97.4076 35.2501 97.8936 35.2379 98.3683 35.226H98.3684L98.386 35.2256C98.428 35.2256 98.467 35.2226 98.506 35.2196C98.545 35.2166 98.5841 35.2136 98.6261 35.2136C98.8542 35.2256 98.9863 35.3937 98.9022 35.6098C98.398 36.8465 98.3739 38.1431 98.3739 39.4518C98.386 41.3608 98.6261 43.2578 98.9863 45.1308C99.0646 45.557 99.1744 45.977 99.2837 46.3952L99.2837 46.3953L99.2838 46.3954L99.2838 46.3956L99.2838 46.3957L99.2839 46.3958L99.2839 46.3959L99.284 46.3961L99.284 46.3962L99.284 46.3963L99.2841 46.3964L99.2841 46.3966L99.2841 46.3967L99.2842 46.3968L99.2842 46.3969L99.2842 46.3971L99.2843 46.3972C99.3257 46.5555 99.367 46.7136 99.4065 46.8717C99.4545 47.0758 99.3465 47.2559 99.1303 47.2439L98.9779 47.2298L98.9776 47.2298L98.9775 47.2298L98.9775 47.2297C98.3784 47.1744 97.7708 47.1182 97.1733 47.0518C96.9572 47.0278 96.8852 46.8957 96.8972 46.6796C96.9134 46.4292 96.9323 46.1788 96.9513 45.9282C97.0022 45.2534 97.0533 44.577 97.0533 43.8941C97.0533 43.4343 96.9882 42.9744 96.9237 42.5182L96.9237 42.5182L96.9236 42.5181L96.9236 42.518L96.9236 42.5179L96.9236 42.5178L96.9236 42.5178L96.9236 42.5177L96.9236 42.5176L96.9236 42.5175L96.9236 42.5174L96.9235 42.5173L96.9235 42.5172L96.9235 42.5172L96.9235 42.5171L96.9235 42.517C96.892 42.2947 96.8607 42.0732 96.8371 41.8531C96.8251 41.769 96.7891 41.685 96.7051 41.6009C96.6931 41.649 96.6781 41.694 96.663 41.739C96.648 41.784 96.633 41.8291 96.621 41.8771L95.3244 46.9197C95.3123 46.9798 95.3003 47.0398 95.2763 47.0758C95.2624 47.0898 95.2484 47.1044 95.2344 47.119C95.164 47.1928 95.0923 47.2679 95.0122 47.2679C94.9402 47.2679 94.8201 47.1599 94.7841 47.0638C94.6836 46.7792 94.5948 46.4887 94.5055 46.1964L94.5055 46.1963C94.4667 46.0695 94.4278 45.9423 94.3879 45.8151C94.2078 45.2569 94.0307 44.6986 93.8536 44.1403C93.6765 43.582 93.4994 43.0237 93.3193 42.4654C93.3045 42.4283 93.285 42.3958 93.2582 42.3508C93.2416 42.3231 93.2222 42.2906 93.1992 42.2493C93.1893 42.2989 93.1794 42.3362 93.1712 42.3672L93.1711 42.3672L93.1711 42.3673C93.1595 42.4111 93.1512 42.4422 93.1512 42.4774L93.1512 42.682C93.1506 44.1156 93.1501 45.5586 93.3793 46.9798C93.4033 47.1358 93.4393 47.2918 93.4753 47.4478L93.4754 47.448C93.5234 47.6761 93.4154 47.8322 93.1872 47.8322C92.6705 47.8557 92.1423 47.8677 91.6251 47.8795H91.6248L91.5904 47.8802C91.3022 47.8922 91.2062 47.7962 91.2302 47.508C91.2591 47.1778 91.2894 46.8476 91.3197 46.5178C91.3775 45.8885 91.4351 45.2609 91.4823 44.6385C91.5664 43.546 91.6504 42.4414 91.6865 41.3488C91.7225 40.2803 91.6985 39.2117 91.6624 38.1431C91.6264 37.1106 91.4463 36.1021 91.0741 35.1296L91.0702 35.1198C91.0236 35.0036 90.9813 34.8982 91.0981 34.7814C91.2302 34.6613 91.3383 34.6973 91.4703 34.7574C91.7765 34.8894 92.0797 35.0185 92.3829 35.1476C92.6861 35.2767 92.9892 35.4057 93.2953 35.5378C93.4394 35.5978 93.5234 35.6818 93.5594 35.8499C93.8874 37.4899 94.2242 39.1212 94.5622 40.7586L94.736 41.6009C94.7661 41.745 94.7961 41.8861 94.8261 42.0272L94.8262 42.0274C94.8561 42.1684 94.8861 42.3094 94.9161 42.4534C94.9259 42.4925 94.9437 42.4998 94.9629 42.5076L94.9685 42.5099C94.9711 42.511 94.9736 42.5121 94.9762 42.5134ZM77.2189 38.5754C77.1887 38.4178 77.1585 38.262 77.1286 38.1076C77.0514 37.7093 76.9759 37.3199 76.9067 36.9305C76.8707 36.7504 76.9788 36.6664 77.1468 36.6303C77.3103 36.6006 77.4748 36.5698 77.6399 36.5388L77.64 36.5388L77.6401 36.5388C78.0084 36.4697 78.3789 36.4002 78.7437 36.3422C79.5841 36.2061 80.4245 36.0807 81.265 35.9553C81.6852 35.8926 82.1054 35.8299 82.5257 35.7659C82.5642 35.7595 82.6063 35.7565 82.6517 35.7532C82.6912 35.7504 82.7332 35.7475 82.7778 35.7419C82.8039 35.8912 82.83 36.037 82.8558 36.1808L82.8562 36.1828L82.8564 36.1839V36.1839L82.8564 36.184C82.9133 36.5016 82.9684 36.8092 83.0179 37.1226C83.0419 37.2547 82.9819 37.3147 82.8618 37.3387C82.7658 37.3627 82.6697 37.3867 82.5857 37.4107C82.1895 37.5188 82.1895 37.5188 82.2135 37.915C82.2321 38.1797 82.2504 38.4448 82.2686 38.71L82.2687 38.7103L82.2687 38.7105C82.3564 39.985 82.4445 41.2634 82.5737 42.5254C82.7418 44.1823 83.0419 45.8151 83.6302 47.4C83.7143 47.6161 83.6182 47.7842 83.4021 47.8322C83.186 47.8802 82.9699 47.9313 82.7538 47.9823C82.5377 48.0333 82.3216 48.0843 82.1054 48.1324C81.7573 48.2044 81.6492 48.1324 81.5892 47.7842L81.1209 44.8667L81.1022 44.7597C81.0606 44.5218 81.0202 44.2905 80.9889 44.0502C80.9648 43.9182 80.9048 43.8821 80.7727 43.9061L80.7727 43.9062C80.3525 43.9782 79.9323 44.0502 79.5001 44.1103C79.332 44.1343 79.2479 44.2183 79.2119 44.3864L78.5276 47.8802C78.4435 48.2884 78.3475 48.3605 77.9393 48.2284C77.7717 48.1745 77.6041 48.1177 77.4365 48.0608L77.4364 48.0608L77.4363 48.0607L77.4362 48.0607L77.4361 48.0607L77.4359 48.0606L77.4358 48.0606L77.4357 48.0606L77.4356 48.0605L77.4355 48.0605L77.4354 48.0605L77.4353 48.0604L77.4352 48.0604L77.4351 48.0603L77.435 48.0603L77.4349 48.0603L77.4347 48.0602L77.4346 48.0602L77.4345 48.0602L77.4344 48.0601L77.4343 48.0601L77.4342 48.0601L77.4341 48.06L77.434 48.06L77.4339 48.06L77.4338 48.0599L77.4337 48.0599L77.4335 48.0599L77.4334 48.0598C77.2659 48.003 77.0983 47.9461 76.9307 47.8922C76.7266 47.8202 76.6426 47.6761 76.7026 47.472C77.0868 46.1994 77.2789 44.8907 77.447 43.57C77.6511 42.0092 77.7712 40.4363 77.7592 38.8515V38.7314C77.7712 38.5754 77.6991 38.5153 77.531 38.5393C77.4701 38.5567 77.4029 38.5615 77.3202 38.5674C77.2888 38.5697 77.2552 38.5721 77.2189 38.5754ZM79.356 40.1722C79.368 40.6404 79.368 41.1087 79.368 41.5769C79.368 41.781 79.452 41.8651 79.6682 41.8291C79.9323 41.781 80.1964 41.757 80.4606 41.733C80.6287 41.721 80.6767 41.637 80.6767 41.4809C80.6647 41.0066 80.6557 40.5354 80.6467 40.0641C80.6377 39.5929 80.6287 39.1216 80.6167 38.6474C80.6167 38.5033 80.5566 38.4433 80.4125 38.4673C80.1649 38.5104 79.9075 38.5438 79.6579 38.5762L79.5721 38.5874C79.392 38.6114 79.356 38.6954 79.356 38.8635V40.1722ZM100.235 36.9185C100.331 37.4708 100.427 38.0111 100.535 38.5754L100.561 38.5725L100.588 38.5698C100.665 38.5622 100.718 38.557 100.787 38.5273C101.087 38.5033 101.087 38.5033 101.087 38.8155C101.083 38.9835 101.082 39.1529 101.081 39.3227V39.3228V39.3228V39.3229V39.323V39.323V39.3231V39.3231V39.3232V39.3233V39.3233V39.3234V39.3235V39.3235V39.3236C101.078 39.6631 101.075 40.0043 101.051 40.3403C100.967 41.4929 100.871 42.6455 100.739 43.7981C100.595 45.0227 100.415 46.2354 100.043 47.412C99.9708 47.6401 100.043 47.7842 100.271 47.8682C100.445 47.9283 100.622 47.9853 100.799 48.0423C100.976 48.0993 101.153 48.1564 101.327 48.2164C101.652 48.3245 101.784 48.2404 101.844 47.9162C101.958 47.3279 102.072 46.7366 102.186 46.1453C102.3 45.554 102.414 44.9627 102.528 44.3744C102.552 44.1943 102.648 44.1103 102.828 44.0862C103.236 44.0382 103.645 43.9662 104.053 43.8942L104.053 43.8941C104.221 43.8581 104.281 43.9061 104.305 44.0742L104.665 46.2714C104.749 46.8117 104.833 47.352 104.929 47.8802C104.965 48.0843 105.085 48.1924 105.29 48.1444L105.29 48.1443C105.782 48.0362 106.274 47.9282 106.754 47.8082C106.91 47.7602 107.042 47.6401 106.97 47.448C106.382 45.8992 106.094 44.2904 105.914 42.6575C105.783 41.516 105.703 40.3618 105.623 39.2088L105.623 39.2087L105.623 39.2085L105.623 39.2084L105.623 39.2083L105.623 39.2081L105.623 39.208L105.623 39.2079L105.623 39.2077L105.623 39.2076L105.623 39.2075L105.623 39.2073L105.623 39.2072L105.623 39.207L105.623 39.2069L105.623 39.2068L105.623 39.2067L105.623 39.2066L105.623 39.2065L105.623 39.2064L105.623 39.2063L105.623 39.2062L105.623 39.2062L105.623 39.2061L105.623 39.206L105.623 39.2059L105.623 39.2058L105.623 39.2057L105.623 39.2056C105.593 38.771 105.563 38.3365 105.53 37.903C105.506 37.5098 105.518 37.5068 105.881 37.4129L105.89 37.4107C105.917 37.404 105.946 37.3982 105.975 37.3923C106.05 37.3772 106.13 37.3613 106.19 37.3267C106.262 37.2787 106.346 37.1826 106.334 37.1106C106.275 36.7466 106.208 36.3746 106.139 35.9945L106.139 35.9944L106.094 35.7419C106.054 35.7476 106.016 35.7506 105.98 35.7535C105.941 35.7566 105.903 35.7596 105.866 35.7659L105.423 35.8327C104.296 36.0027 103.161 36.1737 102.036 36.3542C101.694 36.4086 101.356 36.4732 101.018 36.538C100.834 36.5732 100.649 36.6085 100.463 36.6423C100.307 36.6664 100.199 36.7504 100.235 36.9185ZM103.921 40.0882H103.981C103.981 40.5444 103.981 41.0126 103.969 41.4689C103.981 41.637 103.921 41.721 103.741 41.733C103.465 41.757 103.176 41.793 102.9 41.8291C102.756 41.8411 102.684 41.793 102.672 41.649C102.672 41.619 102.669 41.5919 102.666 41.5649C102.663 41.5379 102.66 41.5109 102.66 41.4809C102.66 40.6044 102.66 39.74 102.648 38.8635C102.636 38.6834 102.696 38.5994 102.876 38.5754C103.14 38.5393 103.405 38.5033 103.669 38.4553C103.861 38.4313 103.921 38.5033 103.921 38.6834V40.0882ZM53.6866 38.5754C53.5785 38.0111 53.4825 37.4828 53.3864 36.9425C53.3504 36.7384 53.4704 36.6664 53.6385 36.6423C53.9333 36.5918 54.2266 36.5398 54.5194 36.4879L54.5195 36.4879L54.5197 36.4878L54.5197 36.4878L54.5197 36.4878L54.5198 36.4878L54.5198 36.4878L54.5198 36.4878L54.5199 36.4878L54.5199 36.4878L54.5199 36.4878L54.52 36.4878L54.52 36.4878L54.52 36.4878C55.062 36.3917 55.6024 36.2958 56.1478 36.2101C56.6406 36.129 57.1334 36.0544 57.6278 35.9796L57.628 35.9795L57.6282 35.9795L57.6283 35.9795L57.6285 35.9795C58.0856 35.9103 58.5441 35.8408 59.0053 35.7659C59.1854 35.7419 59.2695 35.7539 59.2935 35.958C59.3374 36.2982 59.4014 36.6384 59.467 36.9878L59.4856 37.0866C59.5096 37.2427 59.4736 37.3387 59.3055 37.3627C59.2341 37.3717 59.1626 37.3939 59.0961 37.4145C59.0732 37.4217 59.0509 37.4286 59.0294 37.4348L59.0204 37.4372C58.669 37.5308 58.6574 37.5339 58.6812 37.903C58.702 38.2397 58.7208 38.5773 58.7397 38.9154C58.786 39.7469 58.8325 40.5809 58.9093 41.4088C59.0894 43.2938 59.3535 45.1668 59.9418 46.9798C59.9658 47.0578 59.9928 47.1328 60.0199 47.2078L60.0199 47.2079L60.0199 47.2079C60.0469 47.283 60.0739 47.358 60.0979 47.436C60.1579 47.6281 60.0739 47.7962 59.8698 47.8442C59.4136 47.9523 58.9573 48.0603 58.5011 48.1564C58.2249 48.2164 58.1049 48.1444 58.0568 47.8562C57.9326 47.1313 57.8172 46.4064 57.7031 45.6892L57.703 45.6887L57.703 45.6886L57.6486 45.3469C57.5766 44.9267 57.5046 44.5065 57.4445 44.0742C57.4205 43.9302 57.3605 43.8941 57.2164 43.9182C56.8082 43.9902 56.388 44.0622 55.9678 44.1223C55.7877 44.1463 55.7036 44.2303 55.6676 44.4104L55.6674 44.4113C55.4394 45.5876 55.2113 46.7639 54.9832 47.9283C54.9112 48.2884 54.7911 48.3605 54.443 48.2404C54.0948 48.1324 53.7466 48.0123 53.4104 47.8922C53.1823 47.8082 53.1343 47.6761 53.1823 47.436C53.2318 47.2091 53.2831 46.9817 53.3344 46.7538L53.3344 46.7538L53.3345 46.7537C53.5195 45.9324 53.7059 45.1054 53.8186 44.2783C53.9764 43.1421 54.0697 41.9967 54.1631 40.8501C54.1763 40.6882 54.1895 40.5262 54.2028 40.3643C54.2308 40.0631 54.2303 39.762 54.2297 39.4608V39.4608C54.2293 39.2457 54.2288 39.0306 54.2389 38.8155C54.2509 38.5874 54.1788 38.4913 53.9507 38.5634C53.8787 38.5634 53.7946 38.5634 53.6866 38.5754ZM55.8117 40.1722H55.8237V41.5769C55.8237 41.781 55.9077 41.8651 56.1238 41.8291C56.3651 41.7831 56.6173 41.7591 56.8595 41.7361L56.8922 41.733C57.0843 41.721 57.1324 41.625 57.1324 41.4569C57.1084 40.5324 57.0843 39.5959 57.0723 38.6714C57.0723 38.5033 57.0003 38.4433 56.8322 38.4673C56.5561 38.5153 56.2919 38.5513 56.0158 38.5874C55.8477 38.6114 55.7997 38.6954 55.7997 38.8635C55.8177 39.188 55.8154 39.5192 55.8132 39.847V39.847V39.847V39.8471V39.8471V39.8471V39.8471V39.8471V39.8472V39.8472V39.8472V39.8472V39.8473V39.8473C55.8124 39.9561 55.8117 40.0645 55.8117 40.1722ZM83.8463 46.0553C84.3986 47.1959 85.4072 47.5801 86.4037 47.6401C87.2081 47.6281 87.7844 47.472 88.3247 47.2199C89.9215 46.5595 90.882 45.1428 90.846 43.4619C90.81 42.2373 90.3297 41.2888 89.1531 40.7845C88.9664 40.7045 88.7796 40.643 88.5929 40.5815L88.5928 40.5814C88.4434 40.5322 88.294 40.483 88.1446 40.4243C88.0398 40.3847 87.9336 40.3463 87.8272 40.3079L87.827 40.3078C87.4826 40.1835 87.1357 40.0583 86.8239 39.884C86.2836 39.5839 86.0795 38.8035 86.3316 38.2392C86.5598 37.7469 87.1361 37.5188 87.7844 37.6749L87.9285 37.7109C88.3367 37.831 88.3967 37.9991 88.2046 38.3713L88.2046 38.3713C88.1686 38.4313 88.1326 38.4913 88.1086 38.5634C87.8925 39.0796 88.1326 39.6199 88.6609 39.8C89.1051 39.9441 89.5133 39.86 89.8615 39.5599C90.6299 38.9235 90.6299 37.5548 89.8615 36.9185C89.3452 36.4983 88.7329 36.2702 88.0846 36.2101C86.7279 36.0781 85.5392 36.4382 84.7228 37.6028C84.1585 38.4313 84.0144 39.3798 84.1465 40.3643C84.2305 40.9886 84.5667 41.4689 85.107 41.781C85.3297 41.9109 85.5667 42.0121 85.8014 42.1124C85.8705 42.1419 85.9393 42.1712 86.0075 42.2013C86.2116 42.2856 86.4174 42.365 86.623 42.4443L86.6232 42.4444C86.9738 42.5796 87.3238 42.7147 87.6643 42.8736C88.2647 43.1618 88.6008 43.666 88.7209 44.3264C88.901 45.2989 88.4928 46.0913 87.6403 46.4035C86.932 46.6676 86.2116 46.4395 85.9114 45.8512C85.8514 45.7431 85.8154 45.6471 85.9955 45.6351C86.4277 45.623 86.7279 45.2388 86.7639 44.7226C86.8239 44.0262 86.3917 43.4619 85.6593 43.2458C84.9269 43.0417 84.2185 43.3058 83.8824 43.9302C83.5102 44.6265 83.5102 45.3589 83.8463 46.0553ZM65.6688 42.9817V42.3813C65.6455 41.1915 65.6108 40.0129 65.5758 38.8237L65.5758 38.8235L65.5758 38.8233L65.5758 38.8231L65.5758 38.8229L65.5758 38.8227L65.5758 38.8225L65.5758 38.8223L65.5758 38.8221L65.5758 38.8219L65.5758 38.8217L65.5758 38.8215L65.5728 38.7194C65.5608 38.2812 65.5548 37.8399 65.5488 37.3987C65.5428 36.9575 65.5368 36.5163 65.5248 36.0781C65.5248 35.886 65.5728 35.8019 65.7649 35.7659C65.931 35.7399 66.0949 35.7072 66.2585 35.6746C66.4732 35.6318 66.6874 35.589 66.9055 35.5618C67.1816 35.5258 67.2777 35.6578 67.2537 35.934C67.2358 36.2589 67.2148 36.5849 67.1937 36.9113C67.1439 37.6824 67.094 38.456 67.0856 39.2237C67.0737 40.3905 67.1326 41.5573 67.1921 42.7358L67.1921 42.7359L67.1936 42.7656C67.2296 43.6084 67.2786 44.4513 67.3276 45.2941C67.3603 45.856 67.3929 46.4179 67.4218 46.9798C67.4458 47.352 67.1696 47.5561 66.7974 47.472C66.5933 47.436 66.3892 47.412 66.1851 47.4C66.017 47.4 65.921 47.352 65.8369 47.1959C65.3386 46.3674 64.8374 45.542 64.3361 44.7165C63.8349 43.8911 63.3336 43.0657 62.8353 42.2373C62.7993 42.1772 62.7513 42.1292 62.6553 42.0932C62.638 42.266 62.6235 42.4389 62.609 42.6104C62.5934 42.7963 62.5779 42.9806 62.5592 43.1618C62.4632 44.3024 62.4271 45.431 62.4992 46.5715C62.5112 46.8117 62.3551 46.9317 62.103 46.8717C61.5387 46.7276 60.9744 46.5836 60.4101 46.4515C60.242 46.4155 60.218 46.3434 60.242 46.1873C60.276 45.9852 60.3104 45.7831 60.3447 45.581L60.3447 45.5809L60.3447 45.5809L60.3447 45.5809L60.3447 45.5809L60.3447 45.5809L60.3447 45.5808L60.3447 45.5808L60.3447 45.5808L60.3447 45.5808L60.3448 45.5807L60.3448 45.5807C60.5165 44.5703 60.6882 43.5599 60.8183 42.5494C60.9384 41.625 60.9984 40.7005 61.0224 39.776C61.0392 39.1611 61.0147 38.5402 60.9903 37.9218L60.9903 37.9216C60.9799 37.6586 60.9695 37.3961 60.9624 37.1346C60.9504 36.9065 61.0584 36.7864 61.2865 36.7744C61.7428 36.7624 62.187 36.7624 62.6432 36.7744C62.7153 36.7744 62.8354 36.8705 62.8474 36.9425C63.3636 39.0316 64.2881 40.9286 65.4047 42.7535C65.4344 42.8056 65.4687 42.8484 65.5048 42.8934C65.527 42.9211 65.5499 42.9496 65.5728 42.9817C65.6208 43.0057 65.6448 42.9937 65.6688 42.9817ZM71.666 44.5515C71.6795 44.9087 71.693 45.2659 71.708 45.623C71.684 45.623 71.672 45.623 71.648 45.611V47.532C71.648 47.6761 71.672 47.7602 71.8401 47.7602H73.689C73.9051 47.7602 74.0132 47.5921 73.9532 47.4C73.9385 47.3463 73.918 47.2927 73.8971 47.2382C73.8665 47.1586 73.8354 47.0773 73.8211 46.9918C73.7611 46.6557 73.6957 46.321 73.6304 45.9863L73.6303 45.9859C73.4996 45.3162 73.3689 44.6465 73.2808 43.9662C73.0287 42.0572 72.9687 40.1482 72.9807 38.2272C72.9807 38.0711 73.0407 37.9871 73.1848 37.951C73.3144 37.9222 73.4441 37.8896 73.5738 37.8569C73.7683 37.8079 73.9628 37.7589 74.1573 37.7229C74.7695 37.6149 75.3937 37.5068 76.018 37.3988L76.0183 37.3987C76.2104 37.3627 76.3184 37.3027 76.2944 37.0746C76.2669 36.8134 76.2551 36.5562 76.2434 36.2985V36.2985C76.2346 36.1059 76.2258 35.913 76.2104 35.7179C76.2104 35.6458 76.1143 35.5378 76.0543 35.5378C75.8502 35.5258 75.6461 35.5498 75.4419 35.5738C75.0934 35.6223 74.7465 35.6773 74.4 35.7323C73.8036 35.8269 73.2084 35.9212 72.6085 35.982C71.2758 36.1261 69.9311 36.2702 68.5744 36.1021C68.3102 36.0781 68.1902 36.1741 68.2022 36.4502C68.2262 36.7983 68.2562 37.1434 68.2862 37.4885L68.2862 37.4888C68.3162 37.834 68.3462 38.1791 68.3702 38.5273C68.3943 38.7434 68.4903 38.7915 68.6944 38.7555C69.0186 38.7074 69.3427 38.6624 69.6669 38.6174C69.9911 38.5724 70.3153 38.5273 70.6394 38.4793C70.9636 38.4313 71.0116 38.4433 71.0717 38.7555C71.1141 38.9907 71.1602 39.2251 71.2061 39.459L71.2062 39.4591L71.2062 39.4593L71.2062 39.4594L71.2062 39.4595L71.2063 39.4596L71.2063 39.4598L71.2063 39.4599L71.2063 39.46L71.2064 39.4601L71.2064 39.4603C71.3292 40.0856 71.4515 40.708 71.5039 41.3368C71.5849 42.4084 71.6255 43.4799 71.666 44.5515ZM48.6199 47.8682H47.7435C47.4313 47.8682 47.3472 47.7722 47.3472 47.46C47.3551 47.1955 47.3632 46.9306 47.3714 46.6656C47.4133 45.3065 47.4553 43.9418 47.4553 42.5855C47.4553 40.6645 47.3112 38.7434 46.927 36.8465L46.7829 36.2341C46.7229 35.97 46.855 35.8379 47.1191 35.8499C47.9115 35.898 48.6799 35.7659 49.4483 35.6098C50.4446 35.4178 51.4409 35.2137 52.4372 35.0096L52.4372 35.0096L52.4372 35.0096L52.4373 35.0096L52.4373 35.0096L52.4373 35.0096L52.4373 35.0096L52.4373 35.0096L52.4374 35.0096L52.4374 35.0096L52.4379 35.0095C52.4679 35.0035 52.5009 35.0005 52.534 34.9975C52.567 34.9945 52.6 34.9915 52.63 34.9855C53.0022 34.9615 53.1343 35.0815 53.0622 35.4417C52.9422 35.982 52.8101 36.5103 52.678 37.0386C52.642 37.1946 52.582 37.3507 52.522 37.4948C52.4499 37.6629 52.2578 37.7349 52.1017 37.6269C51.2133 37.0145 50.2648 37.1226 49.3043 37.4348C49.2082 37.4708 49.0882 37.5788 49.0761 37.6749C48.9201 38.4313 48.848 39.1997 48.9081 39.9681C48.9441 40.4243 49.0281 40.5084 49.4724 40.4123C49.7253 40.3552 49.9727 40.2648 50.2183 40.1751L50.2183 40.1751L50.2183 40.1751L50.2184 40.175C50.3342 40.1327 50.4496 40.0906 50.5649 40.0521C50.673 40.0161 50.8171 39.9921 50.8891 40.0401C50.9611 40.0882 51.0092 40.2322 51.0092 40.3403C50.9851 40.9766 50.9611 41.613 50.9131 42.2493C50.9011 42.3573 50.8411 42.4774 50.769 42.5374C50.649 42.6335 50.5289 42.5614 50.4329 42.4534C50.0607 42.0452 49.5924 42.0812 49.1362 42.2253C49.0641 42.2493 48.9921 42.3814 48.9921 42.4654C48.9681 44.1103 49.1962 45.7191 49.7605 47.2799C49.7725 47.3039 49.7815 47.3309 49.7905 47.358C49.7995 47.385 49.8085 47.412 49.8205 47.436C49.9046 47.6761 49.7845 47.8442 49.5324 47.8562C49.2442 47.8682 48.9321 47.8682 48.6199 47.8682ZM88.2287 48.6727L88.2286 48.6726C88.1124 48.7995 88.1543 48.917 88.1988 49.0417L88.2093 49.0715L88.2166 49.0929C88.242 49.1689 88.2698 49.2449 88.2978 49.3212L88.2978 49.3213L88.2978 49.3213C88.3757 49.534 88.4543 49.7484 88.4808 49.9693L88.5064 50.1871L88.5064 50.1872C88.5832 50.837 88.6609 51.4946 88.6609 52.1425C88.6609 52.9257 88.6078 53.7001 88.5548 54.4732V54.4733V54.4733V54.4734V54.4734V54.4735V54.4735V54.4736V54.4736L88.5442 54.6281L88.5288 54.8559C88.4688 55.7684 88.3847 56.6928 88.3007 57.6053C88.2887 57.7854 88.3607 57.8454 88.5168 57.8454C88.889 57.8334 89.2612 57.8214 89.6334 57.7974C89.8135 57.7854 89.8255 57.6654 89.8015 57.5333C89.7871 57.4517 89.7688 57.3702 89.7506 57.2886L89.7506 57.2884C89.7232 57.1659 89.6958 57.0434 89.6814 56.921C89.6454 56.6088 89.6214 56.2846 89.6094 55.9605C89.5914 55.5553 89.5936 55.1501 89.5959 54.7449C89.5966 54.6098 89.5974 54.4747 89.5974 54.3396C89.5974 54.2967 89.628 54.2539 89.6586 54.211C89.6709 54.1938 89.6831 54.1767 89.6934 54.1595C89.709 54.1751 89.7284 54.1907 89.7483 54.2067L89.7483 54.2067C89.7897 54.24 89.8333 54.2751 89.8495 54.3156C89.8779 54.3867 89.8937 54.462 89.9094 54.5366C89.9202 54.5879 89.9309 54.6388 89.9455 54.6878C90.1977 55.5042 90.4618 56.3206 90.726 57.1371C90.7488 57.1981 90.796 57.2495 90.8427 57.3004L90.8428 57.3004L90.8428 57.3005L90.8428 57.3005L90.8429 57.3006L90.8431 57.3008C90.8697 57.3298 90.8963 57.3587 90.918 57.3892C90.9421 57.3612 90.9714 57.3345 91.0008 57.3078C91.0595 57.2545 91.1182 57.2011 91.1342 57.1371C91.3863 56.1526 91.6264 55.18 91.8665 54.1955C91.8879 54.121 91.9068 54.0464 91.9255 53.9729C91.9489 53.8807 91.9719 53.7901 91.9986 53.7033C92.0123 53.6759 92.0377 53.6524 92.0636 53.6284C92.0832 53.6103 92.1032 53.5919 92.1187 53.5712C92.1547 53.6072 92.2027 53.6553 92.2387 53.7033C92.2543 53.7266 92.2598 53.755 92.265 53.7818C92.2678 53.7965 92.2705 53.8106 92.2748 53.8233C92.4789 54.8439 92.4428 55.8764 92.3108 56.909C92.2988 57.077 92.3108 57.1971 92.5029 57.2211L92.5656 57.2304L92.5657 57.2304C92.8675 57.2753 93.1602 57.3187 93.4634 57.3412L93.4658 57.3413C93.7325 57.3591 93.8639 57.3679 93.9156 57.3079C93.9658 57.2496 93.9405 57.1263 93.8906 56.8831L93.8906 56.8831L93.8836 56.8489C93.7275 56.1045 93.5714 55.3481 93.4634 54.5917C93.3433 53.8113 93.2713 53.0309 93.2353 52.2505C93.2113 51.7102 93.2473 51.17 93.3073 50.6297C93.3553 50.2094 93.4634 49.7892 93.5834 49.381C93.6435 49.1409 93.6435 49.0929 93.3793 49.1049C93.2496 49.1049 93.1221 49.1116 92.9959 49.1183H92.9958H92.9958H92.9957H92.9956H92.9956H92.9955H92.9954H92.9953H92.9953H92.9952H92.9952H92.9951H92.9951H92.9951H92.995H92.995C92.8295 49.1271 92.6662 49.1357 92.5029 49.1289C92.2507 49.1169 92.1307 49.2129 92.0827 49.4531L92.0826 49.4533C91.9145 50.2937 91.7465 51.134 91.5544 51.9624C91.4396 52.448 91.3053 52.9206 91.1707 53.3946C91.1223 53.5651 91.0738 53.7358 91.0261 53.9074C91.0141 53.9554 90.9541 54.0274 90.9301 54.0274C90.87 54.0154 90.822 53.9674 90.786 53.9194C90.75 53.8714 90.738 53.8233 90.726 53.7633C90.6239 53.271 90.5248 52.7757 90.4258 52.2803C90.3267 51.7851 90.2277 51.2899 90.1256 50.7978C90.0416 50.3775 89.9455 49.9453 89.8375 49.5251C89.8135 49.429 89.7294 49.333 89.6454 49.297C89.1895 49.081 88.7095 48.877 88.2296 48.6731L88.2295 48.673L88.2294 48.673L88.2293 48.6729L88.2292 48.6729L88.2291 48.6728L88.229 48.6728L88.2288 48.6727L88.2287 48.6727ZM77.0388 54.0755C77.0028 52.8508 77.2429 51.6742 77.8792 50.6177C78.6116 49.417 79.8242 49.0088 81.0969 49.5131C81.6612 49.7292 81.9494 50.2455 82.0214 50.8218C82.0814 51.326 82.0814 51.8543 82.0214 52.3706C81.9854 52.6467 81.8293 52.9349 81.6612 53.175C81.4211 53.5232 80.8448 53.6312 80.3885 53.4872C80.1004 53.3911 79.8963 52.9949 79.8963 52.5627V52.1064C79.9203 51.8303 80.0524 51.6742 80.3285 51.6862C80.5035 51.6862 80.6885 51.7361 80.8563 51.7812L80.9048 51.7943C81.0489 51.8303 81.1209 51.7943 81.0969 51.6502C81.0249 51.23 80.8088 50.8698 80.4366 50.6537C80.1244 50.4736 79.8002 50.5456 79.5001 50.7377C78.9478 51.0859 78.7077 51.6382 78.5276 52.2265C78.2754 53.0789 78.2514 53.9554 78.3835 54.8199C78.4795 55.4682 78.6476 56.1045 79.0078 56.6688C79.1639 56.909 79.356 57.1491 79.6682 57.1371C79.9803 57.1251 80.1724 56.8969 80.2805 56.6088C80.3645 56.3807 80.4246 56.1285 80.4606 55.8884C80.4846 55.7203 80.3765 55.6363 80.2084 55.6483C80.1275 55.6523 80.0466 55.655 79.9652 55.6577C79.8051 55.663 79.6432 55.6684 79.4761 55.6843C79.308 55.6963 79.2239 55.6243 79.1999 55.4562C79.1879 55.3722 79.1639 55.2761 79.1399 55.1921C79.0438 54.8919 79.0678 54.8319 79.38 54.7478C79.89 54.6158 80.3969 54.4838 80.9039 54.3519L80.9058 54.3514C81.4127 54.2194 81.9197 54.0874 82.4296 53.9554C82.6217 53.9074 82.7298 53.9554 82.7538 54.1595C82.7778 54.4597 82.8018 54.7598 82.8258 55.048C82.8378 55.2281 82.7658 55.3121 82.5857 55.3481C81.9974 55.4562 81.9854 55.4682 82.0214 56.0685C82.045 56.3873 82.0773 56.7061 82.1098 57.0263L82.1098 57.0264L82.1098 57.0266L82.1098 57.0267L82.1098 57.0268L82.1099 57.027L82.1099 57.0271L82.1099 57.0273C82.1434 57.358 82.1771 57.6902 82.2015 58.0255C82.2099 58.1009 82.189 58.1704 82.1675 58.2422C82.1582 58.2734 82.1487 58.305 82.1415 58.3377C82.0875 58.3257 82.0336 58.3107 81.9797 58.2958L81.9797 58.2957L81.9796 58.2957L81.9795 58.2957L81.9795 58.2957L81.9794 58.2957L81.9794 58.2957C81.9253 58.2807 81.8713 58.2657 81.8173 58.2537C81.349 58.1576 81.1569 57.8695 81.253 57.4012C81.2607 57.3704 81.2387 57.3346 81.2156 57.297C81.2027 57.2761 81.1895 57.2546 81.181 57.2331C81.1704 57.2373 81.1591 57.2416 81.1475 57.2459L81.1474 57.246C81.0928 57.2663 81.0305 57.2896 81.0009 57.3292C80.3405 58.4097 78.4195 58.2897 77.6871 56.933C77.2789 56.1646 77.0268 55.3601 77.0268 54.4717C77.0388 54.3396 77.0388 54.2075 77.0388 54.0755ZM87.2312 50.3264C87.2521 50.3055 87.2721 50.2855 87.2922 50.2695C87.2688 50.1644 87.2426 50.0735 87.2177 49.9872L87.2177 49.9871L87.2177 49.987C87.1914 49.8958 87.1666 49.8097 87.1481 49.7172C87.1241 49.5131 87.004 49.4531 86.8119 49.4771C86.7759 49.4831 86.7399 49.4861 86.7038 49.4891C86.6678 49.4921 86.6318 49.4951 86.5958 49.5011C86.0555 49.5851 85.5182 49.6692 84.9809 49.7532C84.4437 49.8373 83.9064 49.9213 83.3661 50.0053C83.174 50.0414 83.0779 50.1494 83.102 50.3415L83.102 50.3417C83.15 50.6058 83.198 50.8699 83.258 51.1219C83.27 51.182 83.3661 51.254 83.4261 51.254C83.6542 51.278 83.6903 51.4101 83.6783 51.5902C83.6663 51.9624 83.6542 52.3226 83.6302 52.6827C83.6167 52.8728 83.6043 53.0634 83.5919 53.2544L83.5919 53.2546C83.5496 53.9082 83.507 54.5657 83.4141 55.2161C83.3387 55.7439 83.2224 56.2601 83.1059 56.7769C83.0555 57.0006 83.005 57.2243 82.9579 57.4492C82.9548 57.4626 82.9515 57.476 82.9483 57.4894C82.9136 57.6315 82.8804 57.7676 83.0779 57.8334L83.0782 57.8335L83.0783 57.8336L83.0784 57.8336L83.0784 57.8336L83.0785 57.8336L83.0786 57.8336L83.0786 57.8337C83.2945 57.9056 83.5104 57.9776 83.7263 58.0375C84.0144 58.1096 84.0745 58.0856 84.1345 57.7974L84.2031 57.4655L84.2032 57.4649C84.3362 56.8221 84.4678 56.1856 84.5907 55.5402C84.6147 55.3722 84.6388 55.2041 84.8429 55.168C84.9068 55.1546 84.9716 55.1402 85.0371 55.1256C85.2055 55.0883 85.3784 55.0499 85.5512 55.024C85.8154 54.9759 85.9114 55.048 85.9474 55.3121C86.0075 55.7203 86.0705 56.1316 86.1335 56.5428C86.1966 56.954 86.2596 57.3652 86.3196 57.7734C86.3437 57.9415 86.4277 58.0255 86.5958 57.9895C86.8584 57.939 87.1126 57.88 87.3725 57.8196L87.3726 57.8196L87.5203 57.7854C87.7124 57.7494 87.7484 57.6533 87.6884 57.4492C87.4722 56.6808 87.2681 55.9004 87.1001 55.108C86.992 54.5797 86.944 54.0395 86.8959 53.4992V53.4991V53.4991V53.4991V53.499V53.499V53.499V53.4989C86.8239 52.6466 86.7519 51.7942 86.7038 50.9418C86.6798 50.5937 86.7399 50.5456 87.088 50.4376C87.1441 50.4136 87.1894 50.3682 87.2312 50.3264ZM85.6833 52.6467H85.7073V53.3311C85.7073 53.5352 85.6113 53.6553 85.3952 53.6793L85.3575 53.6834C85.0535 53.7167 84.9008 53.7334 84.8226 53.6649C84.7437 53.5958 84.7409 53.4396 84.7354 53.1257V53.1257L84.7348 53.091C84.7228 52.6107 84.7108 52.1425 84.6868 51.6622C84.6748 51.4221 84.7828 51.302 85.035 51.266L85.0642 51.2617C85.6117 51.1817 85.6243 51.1799 85.6833 51.7463C85.6993 51.9464 85.694 52.1465 85.6886 52.3466C85.686 52.4466 85.6833 52.5467 85.6833 52.6467ZM102.624 49.7772C103.056 49.7532 103.513 49.8853 103.933 50.1254C104.677 50.5336 104.545 51.5542 104.137 51.9504C103.921 52.1665 103.357 52.2385 103.092 52.0824C102.864 51.9504 102.792 51.6382 102.912 51.35C103.104 50.8818 102.924 50.6177 102.408 50.6177C102.036 50.6177 101.688 50.8578 101.592 51.218C101.472 51.6382 101.628 52.1425 102.012 52.3346C102.273 52.4696 102.559 52.5749 102.843 52.6798C102.963 52.7242 103.083 52.7684 103.2 52.8148C103.271 52.844 103.345 52.8704 103.42 52.8968L103.42 52.8969L103.42 52.897C103.559 52.9465 103.7 52.9966 103.825 53.0669C104.293 53.3071 104.581 53.6793 104.677 54.2075C104.696 54.301 104.727 54.3944 104.759 54.4882L104.759 54.4882C104.829 54.6957 104.899 54.905 104.833 55.12C104.617 55.8404 104.365 56.5248 103.717 56.981C102.936 57.5333 102.084 57.7254 101.147 57.5453C100.283 57.3772 99.7187 56.6448 99.7787 55.7564C99.8027 55.3722 99.8987 55.048 100.223 54.8079C100.487 54.6158 101.195 54.6398 101.556 54.8799C101.808 55.048 101.94 55.4322 101.856 55.7924C101.808 55.9965 101.712 56.1646 101.472 56.2006C101.267 56.2366 101.219 56.3927 101.364 56.5608C101.772 57.029 102.132 57.1371 102.66 56.8369C103.453 56.3927 103.597 55.3481 102.984 54.6758C102.66 54.3156 102.228 54.1355 101.784 53.9794C101.412 53.8474 101.027 53.6913 100.679 53.4992C100.295 53.2831 100.127 52.9349 100.127 52.4906L100.127 52.4217C100.126 51.9165 100.126 51.4132 100.367 50.9538C100.787 50.1734 101.46 49.8132 102.324 49.7892C102.396 49.7772 102.48 49.7772 102.624 49.7772ZM96.561 50.9418H97.2934C97.5215 50.9298 97.7616 50.9298 97.9657 50.9298C98.1578 50.9418 98.2659 50.8698 98.2779 50.6777C98.2899 50.5156 98.3049 50.3506 98.3199 50.1855L98.3199 50.1854V50.1854V50.1853L98.3199 50.1852L98.3199 50.1851C98.3349 50.0201 98.3499 49.8551 98.3619 49.6932C98.386 49.5011 98.2539 49.4771 98.1098 49.5131C97.1733 49.7052 96.2128 49.8012 95.2523 49.8252C94.9041 49.8252 94.8681 49.8853 94.9161 50.2335C94.9241 50.3081 94.9327 50.3833 94.9414 50.459L94.942 50.4644L94.9421 50.4651L94.9421 50.4653V50.4653V50.4653V50.4654C94.9722 50.7286 95.0029 50.9973 95.0122 51.266C95.0482 52.2745 95.0722 53.2831 95.0722 54.2916C95.0842 55.2521 94.9882 56.2126 94.7601 57.1491C94.676 57.5093 94.7 57.5573 95.0722 57.5333C95.6049 57.5066 96.1311 57.4603 96.6603 57.4137L96.6628 57.4135C96.8484 57.3971 97.0345 57.3808 97.2213 57.3652L98.9142 57.2211C99.0823 57.2091 99.1784 57.1131 99.1904 56.945C99.2144 56.5968 99.2384 56.2486 99.2504 55.9004C99.2624 55.7083 99.1544 55.6723 98.9983 55.7564C98.482 56.0325 97.9177 56.1526 97.3294 56.2126C97.2494 56.2206 97.1693 56.2273 97.0893 56.2339C96.9292 56.2473 96.7691 56.2606 96.609 56.2846C96.3089 56.3327 96.2128 56.2846 96.1768 55.9845C96.1168 55.4322 96.0807 54.8799 96.0567 54.3276C96.0447 53.8834 96.1648 53.7273 96.621 53.6673C96.8923 53.6371 97.1803 53.649 97.4641 53.6607H97.4641H97.4641H97.4642H97.4642L97.5358 53.6637L97.6296 53.6673C97.8577 53.6793 97.9297 53.6432 97.9297 53.4151C97.9417 53.2711 97.9417 53.115 97.9297 52.9589C97.8937 52.4186 97.8577 52.3946 97.3534 52.5867C97.0052 52.7188 96.6571 52.7068 96.3089 52.5867C96.1648 52.5387 96.0567 52.4426 96.0807 52.2625C96.1128 51.9523 96.1545 51.6516 96.1972 51.3434L96.1972 51.3433L96.1972 51.3432L96.1972 51.343L96.2128 51.23C96.2368 51.0259 96.3569 50.9418 96.561 50.9418ZM81.193 28.6462H79.7162C79.5481 28.6342 78.9718 28.8142 78.7437 29.0424C78.6356 29.1264 78.5156 29.2225 78.4435 29.3425C78.0593 29.9188 78.3595 30.5432 78.8037 31.0114C79.0633 31.2794 79.3405 31.524 79.6188 31.7697L79.6192 31.77L79.6193 31.7702C79.7399 31.8766 79.8606 31.9832 79.9803 32.092C80.7968 32.8364 81.6732 33.4847 82.6337 34.025C83.7143 34.6253 84.8549 35.0815 86.1035 35.2136C86.7879 35.2856 87.4722 35.2376 88.1206 35.0935C89.1771 34.8534 89.9455 34.1931 90.4258 33.2206C90.6419 32.7883 90.822 32.3561 91.0021 31.9119C91.1248 31.6116 91.2492 31.3114 91.3737 31.0109L91.3743 31.0095L91.3748 31.0082C91.713 30.1921 92.0519 29.3743 92.3588 28.5501C92.6075 27.8713 92.8411 27.1849 93.0745 26.4994L93.0745 26.4992C93.258 25.9603 93.4412 25.4219 93.6315 24.8882C93.9316 24.0598 93.9676 23.2193 93.7155 22.3789C93.5954 21.9947 93.2593 21.6105 92.791 21.7906C92.5989 21.8626 92.4188 21.9827 92.2627 22.1267C91.5882 22.751 90.9223 23.3796 90.2573 24.0073C89.8096 24.4299 89.3623 24.8521 88.913 25.2724C88.6552 25.5128 88.3974 25.7552 88.139 25.9981L88.138 25.9991L88.1376 25.9995L88.1375 25.9996C87.5059 26.5934 86.8708 27.1906 86.2236 27.7697C85.6473 28.274 84.9509 28.5621 84.1705 28.6342C83.9904 28.6462 83.8224 28.6462 83.6423 28.6462H83.6422C83.5102 28.6462 83.3781 28.6522 83.2461 28.6582L83.246 28.6582C83.114 28.6642 82.9819 28.6702 82.8498 28.6702C82.2976 28.6702 81.7453 28.6582 81.1931 28.6462L81.193 28.6462ZM90.6299 18.2847C91.3263 18.2727 91.9386 18.4288 92.4669 18.789C92.791 19.0171 93.0191 19.3293 93.1152 19.7375C93.2113 20.1937 92.8631 20.4939 92.4789 20.5419C92.2636 20.5658 92.0484 20.558 91.8296 20.55C91.7189 20.546 91.6073 20.5419 91.4944 20.5419H90.6779C89.9575 20.5539 89.2612 20.698 88.6008 20.9621C87.6643 21.3343 86.98 21.9707 86.5718 22.8952C86.5117 23.0392 86.4397 23.1713 86.3677 23.3034C86.2716 23.4835 86.0915 23.5555 85.9114 23.5075C85.8034 23.4715 85.6833 23.3394 85.6353 23.2193C85.4608 22.8353 85.5568 22.4401 85.6504 22.0554L85.6593 22.0187C85.8154 21.3463 86.1035 20.734 86.5478 20.2177C87.2201 19.4373 88.0245 18.837 89.0451 18.5609C89.5854 18.4168 90.1256 18.2847 90.6299 18.2847ZM78.1794 22.4269C77.9393 23.0632 77.8912 23.7356 77.9393 24.4079C77.9495 24.449 77.9617 24.491 77.9742 24.534C78.0056 24.6419 78.0387 24.756 78.0473 24.8762C78.1554 25.6206 78.4675 26.2929 78.9838 26.8452C79.6201 27.5176 80.3765 27.8417 81.313 27.5776C82.1054 27.3495 82.6577 26.8452 82.9459 26.0888C83.2821 25.1884 83.2941 24.2639 83.0299 23.3394C82.8138 22.559 82.4896 21.8626 81.9013 21.2983C81.241 20.674 80.4726 20.5419 79.6441 20.77C78.8277 20.9982 78.4555 21.6945 78.1794 22.4269Z" fill="white"/>
</svg>
