<svg width="160" height="80" fill="none" xmlns="http://www.w3.org/2000/svg">
<rect width="160" height="80" rx="40" fill="#312359"/>
<path d="M34.1281 26.2862C26.4914 26.0628 20.0711 32.2308 20.0006 39.8705C19.9687 43.321 21.214 46.4782 23.2884 48.9055C23.8948 47.3995 24.7331 45.1142 25.6905 41.6138C27.4753 35.0905 27.6909 31.9544 27.5825 30.4935C27.55 30.0594 28.0251 29.7745 28.3888 30.0136L30.6825 31.519C31.1389 31.8183 31.3624 32.3693 31.2443 32.9022L30.3621 36.8765C30.8469 35.7547 31.9483 34.6581 32.7046 33.9939C33.1484 33.6043 33.7963 33.5592 34.2907 33.8831L37.0709 35.7041C37.5262 36.0022 37.7502 36.5502 37.6352 37.0813L37.0763 39.6568C37.92 38.683 38.8094 38.1736 39.4031 37.9189C39.803 37.7473 40.263 37.7942 40.6273 38.0327L42.9331 39.5429C43.5136 39.9229 43.4648 40.7888 42.8451 41.1014L39.2014 42.9404C39.2014 42.9404 40.8622 38.7764 39.8584 38.3976C38.9196 38.0429 36.8042 42.4864 36.196 44.0923C36.0828 44.391 35.8545 44.6301 35.5697 44.774L32.271 46.439C31.8603 46.6462 31.4027 46.2578 31.5382 45.8188C35.032 34.4841 33.6277 34.1577 33.6277 34.1577C32.9105 33.6959 30.8312 37.5197 29.3505 42.5658C28.6863 44.8288 28.0847 46.9888 27.8126 48.6568L24.6403 50.2815C27.1586 52.5077 30.4988 53.8252 34.1498 53.7132C41.5035 53.488 47.4253 47.3838 47.4385 40.0265C47.4524 32.5746 41.5246 26.5047 34.1287 26.288L34.1281 26.2862Z" fill="url(#paint0_linear_7088_866)"/>
<path d="M61.0405 41.9606L56.6862 32.627H53.022V47.6945H56.6001V40.1282L60.1782 47.6945H61.9028L65.5026 40.1282V47.6945H69.0596V32.627H65.4165L61.0405 41.9606Z" fill="white"/>
<path d="M79.1906 42.8229C80.3257 41.7884 81.1489 40.858 81.6589 40.0312C82.169 39.2051 82.4243 38.2386 82.4243 37.1318C82.4243 36.2123 82.2087 35.3855 81.7775 34.6526C81.3464 33.9198 80.7213 33.3453 79.9018 32.928C79.0828 32.5113 78.1127 32.303 76.9921 32.303C76.0148 32.303 75.0952 32.4288 74.2329 32.6805C73.3706 32.9322 72.6161 33.2809 71.9694 33.7259V37.369C72.5734 36.9096 73.2309 36.5501 73.9421 36.2912C74.6533 36.0328 75.3753 35.9034 76.1087 35.9034C77.6177 35.9034 78.3723 36.5718 78.3723 37.908C78.3723 38.3536 78.2247 38.8064 77.9303 39.2659C77.6358 39.7259 77.2619 40.1788 76.8096 40.6238C76.3568 41.0694 75.7065 41.6655 74.8586 42.4128L73.8241 43.3396L71.4316 45.517V47.6939H82.8994V44.568H77.2733L79.1918 42.8217L79.1906 42.8229Z" fill="white"/>
<path d="M96.1121 34.0065C95.0631 33.087 93.6619 32.627 91.909 32.627H85.27V47.6945H89.0854V43.1896H91.909C93.6769 43.1896 95.0806 42.726 96.1229 41.7992C97.1647 40.8725 97.6856 39.561 97.6856 37.8652C97.6856 36.1695 97.1611 34.9266 96.1121 34.0065ZM94.4447 38.1416L89.5569 40.8586C89.3437 40.9773 89.0812 40.8231 89.0812 40.5786V35.144C89.0812 34.8995 89.3437 34.7454 89.5569 34.864L94.4447 37.581C94.6645 37.7033 94.6645 38.0188 94.4447 38.141V38.1416Z" fill="url(#paint1_linear_7088_866)"/>
<path d="M103.872 44.4825V32.627H100.057V47.6945H110.425V44.4825H103.872Z" fill="white"/>
<path d="M116.461 32.627L110.425 47.6945H114.348L115.556 44.5903H121.117L122.324 47.6945H126.226L120.212 32.627H116.461H116.461ZM116.483 41.6589L118.336 36.5935L120.168 41.6589H116.482H116.483Z" fill="white"/>
<path d="M135.948 32.627L132.391 38.4686L128.985 32.627H124.911L130.472 41.9606V47.6945H134.288V41.9606L140 32.627H135.948Z" fill="white"/>
<defs>
<linearGradient id="paint0_linear_7088_866" x1="23.0319" y1="48.3425" x2="44.2801" y2="31.7623" gradientUnits="userSpaceOnUse">
<stop stop-color="#00FF00"/>
<stop offset="0.08" stop-color="#00FB08"/>
<stop offset="0.22" stop-color="#00F121"/>
<stop offset="0.4" stop-color="#00E149"/>
<stop offset="0.6" stop-color="#00CB80"/>
<stop offset="0.83" stop-color="#00AFC5"/>
<stop offset="1" stop-color="#0098FF"/>
</linearGradient>
<linearGradient id="paint1_linear_7088_866" x1="82.7192" y1="45.1955" x2="94.3327" y2="33.5814" gradientUnits="userSpaceOnUse">
<stop stop-color="#00FF00"/>
<stop offset="0.08" stop-color="#00FB08"/>
<stop offset="0.22" stop-color="#00F121"/>
<stop offset="0.4" stop-color="#00E149"/>
<stop offset="0.6" stop-color="#00CB80"/>
<stop offset="0.83" stop-color="#00AFC5"/>
<stop offset="1" stop-color="#0098FF"/>
</linearGradient>
</defs>
</svg>
