<svg xmlns="http://www.w3.org/2000/svg" width="30" height="30" fill="none"><g clip-path="url(#a)" filter="url(#b)"><path fill="#25ECFF" d="m24.312 22.69-3.901-3.925a9.32 9.32 0 0 0 2.358-6.186c0-5.122-4.144-9.29-9.235-9.29s-9.235 4.168-9.235 9.29 4.144 9.29 9.235 9.29a9.17 9.17 0 0 0 4.893-1.42l4.056 4.08c.242.244.573.378.903.378s.662-.134.904-.377c.529-.51.529-1.33.022-1.84M6.878 12.578c0-3.68 2.975-6.696 6.656-6.696s6.634 3.015 6.634 6.696-2.975 6.696-6.634 6.696-6.656-2.994-6.656-6.696"/></g><defs><clipPath id="a"><path fill="#fff" d="M.5.5h29v29H.5z"/></clipPath><filter id="b" width="27.167" height="28.394" x=".911" y="3.288" color-interpolation-filters="sRGB" filterUnits="userSpaceOnUse"><feFlood flood-opacity="0" result="BackgroundImageFix"/><feColorMatrix in="SourceAlpha" result="hardAlpha" values="0 0 0 0 0 0 0 0 0 0 0 0 0 0 0 0 0 0 127 0"/><feOffset dy="3.388"/><feGaussianBlur stdDeviation="1.694"/><feComposite in2="hardAlpha" operator="out"/><feColorMatrix values="0 0 0 0 0 0 0 0 0 0 0 0 0 0 0 0 0 0 0.25 0"/><feBlend in2="BackgroundImageFix" result="effect1_dropShadow_6293_52808"/><feBlend in="SourceGraphic" in2="effect1_dropShadow_6293_52808" result="shape"/></filter></defs></svg>