<svg xmlns="http://www.w3.org/2000/svg" width="160" height="80" fill="none"><rect width="160" height="80" fill="#312359" rx="40"/><path fill="#fff" d="m28.322 35.044-7.839.246a.49.49 0 0 0-.354.167.5.5 0 0 0-.128.369l.143 2.134c.02.265.24.472.507.467l2.129-.025.482 10.023a.5.5 0 0 0 .536.477l2.404-.163a.5.5 0 0 0 .468-.516l-.28-9.875 2.109-.024a.48.48 0 0 0 .359-.163.5.5 0 0 0 .133-.373l-.153-2.277a.504.504 0 0 0-.516-.467m9.127.654-2.37-.128a.497.497 0 0 0-.507.477l-.034 5.227-1.033.222-.26-5.931a.5.5 0 0 0-.497-.477l-2.336.059a.506.506 0 0 0-.507.511l.428 13.185c.005.27.226.491.497.496l2.336-.059c.137 0 .265-.05.359-.147a.51.51 0 0 0 .147-.36l-.255-4.415.914.064.162 3.953a.51.51 0 0 0 .497.526l2.44.168h.029a.5.5 0 0 0 .477-.487l.01-12.363a.5.5 0 0 0-.138-.364.5.5 0 0 0-.36-.157m8.788-1.107-2.16.163a.5.5 0 0 0-.462.496s.02 8.252-.01 9.329c-.019.64.07 1.716-.634 1.746-.482.02-.649-.684-.659-1.682-.01-1.121.084-8.798.084-8.876a.5.5 0 0 0-.447-.507l-2.45-.26a.49.49 0 0 0-.388.127.49.49 0 0 0-.162.379s.093 9.668.098 10.007c.03 1.254.994 3.502 3.713 3.428 3.049-.084 3.6-1.898 3.786-4.018.08-.88.222-8.94.232-9.835a.5.5 0 0 0-.158-.369.5.5 0 0 0-.383-.128m9.476.526-2.238.109a.5.5 0 0 0-.477.536l.37 6.19-2.317-6.397a.5.5 0 0 0-.521-.324l-2.243.245a.5.5 0 0 0-.447.507l.369 12.205a.5.5 0 0 0 .467.497l2.247.167a.508.508 0 0 0 .541-.526l-.35-5.34 1.943 5.547c.07.186.241.314.443.33h2.419a.5.5 0 0 0 .325-.139.53.53 0 0 0 .157-.368l-.142-12.737a.5.5 0 0 0-.158-.359.53.53 0 0 0-.388-.142m3-.26q-.236-.001-.477.005a.5.5 0 0 0-.487.487l-.404 12.682a.5.5 0 0 0 .463.516c.01 0 .295.025.742.025 1.574 0 5.336-.285 6.201-2.93.723-2.199.605-5.204.423-6.635-.359-2.793-2.473-4.15-6.462-4.15m3.348 8.355c-.265 2.144-.939 2.277-1.676 2.532l.344-7.966c.255.069.58.059.993.61.61.806.6 2.729.34 4.824m10.45 3.103-2.94.231-.138-2.744 1.903-.108a.5.5 0 0 0 .467-.448l.177-1.687a.5.5 0 0 0-.133-.398.52.52 0 0 0-.393-.157l-2.065.108v-2.985h3.053a.497.497 0 0 0 .502-.502c0-.039-.005-.073-.01-.113l-.172-1.79a.5.5 0 0 0-.516-.452l-5.587.138a.5.5 0 0 0-.487.506l.178 12.545a.503.503 0 0 0 .501.497h5.65a.5.5 0 0 0 .502-.487l.044-1.638a.5.5 0 0 0-.157-.379.48.48 0 0 0-.379-.137m9.137-7.357c-.123-1.76-.733-4.096-4.563-4.096-.822 0-1.785.108-2.867.32a.5.5 0 0 0-.404.501l.177 12.274c.005.26.207.472.463.492l1.76.138a.48.48 0 0 0 .379-.133.5.5 0 0 0 .162-.369v-3.959l.895-.049.993 4.24a.5.5 0 0 0 .492.407h.04l1.76-.137a.5.5 0 0 0 .359-.192.5.5 0 0 0 .098-.393l-1.249-4.716c.87-.674 1.682-1.884 1.505-4.328m-3.177 1.731c-.452.487-1.23.635-1.72.674v-3.62a2.3 2.3 0 0 1 .481-.054c.674 0 1.495.3 1.603 1.741.044.536-.074.95-.364 1.26m9.885 1.864c.727-.959 2.567-3.182 2.375-7.072a.5.5 0 0 0-.536-.477l-2.09.138a.5.5 0 0 0-.467.536c.073 1.102-.654 3.452-1.702 4.932l.153-4.784a.48.48 0 0 0-.148-.364.49.49 0 0 0-.364-.148l-2.695.04a.493.493 0 0 0-.492.511l.271 12.702a.5.5 0 0 0 .177.369.5.5 0 0 0 .394.118l2.1-.28a.51.51 0 0 0 .437-.492l.034-3.723c.428.256 1.677 2.066 1.889 3.856.03.255.246.447.501.442l2.213-.01h.03a.48.48 0 0 0 .324-.152.5.5 0 0 0 .143-.364c-.02-.443-.772-4.347-2.547-5.778m6.265-7.81-2.395.31a.5.5 0 0 0-.438.497l-.02 12.447a.503.503 0 0 0 .527.501h.014l2.607-.192a.505.505 0 0 0 .467-.506l-.187-12.56a.51.51 0 0 0-.575-.497m5.094.365c-.728.049-3.108.472-3.304 3.983l-.074 1.274c-.143 2.385-.246 4.11.059 5.606.187.895.93 2.965 3.885 2.965.182 0 .373-.01.565-.025 1.235-.103 2.149-.496 2.715-1.175.811-.964.703-2.198.644-2.862l-.01-.133a.5.5 0 0 0-.521-.462l-1.864.083a.5.5 0 0 0-.369.187.53.53 0 0 0-.108.399c.039.25.084 1.047-.241 1.44-.083.099-.236.237-.585.242h-.025c-.27 0-.472-.08-.63-.251-.27-.285-.574-.989-.49-2.695.019-.398.038-.86.058-1.352.05-1.279.108-2.735.226-3.644l.005-.03c.089-.693.222-.988.802-1.013.413-.02.703.064.856.25.196.237.172.635.147.768a.5.5 0 0 0 .103.413.5.5 0 0 0 .384.187l2.247.03a.51.51 0 0 0 .507-.487c.005-.06.039-1.426-.994-2.498-.87-.91-2.217-1.318-3.988-1.2m14.935 12.726c-.035-.147-1.003-3.953-2.975-5.753.964-.91 2.936-2.71 2.277-6.801a.5.5 0 0 0-.551-.418l-2.597.29a.5.5 0 0 0-.344.197.49.49 0 0 0-.093.383c.005.04.536 2.995-1.476 4.77l.05-5.04a.5.5 0 0 0-.561-.502l-2.596.29a.503.503 0 0 0-.448.512l.305 12.618a.505.505 0 0 0 .521.487c.015 0 .025 0 .04-.005l2.193-.246a.505.505 0 0 0 .447-.472l.182-3.944c.689.718 1.854 2.552 2.041 4.092.034.275.28.467.556.437l2.591-.29a.507.507 0 0 0 .438-.605M138.618 43.07l.679-4.736-2.838-5.94-1.928.658-2.512-2.695-4.441-2.42-.974 3.59-.688-1.883-3.413 3.334-1.908 3.334-.084 3.458-1.342-.64.915 5.537 2.08 3.566 4.903 1.681 4.017.148 6.924-2.532L140 42.602zm-2.995-2.632-3.924.108-.143 4.416-.211 2.617-3.423-.035v-2.508l-.28-4.381-4.101.177-.143-4.24 6.044-.034 6.255-.177.108.566z"/></svg>