<svg xmlns="http://www.w3.org/2000/svg" width="160" height="80" fill="none"><rect width="160" height="80" fill="#312359" rx="40"/><g fill="#fff" clip-path="url(#a)"><path d="M30.866 65.567q-.363 0-.56-.203-.195-.204-.196-.565v-8.786q0-.377.204-.572t.566-.196h3.472q1.656 0 2.556.819.9.82.9 2.298c0 .986-.3 1.766-.9 2.312q-.9.82-2.556.82H31.62v3.305q0 .362-.189.565-.188.204-.566.203m.755-5.277h2.513q1.09 0 1.648-.486.56-.485.56-1.442c0-.638-.187-1.104-.56-1.428q-.558-.485-1.648-.486H31.62zM40.248 65.466q-.392 0-.603-.21t-.21-.602v-8.597q0-.392.21-.602t.603-.21h5.302q.304 0 .465.152.16.153.16.442 0 .305-.16.464t-.465.16h-4.663v3.204h4.343q.32-.001.472.16.153.159.153.449 0 .304-.153.456-.152.153-.472.152h-4.343v3.364h4.663q.304 0 .465.16.16.16.16.449 0 .305-.16.456-.16.153-.465.153zM48.702 65.567q-.335 0-.523-.188-.189-.189-.189-.537v-8.945q0-.361.182-.558a.63.63 0 0 1 .486-.195q.26-.001.4.094a1.6 1.6 0 0 1 .326.34l5.985 7.873h-.363v-7.597q0-.333.181-.522.182-.188.516-.188c.223 0 .406.063.523.188q.174.188.174.522v9.003q0 .333-.167.522a.56.56 0 0 1-.443.188.8.8 0 0 1-.428-.101 1.4 1.4 0 0 1-.356-.348L49.05 57.26h.334v7.582q0 .348-.174.537-.174.188-.508.188M63.576 65.596q-1.672 0-2.818-.63a4.1 4.1 0 0 1-1.736-1.805q-.588-1.175-.588-2.798 0-1.218.34-2.182a4.6 4.6 0 0 1 .989-1.653q.645-.689 1.583-1.051t2.128-.362q.87 0 1.714.224.842.225 1.54.732a.65.65 0 0 1 .26.334.7.7 0 0 1 .008.384.76.76 0 0 1-.189.34.57.57 0 0 1-.334.175q-.195.029-.428-.116a4.1 4.1 0 0 0-1.191-.573 5 5 0 0 0-1.38-.181q-1.133 0-1.91.464-.777.465-1.17 1.34-.392.878-.392 2.125 0 1.927.915 2.928t2.717 1a6.7 6.7 0 0 0 2.498-.478l-.305.754v-3.378h-1.874q-.29 0-.457-.152-.167-.153-.167-.428t.167-.413q.166-.138.457-.138h2.513q.305 0 .465.16.16.159.16.463v3.654a.94.94 0 0 1-.095.442.58.58 0 0 1-.312.268 7.8 7.8 0 0 1-1.467.399 9 9 0 0 1-1.642.152M73.54 65.596q-1.032 0-1.816-.268a3.34 3.34 0 0 1-1.315-.805 3.5 3.5 0 0 1-.806-1.333q-.275-.798-.276-1.841v-5.452q0-.377.197-.565.195-.188.559-.188.363 0 .559.188.195.188.196.565v5.422q0 1.494.69 2.233t2.012.74c.88 0 1.563-.247 2.019-.74q.682-.74.682-2.233v-5.422q0-.377.197-.565.195-.188.544-.188c.233 0 .427.063.552.188q.189.188.189.565v5.452q0 1.391-.472 2.34a3.13 3.13 0 0 1-1.402 1.429q-.93.478-2.31.478M80.802 65.567q-.362 0-.559-.203-.195-.203-.196-.565v-8.887q0-.377.196-.573t.56-.195q.362 0 .559.195.195.195.196.573v8.887q0 .362-.19.565-.188.203-.566.203M84.651 65.567q-.334 0-.522-.188-.19-.189-.19-.537v-8.945q0-.361.182-.558a.63.63 0 0 1 .487-.195q.26-.001.4.094a1.6 1.6 0 0 1 .326.34l5.984 7.873h-.363v-7.597q0-.333.182-.522.181-.188.516-.188c.222 0 .406.063.522.188q.175.188.175.522v9.003q0 .333-.167.522a.56.56 0 0 1-.443.188.8.8 0 0 1-.429-.101 1.4 1.4 0 0 1-.356-.348L85 57.26h.334v7.582q0 .348-.174.537-.174.188-.509.188M98.833 65.567q-.363 0-.559-.203-.195-.203-.196-.565v-8.902q0-.377.196-.565.195-.188.56-.188.362 0 .558.188t.197.565v3.944h.029l4.459-4.306q.218-.203.414-.297t.443-.094q.334 0 .486.166.153.167.124.399-.03.231-.247.45l-4.634 4.407.029-.74 4.823 4.64q.261.246.276.507a.53.53 0 0 1-.16.427q-.174.167-.494.167-.291 0-.465-.116a3 3 0 0 1-.406-.333l-4.648-4.422h-.03V64.8q0 .362-.188.565-.189.203-.567.203M108.173 65.567q-.364 0-.559-.203-.197-.203-.197-.565v-8.887q0-.376.197-.573.195-.195.559-.195.363 0 .559.195.196.196.196.573v8.887q0 .362-.189.565-.188.203-.566.203M112.022 65.567q-.334 0-.523-.188-.189-.189-.189-.537v-8.945q0-.361.182-.558a.63.63 0 0 1 .486-.195q.262-.001.4.094.138.094.327.34l5.984 7.873h-.363v-7.597q0-.334.182-.522.181-.188.515-.188c.223 0 .407.063.523.188q.174.188.174.522v9.003q0 .333-.167.522a.56.56 0 0 1-.443.188.8.8 0 0 1-.428-.101 1.4 1.4 0 0 1-.356-.348l-5.955-7.858h.334v7.582q0 .348-.175.537-.174.188-.508.188M126.896 65.596q-1.67 0-2.818-.63a4.1 4.1 0 0 1-1.736-1.805q-.588-1.175-.588-2.798 0-1.218.341-2.182a4.65 4.65 0 0 1 .988-1.653q.647-.689 1.583-1.051.937-.362 2.128-.362.872 0 1.714.224.842.226 1.54.732a.64.64 0 0 1 .261.334.7.7 0 0 1 .007.384.76.76 0 0 1-.188.34.57.57 0 0 1-.334.175q-.196.029-.429-.116a4.1 4.1 0 0 0-1.191-.573 5 5 0 0 0-1.38-.181q-1.133 0-1.91.464-.777.465-1.169 1.34-.392.878-.392 2.125 0 1.927.915 2.928t2.716 1q.654 0 1.285-.123a6.7 6.7 0 0 0 1.213-.355l-.305.754v-3.378h-1.874q-.29 0-.457-.152-.167-.153-.167-.428t.167-.413.457-.138h2.513q.305 0 .465.16.16.159.16.463v3.654a.94.94 0 0 1-.095.442.57.57 0 0 1-.312.268 7.8 7.8 0 0 1-1.467.399 9 9 0 0 1-1.641.152M87.785 19.858a.4.4 0 0 0-.015.174c.12 1.363-.022 1.875-.363 2.33-.322.43-.723.645-1.025.751a3.7 3.7 0 0 1-.999.154 1.7 1.7 0 0 0-.38.052l-.005.001-.066.02-.014.003-.01.003q-.02.008-.038.013c-.491.177-.655.519-.705.775a1 1 0 0 0-.022.218l-.002.043.006.024q0 .012.003.025.001.015.002.015c.025.188.107.412.3.666q.052.083.117.158c.304.357.849 1.162.888 1.219l.005.007.076.15a.07.07 0 0 0 .096.03c.421-.248 2.805-1.785 2.773-4.929v-.007c-.058-.56-.12-1.159-.316-1.69-.03-.08-.072-.218-.154-.265-.082-.046-.127-.005-.15.059zM82.66 26.177c-.175-.305-2.125-3.399-8.631-2.505a.07.07 0 0 1-.077-.085c.121-.47.787-2.454 3.37-2.138l.01.001c.154.04 4.36 1.138 5.646 3.173 1.207 1.908-.066 1.64-.277 1.585a.06.06 0 0 1-.041-.032"/><path d="M92.453 50.662a.5.5 0 0 0-.024-.116c-.118-.404-.441-.78-.681-1.122a77 77 0 0 0-.81-1.13c-.29-.4-.606-.79-.88-1.201l-3.509-4.995c-.925-1.198-2.419-4.295-3.062-5.668 0 0 0-.048.043-.02.63 1.115 1.36 2.181 2.226 3.13.578.634 1.22 1.217 1.936 1.696.554.37 1.157.713 1.821.83.246.044.567.071.777-.101.488-.4-.12-1.356-.341-1.724-.657-1.097-1.052-1.87-1.32-2.46-.31-.724-.967-2.53-1.703-6.179l-.227-1.15v-.004s-.715-4.44-4.688-7.052l-.006-.004a11.8 11.8 0 0 0-2.298-1.312 8.6 8.6 0 0 0-1.203-.435c-.74-.203-1.177-.195-1.177-.195-.192.059.556.258.603.27l.004.002c2.471.802 4.004 2.702 4.004 2.702s.037.042.096.114c.346.434 1.41 2.01-.338 3.312-2.159 1.608-3.45 3.524-3.227 6.045.22 2.745 4.024 8.114 3.323 10.172-.522 1.53-2.474 1.34-2.936 1.305a5 5 0 0 1-1.212-.255c-1.651-.526-4.3-2.903-4.3-2.903s-1.837-1.736-3.626-4.609c-2.1-3.45-3.01-8.036-3.01-8.036-.014-.026-.026-.031-.036-.027-.037-.012-.049.048-.047.141l-.003.021.004.03c.013.243.091.628.091.628.053.37.63 4.36 2.748 8.04 2.092 3.639 5.083 5.931 5.493 6.235.008.008.04.037.004.069-1.196 1.014-4.932 1.581-5.176 1.606a1 1 0 0 0-.094.014.8.8 0 0 0-.35.121l-.015.013c-.07.06-.066.113-.066.113-.032.124.038.324.624.529.953.333 2.398.333 4.414.025a19 19 0 0 1 2.09-.184h.004a22.3 22.3 0 0 1 6.468.272 18.4 18.4 0 0 1 3.74 1.01c.883.344 1.738.762 2.547 1.257.536.328 1.04.7 1.55 1.067.154.11.31.22.476.31.335.178.787.3 1.13.073a.33.33 0 0 0 .138-.159.3.3 0 0 0 .012-.109z"/><path d="M74.144 21.762c-5.13.15-8.973 3.614-8.973 3.614s-.547.444-.781.791l-.003.005a.8.8 0 0 0-.084.157c-.43.99 1.069 1.938 1.069 1.938.202.14.46.288.79.431 1.178.509 1.8.926 2.356 1.258.556.334.686-.083.686-.083.632-2.03-.75-4.184-1.263-4.889-.064-.087.037-.197.13-.144.315.174.605.551.74.742.039.056.12.056.16.001 1.256-1.697 4.121-3.127 5.219-3.631.099-.046.063-.194-.046-.191M86.501 20.577c.087.126.143.179.143.179.138.073.096-.136.096-.136-.365-1.197-1.286-1.66-1.586-1.82-.13-.07-.422-.142-.462.077-.016.092.05.186.126.232 1.063.493 1.598 1.341 1.684 1.468"/><path d="m96.13 20.094-.033-.017-2.383-.897a.153.153 0 0 1-.09-.195l.43-1.214c.062-.173 0-.29 0-.29a.3.3 0 0 0-.153-.142c-.1-.045-1.018-.2-1.438-.269a.153.153 0 0 1-.111-.22c.27-.53 1.03-2.016 1.146-2.238.143-.271.05-.389.05-.389-.136-.197-.353-.142-.353-.142l-.618.155-2.045.518a.155.155 0 0 1-.193-.149l-.006-1.357v-.01c.006-.034.028-.223-.068-.335-.105-.123-.377-.019-.377-.019l-1.144.344a.155.155 0 0 1-.199-.134l-.252-2.8s0-.314-.269-.314a.36.36 0 0 0-.17.042.3.3 0 0 0-.067.05c-.057.054-.139.231-.16.269l-3.164 5.528a.07.07 0 0 1-.074.033 6.6 6.6 0 0 0-1.856-.133c-.014.001-.115-.274-.125-.298a10 10 0 0 0-.81-1.483 8 8 0 0 0-.925-1.15 5.7 5.7 0 0 0-1.253-.983c-.303-.173-.62-.323-.963-.397a4.4 4.4 0 0 0-.983-.109 3.18 3.18 0 0 0-2.012.718c-.066.055-.13.127-.143.216-.014.1.04.145.115.195q.101.068.198.144.19.147.363.315c.226.218.428.462.605.722q.263.39.454.82t.318.883q.127.45.195.911a8.2 8.2 0 0 1-.019 2.56q-.059.345-.162.68c-.05.158-.106.313-.178.462-.064.202-.29.47-.068.417.56-.342.813-1.224.915-1.748.022-.11.17-.127.22-.027q.08.16.148.283c.24.434.683.84.76.889.09.062.182.06.204.027.021-.03-.004-.106-.078-.167l-.016-.017c-.874-1.03-.985-2.09-1.137-3.039-.192-1.042-.359-1.865-.862-2.743-.283-.518-.675-1.032-1.18-1.355-.018-.012-.038-.025-.05-.044-.05-.086.367-.14.41-.146a1.9 1.9 0 0 1 .694.04c.574.134 1.085.469 1.5.88.285.284.531.609.73.959.123.218.22.444.319.673.525 1.217.714 2.424 1.075 3.303a9.4 9.4 0 0 0 .778 1.499c1.25 1.777 2.569 2.073 2.569 2.073s.742.148.288-.602c-.455-.75-.983-2.081-.983-2.081s-1.007-2.412.548-2.145q.057.003.114.012l.064.012.011.002a5.13 5.13 0 0 1 4.096 5.019 5.12 5.12 0 0 1-2.585 4.444l-.005.003-.168.081a.07.07 0 0 0-.032.093l.418.845a.07.07 0 0 0 .097.03l.237-.142c1.727-.995 2.93-2.756 3.112-4.801a.07.07 0 0 1 .052-.06l.386-.097s5.959-1.604 6.23-1.672.272-.278.272-.278c.026-.152-.113-.263-.162-.297zM81.756 16l-.015.016c-.034.026-.156.1-.312-.045l-.011-.011c-.169-.236-.453-2.41-3.208-3.965-.017-.01-.047-.03-.052-.05-.008-.036.022-.045.066-.042.075.006.19.048.213.057q.193.068.379.156.261.123.509.278.308.193.59.428.331.277.62.604.33.378.6.809a7 7 0 0 1 .659 1.381s.077.224-.038.384m13.281 4.33-2.336.623-1.67.432a.155.155 0 0 1-.186-.102c-.386-1.174-.685-1.614-.685-1.614s-.105-.204-.265-.118c-.16.087-.032.346-.032.346.36.858.438 1.684.438 1.684l-.03.007-.812.219a.07.07 0 0 1-.087-.065c-.092-2.612-1.844-4.814-4.263-5.641a.068.068 0 0 1-.037-.099l.984-1.73 1.467-2.585c.075-.132.276-.089.29.062l.333 3.756s0 .234.123.34c.124.104.408.018.408.018l3.711-.98c.13-.034.238.1.178.218l-1.58 3.159-.009.016c-.023.034-.114.18-.08.337.036.18.184.229.184.229l3.993 1.468z"/></g><defs><clipPath id="a"><path fill="#fff" d="M28 10h104v60H28z"/></clipPath></defs></svg>