<svg xmlns="http://www.w3.org/2000/svg" width="160" height="80" fill="none"><rect width="160" height="80" fill="#312359" rx="40"/><path fill="url(#a)" d="m20.142 28.065-.142.107v9.668l.07.392c.5 1.462 1.5 2.176 2.89 2.176h10.916v2.283H24.85c-1.677 0-3.246-.5-4.709-1.463H20c.285.714.642 1.392 1.034 2.034 2.604 3.46 5.708 4.673 9.31 4.673h8.918l.107-.107V38.16l-.071-.393c-.535-1.462-1.498-2.176-2.89-2.176H25.494V33.31h9.025c1.676 0 3.246.5 4.709 1.463h.142c-.285-.714-.606-1.712-1.034-2.355-2.604-3.46-5.708-4.352-9.31-4.352h-8.918z"/><path fill="#fff" d="M54.708 38.125c-.642-.393-1.855-.75-3.71-1.106-1.141-.214-1.676-.392-1.89-.535-.464-.25-.642-.57-.642-1.035 0-1.498 2.033-1.498 2.782-1.498s1.677.143 2.176.393c.535.285.82.856.856 1.676v.464h1.534v-.5c-.035-1.605-.856-3.531-4.566-3.531s-4.316 1.64-4.316 2.996.535 1.891 1.534 2.426c.5.25 1.355.5 2.64.785 1.105.214 1.783.392 2.069.464.606.178.891.356.998.5.179.177.286.463.286.855 0 .57-.286.999-.892 1.284-.535.25-1.213.357-2.033.357-3.033 0-3.39-1.355-3.39-2.354v-.714h-1.533v.75c0 1.355.535 2.39 1.64 3.032.821.499 1.963.749 3.283.749s2.033-.179 2.818-.571c1.106-.535 1.676-1.427 1.676-2.497s-.428-1.89-1.284-2.39zM62.378 34.986c-.749 0-1.427.178-2.033.5-.179.106-.321.178-.464.32v-.642h-1.534v10.63h1.534v-3.032c.642.5 1.498.785 2.497.785s2.283-.428 3.032-1.213c.678-.749 1.035-1.784 1.035-3.068s-.357-2.283-1.07-3.067-1.713-1.213-2.997-1.213m1.89 6.278c-.427.535-1.034.785-1.819.785s-1.533-.25-1.962-.75c-.392-.463-.606-1.176-.606-2.068s.214-1.498.713-1.998c.464-.5 1.07-.75 1.891-.75.82 0 1.391.25 1.82.786.427.5.641 1.177.641 1.997s-.214 1.499-.606 1.998zM70.547 35.307h-1.534v8.24h1.534zM69.762 32.453c-.143 0-.5.036-.714.535v.107c-.035 0-.035 1.177-.035 1.177v.072c.142.356.428.535.749.535.32 0 .463-.072.678-.393l.107-.142v-1.356l-.107-.143c-.215-.25-.428-.392-.678-.392M79.18 35.949c-.607-.464-1.392-.714-2.355-.714s-1.64.214-2.247.607v-.428h-1.534v8.169h1.534v-4.53c0-.714.214-1.285.606-1.713.393-.428.928-.642 1.641-.642.714 0 1.07.143 1.391.428s.464.678.464 1.213v5.208h1.534v-5.35q0-1.446-1.07-2.248zM86.742 35.021c-1.249 0-2.283.393-3.068 1.178-.749.784-1.141 1.819-1.141 3.067s.356 2.283 1.105 3.032c.75.82 1.784 1.213 3.068 1.213s2.283-.392 3.068-1.177 1.142-1.82 1.142-3.068-.393-2.318-1.142-3.067c-.749-.785-1.784-1.178-3.032-1.178m1.926 6.279q-.696.749-1.926.749t-1.926-.75c-.464-.499-.714-1.177-.714-1.997s.214-1.534.714-2.033q.694-.75 1.926-.75c.82 0 1.498.25 1.962.714.464.5.713 1.177.713 2.033s-.25 1.499-.713 1.998zM101.795 35.2c-.784 0-1.819.178-2.496.999-.429-.536-1.142-1-2.32-1-1.176 0-1.497.18-2.032.572v-.393h-1.534v8.169h1.534v-4.53c0-.678.142-1.213.463-1.641.357-.464.82-.678 1.427-.678 1.106 0 1.57.5 1.57 1.64v5.209h1.534v-4.994c0-.57.178-.999.499-1.356.357-.32.82-.5 1.391-.5 1.07 0 1.534.5 1.534 1.642v5.208h1.534v-5.35c0-1.927-1.106-2.997-3.104-2.997M112.89 41.656c-.429.25-.928.393-1.499.393-1.534 0-2.318-.642-2.497-2.07h6.635v-.927c0-1.213-.392-2.211-1.141-2.925-.749-.713-1.748-1.07-2.961-1.07s-2.247.392-2.996 1.213c-.75.785-1.106 1.82-1.106 3.068s.321 2.283.963 3.032c.713.785 1.748 1.177 3.068 1.177 1.319 0 1.676-.178 2.354-.57.749-.429 1.284-1.142 1.57-2.07v-.142h-1.606a1.9 1.9 0 0 1-.784.891m-3.247-4.459c.464-.428 1.035-.642 1.82-.642.784 0 1.355.214 1.783.642q.481.482.642 1.284h-4.922c.107-.535.356-.927.677-1.284M124.197 35.949c-.606-.5-1.391-.714-2.354-.714s-1.641.214-2.248.607v-.428h-1.533v8.169h1.533v-4.53c0-.714.214-1.285.607-1.713.392-.428.927-.642 1.641-.642.713 0 1.07.143 1.391.428s.464.678.464 1.213v5.208h1.534v-5.35q0-1.446-1.071-2.248zM134.328 35.842c-.642-.535-1.498-.785-2.532-.785s-2.283.428-3.033 1.249c-.677.784-1.034 1.783-1.034 3.032 0 1.248.357 2.211 1.034 2.96.714.82 1.713 1.249 2.997 1.249s1.926-.285 2.568-.856v.856h1.534v-8.49h-1.534zm-.713 5.422c-.464.535-1.106.785-1.891.785s-1.391-.25-1.819-.785c-.428-.5-.606-1.142-.606-1.962s.214-1.463.642-1.998 1.034-.784 1.819-.784 1.498.25 1.926.713c.464.5.678 1.177.678 2.069s-.214 1.427-.713 1.962zM140 32.596h-1.534v10.951H140z"/><defs><linearGradient id="a" x1="20" x2="39.405" y1="38.018" y2="38.018" gradientUnits="userSpaceOnUse"><stop stop-color="#36E0FE"/><stop offset=".6" stop-color="#884AFF"/><stop offset=".7" stop-color="#934CFE"/><stop offset=".8" stop-color="#B352FC"/><stop offset="1" stop-color="#E75CFA"/></linearGradient></defs></svg>