<svg width="160" height="80" fill="none" xmlns="http://www.w3.org/2000/svg">
<rect width="160" height="80" rx="40" fill="#312359"/>
<g clip-path="url(#clip0_6061_743)">
<mask id="mask0_6061_743" style="mask-type:luminance" maskUnits="userSpaceOnUse" x="41" y="25" width="78" height="28">
<path d="M118.5 25.8376H41.5V52.1624H118.5V25.8376Z" fill="white"/>
</mask>
<g mask="url(#mask0_6061_743)">
<path fill-rule="evenodd" clip-rule="evenodd" d="M46.9541 40.9776C50.1312 40.9776 52.0833 38.9496 52.0833 36.1913V36.152C52.0833 33.433 50.1913 32.3881 48.2556 32.051L51.8591 28.5174V26.0906H42.2296V28.8489H47.829L44.4278 32.36L44.9145 34.4105H46.2159C47.9658 34.4105 49.0047 35.079 49.0047 36.2699V36.3093C49.0047 37.3991 48.1681 38.0845 46.9869 38.0845C45.5433 38.0845 44.5262 37.4553 43.5474 36.3261L41.3984 38.4496C42.6178 39.9327 44.3895 40.9776 46.9541 40.9776Z" fill="white"/>
<path fill-rule="evenodd" clip-rule="evenodd" d="M68.0007 40.9775C72.3972 40.9775 75.5906 37.5675 75.5906 33.4048V33.3654C75.5906 29.2027 72.4355 25.8376 68.039 25.8376C63.6426 25.8376 60.4492 29.2476 60.4492 33.4048V33.4441C60.4492 37.6125 63.6043 40.9775 68.0007 40.9775ZM68.039 38.0057C65.5127 38.0057 63.7246 35.9159 63.7246 33.4048V33.3654C63.7246 30.8543 65.4745 28.8094 68.0007 28.8094C70.5271 28.8094 72.3152 30.8992 72.3152 33.4104V33.4497C72.3152 35.9608 70.5654 38.0057 68.039 38.0057Z" fill="white"/>
<path fill-rule="evenodd" clip-rule="evenodd" d="M76.2412 40.7247H79.4346L80.736 37.4439H86.762L88.0634 40.7247H91.3389L85.2418 25.9836H82.3492L76.2412 40.7247ZM81.8625 34.6012L83.7545 29.8543L85.6465 34.6012H81.8625Z" fill="white"/>
<path fill-rule="evenodd" clip-rule="evenodd" d="M93.5425 40.7248H96.6813V36.2531L98.3271 34.4947L102.745 40.7248H106.508L100.443 32.2982L106.245 26.0906H102.461L96.6813 32.4892V26.0906H93.5425V40.7248Z" fill="white"/>
<path fill-rule="evenodd" clip-rule="evenodd" d="M113.266 40.938C116.34 40.938 118.5 39.3089 118.5 36.3989V36.3596C118.5 33.8091 116.87 32.7418 113.983 31.9665C111.522 31.3204 110.909 31.0058 110.909 30.0452V30.0003C110.909 29.2868 111.539 28.725 112.742 28.725C113.945 28.725 115.186 29.2699 116.444 30.1688L118.073 27.7419C116.629 26.551 114.858 25.8824 112.78 25.8824C109.871 25.8824 107.793 27.6408 107.793 30.2924V30.3317C107.793 33.2361 109.647 34.0563 112.517 34.809C114.902 35.4383 115.388 35.8539 115.388 36.6686V36.7078C115.388 37.5674 114.617 38.0898 113.332 38.0898C111.702 38.0898 110.363 37.3988 109.078 36.3146L107.224 38.5954C108.93 40.1628 111.112 40.938 113.266 40.938Z" fill="white"/>
<path fill-rule="evenodd" clip-rule="evenodd" d="M44.5257 52.1625C45.6139 52.1625 46.456 51.7243 47.0684 51.1907V48.5391H44.4819V49.7019H45.7998V50.5727C45.4662 50.8199 45.0452 50.9379 44.5694 50.9379C43.5141 50.9379 42.7704 50.1177 42.7704 48.9997V48.9829C42.7704 47.9436 43.525 47.0785 44.4765 47.0785C45.1655 47.0785 45.5756 47.3031 46.0294 47.6964L46.8551 46.674C46.2372 46.1346 45.5865 45.8369 44.5202 45.8369C42.7212 45.8369 41.4033 47.2583 41.4033 48.9997V49.0166C41.3979 50.8255 42.672 52.1625 44.5257 52.1625Z" fill="white"/>
<path fill-rule="evenodd" clip-rule="evenodd" d="M55.9761 52.0556H57.3103L57.8516 50.6849H60.367L60.9084 52.0556H62.2754L59.7272 45.8986H58.5188L55.9761 52.0556ZM58.3219 49.4995L59.1148 47.5165L59.9077 49.4995H58.3219Z" fill="white"/>
<path fill-rule="evenodd" clip-rule="evenodd" d="M71.3691 52.0558H72.6487V48.0897L74.3056 50.6795H74.3438L76.0171 48.0672V52.0558H77.3186V45.9437H75.9078L74.3438 48.5279L72.78 45.9437H71.3691V52.0558Z" fill="white"/>
<path d="M88.2771 45.9437H86.9702V52.0558H88.2771V45.9437Z" fill="white"/>
<path fill-rule="evenodd" clip-rule="evenodd" d="M97.9282 52.0558H99.2242V48.1684L102.106 52.0558H103.216V45.9437H101.926V49.7076L99.1367 45.9437H97.9282V52.0558Z" fill="white"/>
<path fill-rule="evenodd" clip-rule="evenodd" d="M115.673 52.1625C116.761 52.1625 117.603 51.7243 118.215 51.1907V48.5391H115.629V49.7019H116.947V50.5727C116.613 50.8199 116.192 50.9379 115.716 50.9379C114.661 50.9379 113.912 50.1177 113.912 48.9997V48.9829C113.912 47.9436 114.667 47.0785 115.618 47.0785C116.307 47.0785 116.717 47.3031 117.171 47.6964L117.997 46.674C117.379 46.1346 116.728 45.8369 115.662 45.8369C113.863 45.8369 112.545 47.2583 112.545 48.9997V49.0166C112.545 50.8255 113.824 52.1625 115.673 52.1625Z" fill="white"/>
</g>
</g>
<defs>
<clipPath id="clip0_6061_743">
<rect width="77" height="26.3248" fill="white" transform="translate(41.5 25.8376)"/>
</clipPath>
</defs>
</svg>
