<svg xmlns="http://www.w3.org/2000/svg" width="160" height="80" fill="none"><rect width="160" height="80" fill="#312359" rx="40"/><path fill="#F7931D" fill-rule="evenodd" d="M78.483 46.266v4.997h-8.094v6.192c0 .843.69 1.548 1.549 1.548.858 0 1.548-.705 1.548-1.548v-3.449h4.997v3.449A6.55 6.55 0 0 1 71.938 64c-3.618 0-6.545-2.928-6.545-6.53V29.236a6.54 6.54 0 0 1 6.545-6.545 6.54 6.54 0 0 1 6.545 6.545zm-4.997 0V29.22a1.54 1.54 0 0 0-1.548-1.533 1.54 1.54 0 0 0-1.549 1.533v17.045z" clip-rule="evenodd"/><path fill="#F7931D" d="M59.829 35.076a2.5 2.5 0 0 0-2.499 2.499v19.88c0 .843-.69 1.548-1.548 1.548a1.554 1.554 0 0 1-1.548-1.548v-8.691a2.499 2.499 0 0 0-4.997 0v8.691A6.55 6.55 0 0 0 55.782 64c3.602 0 6.53-2.928 6.545-6.53V37.575a2.5 2.5 0 0 0-2.498-2.499M84.062 14a2.5 2.5 0 0 0-2.498 2.499v45.003a2.499 2.499 0 0 0 4.996 0V16.499A2.5 2.5 0 0 0 84.062 14M92.11 22.691a2.5 2.5 0 0 0-2.5 2.499v36.312a2.499 2.499 0 0 0 4.998 0V25.19a2.5 2.5 0 0 0-2.499-2.499M108.265 46.266a2.5 2.5 0 0 0-2.498 2.498v2.498c0 .843-.706 1.549-1.549 1.549a1.554 1.554 0 0 1-1.548-1.549V37.575a2.499 2.499 0 0 0-4.997 0v13.687a6.53 6.53 0 0 0 4.047 6.04v4.2a2.499 2.499 0 0 0 4.997 0v-4.2a6.57 6.57 0 0 0 4.046-6.024v-2.514a2.5 2.5 0 0 0-2.498-2.498"/></svg>