<svg width="160" height="80" fill="none" xmlns="http://www.w3.org/2000/svg">
<rect width="160" height="80" rx="40" fill="#312359"/>
<g clip-path="url(#clip0_5889_474)">
<path d="M30.1907 50.5136L29.1649 52.538C29.1649 52.538 28.058 51.769 26.9109 51.769C26.0472 51.769 25.5881 52.1607 25.5881 52.7676C25.5881 53.3745 26.6405 53.8336 27.9095 54.3738C29.1512 54.9003 30.5142 55.9527 30.5142 57.4103C30.5142 60.0689 28.4898 61 26.3169 61C23.7122 61 22.1333 59.5287 22.1333 59.5287L23.4023 57.396C23.4023 57.396 24.8872 58.6514 26.1283 58.6514C26.6814 58.6514 27.7344 58.5976 27.7344 57.5581C27.7344 56.7482 26.5465 56.3838 25.2244 55.7224C23.888 55.061 23.1053 54.0215 23.1053 52.8608C23.1053 50.7827 24.941 49.4598 26.7359 49.4598C28.7603 49.4598 30.1907 50.5122 30.1907 50.5122V50.5136Z" fill="white"/>
<path d="M40.717 58.571H44.5498V60.7977H38.1797V49.6628H40.717V58.5703V58.571Z" fill="white"/>
<path d="M56.3189 49.4606C59.4093 49.4606 61.92 51.9706 61.92 55.2238C61.92 58.4771 59.5176 61 56.3189 61C53.1202 61 50.7041 58.4764 50.7041 55.2238C50.7041 51.9713 53.255 49.4606 56.3189 49.4606ZM56.3189 58.5438C58.3433 58.5438 59.1804 56.8838 59.1804 55.2238C59.1804 53.5639 58.2895 51.9039 56.3189 51.9039C54.3483 51.9039 53.4444 53.5639 53.4444 55.2238C53.4444 56.8838 54.2407 58.5438 56.3189 58.5438Z" fill="white"/>
<path d="M67.8445 49.6628H75.6723V51.8895H73.0267V60.797H70.4894V51.8895H67.8438V49.6628H67.8445Z" fill="white"/>
<path d="M91.7467 54.198H91.6793L89.3981 60.7303H87.8866L85.6054 54.198H85.538L85.0114 60.7977H82.4741L83.4727 49.6628H86.1721L88.642 56.0875L91.1119 49.6628H93.8113L94.8098 60.7977H92.2725L91.746 54.198H91.7467Z" fill="white"/>
<path d="M105.391 60.7977H102.854V49.6628H105.391V60.7977Z" fill="white"/>
<path d="M116.836 58.571H120.668V60.7977H114.298V49.6628H116.836V58.5703V58.571Z" fill="white"/>
<path d="M129.05 58.571H132.882V60.7977H126.512V49.6628H129.05V58.5703V58.571Z" fill="white"/>
<path d="M89.0568 30.5825C89.0474 30.1392 88.9162 29.5029 88.82 29.1255C88.7612 28.8917 88.8882 28.9957 89.0223 29.3917C88.8925 28.7891 88.6859 28.1442 88.6407 28.1442C88.5926 28.1442 88.6199 28.2374 88.6113 28.2762C88.5768 28.1922 88.5295 27.9899 88.4728 27.8443C88.4025 27.6693 88.3272 27.5667 88.3796 27.726C88.4771 28.0143 88.8566 29.5423 88.8975 29.8128C88.8566 29.6671 88.8114 29.5014 88.7791 29.3881C88.3788 27.9856 87.8997 26.8766 87.2748 25.7217C87.3229 25.7625 87.3451 25.7805 87.3745 25.8077C87.381 25.7417 87.386 25.6894 87.3953 25.6054C87.5223 25.7898 87.6342 25.9462 87.7433 26.1054C87.518 25.5029 87.1184 24.9964 86.7885 24.4734C86.7748 24.4964 86.7634 24.5143 86.7454 24.5416C86.3659 24.0165 85.8566 23.5782 85.65 22.9577C85.6407 22.9849 85.6342 23.0007 85.6271 23.0215C85.5998 22.7145 85.1995 22.8945 85.2404 22.5782C85.4721 22.6987 85.8588 23.0143 86.0453 23.1851C86.2296 23.3529 86.3114 23.3558 86.3774 23.3623C86.4341 23.3687 86.3114 23.2625 86.3502 23.2281C86.4004 23.1851 86.8953 23.8414 87.1479 24.1262C86.4499 22.5667 84.5912 21.9986 83.2842 21.0007C79.8566 18.7755 75.2476 18.203 71.579 20.3321C71.4154 20.4275 71.1923 20.5689 71.0969 20.632C70.9994 20.6937 71.2103 20.6277 71.2196 20.6363C71.1199 20.7044 71.0309 20.7661 70.924 20.8407C70.815 20.9161 71.0446 20.8615 70.9922 20.8974C70.9377 20.9361 70.7354 21.2159 71.008 21.0359C71.2806 20.8565 71.5898 20.6521 71.7533 20.6521C71.9169 20.6521 71.1012 21.1112 70.8007 21.3063C70.3301 21.6133 69.9118 21.8859 69.6436 22.0746C69.4183 22.2338 69.1866 22.3953 69.1364 22.3587C69.0474 22.2927 69.3638 22.0337 69.4025 21.9749C69.4642 21.8816 69.0618 22.1406 69.155 22.043C69.2483 21.9455 69.7547 21.4656 70.0869 21.2159C70.3143 21.043 70.4549 20.9412 70.4506 20.868C70.4434 20.7955 70.2167 20.9132 69.9707 21.0473C68.193 22.0244 67.5776 24.0882 66.7727 25.7977C66.8451 25.7934 66.9047 25.7884 66.9951 25.7819C66.8042 26.1887 66.5611 26.5502 66.5245 26.9914C66.6156 26.9254 66.6651 26.8343 66.7748 26.8006C66.8179 26.944 66.7361 27.0753 66.7045 27.2116C66.716 27.2138 66.7253 27.2181 66.7339 27.2209C66.7885 27.0753 66.843 26.9297 66.8953 26.7869C66.9405 26.7912 66.9771 26.7934 67.0223 26.7984C66.8724 27.8874 66.7562 28.967 66.4606 30.033L66.4743 30.0194C66.2196 30.8034 66.5539 31.5789 66.4535 32.4125H66.424C66.3537 32.0036 66.2081 31.6033 66.2971 31.1736C66.2834 31.1915 66.2698 31.2102 66.2354 31.2511C66.2239 31.1349 66.2103 31.0258 66.1988 30.9218C66.1895 30.8422 66.0854 30.8422 66.0919 30.9125C66.1306 31.3486 66.0281 31.7783 66.1622 32.2217C66.1801 32.16 66.1966 32.0968 66.2052 32.0674C66.3437 32.7245 66.6959 34.3041 66.6005 34.104C66.5051 33.9039 66.4484 33.6219 66.371 33.3809C66.4685 34.2374 66.7755 35.0466 67.0847 35.845C67.0596 35.8472 66.9893 35.7884 66.9348 35.6607C66.9032 35.5832 66.8215 35.5854 66.8351 35.6334C66.8896 35.8063 67.0395 36.081 67.117 36.2425C67.074 36.1062 67.0259 35.9426 67.0395 35.9196C67.2325 36.147 67.4398 36.5947 67.5689 36.8336C67.6981 37.0724 68.1579 37.8881 67.853 37.4605C67.5481 37.033 66.9004 36.1693 66.589 35.4354C66.4958 35.2195 66.4413 34.8967 66.3961 34.8945C66.3509 34.8924 66.3595 34.9921 66.353 35.0287C66.3236 34.9878 66.3186 34.7876 66.2827 34.8013C66.2189 34.8242 66.4642 35.7037 66.3918 35.5832C66.3215 35.4627 66.1873 34.9125 66.1579 34.7489C66.183 35.1011 66.2849 35.4218 66.2763 35.5079C65.9807 35.0394 66.1149 34.5351 66.1149 34.2848C66.122 34.439 66.1514 34.6033 66.1966 34.703C66.1601 34.4304 66.2146 34.1413 66.2031 34.0574C66.1938 33.9734 66.0761 34.0416 66.0826 34.1413C66.0596 34.0889 66.0532 33.9978 66.0238 34.005C65.9965 34.0093 65.9965 34.1076 65.9922 34.1664C65.9764 34.1435 65.9743 34.1026 65.9556 34.1162C65.9348 34.1277 65.9491 34.3687 65.8918 34.33C65.8602 34.312 65.8896 34.1119 65.8918 33.9369C65.8939 33.7755 65.871 33.637 65.8394 33.6485C65.7712 33.6714 65.8279 33.7532 65.8078 34.0029C65.7899 34.2303 65.5941 33.9003 65.6098 34.0509C65.6163 34.1054 65.5575 34.2826 65.6027 34.4892C65.6457 34.6958 65.5933 35.0072 65.6457 34.9505C65.6981 34.896 65.6773 34.8594 65.716 34.83C65.7275 34.8458 65.7203 34.8938 65.7504 34.878C65.7799 34.8601 65.7734 34.7963 65.7892 34.7396C66.6687 39.8716 71.4326 42.2238 75.9943 43.6219C75.9578 43.6377 75.9326 43.6492 75.9083 43.6607C81.452 44.7288 87.1407 40.2898 88.6428 35.1872C88.6816 35.0531 88.7727 34.533 88.8337 34.1578C88.6314 34.8307 88.4908 34.812 88.4951 34.7647C88.5496 34.3149 88.6113 34.0079 88.7246 33.7984C89.0496 33.2891 88.8494 31.9914 88.7497 31.9254C88.6722 31.8752 88.6428 31.9892 88.6364 31.9892C88.6457 31.8866 88.673 31.548 88.5955 31.7116C88.5367 31.8321 88.7361 34.8235 87.7225 36.1026C87.6816 35.2934 88.1177 34.5186 88.3545 33.7317C88.348 33.7295 88.3408 33.7274 88.3365 33.7252C88.2748 33.8228 88.216 33.9232 88.15 34.0323C88.1428 34.0007 88.1364 33.9777 88.1321 33.9569C88.0503 34.005 88.0639 34.1413 87.9319 34.1478C87.9613 33.9821 87.9908 33.825 88.018 33.6678C87.3609 34.8608 87.1335 36.3752 86.2476 37.4749C86.0955 37.6635 86.3681 37.0115 86.5273 36.5724C86.6708 36.1858 86.6436 36.0136 86.3774 36.4971C86.0661 37.0653 85.4886 37.7611 85.0137 38.2016C83.3315 39.7611 81.3817 41.1607 78.9814 41.2446V41.2604H79.193C77.4886 41.4584 75.5087 41.3034 73.9269 40.5717C73.9291 40.5645 73.9341 40.5602 73.9362 40.5559C74.1593 40.6356 74.6321 40.8852 74.6134 40.7676C74.6063 40.7173 74.0087 40.5337 73.3817 40.2403C72.5252 39.8379 71.5611 39.297 71.4972 39.2446C71.386 39.1535 71.6106 39.3852 71.6019 39.3945C70.3975 38.5581 69.5589 37.2123 68.9154 35.8486C68.8179 35.6442 68.6543 35.4942 68.5589 35.2647C68.4908 35.1011 68.4563 34.7963 68.475 34.769C68.5524 34.642 68.3638 34.5143 68.3774 34.7188C68.3817 34.8027 68.5094 35.3235 68.5955 35.5667C68.6321 35.6693 68.5116 35.4598 68.4656 35.3371C68.1608 34.5215 68.1335 34.3759 68.0682 34.0825C68.0682 34.9118 68.6866 36.226 68.782 36.4555C68.65 36.3644 68.4592 36.1033 68.371 35.8371C68.4599 36.1506 68.5524 36.4125 68.546 36.5143C68.0962 35.7123 67.739 33.9799 67.6299 33.9799C67.523 33.9864 67.6321 34.2547 67.6414 34.3845C67.3803 33.9914 67.2139 32.746 67.3093 32.4275C67.3796 31.005 67.6027 29.548 68.1027 28.2066C68.1027 28.2044 68.1027 28.1994 68.1048 28.1973C68.107 28.1879 68.112 28.1793 68.1141 28.17C68.5417 27.0316 69.1687 25.9763 70.0689 25.104C70.0625 25.0997 70.0553 25.0925 70.0481 25.0882C69.8889 25.2288 69.7325 25.368 69.5733 25.5064C69.7576 24.8931 70.4233 24.5724 70.6687 24.0294C70.6572 24.0222 70.6479 24.0158 70.6371 24.0086C70.7691 23.8881 70.9032 23.7676 71.0553 23.627C70.787 23.7496 70.655 24.0315 70.353 24.0495C71.1256 23.1743 72.2598 22.4268 73.1192 21.9196C73.0395 21.9677 73.0467 22.1219 73.2031 22.1765C73.3466 22.2267 73.4578 21.9627 73.6464 21.8881C74.8193 21.4196 76.0854 21.477 77.2447 21.6994C75.9994 21.2539 74.404 21.3902 74.0582 21.472C74.4334 21.2855 74.9836 21.3085 75.1945 21.297C78.7971 21.1105 82.2196 23.4699 84.3085 26.3336C84.4248 26.4928 84.6651 26.8723 84.7583 27.1521C84.7971 27.2704 85.013 27.6499 85.0876 27.5954C85.1629 27.5409 85.0424 27.2389 84.8896 27.0567C84.6809 26.8092 84.5553 26.5064 84.2964 26.0409C84.5374 26.3271 84.7261 26.5502 84.9305 26.7955C84.4578 25.9727 83.2712 24.7819 83.1464 24.4433C83.8286 24.9412 84.3487 25.5868 84.7827 26.2891C85.1715 26.9211 85.5646 27.7554 85.8035 28.2597C85.8329 28.3235 85.8516 28.3594 85.8602 28.3709C85.8394 28.2984 85.5058 27.5186 85.5008 27.5186C85.2985 26.878 84.9441 26.2711 84.6464 25.6478C84.8394 25.8135 84.8143 25.8156 84.8717 25.764C84.9283 25.7116 84.551 25.246 84.4807 24.9433C84.726 25.325 84.9714 25.7095 85.2311 26.1162C85.1723 25.9706 85.1242 25.8479 85.074 25.7252C85.0811 25.7231 85.0876 25.7188 85.0948 25.7159C85.4018 26.0954 85.706 26.4749 86.0108 26.8544C85.7289 26.2683 85.2605 25.7884 84.9814 25.2202C84.9994 25.2109 85.0159 25.2044 85.0316 25.1951C85.2928 25.6227 85.8681 26.1678 85.9951 26.3336C86.122 26.4993 85.7246 25.8041 85.8903 25.995C86.056 26.1858 86.3107 26.5495 86.3652 26.6291C86.4197 26.7087 86.4628 26.7109 86.3925 26.6083C86.3222 26.5057 85.8559 25.8379 85.5876 25.4512C85.5969 25.4447 85.6055 25.4376 85.6149 25.4304C86.3014 26.3235 86.9535 27.2625 87.3401 28.3264C86.9355 26.7195 85.7626 25.4469 84.8129 24.1241C85.2949 24.5057 85.6263 25.0172 86.0309 25.4627C86.0381 25.4555 86.0467 25.4512 86.056 25.4447C85.9994 25.34 85.9427 25.2331 85.8853 25.1291C86.7877 25.9132 87.3989 28.1069 87.4585 28.2496C87.5151 28.3902 87.4176 27.9519 87.3494 27.6521C87.2813 27.3522 87.3975 27.434 87.3946 27.6427C87.3918 27.8515 87.7081 28.4541 87.5216 28.7747C87.5058 28.7496 87.4922 28.7245 87.4649 28.6772C87.617 29.1384 87.5603 29.6162 87.7397 30.0387C87.8258 30.7503 87.7784 31.4612 87.7375 32.1686C87.744 32.1686 87.7533 32.1664 87.7605 32.1664C87.7877 31.9483 87.8172 31.7303 87.8444 31.5143H87.8738V31.7668C87.9147 31.378 87.8466 30.9534 87.9872 30.5961C88.0123 30.8027 88.0374 31.01 88.0646 31.2145C88.0804 31.2145 88.0962 31.2123 88.1127 31.2102C88.1966 30.3422 88.1034 29.4785 88.0151 28.6148C88.0288 28.6126 88.0403 28.6126 88.0517 28.6105C88.0697 28.7288 88.0883 28.8443 88.1084 28.9878C88.1314 28.9333 88.1428 28.9039 88.1586 28.8673C88.2634 29.1449 88.2992 29.4376 88.4836 29.6765C88.4291 29.3579 88.5044 29.0538 88.5065 28.7353C88.65 29.1011 88.7182 29.8013 88.7476 29.8651C88.777 29.929 88.7791 29.8149 88.7705 29.7927C88.8702 30.0882 88.9434 30.9677 88.9477 30.8314C88.9542 30.6951 88.957 30.4426 88.9183 29.9749C88.9477 30.0775 89.0073 30.2496 89.0568 30.5818V30.5825ZM85.9585 38.7898C85.7741 38.9261 85.754 38.9283 85.9814 38.6442C86.2088 38.3601 86.7067 37.5689 86.8953 37.2281C87.084 36.8874 86.8609 37.6463 87.0338 37.335C87.2045 37.0237 87.325 36.878 87.5245 36.1305C87.5424 36.3673 87.2971 37.3235 86.9836 37.8623C86.6722 38.4031 86.0654 39.0373 85.838 39.3013C85.6106 39.5674 86.2562 38.7059 86.4922 38.4125C86.7289 38.1191 86.8674 37.8623 86.9169 37.7396C86.6758 38.076 86.1393 38.6535 85.9578 38.7898H85.9585ZM69.0481 37.0509C69.3365 37.8371 70.5367 39.0445 71.1163 39.3508C70.1636 38.9419 69.3695 38.378 69.2368 38.1176C69.1514 37.9498 69.2899 37.9821 69.4133 38.1284C69.5367 38.2747 69.6062 38.3501 69.81 38.4734C69.3279 37.8529 69.1141 37.4462 69.0481 37.0509ZM72.8078 20.3909C72.5238 20.4799 72.2669 20.5588 72.5991 20.3795C72.8968 20.2202 73.556 19.9864 73.6787 20.1112C73.8014 20.2338 73.0926 20.2998 72.8085 20.3909H72.8078ZM82.6242 23.4476C83.206 23.5524 83.2992 24.2159 83.4943 24.4003C83.1306 24.0638 82.7648 23.6908 82.6242 23.4476ZM84.4018 24.3206C84.2813 24.2209 84.2339 24.0502 84.2339 24.0502C84.325 24.1184 84.5338 24.3773 84.5704 24.4204C84.607 24.4634 84.5202 24.4204 84.4025 24.3206H84.4018Z" fill="white"/>
<path d="M67.8794 29.2833C67.9562 28.9132 68.0329 28.5437 68.109 28.1736C68.119 28.1757 68.129 28.1779 68.1398 28.18C68.0688 28.5545 67.9978 28.9282 67.9267 29.3027C67.911 29.2963 67.8952 29.2898 67.8794 29.2841V29.2833Z" fill="white"/>
<path d="M66.4619 30.0323C66.4354 29.7454 66.4655 29.4627 66.5215 29.1823C66.5315 29.183 66.5415 29.1844 66.5516 29.1851C66.5222 29.4678 66.492 29.7497 66.4626 30.0323H66.4619Z" fill="white"/>
<path d="M86.7224 35.5897C86.6363 35.7497 86.5308 36.0517 86.7224 35.8881C86.9139 35.7246 86.8099 35.4268 86.7224 35.5897Z" fill="white"/>
<path d="M88.2065 33.5079C88.2753 33.32 88.2187 32.9333 88.3126 33.1665C88.4066 33.4003 88.0967 33.8056 88.2065 33.5079Z" fill="white"/>
<path d="M65.5883 33.9527C65.6449 34.0667 65.6019 33.4369 65.5072 33.4412C65.4125 33.4455 65.3695 33.5122 65.4118 33.6966C65.4548 33.8809 65.5424 33.8601 65.5883 33.9519V33.9527Z" fill="white"/>
<path d="M65.752 33.3306C65.7205 33.2503 65.6064 32.9935 65.6451 32.9397C65.6839 32.8859 65.7341 32.9074 65.7692 33.025C65.8044 33.1427 65.7872 33.4225 65.7513 33.3306H65.752Z" fill="white"/>
<path d="M67.4398 33.4964C67.452 33.4469 67.5008 33.2877 67.4678 33.264C67.4348 33.2403 67.4025 33.259 67.3918 33.3293C67.381 33.3996 67.4262 33.5524 67.4398 33.4964Z" fill="white"/>
<path d="M65.8401 32.6858C65.9362 32.6793 65.8674 32.7991 65.8157 32.8458C65.7885 32.8709 65.7282 32.693 65.8401 32.6858Z" fill="white"/>
<path d="M66.1343 33.7898C66.2103 33.8092 66.1587 33.8795 66.1192 33.901C66.0984 33.9125 66.0454 33.7669 66.1343 33.7898Z" fill="white"/>
<path d="M86.0716 28.203C86.0005 28.0294 86.1914 28.3781 86.3104 28.7045C86.3815 28.8974 86.446 29.0588 86.4109 29.1571C86.3485 29.3336 86.238 28.6091 86.0716 28.2038V28.203Z" fill="white"/>
<path d="M86.2384 27.2295C86.3646 27.4612 86.4457 27.5846 86.4952 27.5631C86.5447 27.5416 86.5662 27.4354 86.4952 27.3428C86.4242 27.2503 86.1673 27.0982 86.2384 27.2295Z" fill="white"/>
<path d="M86.6931 27.6205C86.7233 27.7131 86.8883 27.6708 86.8187 27.5768C86.7491 27.4828 86.6601 27.5194 86.6931 27.6205Z" fill="white"/>
<path d="M88.3199 32.7059C88.3278 32.7898 88.17 32.7863 88.1951 32.6937C88.2202 32.6012 88.3113 32.6148 88.3199 32.7059Z" fill="white"/>
<path d="M88.7778 34.1435C88.8144 34.0179 88.6996 33.9971 88.6889 34.1133C88.6774 34.2403 88.7412 34.269 88.7778 34.1435Z" fill="white"/>
<path d="M88.01 33.4648C88.0437 33.6327 87.8135 33.7718 87.8257 33.5538C87.8379 33.3357 87.9727 33.2812 88.01 33.4648Z" fill="white"/>
<path d="M70.4469 20.6657C70.5495 20.6047 70.7654 20.5036 70.7303 20.4369C70.6951 20.3702 70.5201 20.5007 70.4469 20.5739C70.3738 20.6471 70.3451 20.7274 70.4469 20.6664V20.6657Z" fill="white"/>
<path d="M68.3507 34.492C68.2875 34.4591 68.3399 34.3823 68.3794 34.4067C68.4188 34.4311 68.4325 34.5344 68.3507 34.492Z" fill="white"/>
<path d="M85.3608 27.7195C85.3027 27.7317 85.3558 27.8995 85.4225 27.8759C85.4893 27.8522 85.4276 27.7051 85.3608 27.7195Z" fill="white"/>
<path d="M86.2381 26.8565C86.18 26.8687 86.2008 26.9576 86.2668 26.9339C86.3328 26.9103 86.3041 26.8421 86.2381 26.8565Z" fill="white"/>
<path d="M86.0444 27.9024C86.0229 27.8235 86.2517 28.0258 86.1951 28.1226C86.1384 28.2195 86.0796 28.0279 86.0444 27.9024Z" fill="white"/>
<path d="M72.8474 22.3394C72.7577 22.3845 72.6594 22.4527 72.762 22.4778C72.8646 22.5029 72.9571 22.4491 72.9787 22.3709C73.0002 22.2927 72.9385 22.2934 72.8474 22.3386V22.3394Z" fill="white"/>
<path d="M135.499 50.1019C134.172 50.1019 133.098 49.0273 133.098 47.7002C133.098 46.3731 134.172 45.2985 135.499 45.2985C136.826 45.2985 137.901 46.3731 137.901 47.7002C137.901 49.0273 136.816 50.1019 135.499 50.1019ZM133.258 47.7002C133.258 48.9398 134.26 49.9419 135.499 49.9419C136.739 49.9419 137.741 48.9398 137.741 47.7002C137.741 46.4606 136.739 45.4584 135.499 45.4584C134.26 45.4584 133.258 46.4706 133.258 47.7002ZM134.631 46.4757C134.848 46.4448 135.143 46.419 135.401 46.419C136.274 46.419 136.455 46.8013 136.455 47.1163C136.455 47.447 136.233 47.7102 135.861 47.7619V47.7777C136.103 47.8293 136.253 48.0259 136.31 48.2325C136.413 48.6198 136.486 48.863 136.563 48.9864H136.212C136.17 48.919 136.113 48.749 136.015 48.3559C135.938 48.0409 135.793 47.901 135.447 47.8702H134.946V48.9857H134.631V46.4749V46.4757ZM134.946 47.6227H135.484C135.907 47.6227 136.129 47.4319 136.129 47.1528C136.129 46.8272 135.871 46.6672 135.411 46.6672C135.179 46.6672 135.04 46.683 134.946 46.7031V47.6227Z" fill="white"/>
</g>
<defs>
<clipPath id="clip0_5889_474">
<rect width="115.734" height="42" fill="white" transform="translate(22.1333 19)"/>
</clipPath>
</defs>
</svg>
