<svg width="160" height="80" fill="none" xmlns="http://www.w3.org/2000/svg">
<rect width="160" height="80" rx="40" fill="#312359"/>
<path d="M60.0463 18H43.8823L35.8483 31.9132L35.9004 31.9993L39.8433 38.8298V38.8318H39.8453L43.8843 45.8305V45.8325L43.2635 44.9293L39.4908 39.4445L39.0723 38.8338V38.8318H31.8574L27.7183 46.0007L35.8023 60H51.9683L60.0503 46.0007L60.0483 45.9967L60.1444 45.8325H60.1364L56.0954 38.8338L56.0974 38.8318H56.0994L52.0604 31.8331L56.8724 38.8298V38.8318H64.0893H64.1794L64.1834 38.8378L68.1303 31.9993L60.0463 18Z" fill="#DC4F23"/>
<path d="M81.0662 38.163C79.7206 37.7625 78.485 37.382 78.485 36.1625C78.485 35.1253 79.4302 34.6347 80.4855 34.6347C81.4487 34.6347 82.522 35.0712 83.1588 35.8882L84.6126 34.3243C83.5954 33.0887 82.0855 32.47 80.5957 32.47C78.3228 32.47 76.2142 33.8697 76.2142 36.4149C76.2142 38.9059 78.2147 39.6328 79.9769 40.1595C81.3947 40.596 82.7043 40.9224 82.7043 42.0679C82.7043 42.977 81.8853 43.5957 80.7038 43.5957C79.5764 43.5957 78.3048 43.033 77.4858 41.9777L75.9219 43.6138C77.1394 45.1036 78.9036 45.7764 80.5396 45.7764C82.8845 45.7764 84.9931 44.3767 84.9931 41.8135C84.9951 39.2724 82.8845 38.6917 81.0662 38.163Z" fill="white"/>
<path d="M95.7204 42.5084L93.6659 36.2546H91.4651L89.3926 42.5084L87.338 36.2546H84.9751L88.3753 45.4901H90.4118L92.5565 39.3445L94.7011 45.4901H96.7557L100.156 36.2546H97.6828L95.7204 42.5084Z" fill="white"/>
<path d="M103.622 36.2546H101.403V45.4901H103.622V36.2546Z" fill="white"/>
<path d="M102.513 32.0194C101.676 32.0194 101.023 32.6382 101.023 33.4552C101.023 34.2542 101.678 34.8729 102.513 34.8729C103.35 34.8729 104.003 34.2542 104.003 33.4552C104.003 32.6362 103.348 32.0194 102.513 32.0194Z" fill="white"/>
<path d="M110.435 36.0364C109.161 36.0364 108.054 36.6171 107.489 37.5823V36.2546H105.344V45.4901H107.545V40.5279C107.545 38.8198 108.672 38.0008 109.764 38.0008C110.763 38.0008 111.564 38.6556 111.564 39.9272V45.4901H113.763V39.5627C113.763 37.2359 112.289 36.0364 110.435 36.0364Z" fill="white"/>
<path d="M119.964 43.6178C119.127 43.6178 118.474 43.1272 118.474 42.1079V38.2191H121.642L120.507 36.2567H118.474V32.474H116.256V36.2567H113.688L114.824 38.2191H116.256V42.4363C116.256 44.5089 117.727 45.6002 119.438 45.6002C120.275 45.6002 121.184 45.3279 121.983 44.7632L121.4 43.1452C120.945 43.4536 120.419 43.6178 119.964 43.6178Z" fill="white"/>
<path d="M127.928 43.6178C127.091 43.6178 126.438 43.1272 126.438 42.1079V38.2191H129.606L128.471 36.2567H126.438V32.474H124.22V36.2567H121.652L122.788 38.2191H124.22V42.4363C124.22 44.5089 125.691 45.6002 127.401 45.6002C128.239 45.6002 129.148 45.3279 129.947 44.7632L129.364 43.1452C128.909 43.4536 128.383 43.6178 127.928 43.6178Z" fill="white"/>
<path d="M131.311 36.2527C130.75 36.2527 130.339 36.6692 130.339 37.2359C130.339 37.8026 130.75 38.2171 131.311 38.2171C131.871 38.2171 132.282 37.8006 132.282 37.2359C132.284 36.6692 131.871 36.2527 131.311 36.2527ZM131.311 38.0729C130.846 38.0729 130.496 37.7285 130.496 37.2359C130.496 36.7413 130.848 36.3989 131.311 36.3989C131.775 36.3989 132.124 36.7433 132.124 37.2359C132.126 37.7305 131.775 38.0729 131.311 38.0729Z" fill="white"/>
<path d="M131.775 37.0216C131.775 36.8193 131.617 36.6771 131.39 36.6771H130.924V37.7124H131.154V37.386H131.336L131.533 37.7124H131.809L131.575 37.3319C131.697 37.2699 131.775 37.1537 131.775 37.0216ZM131.38 37.1938H131.154V36.9034H131.376C131.473 36.9034 131.537 36.9675 131.537 37.0476C131.539 37.1257 131.475 37.1938 131.38 37.1938Z" fill="white"/>
</svg>
