<svg width="160" height="80" fill="none" xmlns="http://www.w3.org/2000/svg">
<rect width="160" height="80" rx="40" fill="#312359"/>
<path d="M95.024 35.1438L96.9066 50.1541L89.3168 38.3459L83.301 42.4385L85.1782 36.1629L72.769 34.685L86.0606 29.8967L84.3702 15.7931L91.8815 26.769L97.9663 22.537L96.0093 28.9886L108.321 30.4421L95.024 35.1411V35.1438ZM68.6249 37.8018C69.2908 38.9319 69.6237 40.2081 69.6237 41.6265C69.6237 43.0448 69.2908 44.3211 68.6249 45.4511C67.9591 46.5812 67.0171 47.4704 65.7977 48.1146C64.5783 48.7602 63.1681 49.0823 61.5657 49.0823C59.9633 49.0823 58.5517 48.7602 57.3336 48.1146C56.1142 47.469 55.1723 46.5812 54.5064 45.4511C53.8406 44.3211 53.5076 43.0462 53.5076 41.6265C53.5076 40.2068 53.8406 38.9319 54.5064 37.8018C55.1723 36.6717 56.1142 35.7839 57.3336 35.1384C58.553 34.4928 59.9633 34.1707 61.5657 34.1707C63.1681 34.1707 64.5797 34.4928 65.7977 35.1384C67.0171 35.7839 67.9591 36.6717 68.6249 37.8018ZM64.6527 41.6265C64.6527 40.9335 64.5255 40.3272 64.2711 39.8089C64.0166 39.2892 63.6566 38.8872 63.1911 38.6017C62.7255 38.3161 62.1842 38.174 61.5657 38.174C60.9472 38.174 60.4058 38.3161 59.9416 38.6017C59.476 38.8872 59.116 39.2892 58.8616 39.8089C58.6072 40.3286 58.48 40.9349 58.48 41.6265C58.48 42.3181 58.6072 42.9257 58.8616 43.4441C59.116 43.9638 59.476 44.3657 59.9416 44.6513C60.4072 44.9369 60.9485 45.079 61.5657 45.079C62.1828 45.079 62.7255 44.9369 63.1911 44.6513C63.6566 44.3657 64.0166 43.9638 64.2711 43.4441C64.5255 42.9244 64.6527 42.3181 64.6527 41.6265ZM30.8141 48.5937H35.4995V34.5375H30.8141V48.5937ZM43.2314 38.5651C43.6969 38.2701 44.2478 38.1226 44.8866 38.1226C45.3616 38.1226 45.8001 38.2159 46.2007 38.4027C46.6013 38.5895 46.9275 38.8602 47.1778 39.212C47.4296 39.5653 47.5784 39.9821 47.6258 40.4653H52.3627C52.295 39.2229 51.935 38.1266 51.2827 37.1752C50.6303 36.2251 49.7398 35.4862 48.6084 34.9597C47.4783 34.4332 46.179 34.1707 44.712 34.1707C43.2449 34.1707 41.8415 34.4928 40.6424 35.1384C39.4433 35.7839 38.5081 36.6731 37.8354 37.8072C37.1628 38.9414 36.8272 40.2149 36.8272 41.6265C36.8272 43.0381 37.1628 44.3129 37.8354 45.4457C38.5081 46.5799 39.4433 47.469 40.6424 48.1146C41.8415 48.7602 43.1975 49.0823 44.712 49.0823C46.2264 49.0823 47.4769 48.8197 48.6084 48.2932C49.7385 47.7668 50.6303 47.0292 51.2827 46.0778C51.935 45.1277 52.295 44.0301 52.3627 42.7877H47.6258C47.5784 43.2695 47.4282 43.6877 47.1778 44.0409C46.9261 44.3941 46.6013 44.6635 46.2007 44.8502C45.8001 45.037 45.3616 45.1304 44.8866 45.1304C44.2478 45.1304 43.6969 44.9829 43.2314 44.6878C42.7658 44.3928 42.4112 43.98 42.1676 43.4508C41.9227 42.9217 41.8009 42.314 41.8009 41.6278C41.8009 40.9417 41.9227 40.334 42.1676 39.8048C42.4126 39.2756 42.7672 38.8629 43.2314 38.5665V38.5651ZM83.9615 43.4089L81.2344 45.2644L82.1791 42.1056L83.6583 37.1644L80.26 36.7597V42.6456L76.7425 36.3415L72.6309 35.8516L70.6022 35.6107V48.5964H74.8194V40.6169L79.2639 48.5964H84.4757V43.0597L83.9587 43.4116L83.9615 43.4089ZM88.9825 39.9916L87.0418 41.3125V48.5937H91.7272V44.2615L88.9825 39.9916ZM115.742 44.2845C116.026 44.0666 116.428 43.8149 116.943 43.5307C117.833 43.0421 118.546 42.563 119.082 42.0947C119.619 41.6251 120.014 41.1203 120.269 40.5762C120.523 40.0335 120.652 39.4164 120.652 38.7235C120.652 37.8005 120.45 36.9966 120.045 36.3144C119.641 35.631 119.051 35.1059 118.272 34.735C117.494 34.3642 116.552 34.1802 115.445 34.1802C114.27 34.1802 113.254 34.4008 112.395 34.842C111.535 35.2832 110.873 35.8949 110.408 36.6758C109.942 37.4567 109.693 38.3418 109.66 39.3338H113.948C113.935 38.8047 114.065 38.3987 114.335 38.1172C114.607 37.8356 114.958 37.6949 115.384 37.6949C115.614 37.6949 115.817 37.7369 115.991 37.8221C116.164 37.9074 116.298 38.0278 116.393 38.1835C116.487 38.3391 116.535 38.5259 116.535 38.7438C116.535 38.9617 116.483 39.1606 116.382 39.3406C116.279 39.5206 116.095 39.7141 115.827 39.9199C115.559 40.1269 115.18 40.3638 114.691 40.6277C113.326 41.368 112.286 42.1137 111.575 42.8635C110.915 43.5578 110.45 44.317 110.181 45.1399C110.158 45.2075 110.137 45.2752 110.118 45.3442C109.868 46.2199 109.742 47.3026 109.741 48.5937H120.518V45.1412H115.023C115.051 45.06 115.088 44.9829 115.134 44.9071C115.253 44.7095 115.455 44.5038 115.74 44.2859L115.742 44.2845ZM126.044 34.5361C125.846 35.2087 125.562 35.765 125.188 36.2062C124.815 36.6474 124.341 36.9844 123.767 37.2144C123.193 37.4445 122.503 37.5772 121.694 37.6123V41.5642C122.312 41.5778 122.89 41.5114 123.43 41.3653C123.957 41.2232 124.42 41.0066 124.82 40.7184V48.5923H129.21V34.5361H126.042H126.044ZM99.7852 38.5651C100.251 38.2701 100.802 38.1226 101.44 38.1226C101.915 38.1226 102.354 38.2159 102.755 38.4027C103.155 38.5895 103.481 38.8602 103.733 39.212C103.985 39.5653 104.134 39.9821 104.181 40.4653H108.918C108.85 39.2229 108.49 38.1266 107.838 37.1752C107.186 36.2251 106.295 35.4862 105.164 34.9597C104.04 34.4373 102.749 34.1734 101.294 34.1707L96.3043 35.9341L97.8729 48.4367C98.8988 48.8671 100.032 49.0823 101.269 49.0823C102.736 49.0823 104.033 48.8197 105.165 48.2932C106.295 47.7668 107.187 47.0292 107.839 46.0778C108.492 45.1277 108.852 44.0301 108.919 42.7877H104.182C104.135 43.2695 103.985 43.6877 103.734 44.0409C103.483 44.3941 103.156 44.6635 102.756 44.8502C102.355 45.037 101.917 45.1304 101.442 45.1304C100.803 45.1304 100.252 44.9829 99.7866 44.6878C99.321 44.3928 98.9664 43.98 98.7215 43.4508C98.4765 42.9217 98.3547 42.314 98.3547 41.6278C98.3547 40.9417 98.4765 40.334 98.7215 39.8048C98.9664 39.2756 99.321 38.8629 99.7866 38.5665L99.7852 38.5651Z" fill="#D79AF3"/>
</svg>
