<svg xmlns="http://www.w3.org/2000/svg" width="160" height="80" fill="none"><rect width="160" height="80" fill="#312359" rx="40"/><g clip-path="url(#a)"><path fill="#fff" d="m38.215 43.87-9.53-14.745a.34.34 0 0 0-.286-.157H25c-.848 0-1.535.688-1.535 1.535v20.529h4.51V36.22c0-.1.082-.183.183-.183l9.529 14.837a.34.34 0 0 0 .287.157h3.338c.847 0 1.534-.688 1.534-1.535V28.969h-4.51v14.78a.12.12 0 0 1-.121.121"/><path fill="#78BE20" d="M136.518 28.969H119.93c-.848 0-1.535.687-1.535 1.534v2.702h6.442c.094 0 .171.077.171.17v17.658h2.975c.848 0 1.535-.688 1.535-1.535V33.375c0-.093.077-.17.17-.17h5.694l1.135-4.236zM111.375 43.87l-9.529-14.745a.34.34 0 0 0-.287-.157H98.16c-.847 0-1.535.688-1.535 1.535v20.529h4.51V36.22c0-.1.082-.183.183-.183l9.529 14.837a.34.34 0 0 0 .287.157h3.338c.847 0 1.535-.688 1.535-1.535V28.969h-4.51v14.78a.12.12 0 0 1-.122.121"/><path fill="#fff" d="m61.752 30.106-.83 3.098h6.442c.093 0 .17.077.17.17v17.658h2.975c.848 0 1.535-.688 1.535-1.535V33.374c0-.093.077-.17.17-.17h5.694l1.135-4.236h-15.81c-.694 0-1.302.466-1.482 1.137zM50.043 41.646h6.333l1.036-3.87h-7.369a.17.17 0 0 1-.17-.171v-4.23c0-.094.076-.171.17-.171h8.416l1.135-4.236H46.897c-.848 0-1.535.687-1.535 1.535V51.03h12.162c.695 0 1.303-.467 1.483-1.138l.83-3.098h-9.794a.17.17 0 0 1-.17-.17v-4.81c0-.093.076-.17.17-.17"/><path fill="#78BE20" d="M84.806 41.646h6.332l1.037-3.87h-7.37a.17.17 0 0 1-.17-.171v-4.23c0-.094.077-.171.17-.171h8.416l1.135-4.236H84.333c-.695 0-1.303.466-1.483 1.137l-2.609 9.737a3.4 3.4 0 0 0-.116.882v10.307h12.162c.695 0 1.303-.467 1.483-1.138l.83-3.098h-9.793a.17.17 0 0 1-.17-.17v-4.81c0-.093.076-.17.17-.17z"/></g><defs><clipPath id="a"><path fill="#fff" d="M23.465 29h113.07v22H23.465z"/></clipPath></defs></svg>