<svg xmlns="http://www.w3.org/2000/svg" width="160" height="80" fill="none"><rect width="160" height="80" fill="#312359" rx="40"/><g fill="#fff" fill-rule="evenodd" clip-path="url(#a)" clip-rule="evenodd"><path d="M18.895 27.227a14.8 14.8 0 0 1 5.073.679 15 15 0 0 1 1.993 2.4q.627-.105 1.269-.135a10 10 0 0 1 1.72-2.174 10.4 10.4 0 0 1 3.262-.725 10 10 0 0 1 1.903 0 27.8 27.8 0 0 1 5.39 3.76q1.065 3.045.815 6.25a16.1 16.1 0 0 1-2.582 3.76 9.7 9.7 0 0 1-3.352.498 20 20 0 0 0 1.676-3.17 6.74 6.74 0 0 0-.271-3.443 1.6 1.6 0 0 0-.408-.498 19.7 19.7 0 0 0-3.08-1.36q-.462-.074-.906.091.646.14 1.268.363a7.6 7.6 0 0 1 1.586 2.31 9.9 9.9 0 0 1-.544 3.08q-.32.75-1.132.906.812 1.305 1.087 2.808a7.1 7.1 0 0 1-2.491-.815 13 13 0 0 0-.182-1.721.6.6 0 0 1-.407.09q-.03 2.494-.182 4.983l.091.453 1.993 1.178q.544-.818.951-1.722a.58.58 0 0 1 .408-.362 5.8 5.8 0 0 1 2.174.951q.309.24.453.589-1.005 2.677-3.714 1.857a18 18 0 0 1-2.265-1.313l-.09 1.041q.15 2.016.271 4.032a15 15 0 0 1-3.805.226 18 18 0 0 1-3.125-1.857 6.5 6.5 0 0 1-.634-1.903 37.5 37.5 0 0 1-.68-8.062h-.453a6.3 6.3 0 0 1-.18 1.63 9.5 9.5 0 0 1-2.447.725 7.4 7.4 0 0 1 1.087-2.763 1.51 1.51 0 0 1-1.042-1.042 18 18 0 0 1-.634-1.902 3.3 3.3 0 0 1 0-1.087 10.5 10.5 0 0 1 1.676-2.31 3.7 3.7 0 0 1 1.087-.363 1.1 1.1 0 0 0-.724-.09 24.5 24.5 0 0 0-3.171 1.359 1.3 1.3 0 0 0-.408.588q-.96 2.45.363 4.711.547.889 1.041 1.812a10.8 10.8 0 0 1-3.352-.498 13.8 13.8 0 0 1-2.581-3.85q-.19-3.162.815-6.16a41 41 0 0 1 5.39-3.805m7.338 4.167q1.088.057 2.084.498.636.618 1.177 1.314-1.005.423-1.857 1.087a9 9 0 0 0-.86 2.446q.302 1.246.95 2.355a5.5 5.5 0 0 0 1.767.906 82 82 0 0 0-.226 4.892 9 9 0 0 0-2.129-1.178 5 5 0 0 1-.045-1.63l1.177-1.178q.255-.276.318-.634a23.6 23.6 0 0 0-4.077 0q-.001.246.136.453.63.765 1.359 1.45.09.77 0 1.54a10.7 10.7 0 0 0-2.265 1.358 74 74 0 0 0-.227-4.846q1.1-.692 2.13-1.495a4.3 4.3 0 0 0 .543-2.356 20 20 0 0 0-.725-1.993 7 7 0 0 0-1.857-1.313q.951-1.431 2.627-1.676m-3.442 2.718q2.196.421 2.264 2.672a3.3 3.3 0 0 1-.317 1.223 5.3 5.3 0 0 1-1.857 1.178 10.7 10.7 0 0 1-2.083-.59 1.35 1.35 0 0 1-.408-.679 29 29 0 0 1-.408-1.54 7.1 7.1 0 0 1 1.087-1.857 9 9 0 0 1 1.722-.407m6.975 0q1.058.057 2.084.317a6 6 0 0 1 1.268 1.947 6.5 6.5 0 0 1-.815 2.22q-1.014.39-2.084.589-2.932-.882-1.857-3.805.244-.38.589-.68.465-.23.815-.589M26.414 44.53q1.454.522 2.718 1.404-1.093.819-2.355 1.359a2.4 2.4 0 0 1-1.36-.363q-.716-.399-1.358-.906a16 16 0 0 1 2.355-1.494" opacity=".957"/><path d="M114.47 32.843q3.083-.18 4.439 2.582-.975.556-1.993 1.042-1.06-1.947-3.08-1.042-.885.85-.317 1.948.299.345.679.589a17.3 17.3 0 0 1 3.624 1.902q1.714 1.62 1.223 3.94-.753 2.565-3.397 3.036-3.994.504-5.436-3.216.015-.129.091-.227a34 34 0 0 1 1.812-1.042 6.2 6.2 0 0 0 1.178 1.767q1.232.953 2.627.272 1.408-1.08.498-2.582a6.5 6.5 0 0 0-1.042-.77 34 34 0 0 1-3.08-1.54q-2.298-2.133-.861-4.938 1.178-1.474 3.035-1.72" opacity=".949"/><path d="M98.164 32.934q2.193-.348 3.669 1.268 1.03 1.8-.091 3.533-.723.745-1.495 1.45a81 81 0 0 1 2.038 2.536q.726-.84 1.495-1.63.768.7 1.495 1.45a1.16 1.16 0 0 1-.272.543l-1.223 1.404q1.295 1.543 2.537 3.125-1.495.181-2.99 0a8.7 8.7 0 0 0-1.223-1.359q-2.807 2.709-6.296.952-2.436-1.885-1.495-4.847a5 5 0 0 1 1.404-1.767q.585-.358 1.088-.815a5.5 5.5 0 0 1-1.042-1.948q-.448-3.004 2.4-3.895m.453 1.993q1.576-.18 1.404 1.359-.492.672-1.178 1.177a2.83 2.83 0 0 1-.951-1.54q.067-.728.725-.996m-.363 5.617a54 54 0 0 1 2.446 2.853 4.26 4.26 0 0 1-2.4 1.404q-1.738-.264-1.948-1.993-.028-.447.226-.815a9 9 0 0 1 1.676-1.45" opacity=".953"/><path d="M46.345 33.115q2.22-.023 4.439.045 3.782.563 3.986 4.394-.213 4.08-4.258 4.484-.95.068-1.903.046v4.62h-2.264zm2.264 2.174a7.1 7.1 0 0 1 2.718.317q1.542 1.133.86 2.945-.475 1.02-1.584 1.223-.995.068-1.994.045z" opacity=".97"/><path d="M66.457 34.927h2.264v3.08h3.08v2.174h-3.08q-.023 1.95.046 3.896.17.896 1.041.68.57-.35.861-.952.924.54 1.767 1.178-1.81 2.898-4.892 1.404-.93-.75-1.042-1.948-.067-2.128-.045-4.258h-1.36v-2.174h1.36z" opacity=".954"/><path d="M31.216 35.017q.518.154.815.634-.33.537-.815.952l.77.77q-.194.492-.68.815a5.2 5.2 0 0 1-.815-.815l-.724.815a4.3 4.3 0 0 1-.725-.408q-.138-.142-.046-.317.417-.348.68-.815a5.2 5.2 0 0 1-.725-.906 1.2 1.2 0 0 1 .589-.634l.906.725a10 10 0 0 0 .77-.816" opacity=".875"/><path d="M59.3 37.735q3.552-.225 4.484 3.171.171 1.034.136 2.084H58.03q.084 1.142 1.087 1.675 1.723.529 2.854-.86l1.857 1.132q-2.321 2.796-5.798 1.631-2.55-1.34-2.446-4.258-.015-3.857 3.715-4.575m.18 2.084q1.598-.108 2.084 1.404a34 34 0 0 1-3.533 0q.356-1.104 1.45-1.404" opacity=".946"/><path d="M77.237 37.735q3.702-.224 4.575 3.352.135.946.136 1.903h-5.98q.435 2.166 2.628 1.766A2.42 2.42 0 0 0 80 43.805q.923.54 1.766 1.178-2.45 2.832-5.979 1.494-1.78-1.001-2.129-3.034-.564-2.926 1.586-4.938a4.8 4.8 0 0 1 1.993-.77m.181 2.084a2.25 2.25 0 0 1 1.767.634q.236.381.317.815-1.725.045-3.443-.09.284-1.1 1.36-1.36" opacity=".948"/><path d="M87.746 37.735q1.308-.048 2.264.816-.48.984-.996 1.947-2.568-1.421-2.854 1.586-.067 2.31-.045 4.62H83.85v-8.697h2.265q-.023.501.045.996a2.97 2.97 0 0 1 1.586-1.268" opacity=".946"/><path d="M124.707 37.735q2.814-.12 4.394 2.174 1.46 2.76-.272 5.345-2.352 2.418-5.571 1.314-3.234-1.737-2.582-5.39.959-2.98 4.031-3.443m.181 2.084q1.946-.037 2.492 1.812.49 3.358-2.854 3.125-1.33-.468-1.585-1.857-.352-2.428 1.947-3.08" opacity=".95"/><path d="M135.94 37.735q2.883.005 3.126 2.9.068 3.033.045 6.069h-2.265q.023-2.763-.045-5.526-.456-1.94-2.219-1.042-.534.499-.68 1.223a156 156 0 0 0-.045 5.345h-2.356v-8.697h2.356q-.023.5.045.997a3.85 3.85 0 0 1 2.038-1.269" opacity=".942"/><path d="M143.46 37.735q2.161-.075 3.262 1.767-.793.555-1.631 1.041a2.25 2.25 0 0 0-1.268-.815q-1.006.258-.363 1.042 1.44.585 2.718 1.45 1.254 1.635.317 3.487-1.688 1.786-4.031.951a3.45 3.45 0 0 1-1.812-1.766 8.4 8.4 0 0 1 1.721-1.087q.492.696 1.268 1.042 1.111.247 1.042-.861a1.6 1.6 0 0 0-.407-.498 16 16 0 0 1-2.446-1.36q-1.262-1.533-.318-3.306a3.04 3.04 0 0 1 1.948-1.087" opacity=".941"/></g><defs><clipPath id="a"><path fill="#fff" d="M12.056 27h135.889v26H12.055z"/></clipPath></defs></svg>