<svg xmlns="http://www.w3.org/2000/svg" width="160" height="80" fill="none"><rect width="160" height="80" fill="#312359" rx="40"/><g clip-path="url(#a)"><path fill="#fff" d="m72.586 69.95-1.573-.92.008.236-4.2.13-1.8-1.053.02-6.758-3.086.107-1.801-1.053.031-12.484c-2.831-1.496-4.713-6.172-4.713-11.789 0-5.283 1.683-9.799 4.293-11.537a22 22 0 0 1 2.057-2.119c.803-.722 1.2-1.67 1.618-2.674.88-2.107 1.876-4.492 6.866-5.262l1.281-.198-.883.949c-.014.015-1.382 1.508-1.244 2.846.048.478.202.724.332.754.184.044.73-.178 1.463-1.33 1.443-2.264 2.854-2.953 6.293-3.073 3.335-.116 4.69-2.245 4.756-2.806l.217-1.867.653 1.762c.04.105.937 2.592-.266 4.548-.655 1.065-1.492 1.773-2.105 2.29-.396.334-.77.65-.848.871-.056.157.014.413.227.572.324.242.826.149 1.376-.254.61-.447.977-1.09 1.401-1.834.582-1.02 1.242-2.176 2.709-3.165 2.553-1.72 5.633-1.517 5.762-1.508l1.516.11-1.332.733c-.02.011-2.016 1.14-2.385 3.192a8.4 8.4 0 0 0-.088 2.37c.346-.5.892-1.058 1.758-1.558 2.082-1.203 2.689-1.902 2.958-2.58l.405-1.02.428 1.011c.036.086.876 2.105.25 3.853-.287.802-.782 1.43-1.22 1.984-.413.526-.77.978-.7 1.292.008.04.118.095.303.112.741.07 1.943-.42 2.21-1.034l.434-1.005.398 1.02c.028.073.648 1.704-.032 3.478.482.427.935.966 1.346 1.598l.137-4.243a4.16 4.16 0 0 1-1.639-3.451 4.18 4.18 0 0 1 4.308-4.038 4.14 4.14 0 0 1 2.911 1.318 4.15 4.15 0 0 1 1.127 2.99 4.15 4.15 0 0 1-1.541 3.102l-.458 14.14a2.92 2.92 0 0 1-2.687 2.819h-.02c-.649 4.765-2.698 8.206-5.32 8.967v11.855h-2.502L92 63.249h-1.53l.053 5.464-4.067-.134-1.736-1.016c-.834.537-1.788.808-2.845.808-.98 0-2.4-.327-3.572-1.033l.023 1.258-3.485.078-2.257 1.279zm-1.153-1.717 1.16.678 2.002-1.134 2.816-.062-.02-1.077-.157-.158 1.008-1.26.043 1.011c1.037.813 2.566 1.237 3.591 1.237 1.14 0 2.133-.377 2.95-1.122l.77-.7-.02 1.372 1.14.666 2.9.096-.051-5.434H91.1l-.004-2.903H93.6V47.762l.366-.07c2.433-.465 4.446-3.937 5.006-8.64l.044-.367.752-.06a2.02 2.02 0 0 0 1.86-1.95l.471-14.571.178-.13a3.26 3.26 0 0 0 1.35-2.54 3.26 3.26 0 0 0-.884-2.345 3.25 3.25 0 0 0-2.283-1.034 3.277 3.277 0 0 0-3.379 3.167 3.26 3.26 0 0 0 1.448 2.823l.206.14-.27 8.316-.796-1.758c-.59-1.3-1.335-2.326-2.156-2.967l-.285-.222.154-.325c.4-.842.407-1.687.33-2.279-.689.542-1.708.85-2.47.778-.846-.08-1.05-.596-1.098-.813-.162-.73.34-1.369.873-2.044.394-.5.841-1.067 1.079-1.73.274-.768.185-1.64.045-2.279-.544.659-1.416 1.307-2.788 2.1-1.79 1.034-1.895 2.267-1.899 2.32l-.142 2.064-.729-1.93c-.028-.073-.666-1.813-.235-4.205.236-1.31.988-2.287 1.658-2.925-1.05.112-2.535.432-3.832 1.305-1.292.87-1.87 1.884-2.43 2.864-.456.8-.886 1.554-1.653 2.114-.878.643-1.792.736-2.445.25-.514-.383-.736-1.039-.538-1.595.16-.45.582-.806 1.117-1.257.596-.503 1.34-1.13 1.918-2.073.509-.827.538-1.817.45-2.572-.826 1.077-2.485 2.22-5.013 2.307-3.387.117-4.36.766-5.565 2.656-.82 1.288-1.684 1.9-2.43 1.724-.33-.078-.902-.383-1.021-1.54-.098-.954.334-1.905.756-2.583-3.515.829-4.263 2.618-5.05 4.503-.439 1.052-.892 2.139-1.847 2.997-.723.65-1.4 1.35-2.012 2.078l-.044.052-.056.037c-2.356 1.524-3.939 5.873-3.939 10.819 0 5.358 1.83 9.92 4.448 11.097l.267.12-.032 12.539 1.13.66 3.76-.131-.021 7.174 1.129.66 3.038-.094-.07-2.092 1.412 1.931zm17.968-16.708-.742-.704c-.763-.721-1.556-1.29-2.175-1.56l-.043-.021a4.7 4.7 0 0 0-1.896-.595l.043-.898h4.877l-.062 3.777zm-2.13-2.877c.454.25.892.566 1.263.866l.014-.866zm-7.599 2.759-.397-.417a5 5 0 0 0-.457-.424c-.744-.604-2.274-1.59-3.428-1.822a5 5 0 0 0-.618-.097l.043-.899h8.732l.043.899c-1.127.108-2.116.588-2.937 1.428a5.2 5.2 0 0 0-.672.845zm-2.122-2.76c.687.374 1.344.82 1.838 1.222q.073.06.144.123a6.2 6.2 0 0 1 1.43-1.344zm-7.17 1.97-.308-.511a3.9 3.9 0 0 0-.567-.72 7 7 0 0 0-1.031-.814l-1.235-.825h6.54l.043.898c-1.128.107-2.118.588-2.94 1.43l-.044.048-.05.056-.406.438zm-.344-1.97a4.6 4.6 0 0 1 .483.526q.322-.292.672-.525z"/><path fill="#E22601" d="M93.207 17.847c-.08.027-2.271 1.763-2.484 1.977s-1.068 1.897-1.389 2.323c-.32.428-1.202.24-1.202-.266 0-.507.187-3.446.187-4.06s.373-1.815.293-2.056-.32-.909-1.12-.535c-.802.374-1.816 1.175-2.11 1.576-.294.4-1.148 1.522-1.63 2.483-.48.962-3.658 3.365-4.967 2.217-1.31-1.148-.614-2.378-.16-2.671.454-.294 2.324-1.95 2.565-2.458.24-.507.534-1.148.053-1.068s-5.422.881-6.143 1.148-2.297.934-2.698 1.496c-.4.56-.961 1.55-1.309 1.736-.347.187-.827.454-1.415.428-.587-.026-1.095-.187-1.121-.508-.027-.32.294-2.19.027-2.484s-1.335-.16-1.763.186c-.428.347-1.603 1.47-1.95 2.43-.346.962-.587 2.271-.774 2.805s-1.816 2.137-1.87 2.457c-.053.321 19.017.615 19.711.748.695.134 7.745-.428 8.119-.508s2.27-1.095 2.35-1.282-.4-1.683-.266-1.923c.133-.24 1.682-1.895 1.815-2.296.134-.4.454-1.095.374-1.308s-1.121-.588-1.121-.588"/><mask id="b" width="37" height="23" x="56" y="25" maskUnits="userSpaceOnUse" style="mask-type:luminance"><path fill="#fff" d="M60.707 25.659s-3.926 4.126-4.327 10.056 2.764 10.456 3.285 10.896 2.403 1.082 2.604 1.082c.2 0 30.126-.44 30.126-.44s-2.564-1.843-3.526-5.489-.961-6.65-.56-9.214 2.043-5.448 2.203-5.729.801-1.161.801-1.161z"/></mask><g mask="url(#b)"><path fill="url(#c)" d="M92.397 25.659H55.98v22.034h36.417z"/></g><path fill="#F99F07" d="M95.32 26.1s-1.722-1.162-3.765.16-3.847 7.612-3.485 11.457c.36 3.847 1.321 6.25 2.043 7.25.722 1.003 1.883 2.324 2.845 2.365.961.04 2.083-.12 2.323-.681.241-.56.881-2.845.04-4.247-.84-1.402-2.202-2.363-2.323-5.008-.12-2.644-.04-3.926.722-4.607.76-.681 4.006-.761 4.006-.761s.48-.64 0-2.123-.881-2.444-1.162-2.845c-.28-.4-1.241-.961-1.241-.961"/><path fill="#FFBE57" d="M88.297 33.618h2.457v2.67h-2.645z"/><path fill="#E22601" d="M98.179 36.088c0 5.79-1.86 10.483-4.153 10.483s-4.153-4.693-4.153-10.483 1.86-10.482 4.153-10.482 4.153 4.693 4.153 10.482"/><mask id="d" width="6" height="9" x="92" y="32" maskUnits="userSpaceOnUse" style="mask-type:luminance"><path fill="#fff" d="M94.108 32.709s-1.228 1.989-1.114 4.234c.112 2.243 1.888 3.36 1.933 3.458.043.095 2.732.035 2.687-.061-.044-.096-1.263-1.984-1.429-3.178-.165-1.194.426-2.843.518-2.92.092-.078.726-1.664.726-1.664h-.005c-.326 0-3.316.132-3.316.132"/></mask><g mask="url(#d)"><path fill="url(#e)" d="m96.267 30.4-6.985 4.48 4.99 7.782 6.985-4.48z"/></g><path fill="#E22601" d="M97.762 34.056s.784-.221.754-.791.382-10.856.382-10.856l2.987-.095s-.057 14.998-.586 15.394c-.529.395-2.227.583-2.985.735-.757.151-1.327.18-1.564.174-.237-.008-.521-1.358-.606-1.82s-.303-.91-.018-1.379 1.635-1.36 1.635-1.36M103.075 19.066a2.779 2.779 0 1 1-5.525.613 2.779 2.779 0 0 1 5.526-.613"/><path fill="#F99F07" d="M101.879 18.677a1.967 1.967 0 1 1-3.911.432 1.967 1.967 0 0 1 3.911-.432"/><path fill="#FFBE57" d="M100.503 18.235a1.138 1.138 0 1 1-2.263.25 1.138 1.138 0 0 1 2.263-.25"/><path fill="#FD9901" d="M63.548 24.661s2.91-.801 3.19-3.833c0 0 .882 1.616.174 3.071 0 0 .54-.377 1.502-.737.961-.36 1.382-.771 1.382-.771s-.25.801-.85 1.352c0 0 1.866.1 3.08-1.356 1.215-1.455 1.603-3.993 4.74-4.166 0 0-1.521.815-1.749 2.043-.227 1.228.107 2.444-.801 3.392 0 0 1.615-.428 2.323-1.269 0 0-.053.909-.547 1.576 0 0 1.39-.267 3.806-.253s4.981-1.496 5.49-3.312c0 0 1.04 2.724-1.657 4.407s-6.676.481-9.534.615-10.55-.758-10.55-.758"/><path fill="#F99F07" d="M87.235 35.84q-.006.261-.006.526 0 .602.029 1.185c.085 1.716.355 3.313.769 4.722q.128.432.272.838c-.409.157-.907.356-1.343.517-.427.159-.789.282-.94.29-.406.024-3.068.735-3.978.824h-.001a1.3 1.3 0 0 1-.242.003.7.7 0 0 1-.28-.146 2 2 0 0 1-.219-.197c-.52-.524-1.173-1.523-1.504-2.167-.098-.193-.224-.563-.352-1.059a24 24 0 0 1-.552-2.956c-.193-1.53-.272-3.225-.057-4.612.48-3.098 2.723-5.181 2.723-5.181l.59-.02c1.59-.052 5.84-.19 5.84-.134 0 .028.303.228.664.459-.335.77-.62 1.626-.843 2.552a19 19 0 0 0-.337 1.739 22 22 0 0 0-.235 2.816"/><path fill="#FF7800" d="m88.298 43.112.197-.075q-.046.144-.09.218l-.036.05c-.372.466-2.374 1.631-2.875 1.592a54 54 0 0 0-1.804-.053c-.585-.012-1.152-.02-1.445-.025h-.197a.7.7 0 0 1-.2-.067 6 6 0 0 1-.332-.152c-.54-.266-1.3-.698-1.39-.877-.05-.098-.21-.68-.402-1.403a224 224 0 0 1-.814-3.206c-.03-.13-.033-.478-.021-.893.022-.863.102-2.004.102-2.004s.2-.107.588.266c.387.374.026 1.816.56 2.778 0 0 .375-1.684 1.109-2.19.734-.508 1.335-.4 1.335-.4s-1.656 2.337-1.228 3.432c.427 1.096 2.697.975 3.431.014s.175-2.35 1.055-3.406a2.53 2.53 0 0 1 1.392-.87q-.006.262-.006.526 0 .6.029 1.185c.085 1.716.355 3.314.769 4.722q.128.433.272.839"/><path fill="#E22601" d="M88.026 42.272c-.234.461-.784 1.088-1.07 1.355q-.03.03-.058.053c-.295.253-1.484 1.015-1.724 1.082-.122.035-.809.065-1.483.08-.646.013-1.284.013-1.402-.014q-.019-.004-.042-.012a2 2 0 0 1-.209-.076 11 11 0 0 1-.742-.34 4 4 0 0 1-.195-.107c-.147-.092-.707-.52-.828-.654-.109-.12-.371-.93-.55-1.321l-.05-.107c-.056-.103-.133-.456-.21-.898l-.023-.138c-.156-.94-.304-2.182-.255-2.33 0 0 .326 1.855 2.022 2.456s3.205-.413 3.205-.413.014.28-.307.654c0 0 .883-.2 1.403-1.174.52-.975.24-2.296 1.321-3.138 0 0-.304.886-.068 1.894-.017-.101-.096-.748.456-1.52q.021-.03.039-.056c.085 1.717.355 3.313.769 4.722"/><path fill="#FFBE57" d="M86.761 33.542c.316-.174.549-.367.709-.518-.119.787-.195 1.61-.226 2.46-.234.009-.47.031-.694.077q-.218.047-.44.132c-.85.333-1.675 1.052-1.896 1.23q-.049.038-.055.039c-.04 0-.214-1.135-.214-1.135s-.775-.48-1.588-.295c-.816.188-1.016.588-1.055.521-.04-.067-.214-.347-.28-.334-.068.014-.628.294-.83 1.014 0 0-.294-.413-.133-1.041s-.521-1.162-.883-.681c-.36.48-.293.12-.266-.16.026-.281.16-1.349.2-1.376s-.2.294.695.549a2 2 0 0 0 .697.076c.467-.034.731-.236.731-.236s.106.707.614.614c.507-.093 1.481-.44 1.842-.48.36-.04 1.069.186 2.297-.148.298-.08.555-.191.773-.31"/><path fill="#E22601" d="M89.055 27.893q-.214.4-.406.84c-.335.77-.62 1.627-.843 2.552-1.247.925-2.166.866-2.178.551-.013-.36.601-.762.747-1.442 0 0-.76.573-2.043.962-1.28.387-1.459.25-.787-.231.652-.467.661-.84.661-.861 0 0-.22.35-1.122.63s-1.112.82-1.753.99c-.64.172.472-.589.55-1.31 0 0-.43.52-1.32.91s-1.052 1.152-1.052 1.152-.216-1.265 1.144-2.788c.636-.71 1.128-1.161 1.492-1.442.414-.32.66-.414.752-.414.15 0 4.6-.101 6.158-.1"/><path fill="#FFBE57" d="m80.48 34.496.08-1.282s1.362-.253 1.39-.253c.026 0 .066.32.066.32s1.161-.614 1.735-.614.962.28 1.536.348c.574.066 1.135-.4 1.135-.4s.48 1.281.467 1.334c-.014.053-.48.44-.654.535-.174.093-1.082.267-1.228.173-.147-.093-1.442-.32-1.99-.4s-2.07.694-2.07.694l-.468-.453zM83.819 39.719s.895-2.524 1.936-3.647c1.041-1.12 1.269-1.215 1.175-1.268s-.574-.027-.827.013-.975.574-1.148.829c-.174.253-.681 1.081-.802 1.428-.12.347-.387 2.578-.334 2.645"/><path fill="#F99F07" d="m77.7 39.89.01-.046a22 22 0 0 1-.262-3.478 20 20 0 0 1 .016-.881q.046-1.278.226-2.462.131-.904.336-1.74c.224-.925.509-1.78.844-2.551-.36-.231-.665-.431-.665-.46 0-.055-4.25.083-5.84.134-.366.014-.59.02-.59.02s-2.242 2.083-2.723 5.182c-.215 1.386-.136 3.081.057 4.611a24 24 0 0 0 .552 2.956c.128.496.253.866.352 1.059.331.643.983 1.642 1.504 2.166q.115.117.22.197.159.126.279.147l.053.004q.074.004.189-.008h.001c.91-.089 3.572-.799 3.977-.824.152-.008.515-.13.941-.289.282-.105.59-.224.883-.339-.411-1.057-.547-2.35-.36-3.4"/><path fill="#FF7800" d="m77.7 39.89.01-.047a22 22 0 0 1-.263-3.477q0-.265.007-.527a2.53 2.53 0 0 0-1.392.87c-.882 1.055-.321 2.446-1.055 3.407s-3.005 1.082-3.431-.015c-.428-1.095 1.228-3.43 1.228-3.43s-.601-.108-1.335.4-1.109 2.19-1.109 2.19c-.534-.962-.173-2.404-.56-2.778-.387-.373-.587-.266-.587-.266s-.08 1.14-.102 2.004c-.012.415-.008.764.02.893a184 184 0 0 0 .815 3.204c.191.724.352 1.307.402 1.404.09.178.85.61 1.39.877.126.06.24.113.332.151.1.042.171.067.2.067l.197.001c.294.005.86.014 1.445.026.76.014 1.548.034 1.804.053.404.031 1.78-.718 2.496-1.254-.528-1.112-.72-2.581-.511-3.752"/><path fill="#E22601" d="m77.7 39.89.01-.046c-.113-.736-.194-1.501-.233-2.294l-.04.056c-.551.77-.473 1.42-.456 1.52a3.8 3.8 0 0 1 .069-1.894c-1.082.84-.801 2.163-1.322 3.138-.52.975-1.402 1.175-1.402 1.175.32-.374.307-.654.307-.654s-1.51 1.014-3.205.413c-1.695-.602-2.023-2.457-2.023-2.457-.048.148.1 1.39.256 2.33q.012.071.022.138c.077.442.155.796.21.898q.025.046.052.106c.177.392.44 1.203.549 1.324.12.134.68.562.827.654.035.021.105.06.196.107.203.102.509.246.74.34h.002c.082.034.154.06.208.075l.043.013c.118.026.755.026 1.401.013.675-.016 1.361-.046 1.483-.081.241-.066 1.43-.829 1.724-1.082l.058-.053c.182-.17.473-.488.72-.816-.28-.952-.356-2.025-.197-2.922"/><path fill="#FFBE57" d="M76.982 33.542c.315-.174.548-.367.708-.518-.118.787-.195 1.61-.225 2.46-.235.009-.47.031-.695.077a3 3 0 0 0-.439.132c-.85.333-1.676 1.052-1.897 1.23q-.048.038-.055.039c-.04 0-.214-1.135-.214-1.135s-.774-.48-1.588-.295c-.815.188-1.016.588-1.055.521-.04-.067-.214-.347-.28-.334-.068.014-.627.294-.829 1.014 0 0-.295-.413-.134-1.041s-.521-1.162-.882-.681c-.36.48-.294.12-.267-.16.026-.281.16-1.349.2-1.376s-.2.294.695.549a2 2 0 0 0 .698.076c.466-.034.73-.236.73-.236s.106.707.614.614 1.481-.44 1.843-.48c.36-.04 1.068.186 2.296-.148.298-.08.555-.191.773-.31"/><path fill="#E22601" d="M79.274 27.893q-.215.4-.405.84c-.335.77-.62 1.627-.843 2.552-1.247.925-2.166.866-2.178.551-.014-.36.6-.762.747-1.442 0 0-.76.573-2.043.962-1.281.387-1.459.25-.787-.231.652-.467.66-.84.66-.861 0 0-.22.35-1.121.63-.902.28-1.113.82-1.753.99-.64.172.472-.589.55-1.31 0 0-.43.52-1.321.91-.89.39-1.052 1.152-1.052 1.152s-.216-1.265 1.145-2.788c.636-.71 1.128-1.161 1.492-1.442.414-.32.66-.414.752-.414.15 0 4.6-.101 6.157-.1"/><path fill="#FFBE57" d="m70.7 34.496.08-1.282s1.362-.253 1.389-.253.066.32.066.32 1.162-.614 1.736-.614.962.28 1.536.348c.574.066 1.134-.4 1.134-.4s.481 1.281.468 1.334c-.014.053-.481.44-.654.535-.174.093-1.082.267-1.229.173-.146-.093-1.442-.32-1.99-.4-.547-.08-2.07.694-2.07.694l-.467-.453zM74.04 39.719s.894-2.524 1.935-3.647c1.042-1.12 1.269-1.215 1.175-1.268s-.574-.027-.827.013-.975.574-1.148.829c-.173.253-.681 1.081-.802 1.428-.12.347-.387 2.578-.334 2.645"/><path fill="#F99F07" d="M67.844 39.275a23 23 0 0 1-.175-3.436q0-.178.01-.354.047-1.279.225-2.461.132-.904.337-1.74c.122-.51.193-1.02.352-1.484-.058-.089-.017-.171-.005-.28.039-.337.12-.652.23-.958-.233-.152-.398-.267-.398-.287 0-.055-4.251.082-5.84.134l-.59.02s-2.243 2.082-2.724 5.182c-.215 1.385-.136 3.08.058 4.611a24 24 0 0 0 .551 2.957c.129.495.254.865.353 1.058.33.644.983 1.642 1.504 2.167q.114.116.22.197c.104.082.198.134.278.146l.053.005q.075.002.19-.008c.91-.09 3.572-.8 3.978-.824.152-.008.514-.13.94-.29.278-.102.582-.22.87-.333-.438-1.163-.498-2.48-.502-3.7q.002-.191.088-.32"/><path fill="#FF7800" d="M67.758 39.595c0-.129.032-.234.087-.32a22.6 22.6 0 0 1-.175-3.436 2.53 2.53 0 0 0-1.393.87c-.881 1.055-.32 2.446-1.055 3.407s-3.004 1.082-3.43-.015c-.428-1.095 1.227-3.43 1.227-3.43s-.6-.108-1.335.399c-.734.507-1.108 2.19-1.108 2.19-.534-.962-.174-2.404-.561-2.778s-.588-.267-.588-.267-.078 1.142-.102 2.005c-.011.415-.008.763.021.893a164 164 0 0 0 .814 3.205c.192.724.352 1.306.402 1.404.09.178.85.61 1.39.877.126.06.241.113.332.151.1.042.171.067.2.067l.198.001 1.444.025c.76.014 1.549.033 1.804.053.401.031 1.762-.707 2.481-1.243-.576-1.246-.647-2.712-.652-4.058"/><path fill="#E22601" d="M67.758 39.595c0-.129.032-.234.088-.32a23 23 0 0 1-.154-1.725l-.039.056c-.552.77-.473 1.42-.456 1.52-.235-1.01.069-1.895.069-1.895-1.082.84-.802 2.163-1.322 3.138s-1.402 1.174-1.402 1.174c.32-.373.307-.654.307-.654s-1.51 1.014-3.205.413c-1.695-.6-2.023-2.456-2.023-2.456-.048.148.1 1.39.256 2.33q.01.071.022.138c.077.442.154.795.21.898q.023.046.051.106c.178.392.44 1.203.55 1.323.12.133.68.561.827.654.035.02.105.06.196.106.203.103.509.247.74.34h.002c.082.034.154.06.208.076q.025.008.043.012c.118.026.755.026 1.401.014.675-.016 1.361-.046 1.484-.08.24-.067 1.428-.829 1.723-1.082l.059-.053c.181-.169.467-.483.714-.807-.297-1.04-.344-2.17-.347-3.226"/><path fill="#FFBE57" d="M67.196 33.542c.315-.174.548-.367.708-.518-.119.787-.195 1.61-.226 2.46-.234.009-.469.031-.694.077q-.218.047-.44.132c-.85.333-1.675 1.052-1.896 1.23q-.049.038-.055.039c-.04 0-.214-1.135-.214-1.135s-.775-.48-1.588-.295c-.815.188-1.016.588-1.055.521-.04-.067-.214-.347-.28-.334-.068.014-.628.294-.829 1.014 0 0-.295-.413-.134-1.041s-.521-1.162-.883-.681c-.36.48-.293.12-.266-.16.026-.281.16-1.349.2-1.376s-.2.294.695.549c.265.075.5.09.698.076.466-.034.73-.236.73-.236s.106.707.614.614c.507-.093 1.481-.44 1.842-.48.36-.04 1.069.186 2.297-.148.298-.08.555-.191.773-.31"/><path fill="#E22601" d="M68.588 29.52c.067-.587.266-1.113.516-1.625-1.8.012-5.633.098-5.772.098-.092 0-.337.095-.752.415-.363.28-.855.731-1.491 1.441-1.362 1.524-1.145 2.788-1.145 2.788s.16-.761 1.051-1.152c.892-.39 1.322-.91 1.322-.91-.08.721-1.191 1.48-.55 1.31.64-.17.85-.71 1.752-.99.902-.281 1.122-.63 1.122-.63 0 .02-.01.393-.66.86-.672.48-.495.618.786.23 1.283-.388 2.044-.96 2.044-.96-.147.68-.761 1.081-.748 1.441.013.314.93.374 2.178-.551.123-.51.24-1.01.398-1.475-.058-.089-.062-.181-.05-.29"/><path fill="#FFBE57" d="m60.915 34.496.08-1.282s1.362-.253 1.39-.253c.026 0 .066.32.066.32s1.161-.614 1.735-.614.962.28 1.536.348c.574.066 1.135-.4 1.135-.4s.48 1.281.467 1.334c-.014.053-.48.44-.654.535-.174.093-1.082.267-1.228.173-.147-.093-1.442-.32-1.99-.4s-2.07.694-2.07.694l-.468-.453zM64.253 39.719s.895-2.524 1.936-3.647c1.041-1.12 1.269-1.215 1.175-1.268s-.574-.027-.827.013-.975.574-1.148.829c-.174.253-.681 1.081-.802 1.428-.12.347-.387 2.578-.334 2.645"/><path fill="#000F1F" d="m88.298 43.111.071.194a.4.4 0 0 0 .036-.05q.044-.074.09-.218z"/><path fill="#FFBE57" d="M57.168 33.585c.214.013 2.07 0 2.07 0v2.27h-2.63z"/><path fill="#000F1F" d="m86.26 33.01.327 1.193s-2.648 3.418-2.764 5.807l-2.24.152s.529-3.192 2.672-4.989c0 0-1.138-.213-1.83-.072-.693.14-.694 1.213-.694 1.213l-1.143.022.23-2.811s.538-.12.96-.217l.02.404s.725-.543 1.569-.658c.84-.113 1.128.317 1.697.32s1.195-.364 1.195-.364M96.823 39.312l-.205-.152c-.862-.64-2.081-2.457-.528-4.763l.186-.276 1.623-.105.386-11.91 1.356.044-.389 12.007a1.246 1.246 0 0 1-1.168 1.206l-1.038.067c-.72 1.286-.142 2.132.208 2.485l2.442-.194a1.115 1.115 0 0 0 1.026-1.077l.47-14.512 1.355.044-.469 14.512a2.47 2.47 0 0 1-2.274 2.384l-2.98.24z"/><path fill="#000F1F" d="M100.764 23.03q-.261.03-.532.02a3.73 3.73 0 0 1-3.603-3.844 3.73 3.73 0 0 1 3.845-3.602 3.7 3.7 0 0 1 2.597 1.175 3.7 3.7 0 0 1 1.005 2.668 3.73 3.73 0 0 1-3.311 3.582m-.674-6.058a2.37 2.37 0 0 0-2.105 2.279 2.37 2.37 0 0 0 2.291 2.445 2.374 2.374 0 0 0 2.445-2.29 2.35 2.35 0 0 0-.64-1.697 2.35 2.35 0 0 0-1.99-.734M98.157 38.29a1.4 1.4 0 0 1-.23-.052c-.2.407-.435.627-.596.623-.317-.01-.87-.915-.822-2.364.047-1.448.656-2.316.973-2.306.131.005.305.167.459.459a.8.8 0 0 1 .342.01c-.25-.061-.084-.016-.004-.012.015 0 .04 0 .062-.003q.151-.023.302-.062l.088-.028.067-.038a.67.67 0 0 1 .388-.407c-.382-.768-.968-1.251-1.662-1.274-1.284-.042-2.304 1.513-2.371 3.617-.07 2.104.848 3.721 2.133 3.763.94.03 1.738-.795 2.125-2.064-.414.113-.84.197-1.255.138"/><path fill="#000F1F" d="M95.214 41.387h-.02c-1.768-.057-3.084-2.25-2.996-4.988.088-2.74 1.543-4.84 3.313-4.783l2.723.088-.044 1.355-2.723-.088c-.852-.028-1.847 1.392-1.914 3.472-.067 2.067.822 3.54 1.667 3.587 1.045-.029 2.155-.156 2.384-.272.172-.107.453-.772.53-1.43l1.347.157c-.022.188-.24 1.853-1.17 2.43-.57.355-2.174.448-3.078.472z"/><path fill="#000F1F" d="M96.577 37.932c.063.164.137.306.225.398q.017-.16.031-.32a.7.7 0 0 1-.256-.078M94.78 40.402c-.654-.258-1.055-.873-1.299-1.506-.573-1.483-.45-3.122.082-4.584l.011-.027c.043-.313.125-.62.27-.918a.496.496 0 0 1 .612-.282l.018-.026c.434-.565 1.203-.538 1.905-.486-.464-1.543-1.193-2.538-2.012-2.538-1.402 0-2.537 2.906-2.537 6.49s1.135 6.49 2.537 6.49c.8 0 1.514-.95 1.979-2.43-.53.013-1.068.01-1.565-.184"/><path fill="#000F1F" d="M97.937 38.243c-.182 2.116-.67 4.058-1.42 5.594-.868 1.78-2.003 2.799-3.113 2.799s-2.244-1.02-3.112-2.799c-.968-1.982-1.5-4.635-1.5-7.47s.533-5.49 1.5-7.472c.868-1.779 2.002-2.799 3.112-2.799s2.245 1.02 3.113 2.799c.791 1.62 1.292 3.692 1.448 5.944q.348-.079.71-.12.126-.353.245-.718a.6.6 0 0 1-.07-.29c.004-.77.057-1.532.182-2.293-.962-4.097-3.093-6.883-5.629-6.883-3.464 0-6.176 5.197-6.176 11.831s2.712 11.831 6.176 11.831c3.135 0 5.655-4.257 6.105-9.983a38 38 0 0 0-1.43.026z"/><path fill="#000F1F" d="M88.663 44.028q.332.76.728 1.399H81.57a.96.96 0 0 1-.787-.413c-1.42-2.025-2.332-5.147-2.332-8.648s.912-6.622 2.332-8.647a.96.96 0 0 1 .787-.414h7.821q-.396.64-.728 1.4-.249.566-.46 1.194c-.398.39-.997.909-1.603 1.192 0 0 1.054-1.362 1.336-2.31 0 0-1.653 1.372-3.317 1.775 0 0 .84-.65 1.212-1.7-.063.037-2.074 1.225-3.364 1.491 0 0 .68-.732 1-1.502 0 0-2.14.374-3.234 2.103-1.032 1.63-1.566 9.331.891 12.35 0 0 .53-1.163 2.795-1.497 0 0-1.42.914-1.273 2.27 0 0 .841-.614 2.497-1.134 1.006-.317 1.88-1.102 2.489-2.274.245 1.24.595 2.375 1.03 3.365M76.484 33.01l.327 1.193s-2.648 3.418-2.764 5.807l-2.24.152s.529-3.192 2.672-4.989c0 0-1.138-.213-1.83-.072-.693.14-.694 1.213-.694 1.213l-1.142.022.23-2.811s.537-.12.96-.217l.019.404s.726-.543 1.569-.658c.84-.113 1.128.317 1.697.32s1.195-.364 1.195-.364"/><path fill="#000F1F" d="M93.403 48.199H62.097c-3.463 0-6.175-5.198-6.175-11.832 0-6.633 2.713-11.83 6.176-11.83h31.305v1.562H62.097c-1.11 0-2.244 1.02-3.112 2.798-.968 1.983-1.5 4.636-1.5 7.471s.532 5.49 1.5 7.472c.868 1.778 2.002 2.798 3.112 2.798h31.306v1.563z"/><path fill="#000F1F" d="M77.857 40.663s-.291-2.3-.332-2.821c0 0-.192 1.398-.346 2.671-.174 1.429-1.024 1.95-1.894 2.45l-.002.002c-1.596.514-2.41 1.107-2.41 1.107-.148-1.356 1.273-2.27 1.273-2.27-2.265.333-2.795 1.495-2.795 1.495-2.458-3.018-1.923-10.719-.892-12.349 1.096-1.729 3.236-2.103 3.236-2.103-.321.77-1.001 1.503-1.001 1.503 1.29-.265 3.301-1.454 3.363-1.491-.371 1.05-1.21 1.7-1.21 1.7 1.663-.402 3.315-1.775 3.315-1.775-.281.948-1.336 2.31-1.336 2.31.607-.283 1.206-.802 1.603-1.192q.211-.628.46-1.194.333-.76.729-1.4h-7.821a.96.96 0 0 0-.787.414c-1.42 2.025-2.333 5.146-2.333 8.647s.912 6.623 2.333 8.648a.96.96 0 0 0 .787.413h7.821a11 11 0 0 1-.728-1.4c-.436-.99-.785-2.126-1.03-3.364M66.669 33.01l.327 1.193s-2.648 3.418-2.764 5.807l-2.24.152s.529-3.192 2.672-4.989c0 0-1.138-.213-1.83-.072-.693.14-.694 1.213-.694 1.213l-1.142.022.23-2.811s.537-.12.96-.217l.019.404s.726-.543 1.569-.658c.84-.113 1.128.317 1.697.32s1.195-.364 1.195-.364"/><path fill="#000F1F" d="M68.042 40.663s-.291-2.3-.332-2.821c0 0-.192 1.398-.346 2.671-.174 1.429-1.024 1.95-1.894 2.45l-.002.002c-1.596.514-2.41 1.107-2.41 1.107-.148-1.356 1.273-2.27 1.273-2.27-2.265.333-2.795 1.495-2.795 1.495-2.458-3.018-1.923-10.719-.892-12.349 1.096-1.729 3.236-2.103 3.236-2.103-.321.77-1.001 1.503-1.001 1.503 1.291-.265 3.301-1.454 3.363-1.491-.371 1.05-1.21 1.7-1.21 1.7 1.663-.402 3.316-1.775 3.316-1.775-.282.948-1.337 2.31-1.337 2.31.607-.283 1.206-.802 1.603-1.192q.212-.628.46-1.194.333-.76.729-1.4h-7.821a.96.96 0 0 0-.787.414c-1.42 2.025-2.333 5.146-2.333 8.647s.912 6.623 2.333 8.648a.96.96 0 0 0 .787.413h7.821a11 11 0 0 1-.728-1.4c-.436-.99-.785-2.126-1.03-3.364"/><path fill="#000F1F" d="M95.948 21.974c-.508 1.175-3.152 1.803-3.365.841-.214-.961 1.362-1.923 1.936-3.526s-.24-3.525-.24-3.525c-.335.84-1.096 1.615-3.153 2.804s-2.123 2.683-2.123 2.683-.627-1.67-.214-3.966 2.61-3.505 2.61-3.505-3.024-.22-5.478 1.432-2.524 3.836-4.097 4.988c-1.572 1.152-2.564-.07-2.294-.832.27-.76 1.894-1.452 2.995-3.245s.227-4.156.227-4.156c-.1.86-1.722 3.084-5.188 3.204s-4.627.822-5.93 2.865-2.464 1.943-2.623.38c-.16-1.562 1.362-3.197 1.362-3.197-7.105 1.095-5.609 5.448-8.253 7.826s-3.792 4.594-3.792 4.594l1.102-1.216s2.213-.681 3.626-1.673c1.411-.992 2.263-2.834 2.683-4.547.421-1.712 1.833-2.343 1.833-2.343-.591.971-.2 3.145 1.392 3.245 1.593.1 3.105-.65 3.827-2.094.721-1.442 1.983-2.123 4.276-2.303 2.294-.18 3.496-.49 3.496-.49s-.571.66-1.673 1.472-2.184 1.392-2.144 2.744.942 2.474 3.426 2.184 4.037-1.693 4.737-4.036 2.564-2.614 2.564-2.614c-1.182 1.383-.4 3.105-.6 5.008-.201 1.902-1.703 3.204-1.703 3.204 1.121-.04 2.233-.74 2.233-.74-.26 1.182-1.592 1.525-1.592 1.525l4.006.16 5.595.934c1.375-1.936.534-4.086.534-4.086m-4.373-.688c-1.141.632-1.412 1.493-1.412 1.493-.05-.591.04-1.833.952-2.784s2.053-1.493 2.053-1.493c-.03.802-.45 2.154-1.593 2.784M89.978 47.323H63.83s6.503 4.902 6.671 4.936 16.243.134 16.476.167 2.802-.301 2.802-.301zM77.88 66.397l-.078.093s-.207-.14-.26-.178c-.055-.038-.197-.29-.207-.33-.01-.042.108-.127.178-.104s.353.155.38.195a.6.6 0 0 1 .03.212c-.001.018-.043.112-.043.112"/><path fill="#E22601" d="m92.568 47.094 1.11.65v11.778h-2.505v.373l.005 2.53h-1.536l.004.375.047 5.061-3.001-.099-1.12-.655.181-.528a4.32 4.32 0 0 0 1.146-2.974q0-.162-.011-.324l.125-.364.17-.493h-1.186l.087.444q.03.158.048.32l-1.032 3q-.103.107-.215.21c-.834.762-1.846 1.15-3.01 1.15-1.05 0-2.617-.439-3.669-1.279l-.004-.283a.49.49 0 0 0-.061-.444l-.712-1.138.02 1.166c-.135.024-.068-.08-.142.105-.047.117-.29.465-.1.675q.124.136.262.265l.021 1.175-2.78.062-.094.002-.08.047L72.59 69l-1.156-.676-.602-1.892-.816-2.565.09 2.69.064 1.91-3.14.098-1.147-.671 1.445-7.845.027-.146-.081-.125-.984-1.503-.733-1.12.05 1.337.083 2.246-3.528.122-1.188-.695.033-12.776 4.937.023c.97 0 2.863 1.163 3.616 1.917a3.58 3.58 0 0 1 1.085 2.613l-.001.076-.054 1.723.76-1.547c.233-.475.55-.919.94-1.318.3-.307.546-.623.783-.93.576-.743 1.031-1.329 1.91-1.329 1.088.01 2.928 1.11 3.885 1.887a5.05 5.05 0 0 1 1.454 1.936l.342.812.342-.81c.24-.57.596-1.096 1.054-1.565.959-.98 2.136-1.476 3.495-1.476h.033c.427 0 .674-.077.823-.255l.1.044c1.44.625 3.271 2.539 3.563 3.214l.684 1.59.03-1.73.071-4.349 1.707-.82z"/><path fill="#000F1F" d="m92.551 47.515.756.441V59.15h-2.505v.745l.004 2.159H89.27l.006.75.044 4.673-2.519-.082-.775-.454.058-.17a4.68 4.68 0 0 0 1.191-3.165q0-.136-.008-.273l.1-.292.34-.986h-2.159l.175.887q.02.102.034.208l-.978 2.839-.142.136c-.763.698-1.69 1.052-2.759 1.052-.94 0-2.322-.374-3.3-1.092v-.04a.87.87 0 0 0-.12-.699l-1.421-2.276.04 2.245c-.134.074.156-.165.077.028-.058.142-.052 1.434-.052 1.434l.011.65-2.41.053-.187.005-.163.092-1.757.996-.848-.497-.558-1.756-1.631-5.129.179 5.379.052 1.537-2.66.083-.83-.485 1.397-7.589.054-.293-.163-.248-.984-1.503-1.466-2.24.1 2.675.07 1.874-3.048.104-.91-.532.03-12.19 4.566.021c.797 0 2.565 1.019 3.353 1.808.656.656.976 1.425.976 2.35q0 .03-.002.065l-.108 3.444 1.519-3.093c.215-.44.509-.85.874-1.222.313-.32.577-.661.81-.96.603-.779.95-1.184 1.615-1.186.894.01 2.59.942 3.652 1.803a4.7 4.7 0 0 1 1.346 1.792l.685 1.622.686-1.622a4.7 4.7 0 0 1 .977-1.449c.886-.905 1.974-1.364 3.233-1.364h.03c.28 0 .615-.026.884-.194 1.325.63 3.003 2.373 3.26 2.972l1.37 3.178.057-3.46.069-4.12 1.322-.634zm.035-.842-2.091 1.004-.077 4.578c-.339-.785-2.25-2.754-3.755-3.407-.3-.13-.432-.179-.485-.179-.148 0 .285.36-.587.36h-.03c-1.466 0-2.734.534-3.765 1.586a5.4 5.4 0 0 0-1.13 1.68 5.4 5.4 0 0 0-1.559-2.078c-.96-.78-2.878-1.961-4.12-1.972-1.468 0-1.932 1.316-2.962 2.37a5.4 5.4 0 0 0-1.008 1.414l.002-.089a3.94 3.94 0 0 0-1.193-2.875c-.792-.792-2.763-2.026-3.88-2.026l-5.307-.024-.034 13.362 1.465.857 4.008-.138-.098-2.618.984 1.503-1.492 8.1 1.465.857 3.62-.112-.077-2.283.645 2.027 1.464.857 2.13-1.207 3.15-.07-.03-1.707a4 4 0 0 1-.354-.346c-.22-.243.222-.13.344-.215l-.002-.146c.049.078.04.12.002.146l.01.56c1.145.991 2.895 1.473 4.038 1.473 1.26 0 2.358-.419 3.262-1.246q.154-.14.289-.287l1.085-3.152a4 4 0 0 0-.062-.437h.212l-.15.437q.016.184.016.372c0 1.06-.37 1.993-1.101 2.78l-.306.89 1.464.856 3.483.115-.05-5.449h1.532l-.005-2.903h2.504V47.528l-1.465-.857z"/><path fill="#000F1F" d="M75.745 50.71a3 3 0 0 0-1.42-.365c-.71 0-1.369.241-1.959.716A2.97 2.97 0 0 0 71.27 52.9l-.18 1.016 6.387-1.344-.603-.865a3.2 3.2 0 0 0-1.13-.997M86.646 51.707a3.2 3.2 0 0 0-1.13-.997 3 3 0 0 0-1.42-.365c-.71 0-1.369.241-1.958.716A2.97 2.97 0 0 0 81.04 52.9l-.178 1.015 6.385-1.343z"/><path fill="#000F1F" d="m92.586 46.674-3.556.148-.075 4.578a5.4 5.4 0 0 0-1.541-2.039 5.22 5.22 0 0 0-3.317-1.188c-1.466 0-2.734.534-3.765 1.588a5.4 5.4 0 0 0-1.13 1.68 5.4 5.4 0 0 0-1.56-2.079 5.2 5.2 0 0 0-3.316-1.188c-1.468 0-2.734.535-3.765 1.588a5.5 5.5 0 0 0-1.009 1.414l.002-.088c0-1.117-.402-2.083-1.193-2.876a3.94 3.94 0 0 0-2.876-1.193h-4.846l-.034 13.362 4.009-.14-.097-2.617.983 1.503-.028 8.958 3.62-.112-.076-2.283 2.11 2.884 2.13-1.207 3.15-.07-.042-2.413q.31.498.78.93c.901.828 2.001 1.248 3.27 1.248s2.357-.42 3.261-1.246c.923-.843 1.39-1.876 1.39-3.068a4.2 4.2 0 0 0-.077-.808h.211l-.076 5.334 3.484.114-.05-5.448h1.531l-.004-2.903h2.503V46.673zM66.872 66.647l.017-6.066.278.425.381-.242v.555l-.074-.102.179 5.406zm.709-7.555-.06-.093h.206zm.03-6.374c-.374.48-.844.796-1.434.966l-.916.264 2.438 3.656h-1.09l-2.974-4.547h1.566c.542 0 1.024-.195 1.393-.564.363-.364.564-.844.578-1.388v-.039a1.98 1.98 0 0 0-1.95-1.95h-2.17v3.047l-.074-.111.203 6.843-1.177.04.026-10.524h3.456c.743 0 1.362.257 1.89.785s.785 1.146.785 1.89c0 .625-.18 1.158-.55 1.631m3.908 14.03-3.09-4.224h1.05c.474 0 .898-.155 1.228-.45.346-.309.536-.722.55-1.192v-.043a1.61 1.61 0 0 0-.55-1.18 1.76 1.76 0 0 0-.776-.404l.319-.201c.387.08.727.25 1.029.519.414.37.607.78.607 1.288 0 .422-.138.783-.42 1.106-.3.346-.683.574-1.168.699l-1.006.259 2.667 3.577-.438.25zm2.827-.8v-5.82l.538-.016.103 5.822zm.747-8.464a.7.7 0 0 1-.157.226v-.288a.94.94 0 0 1 .147-.498l.008.019.01.03a.6.6 0 0 1 .048.23q-.001.125-.056.281m-3.966-2.968.586.86q.165.24.352.442a3 3 0 0 0-.16.33l-.006.014a3 3 0 0 0-.14.453 5 5 0 0 1-.199-.192c-.774-.796-1.15-1.728-1.15-2.848s.376-2.049 1.15-2.84c.768-.786 1.674-1.168 2.762-1.168a3.8 3.8 0 0 1 2.438.874 3.97 3.97 0 0 1 1.371 2.19l.005.017q.05.187.08.373l-7.09 1.497zm5.935 1.636a3 3 0 0 0-.194-.4l.56.286q-.134.177-.282.336a3 3 0 0 0-.084-.224m5.673 8.636c-.648.593-1.407.881-2.321.881s-1.682-.288-2.326-.88c-.627-.575-.932-1.242-.932-2.039s.304-1.461.93-2.033c.644-.589 1.405-.875 2.327-.875s1.674.288 2.322.876c.63.572.936 1.237.936 2.032s-.306 1.462-.937 2.039m1.363-7.189c-1.093 0-1.998-.385-2.767-1.175-.774-.796-1.15-1.728-1.15-2.848s.376-2.049 1.15-2.84c.77-.786 1.674-1.168 2.76-1.168a3.8 3.8 0 0 1 2.439.874 3.97 3.97 0 0 1 1.37 2.19l.005.017q.05.186.08.372l-7.086 1.497.584.86c.636.934 1.54 1.429 2.615 1.429a3.06 3.06 0 0 0 1.615-.454q.446-.273.777-.674l.709.362a3.9 3.9 0 0 1-1.083.988 3.74 3.74 0 0 1-2.018.571m4.597 2.948h-1.546l.05 5.402-.661-.022.076-5.38h-1.117v-.015h1.12l.025-1.477.492-.024.013 1.5h1.545v.016zm2.499-2.903h-.947l.157-9.483.79-.032z"/><path fill="#000F1F" d="M82.322 60.9a2.73 2.73 0 0 0-1.91-.736c-.737 0-1.38.247-1.909.736a2.46 2.46 0 0 0-.821 1.848c0 .713.283 1.353.82 1.852.53.494 1.172.745 1.912.745s1.382-.25 1.912-.744c.536-.5.82-1.14.82-1.852 0-.711-.285-1.352-.822-1.848M77.21 51.38a3 3 0 0 0-1.42-.364c-.71 0-1.369.241-1.959.716a2.97 2.97 0 0 0-1.096 1.838l-.18 1.016 6.387-1.344-.604-.865a3.2 3.2 0 0 0-1.13-.997M88.11 52.378a3.2 3.2 0 0 0-1.13-.997 3 3 0 0 0-1.42-.365c-.71 0-1.368.241-1.958.717a2.97 2.97 0 0 0-1.097 1.839l-.177 1.014 6.385-1.343z"/><path fill="#000F1F" d="M83.787 61.57a2.73 2.73 0 0 0-1.91-.735c-.737 0-1.38.247-1.909.736a2.46 2.46 0 0 0-.822 1.848c0 .713.284 1.353.82 1.852.53.494 1.173.745 1.913.745s1.382-.25 1.912-.744c.536-.5.82-1.14.82-1.852 0-.711-.285-1.352-.822-1.848"/><path fill="#fff" d="m67.373 60.049-3.628-5.544.15 5.064-2.592.09.03-11.943h4.15q1.395 0 2.384.99.989.988.988 2.382a3.25 3.25 0 0 1-.697 2.06 3.42 3.42 0 0 1-1.79 1.207l2.967 4.451-1.964 1.244zM65.2 52.36q.54 0 .9-.36t.374-.914a1.276 1.276 0 0 0-1.274-1.274h-1.453v2.547zM72.287 54.983l6.669-1.408q0-.555-.15-1.109a4.7 4.7 0 0 0-1.604-2.562 4.5 4.5 0 0 0-2.877-1.033q-1.92 0-3.267 1.379-1.35 1.377-1.349 3.326 0 1.949 1.35 3.334.657.678 1.45 1.023a2.07 2.07 0 0 1 .037-1.516q.172-.414.453-.7a2.7 2.7 0 0 1-.713-.733m.517-3.38q.697-.56 1.52-.56.556 0 1.095.284.54.285.884.779l-4.347.915q.15-.855.847-1.417m3.013 3.984q.406.33.597.828.16.369.16.783 0 .26-.071.541.102-.056.205-.12a4.65 4.65 0 0 0 1.709-1.858l-1.933-.988a2.5 2.5 0 0 1-.667.814M84.096 58.295q-1.918 0-3.267-1.386t-1.348-3.334q0-1.95 1.349-3.327t3.266-1.379q1.619.015 2.878 1.035a4.7 4.7 0 0 1 1.603 2.562q.15.555.15 1.109l-6.67 1.408q.765 1.124 2.038 1.124.675 0 1.252-.353.577-.351.906-.981l1.933.99q-.615 1.182-1.709 1.858-1.094.674-2.383.674m-2.367-5.275 4.345-.914a2.5 2.5 0 0 0-.884-.78 2.3 2.3 0 0 0-1.094-.284q-.825 0-1.52.562a2.27 2.27 0 0 0-.847 1.416M91.888 58.34h-2.352l.18-10.85 2.172-.09z"/><path fill="#fff" d="M71.99 62.424q.59-.676.59-1.563 0-1.06-.84-1.808-.84-.75-2.021-.751h-3.523l-.026 9.064 2.2-.069-.127-3.844 3.076 4.208 1.666-.945-2.518-3.378a2.94 2.94 0 0 0 1.52-.915m-1.748-.87a1.1 1.1 0 0 1-.764.273h-1.233v-1.934h1.233q.459.012.764.285t.317.682a.93.93 0 0 1-.317.694M83.203 60.2q-1.163-1.056-2.79-1.057c-1.084 0-2.027.352-2.798 1.058q-1.156 1.057-1.157 2.547 0 1.49 1.157 2.553 1.157 1.064 2.798 1.064c1.093 0 2.015-.355 2.79-1.064q1.164-1.064 1.164-2.553 0-1.49-1.164-2.547m-1.354 3.89a2.03 2.03 0 0 1-1.436.557 2.03 2.03 0 0 1-1.437-.557q-.597-.556-.597-1.342 0-.784.597-1.336a2.04 2.04 0 0 1 1.437-.552q.84 0 1.436.552.597.552.598 1.336 0 .785-.598 1.342M89.39 59.834h-1.552l-.012-1.536-1.87.09-.025 1.446H84.8v1.41h1.105L85.83 66.6l2.072.07-.05-5.427h1.537zM73.648 59.451v7.21l2.047-.045-.127-7.222z"/><path fill="#F99F07" d="m68.393 57.976-2.542-3.812.427-.123c.52-.15.957-.4 1.325-.76h-5.958l-.016 6.04 1.932-.066-.174-5.895 3.019 4.616zM72.02 55.167l-.275-.401 6.877-1.453-.002-.03h-6.324l-.743.156.029-.157h-1.537a5 5 0 0 0-.008.293c0 1.222.411 2.239 1.256 3.108q.364.374.77.638l-.002-.099a2.53 2.53 0 0 1 .475-1.456 3.3 3.3 0 0 1-.517-.6M77.968 55.898l-1.36-.695q-.143.212-.314.391.269.305.422.7c.11.253.171.523.182.802a4.4 4.4 0 0 0 1.07-1.198M85.517 56.032c-.435.266-.912.4-1.42.4-.96 0-1.737-.426-2.308-1.267l-.273-.4 6.876-1.454-.002-.03h-6.323l-.742.157.027-.157h-1.538a5 5 0 0 0-.008.293c0 1.222.411 2.239 1.256 3.108.843.866 1.835 1.288 3.034 1.288.794 0 1.538-.21 2.212-.627a4.3 4.3 0 0 0 1.43-1.446l-1.36-.695q-.342.514-.861.83M91.563 53.282v4.733h-1.696l.077-4.733zM69.92 63.146l.468-.12q.232-.06.436-.148h-2.598l3.187 4.358 1.092-.619-2.587-3.471zm-3.41-.268-.012 4.152 1.538-.047-.136-4.105zM82.769 62.878c-.03.56-.265 1.048-.697 1.45a2.36 2.36 0 0 1-1.658.645c-.642 0-1.2-.216-1.66-.644-.432-.403-.666-.89-.696-1.451h-1.27c.03.85.375 1.566 1.05 2.185.715.658 1.558.978 2.577.978s1.85-.32 2.571-.98c.677-.619 1.022-1.333 1.055-2.183h-1.272M87.574 66.333l-1.414-.048.048-3.407h1.334zM75.364 66.298l-1.39.03v-3.45h1.33z"/><path fill="#000F1F" d="m92.586 59.037.72.112s.134.17.088.202c-.046.03-.496.108-.635.093-.14-.016-1.956-.294-1.956-.294l-.72-.112s-.065-.213-.019-.229c.047-.015 1.844-.279 1.89-.263.047.016.633.492.633.492M90.087 61.941l.72.113s.077.102.045.164c-.03.062-.279.263-.418.263-.14 0-1.167-.427-1.167-.427l-.713-.113s-.026-.204.036-.218c.062-.016 1.348-.032 1.348-.032zM88.605 67.39l.714.087s.046.21-.016.227c-.061.015-2.601.104-2.61.06-.008-.046-.458-.635-.427-.68.03-.047 1.611-.047 1.658-.031s.681.338.681.338M83.602 65.41l1.395.666.403-1.271-.094-3.239s-.604.078-.604.17.093 1.425.093 1.612-.17.899-.279 1.022l-.914 1.038M83.028 65.906l1.364.712-.543.388-1.255-.683.496-.433M77.112 67.428l-.708-.13s-.773-.224-.825-.224-2.387.082-2.387.082l.061.212 1.261.117s.341.126.424.136 2.15.083 2.15.083l.024-.277M69.092 67.973l.697.136.012.173s-2.778.207-2.81.186c-.03-.02-.527-.517-.537-.569s.547-.082.62-.082c.074 0 1.633-.185 1.633-.185zM64.614 60.241l.693.14-.006.174s-3.14.176-3.17.176c-.032 0-.517-.61-.57-.65-.051-.042 2.8-.166 2.8-.166z"/><path fill="#E22601" d="M73.758 57.127s.235-.955 1.221-.885 1.136 1.392.438 1.872c-.699.48-1.578.32-1.979-.374-.4-.693-.07-1.603.54-1.845.496-.197.907-.107 1.092.043 0 0-.635-.016-1.007.34-.417.4-.304.849-.304.849"/></g><defs><linearGradient id="c" x1="74.552" x2="74.552" y1="29.801" y2="47.381" gradientUnits="userSpaceOnUse"><stop stop-color="#F99C00"/><stop offset="1" stop-color="#BD4B00"/></linearGradient><linearGradient id="e" x1="93.352" x2="97.461" y1="33.4" y2="39.808" gradientUnits="userSpaceOnUse"><stop stop-color="#FF6101"/><stop offset=".41" stop-color="#D91B02"/><stop offset="1" stop-color="#FEA802"/></linearGradient><clipPath id="a"><path fill="#fff" d="M55.46 10h49.08v60H55.46z"/></clipPath></defs></svg>