<svg width="160" height="80" fill="none" xmlns="http://www.w3.org/2000/svg">
<rect width="160" height="80" rx="40" fill="#312359"/>
<path d="M52.0317 29H51.0942V50.9687H52.0317V29Z" fill="#FFCC29"/>
<path d="M70.3125 29H69.2812V50.9687H70.3125V29Z" fill="#FFCC29"/>
<path d="M142.438 51H143.469V29H142.438V51Z" fill="#FFCC29"/>
<path d="M125.156 29H124.125V50.9687H125.156V29Z" fill="#FFCC29"/>
<path d="M88.5938 29H87.5938V50.9687H88.5938V29Z" fill="#FFCC29"/>
<path d="M106.875 29H105.843V50.9687H106.875V29Z" fill="#FFCC29"/>
<path d="M59.7187 32.6875L55.1875 47.3125H57.2812L58.3437 43.625H63.0312L64.0937 47.3125H66.1562L61.6875 32.6875H59.7187ZM58.7812 42.0312L60.625 35.6562H60.6875L62.5 42.0312H58.7812Z" fill="white"/>
<path d="M42.75 41.4375V39.875H47.2812V45.1875C46.875 45.8437 46.3125 46.4062 45.6562 46.7812C44.7812 47.3125 43.7812 47.5 42.7812 47.5C41.4062 47.5 40.0312 47.0625 39.0625 46.0937C38.125 45.1875 37.6562 43.8125 37.6562 42.0937V37.8125C37.6562 36.125 38.125 34.8125 39 33.9062C39.9062 32.9375 41.1875 32.4688 42.5312 32.4688C43.8125 32.4688 45.0312 32.75 45.9687 33.625C46.8437 34.4375 47.25 35.5937 47.2812 36.7812V36.8437H45.3125C45.3437 36.0937 45.0937 35.3125 44.5937 34.75C44.0937 34.2187 43.3437 34.0312 42.5625 34.0312C41.75 34.0312 40.9687 34.375 40.4687 35.0312C39.9375 35.6875 39.7187 36.5937 39.7187 37.8437V42.2187C39.7187 43.4687 40 44.4062 40.5625 45.0625C41.125 45.7187 41.9375 46.0625 42.8125 46.0625C43.375 46.0625 43.9687 45.9687 44.4375 45.6875C44.8125 45.4687 45.0625 45.125 45.25 44.75V41.4375H42.75Z" fill="white"/>
<path d="M82.0625 32.6875H84.75V47.3125H82.6875V41.6875L82.875 36.0625H82.8125L79.625 47.3125H78.25L75.0625 36.0625H75.0312L75.1875 41.6875V47.3125H73.1562V32.6875H75.7812L78.9375 44.25L82.0625 32.6875Z" fill="white"/>
<path d="M118.312 32.6875H120.344V47.3125H118.312L112.781 36.4375H112.687V47.3125H110.656V32.6875H112.687L118.219 43.5625L118.312 43.5312V32.6875Z" fill="white"/>
<path d="M93.75 32.6875H100.656V34.2812H98.2187V45.6875H100.656V47.3125H93.75V45.6562H96.1875V34.25H93.75V32.6875Z" fill="white"/>
<path d="M17.4687 51H32.8437C33.375 51 33.7812 50.5937 33.7812 50.0625V29.9375C33.7812 29.4062 33.375 29 32.8437 29H17.4687C16.9375 29 16.5312 29.4062 16.5312 29.9375V50.0312C16.5312 50.5625 16.9687 51 17.4687 51Z" fill="#FFCC29"/>
<path d="M29.7812 40.9062C29.4062 40.2812 28.7812 39.875 28.0625 39.7187C28.6562 39.4687 29.1562 39.0625 29.4687 38.5C29.7812 37.9375 29.9375 37.2812 29.9375 36.6562C29.9375 35.4688 29.5625 34.375 28.6562 33.6875C27.75 33 26.6875 32.6875 25.4375 32.6875H20.7812V47.3437H26.0312C27.1562 47.3437 28.2812 46.9687 29.125 46.2187C29.9375 45.5312 30.3437 44.4375 30.3437 43.0312C30.3437 42.1875 30.1562 41.5312 29.7812 40.9062ZM23.5 34.9688H24.9375C25.5625 34.9688 26 35.0937 26.375 35.4687C26.75 35.8437 26.875 36.4062 26.8437 36.9375C26.8437 37.4375 26.75 37.9687 26.375 38.3437C26.0312 38.6875 25.625 38.875 25.0625 38.875H23.4687V34.9688H23.5ZM26.8125 44.5625C26.4687 44.9375 25.9062 45.0312 25.4062 45.0312H23.5312V40.8437H25.625C26.1562 40.8437 26.6562 41 26.9375 41.4062C27.25 41.875 27.3125 42.4375 27.3125 43C27.2812 43.5625 27.1875 44.1562 26.8125 44.5625Z" fill="white"/>
<path d="M134.093 41.4375V39.875H138.624V45.1875C138.218 45.8437 137.656 46.4062 136.999 46.7812C136.124 47.3125 135.125 47.5 134.125 47.5C132.75 47.5 131.375 47.0625 130.406 46.0937C129.468 45.1875 129 43.8125 129 42.0937V37.7812C129 36.0937 129.468 34.7812 130.343 33.875C131.25 32.9063 132.531 32.4375 133.875 32.4375C135.156 32.4375 136.374 32.7188 137.312 33.5937C138.187 34.4062 138.593 35.5625 138.624 36.75V36.8125H136.656C136.687 36.0625 136.437 35.2812 135.937 34.7187C135.437 34.1875 134.687 34 133.906 34C133.093 34 132.312 34.3437 131.812 35C131.281 35.6562 131.062 36.5625 131.062 37.8125V42.1875C131.062 43.4375 131.343 44.375 131.906 45.0312C132.468 45.6875 133.281 46.0312 134.156 46.0312C134.718 46.0312 135.312 45.9375 135.781 45.6562C136.156 45.4375 136.406 45.0937 136.593 44.7187V41.4375H134.093Z" fill="white"/>
</svg>
