<svg xmlns="http://www.w3.org/2000/svg" width="160" height="80" fill="none"><rect width="160" height="80" fill="#312359" rx="40"/><path fill="#fff" d="M125.038 13.159c-1.717-.899-3.645-.828-4.303.157l-5.806 8.688c1.024-.4 2.503-.257 3.886.466 1.386.723 2.241 1.8 2.336 2.787l5.808-8.686c.659-.988-.202-2.516-1.921-3.412"/><path fill="#fff" d="M126.729 10.63c-1.715-.897-3.645-.828-4.305.156l-1.066 1.596c1.024-.399 2.505-.256 3.888.465 1.386.723 2.239 1.802 2.333 2.786l1.067-1.594c.663-.985-.198-2.511-1.917-3.41M118.607 22.782c-1.717-.9-3.643-.83-4.302.157l-1.762 2.635c-.438.657-.201 1.556.521 2.35l.646-.973c.375-.56 1.358-.643 2.233-.184.88.457 1.269 1.258.895 1.82l-.649.97c1.13.174 2.137-.073 2.578-.732l1.759-2.635c.661-.986-.199-2.512-1.919-3.408M95.326 56.452l-.003.009zl-13.346-4.04 1.518 4.096 25.601 13.38-1.519-4.099z"/><path fill="#fff" d="M116.481 28.4c.257-.381-.076-.976-.746-1.323-.664-.35-1.414-.322-1.67.06l-19.18 28.704.533.167 1.73 1.32zM108.079 65.938 109.602 70l2.273-3.395c-1.126-2.04-3.796-.667-3.796-.667M86.245 52.888c-1.103-2.003-3.691-.715-3.788-.67l3.533 1.049zM31.163 56.46c-.135.764.144 1.103.902 1.103.762 0 1.162-.34 1.295-1.103l.372-2.106h-.9l-.095.533h.328l-.277 1.573c-.062.353-.303.571-.629.571-.323 0-.486-.218-.424-.57l.65-3.68c.074-.422.37-.572.622-.572.33.004.492.223.43.572l-.114.647h.573l.114-.647c.134-.762-.146-1.1-.907-1.1-.76 0-1.158.338-1.292 1.1zM40.141 57.466h.578l.085-1.948.072-3.743h-.94l-1.256 3.758-.598 1.933h.575l.397-1.276h1.144zm-.924-1.809 1.17-3.796-.168 3.796zM47.606 57.466l1.004-5.691H48l-1.926 4.582-.325-4.582h-.61l-1.003 5.69h.544l.722-4.09.304 4.09h.359l1.734-4.128-.729 4.129zM53.48 51.775l-1.002 5.69h.572l1.004-5.69zM60.757 57.466l1.003-5.687-.51.008-.73 4.143-.35-4.155h-.607l-1.004 5.69h.539l.715-4.053.337 4.054zM65.629 56.46c-.135.764.144 1.103.903 1.103.761 0 1.16-.34 1.295-1.103l.371-2.106h-.9l-.094.533h.327l-.277 1.573c-.062.353-.303.571-.628.571-.324 0-.487-.218-.425-.57l.65-3.68c.074-.422.37-.572.622-.572.33.004.492.223.43.572l-.114.647h.573l.114-.647c.134-.762-.146-1.1-.907-1.1-.759 0-1.158.338-1.291 1.1zM40.72 48.594l-1.722-8.452-.08.054-.162 1.494a22 22 0 0 1-.215 1.494l-.835 5.41h-5.49l3.15-20.294h5.301q1.588 0 2.934.243 1.346.241 2.314.82a4.04 4.04 0 0 1 1.507 1.575q.54.996.54 2.53-.001.377-.041.767t-.095.821a7.3 7.3 0 0 1-1.224 3.068q-.956 1.374-2.705 2.018l2.772 8.452zm-.968-10.9q.537 0 .996-.216.458-.215.794-.578t.552-.835a3.8 3.8 0 0 0 .35-1.52q0-.97-.553-1.427-.551-.457-1.493-.457h-.215l-.78 5.006zM57.701 28.3h4.414q2.045 0 3.58.54 1.534.537 2.57 1.546a6.45 6.45 0 0 1 1.562 2.45q.525 1.44.525 3.243 0 .539-.04 1.103a12 12 0 0 1-.149 1.185q-.35 2.34-1.063 4.01-.715 1.67-1.642 2.799-.929 1.13-2.005 1.818a9.5 9.5 0 0 1-2.153 1.034q-1.077.351-2.1.458a18 18 0 0 1-1.857.108h-4.79zm3.096 15.396q.942 0 1.601-.525t1.09-1.292a7.3 7.3 0 0 0 .673-1.642q.241-.874.35-1.602.161-.914.162-1.992 0-.645-.095-1.237a3.2 3.2 0 0 0-.35-1.05 1.96 1.96 0 0 0-.7-.727q-.443-.269-1.117-.269zM78.368 48.594l-1.723-8.452-.08.054q-.082.755-.163 1.494-.08.741-.215 1.494l-.834 5.41h-5.49L73.01 28.3h5.303q1.587 0 2.933.243 1.347.241 2.315.82.969.579 1.507 1.575.54.996.54 2.53 0 .377-.042.767-.04.39-.094.821a7.3 7.3 0 0 1-1.225 3.068q-.955 1.374-2.705 2.018l2.772 8.452zm-.97-10.9q.538 0 .996-.216.458-.215.795-.578.336-.363.552-.835a3.8 3.8 0 0 0 .35-1.52q0-.97-.553-1.427-.551-.457-1.494-.457h-.214l-.781 5.006z"/><path fill="#fff" d="m114.121 28.3-5.895 9.797 3.257 10.497h-5.895l-1.964-9.312h-.027l-1.454 9.312h-5.49l3.15-20.294h5.49l-1.346 8.64h.026l4.361-8.64zM115.299 28.3H125.5l-.726 4.791h-4.711l-.458 2.826h4.226l-.754 4.79h-4.225l-.485 3.096h4.71l-.726 4.791H112.15zM56.12 33.091l.727-4.79h-10.2l-.068.432a4.94 4.94 0 0 1 1.633 1.778c.43.794.646 1.789.646 2.957q0 .421-.045.86-.041.4-.096.838a8.25 8.25 0 0 1-1.379 3.47 6.2 6.2 0 0 1-2.335 2.003l2.61 7.955h6.085l.727-4.791h-4.71l.484-3.095h4.226l.753-4.79h-4.226l.459-2.826zM96.343 48.594 95.186 28.3h-6.702l-1.986 5.026c0 .049.007.093.007.142q0 .421-.045.86-.042.4-.097.838a8.26 8.26 0 0 1-1.378 3.47 6 6 0 0 1-1.038 1.144l-.862 2.183 2.175 6.631h.856l.861-2.61h3.687v2.61zm-7.967-6.917 1.481-4.71a62 62 0 0 0 .565-1.911q.268-.968.538-1.911h.054l-.108 1.911a69 69 0 0 0-.08 1.91l-.135 4.71z"/></svg>