<svg width="160" height="80" fill="none" xmlns="http://www.w3.org/2000/svg">
<rect width="160" height="80" rx="40" fill="#312359"/>
<g clip-path="url(#clip0_7094_802)">
<path d="M27.9942 28V31.9767L20.8576 34.7886L27.9767 37.2163L24.0054 38.7801V42.7783L14.7729 46.4151V42.4384L21.9203 39.6225L14.7729 37.1854V37.1841V37.1854V33.2087L27.9942 28Z" fill="#0083C8"/>
<path d="M37.2269 33.5729V37.5496L27.9945 41.1864V37.2298L27.9972 37.2231L27.9771 37.2164L37.2269 33.5729Z" fill="#0083C8"/>
<path d="M33.249 41.6123L37.2271 40.0458V46.7928L24.0059 52.0001V42.7784L27.9826 41.2119V46.4569L33.249 44.3825V41.6123Z" fill="#0083C8"/>
</g>
<path d="M136.836 54.9C133.193 54.9 131.386 53.3471 131.386 51.3424C131.386 50.213 131.894 49.253 133.165 48.6883V48.5189C132.007 48.0106 131.584 47.2765 131.584 46.373C131.584 45.4694 131.951 44.7071 133.193 44.1142C132.742 43.5212 132.487 42.8153 132.487 41.9965C132.487 39.7659 134.266 38.2412 136.638 38.2412C137.88 38.2412 141.89 38.4953 141.89 38.4953V40.4153H140.28V40.5565C140.28 40.5565 140.789 40.9236 140.789 42.1377C140.789 43.973 139.207 45.6106 136.638 45.6106C135.904 45.6106 135.226 45.4694 134.662 45.2153C134.153 45.4694 133.984 45.7236 133.984 46.0906C133.984 46.7118 134.492 47.1636 136.836 47.1636C140.732 47.1636 142.342 48.6036 142.342 50.9189C142.342 53.1494 140.478 54.9 136.836 54.9ZM136.836 49.2812C134.859 49.2812 134.04 50.1565 134.04 51.0883C134.04 52.02 134.859 52.8671 136.836 52.8671C138.812 52.8671 139.631 52.0483 139.631 51.0883C139.631 50.1283 138.812 49.2812 136.836 49.2812ZM136.638 40.2459C135.424 40.2459 134.746 41.0083 134.746 41.9683C134.746 42.9283 135.424 43.6624 136.638 43.6624C137.852 43.6624 138.53 42.9283 138.53 41.9683C138.53 41.0083 137.852 40.2459 136.638 40.2459Z" fill="white"/>
<path d="M119.387 48.2082V38.4388H121.166L121.533 39.7941H121.674C122.351 38.8341 123.424 38.2129 125.147 38.2129C127.857 38.2129 129.523 39.907 129.523 42.5329V48.2082H126.756V42.9282C126.756 41.5164 125.966 40.4999 124.497 40.4999C123.001 40.4999 122.154 41.5447 122.154 42.5329V48.2082H119.387Z" fill="white"/>
<path d="M115.009 34.9378C114.077 34.9378 113.372 34.2319 113.372 33.3002C113.372 32.3684 114.077 31.6343 115.009 31.6343C115.941 31.6343 116.675 32.3684 116.675 33.3002C116.675 34.2319 115.941 34.9378 115.009 34.9378ZM113.626 48.2084V38.439H116.393V48.2084H113.626Z" fill="white"/>
<path d="M93.2754 48.2082V38.4388H95.0542L95.4213 39.7941H95.5625C96.3248 38.7776 97.3695 38.2129 99.0354 38.2129C100.701 38.2129 101.944 38.8341 102.678 39.907H102.819C103.412 38.9188 104.598 38.2129 106.433 38.2129C109.115 38.2129 110.753 39.907 110.753 42.5329V48.2082H107.986V42.9282C107.986 41.5164 107.224 40.4999 105.755 40.4999C104.259 40.4999 103.412 41.5729 103.412 42.5894V48.2082H100.645V42.7023C100.645 41.4317 99.8542 40.4999 98.386 40.4999C96.8895 40.4999 96.0425 41.6011 96.0425 42.5894V48.2082H93.2754Z" fill="white"/>
<path d="M80.5459 45.3564C80.5459 43.5776 82.0141 42.3352 84.8094 42.3352C86.5318 42.3352 87.3506 42.8435 87.6612 43.0694H87.8024V42.6176C87.8024 41.1776 86.9271 40.4435 84.9506 40.4435C83.3412 40.4435 82.2118 41.1776 82.2118 41.1776L81.3365 39.1447C81.3365 39.1447 82.8047 38.2129 85.4588 38.2129C89.0165 38.2129 90.4565 40.1047 90.4565 42.8435V48.2082H88.48L88.1977 47.1352H88.0565C87.7741 47.5588 86.8988 48.4341 84.5835 48.4341C81.9577 48.4341 80.5459 47.0788 80.5459 45.3564ZM83.2283 45.2152C83.2283 45.9776 83.8777 46.5988 85.3177 46.5988C86.7859 46.5988 87.7459 45.7799 87.7459 45.1588C87.7459 44.3964 86.7859 43.8317 85.3177 43.8317C83.9624 43.8317 83.2283 44.3682 83.2283 45.2152Z" fill="white"/>
<path d="M76.1103 41.0927V41.008H70.6045V38.6363H79.0186V40.0763C79.0186 45.1586 76.1668 48.6033 71.028 48.6033C65.5221 48.6033 62.1621 44.6504 62.1621 39.7657C62.1621 34.8245 65.6068 30.8998 71.0845 30.8998C75.4609 30.8998 77.4092 33.0739 77.4092 33.0739L75.7433 35.2198C75.7433 35.2198 74.0209 33.5539 71.0562 33.5539C67.4139 33.5539 65.0421 36.2645 65.0421 39.7657C65.0421 43.2386 67.3292 45.921 70.9998 45.921C74.1056 45.921 76.1103 43.888 76.1103 41.0927Z" fill="white"/>
<path d="M44.647 46.4857L46.1717 44.368C46.1717 44.368 48.2046 46.0057 51.2258 46.0057C53.7387 46.0057 54.7834 45.0174 54.7834 43.6621C54.7834 42.3633 53.9081 41.7139 50.6611 40.7821C46.6799 39.6527 44.7881 38.3821 44.7881 35.728C44.7881 32.7633 47.1034 30.8998 51.254 30.8998C55.6305 30.8998 57.494 32.5939 57.494 32.5939L55.9693 34.881C55.9693 34.881 54.2187 33.4974 51.254 33.4974C49.1364 33.4974 47.8376 34.2598 47.8376 35.6151C47.8376 36.7727 48.8258 37.3374 51.9034 38.1845C56.1952 39.3421 57.8893 40.8386 57.8893 43.4645C57.8893 46.3445 55.8564 48.6033 51.2823 48.6033C46.7929 48.6033 44.647 46.4857 44.647 46.4857Z" fill="white"/>
<defs>
<clipPath id="clip0_7094_802">
<rect width="22.4536" height="24" fill="white" transform="translate(14.7729 28)"/>
</clipPath>
</defs>
</svg>
