<svg width="160" height="80" fill="none" xmlns="http://www.w3.org/2000/svg">
<rect width="160" height="80" rx="40" fill="#312359"/>
<path d="M138.217 39.4896H137.496V37.4227H136.815V36.8016H138.943V37.4227H138.217V39.4896Z" fill="white"/>
<path d="M142.675 39.4896H141.965L142.018 37.43H141.998L141.329 39.4896H140.708L140.023 37.43H139.998L140.059 39.4896H139.349V36.8016H140.486L140.998 38.4903H141.026L141.509 36.8016H142.674V39.4896H142.675Z" fill="white"/>
<path d="M54.2124 48.0384H51.1447V43.5484H47.1687V48.0384H44.1011V36.6061H47.1687V40.9256H51.1447V36.6061H54.2124V48.0384Z" fill="white"/>
<path d="M59.0966 46.0674L58.5479 48.0385H55.3604L58.7885 36.6069H63.433L66.9126 48.0385H63.7934L63.1933 46.0674H59.0966ZM61.1538 38.8854L59.7483 43.8566H62.5931L61.1538 38.8854Z" fill="white"/>
<path d="M68.0605 36.6061H74.282C75.3214 36.6173 76.1501 36.8145 76.7672 37.1974C77.3842 37.5804 77.6924 38.36 77.6924 39.537C77.6924 40.1999 77.6039 40.7743 77.4269 41.2595C77.2499 41.7454 76.7438 42.0568 75.9103 42.1935V42.2788C76.6875 42.3593 77.2105 42.6047 77.4784 43.0158C77.7463 43.4269 77.8814 44.0102 77.8814 44.764C77.8814 46.044 77.6272 46.9089 77.1187 47.3602C76.6103 47.8116 75.6819 48.0376 74.3335 48.0376H68.0605V36.6061ZM73.0824 41.1822C73.1275 41.1935 73.1733 41.1991 73.2192 41.1991C73.2642 41.1991 73.3045 41.1991 73.3391 41.1991C73.7043 41.1887 74.0165 41.1388 74.2731 41.0535C74.5298 40.9682 74.6585 40.6915 74.6585 40.2224C74.6585 39.8113 74.5869 39.5281 74.4445 39.3737C74.3013 39.2192 74.0245 39.1428 73.6134 39.1428H71.1282V41.1822H73.0824ZM73.1677 45.5187C73.6472 45.5307 74.0446 45.4873 74.3592 45.3907C74.673 45.2934 74.8307 44.9651 74.8307 44.4052C74.8307 43.8678 74.7076 43.5516 74.4622 43.4534C74.2168 43.3569 73.854 43.3078 73.3737 43.3078H71.1282V45.5187H73.1677Z" fill="white"/>
<path d="M81.9608 46.0674L81.4122 48.0385H78.2246L81.6527 36.6069H86.2973L89.7769 48.0385H86.6577L86.0575 46.0674H81.9608ZM84.0172 38.8854L82.6117 43.8566H85.4565L84.0172 38.8854Z" fill="white"/>
<path d="M101.996 48.0384H96.8025L93.5803 39.2465H93.4428L93.5803 48.0384H90.5811V36.6061H95.7397L98.9618 45.2958H99.0817L98.9618 36.6061H101.996V48.0384Z" fill="white"/>
<path d="M106.572 41.1822H111.439V43.307H106.572V45.5179H111.885V48.0376H103.504V36.6061H111.782V39.1259H106.572V41.1822Z" fill="white"/>
<path d="M113.324 36.6061H119.083C120.546 36.6173 121.592 36.8659 122.22 37.3511C122.848 37.837 123.163 38.8459 123.163 40.3761C123.163 41.2329 123.069 41.9272 122.88 42.459C122.692 42.99 122.066 43.3706 121.003 43.5982V43.7012C121.712 43.7471 122.234 43.9611 122.572 44.344C122.909 44.727 123.078 45.2668 123.078 45.9636V48.0376H119.958V46.5131C119.958 46.0561 119.87 45.6924 119.693 45.4245C119.516 45.1558 119.176 45.0223 118.673 45.0223H116.393V48.0384H113.326V36.6061H113.324ZM118.826 42.3995C119.386 42.4116 119.726 42.2861 119.846 42.0222C119.966 41.7599 120.026 41.3826 120.026 40.891C120.026 40.3311 119.963 39.9199 119.838 39.6569C119.712 39.3938 119.324 39.2626 118.672 39.2626L116.393 39.2457V42.3987H118.826V42.3995Z" fill="white"/>
<path d="M124.362 41.7221C124.362 41.488 124.368 41.2571 124.379 41.0278C124.39 40.7993 124.407 40.5676 124.43 40.3335C124.453 40.0994 124.482 39.8685 124.516 39.64C124.733 38.36 125.315 37.5313 126.264 37.1548C127.212 36.7783 128.235 36.5779 129.332 36.5554C129.389 36.5554 129.446 36.5554 129.503 36.5554C129.56 36.5554 129.617 36.5554 129.674 36.5554C131.651 36.5554 133.033 36.8893 133.822 37.5579C134.61 38.2264 135.004 39.5949 135.004 41.6626C135.004 43.7761 134.773 45.3811 134.31 46.4785C133.847 47.5759 132.33 48.1246 129.76 48.1246C129.577 48.1246 129.388 48.1213 129.194 48.1157C128.999 48.1101 128.805 48.102 128.611 48.09C127.743 48.0554 126.926 47.8784 126.161 47.5582C125.395 47.2388 124.875 46.5984 124.601 45.6386C124.487 45.25 124.417 44.8558 124.395 44.4559C124.372 44.0561 124.36 43.6562 124.36 43.2555V42.3987C124.362 42.1823 124.362 41.957 124.362 41.7221ZM127.499 42.348V43.0335C127.499 43.8445 127.585 44.4615 127.756 44.8847C127.928 45.3071 128.488 45.5187 129.436 45.5187C130.488 45.5187 131.153 45.3505 131.433 45.0134C131.713 44.6763 131.853 44.0223 131.853 43.0512C131.853 42.9144 131.853 42.7769 131.853 42.6393C131.853 42.5025 131.859 42.3593 131.87 42.2113C131.87 42.0737 131.87 41.9369 131.87 41.8002C131.87 41.6634 131.87 41.5258 131.87 41.389C131.87 40.6239 131.761 40.0632 131.544 39.7092C131.327 39.3552 130.807 39.1782 129.984 39.1782C128.796 39.1782 128.09 39.3383 127.867 39.6577C127.644 39.9779 127.521 40.8572 127.499 42.2974C127.499 42.3094 127.499 42.3207 127.499 42.3319C127.499 42.3432 127.499 42.3545 127.499 42.3657V42.348Z" fill="white"/>
<path fill-rule="evenodd" clip-rule="evenodd" d="M27.0473 30.4353C27.3635 30.4353 27.6185 30.1795 27.6185 29.8633V28.2108C27.6185 27.8938 27.3635 27.6379 27.0473 27.6379C26.7319 27.6379 26.4761 27.8938 26.4761 28.2108V29.8633C26.4761 30.1795 26.7319 30.4353 27.0473 30.4353Z" fill="url(#paint0_linear_5889_511)"/>
<path fill-rule="evenodd" clip-rule="evenodd" d="M24.7616 31.9527C25.0778 31.9527 25.3329 31.6968 25.3329 31.3807V29.729C25.3329 29.412 25.0778 29.1561 24.7616 29.1561C24.4463 29.1561 24.1904 29.412 24.1904 29.729V31.3807C24.1904 31.6968 24.4455 31.9527 24.7616 31.9527Z" fill="url(#paint1_linear_5889_511)"/>
<path fill-rule="evenodd" clip-rule="evenodd" d="M24.762 28.1312C25.0773 28.1312 25.3332 27.8761 25.3332 27.56V27.572C25.3332 27.2558 25.0781 27 24.762 27C24.4458 27 24.1899 27.2566 24.1899 27.572V27.56C24.1907 27.8761 24.4458 28.1312 24.762 28.1312Z" fill="url(#paint2_linear_5889_511)"/>
<path fill-rule="evenodd" clip-rule="evenodd" d="M29.3333 32.3904C29.6486 32.3904 29.9045 32.1353 29.9045 31.8192V31.832C29.9045 31.5167 29.6494 31.26 29.3333 31.26C29.0171 31.26 28.7612 31.5167 28.7612 31.832V31.8192C28.7612 32.1353 29.0171 32.3904 29.3333 32.3904Z" fill="url(#paint3_linear_5889_511)"/>
<path fill-rule="evenodd" clip-rule="evenodd" d="M33.9037 36.627C33.5883 36.627 33.3324 36.882 33.3324 37.199V37.4492L33.3316 37.487C33.3123 37.7855 33.0637 38.0212 32.7612 38.0212C32.4458 38.0212 32.1892 37.7662 32.1892 37.4492V36.8289V36.0236C32.1892 35.7066 31.9334 35.4515 31.618 35.4515C31.3026 35.4515 31.046 35.7074 31.046 36.0236V36.0549C31.046 36.3719 30.7901 36.627 30.4756 36.627C30.1602 36.627 29.9043 36.3719 29.9043 36.0549V35.5103V33.6655C29.9043 33.3485 29.6485 33.0935 29.3323 33.0935C29.0169 33.0935 28.7635 33.3485 28.7635 33.6655V34.577C28.7587 34.902 28.4771 35.149 28.1899 35.149C27.8745 35.149 27.6187 34.894 27.6187 34.5778V34.1908V32.0057C27.6187 31.6896 27.3628 31.4337 27.0475 31.4337C26.7313 31.4337 26.4754 31.6888 26.4754 32.0057V33.5311V34.2415C26.4754 34.5577 26.2196 34.8135 25.9042 34.8135C25.5888 34.8135 25.333 34.5577 25.333 34.2415V33.5239V33.4394C25.333 33.1224 25.0772 32.8674 24.7618 32.8674C24.4464 32.8674 24.1898 33.1224 24.1898 33.4394V34.1844V35.1587C24.1898 35.4757 23.9339 35.7307 23.6185 35.7307C23.3032 35.7307 23.0473 35.4749 23.0473 35.1587V34.8433V32.77C23.0473 32.4539 22.7923 32.198 22.4761 32.198C22.1607 32.198 21.9049 32.4539 21.9049 32.77V35.503V36.425C21.9049 36.7412 21.6491 36.997 21.3337 36.997C21.0175 36.997 20.7625 36.7412 20.7625 36.425V36.1635V35.4604C20.7625 35.1434 20.5066 34.8884 20.1912 34.8884C19.8759 34.8884 19.6192 35.1434 19.6192 35.4604V36.8233V38.1507C19.6192 38.4669 19.3642 38.7228 19.0488 38.7228C18.7334 38.7228 18.4768 38.4669 18.4768 38.1507V37.4838V37.2674C18.4768 36.9512 18.2218 36.6953 17.9056 36.6953C17.5902 36.6953 17.3344 36.9512 17.3344 37.2674L17.3247 38.1491V48.0497L25.8986 53L34.4725 48.0497V41.7864C34.4725 41.7768 34.4757 41.7679 34.4757 41.7574V37.2006C34.4749 36.882 34.2198 36.627 33.9037 36.627ZM29.9373 46.3368H27.2438V44.2869H24.5518V46.3368H21.859V39.9175H24.5518V42.0752H27.2446V39.9175H29.9381V46.3368H29.9373Z" fill="url(#paint4_linear_5889_511)"/>
<defs>
<linearGradient id="paint0_linear_5889_511" x1="17.583" y1="29.0374" x2="34.5237" y2="29.0374" gradientUnits="userSpaceOnUse">
<stop stop-color="#EE344D"/>
<stop offset="1" stop-color="#F89927"/>
</linearGradient>
<linearGradient id="paint1_linear_5889_511" x1="18.1982" y1="30.5548" x2="34.9906" y2="30.5548" gradientUnits="userSpaceOnUse">
<stop stop-color="#EE344D"/>
<stop offset="1" stop-color="#F89927"/>
</linearGradient>
<linearGradient id="paint2_linear_5889_511" x1="17.8181" y1="27.5655" x2="34.6797" y2="27.5655" gradientUnits="userSpaceOnUse">
<stop stop-color="#EE344D"/>
<stop offset="1" stop-color="#F89927"/>
</linearGradient>
<linearGradient id="paint3_linear_5889_511" x1="17.7287" y1="31.825" x2="34.4376" y2="31.825" gradientUnits="userSpaceOnUse">
<stop stop-color="#EE344D"/>
<stop offset="1" stop-color="#F89927"/>
</linearGradient>
<linearGradient id="paint4_linear_5889_511" x1="17.3241" y1="42.2157" x2="34.4751" y2="42.2157" gradientUnits="userSpaceOnUse">
<stop stop-color="#EE344D"/>
<stop offset="1" stop-color="#F89927"/>
</linearGradient>
</defs>
</svg>
