<svg width="160" height="80" fill="none" xmlns="http://www.w3.org/2000/svg">
<rect width="160" height="80" rx="40" fill="#312359"/>
<path d="M20.1818 50.2857V32.4879L35.2054 39.9996L26.6976 44.2552V39.9996C26.6976 39.0515 25.9314 38.2853 24.9833 38.2853C24.0351 38.2853 23.2689 39.0515 23.2689 39.9996V47.0262C23.2689 47.6232 23.5754 48.1723 24.083 48.4851C24.5906 48.798 25.2163 48.8267 25.7494 48.5617L39.8057 41.5352C40.3868 41.2447 40.7539 40.6541 40.7539 40.0028C40.7539 39.3516 40.3868 38.761 39.8057 38.4705L19.2337 28.1813C18.7006 27.9163 18.0716 27.9418 17.5672 28.2579C17.0596 28.5707 16.7532 29.1198 16.7532 29.7168V50.2857C16.7532 51.2338 17.5194 52 18.4675 52C19.4157 52 20.1818 51.2338 20.1818 50.2857Z" fill="#FF002A"/>
<path d="M63.1392 36.2582C62.9444 35.8017 62.6252 35.4154 62.2198 35.1408C62.0186 35.0036 61.792 34.895 61.5525 34.8216C61.3131 34.7482 61.0577 34.7067 60.7959 34.7067H53.8077C53.5299 34.7067 53.2554 34.8184 53.0575 35.0163C52.8595 35.2143 52.7478 35.4856 52.7478 35.7666V44.2361C52.7478 44.8203 53.2203 45.296 53.8077 45.296C54.3951 45.296 54.8676 44.8235 54.8676 44.2361V41.7651H60.7959C61.1439 41.7651 61.4823 41.6949 61.7856 41.564C62.2421 41.3693 62.6284 41.05 62.9029 40.6446C63.0402 40.4435 63.1487 40.2168 63.2222 39.9774C63.2956 39.7379 63.3371 39.4825 63.3371 39.2208V37.2446C63.3371 36.8967 63.2669 36.5583 63.136 36.255L63.1392 36.2582ZM61.2205 39.224C61.2205 39.2846 61.2078 39.3389 61.1886 39.39C61.1567 39.4634 61.1024 39.5304 61.0354 39.5783C61.0002 39.6007 60.9651 39.6198 60.9268 39.6326C60.8885 39.6454 60.847 39.6517 60.7991 39.6517H54.8708V36.8296H60.7991C60.8598 36.8296 60.914 36.8424 60.9651 36.8616C61.0385 36.8935 61.1056 36.9478 61.1535 37.0148C61.1758 37.0499 61.195 37.085 61.2078 37.1233C61.2205 37.1616 61.2269 37.2031 61.2269 37.251V39.2272L61.2205 39.224Z" fill="white"/>
<path d="M113.813 39.3772C113.611 39.2399 113.385 39.1314 113.145 39.058C112.906 38.9845 112.65 38.943 112.389 38.943H106.176C106.116 38.943 106.061 38.9303 106.01 38.9111C105.937 38.8792 105.87 38.8249 105.822 38.7579C105.8 38.7228 105.78 38.6876 105.768 38.6493C105.755 38.611 105.748 38.5695 105.748 38.5216V37.2511C105.748 37.1904 105.761 37.1361 105.78 37.085C105.812 37.0116 105.867 36.9446 105.934 36.8967C105.969 36.8743 106.004 36.8552 106.042 36.8424C106.08 36.8297 106.122 36.8233 106.17 36.8233H113.509C114.093 36.8233 114.569 36.3508 114.569 35.7634C114.569 35.176 114.097 34.7035 113.509 34.7035H106.17C105.822 34.7035 105.483 34.7737 105.18 34.9046C104.724 35.0994 104.337 35.4186 104.063 35.824C103.926 36.0252 103.817 36.2518 103.744 36.4913C103.67 36.7307 103.629 36.9861 103.629 37.2479V38.5184C103.629 38.8664 103.699 39.2048 103.83 39.5081C104.025 39.9646 104.344 40.3509 104.749 40.6255C104.95 40.7627 105.177 40.8713 105.416 40.9447C105.656 41.0181 105.911 41.0596 106.173 41.0596H112.386C112.446 41.0596 112.5 41.0724 112.552 41.0916C112.625 41.1235 112.692 41.1777 112.74 41.2448C112.762 41.2799 112.781 41.315 112.794 41.3533C112.807 41.3916 112.813 41.4331 112.813 41.481V42.7516C112.813 42.8123 112.801 42.8665 112.781 42.9176C112.749 42.991 112.695 43.0581 112.628 43.106C112.593 43.1283 112.558 43.1475 112.52 43.1602C112.481 43.173 112.44 43.1794 112.392 43.1794H105.052C104.468 43.1794 103.993 43.6519 103.993 44.2393C103.993 44.8267 104.465 45.2992 105.052 45.2992H112.392C112.74 45.2992 113.078 45.2289 113.382 45.0981C113.838 44.9033 114.224 44.5841 114.499 44.1786C114.636 43.9775 114.745 43.7508 114.818 43.5114C114.892 43.272 114.933 43.0166 114.933 42.7548V41.4842C114.933 41.1362 114.863 40.7978 114.732 40.4946C114.537 40.038 114.218 39.6518 113.813 39.3772Z" fill="white"/>
<path d="M101.091 34.9685C100.65 34.5822 99.9832 34.6269 99.5969 35.0675L95.4531 39.8018L91.3093 35.0675C90.923 34.6269 90.2558 34.5822 89.8153 34.9685C89.3747 35.3548 89.33 36.022 89.7163 36.4625L94.3964 41.8099V44.2361C94.3964 44.8203 94.8689 45.296 95.4563 45.296C96.0437 45.296 96.5162 44.8235 96.5162 44.2361V41.8099L101.196 36.4625C101.583 36.022 101.538 35.3548 101.097 34.9685H101.091Z" fill="white"/>
<path d="M128.817 36.2582C128.622 35.8017 128.303 35.4154 127.898 35.1408C127.697 35.0036 127.47 34.895 127.23 34.8216C126.991 34.7482 126.736 34.7067 126.474 34.7067H120.261C119.913 34.7067 119.575 34.7769 119.272 34.9078C118.815 35.1025 118.429 35.4218 118.154 35.8272C118.017 36.0283 117.909 36.255 117.835 36.4944C117.762 36.7339 117.72 36.9893 117.72 37.251V42.758C117.72 43.106 117.79 43.4444 117.921 43.7476C118.116 44.2042 118.435 44.5904 118.841 44.865C119.042 45.0023 119.269 45.1108 119.508 45.1842C119.747 45.2577 120.003 45.2992 120.265 45.2992H126.477C126.825 45.2992 127.163 45.2289 127.467 45.098C127.923 44.9033 128.31 44.5841 128.584 44.1786C128.721 43.9775 128.83 43.7508 128.903 43.5114C128.977 43.272 129.018 43.0166 129.018 42.7548V37.2478C129.018 36.8999 128.948 36.5615 128.817 36.2582ZM126.898 42.7516C126.898 42.8123 126.886 42.8665 126.867 42.9176C126.835 42.991 126.78 43.0581 126.713 43.106C126.678 43.1283 126.643 43.1475 126.605 43.1602C126.566 43.173 126.525 43.1794 126.477 43.1794H120.265C120.204 43.1794 120.15 43.1666 120.099 43.1475C120.025 43.1155 119.958 43.0613 119.91 42.9942C119.888 42.9591 119.869 42.924 119.856 42.8857C119.843 42.8474 119.837 42.8059 119.837 42.758V37.251C119.837 37.1904 119.85 37.1361 119.869 37.085C119.901 37.0116 119.955 36.9446 120.022 36.8967C120.057 36.8743 120.092 36.8552 120.131 36.8424C120.169 36.8296 120.21 36.8232 120.258 36.8232H126.471C126.531 36.8232 126.586 36.836 126.637 36.8552C126.71 36.8871 126.777 36.9414 126.825 37.0084C126.847 37.0435 126.867 37.0786 126.879 37.117C126.892 37.1553 126.898 37.1968 126.898 37.2446V42.7516Z" fill="white"/>
<path d="M142.187 34.7067C141.603 34.7067 141.127 35.1791 141.127 35.7666V41.8194L133.727 34.9908C133.417 34.7035 132.971 34.63 132.584 34.7992C132.198 34.9684 131.949 35.3483 131.949 35.7697V44.2393C131.949 44.8235 132.421 45.2992 133.009 45.2992C133.596 45.2992 134.069 44.8267 134.069 44.2393V38.1864L141.469 45.015C141.778 45.3024 142.225 45.3758 142.612 45.2066C142.998 45.0374 143.247 44.6575 143.247 44.2361V35.7666C143.247 35.1823 142.775 34.7067 142.187 34.7067Z" fill="white"/>
<path d="M74.5616 43.1762H68.2086V35.7666C68.2086 35.1823 67.7362 34.7067 67.1488 34.7067C66.5613 34.7067 66.0889 35.1791 66.0889 35.7666V44.2361C66.0889 44.5138 66.2006 44.7884 66.3985 44.9831C66.5965 45.181 66.8678 45.2928 67.1488 45.2928H74.5584C75.1426 45.2928 75.6183 44.8203 75.6183 44.2329C75.6183 43.6455 75.1458 43.173 74.5584 43.173L74.5616 43.1762Z" fill="white"/>
<path d="M88.9597 45.2927C88.5958 45.2927 88.2414 45.1043 88.0435 44.7659L84.0178 37.8639L79.9921 44.7659C79.6984 45.2703 79.0504 45.4427 78.5428 45.1458C78.0384 44.8521 77.866 44.2041 78.1629 43.6965L83.1048 35.2269C83.2931 34.9013 83.6443 34.7002 84.0178 34.7002C84.3913 34.7002 84.7425 34.9013 84.9308 35.2269L89.8727 43.6965C90.1664 44.2009 89.9972 44.8489 89.4928 45.1458C89.3236 45.2448 89.1417 45.2895 88.9597 45.2895V45.2927Z" fill="white"/>
</svg>
