<svg xmlns="http://www.w3.org/2000/svg" width="160" height="80" fill="none"><rect width="160" height="80" fill="#312359" rx="40"/><g fill="#E21E26" clip-path="url(#a)"><path d="M27.985 22.046c9.753-.846 18.323 6.493 19.153 16.431.493 5.892-1.861 11.662-6.323 15.43-6.384 5.416-15.584 5.54-22.138.385-7.708-6.107-9.123-17.446-3.123-25.338 3-3.954 7.523-6.446 12.43-6.908m.138.616c-9.4.769-16.43 9.184-15.677 18.769s9 16.754 18.4 15.97c9.43-.77 16.43-9.155 15.677-18.77a17.56 17.56 0 0 0-7.892-13.323c-3.093-2.016-6.785-2.939-10.508-2.646"/><path d="M27.062 23.57c8.153-1.278 15.969 3.86 18.2 11.968 1.23 4.477.569 9.524-1.985 13.416-2.323 1.061-4.939 1.246-7.43 1.138-4.186-.2-8.278-1.323-12.478-1.43-2.37-.062-4.8.246-7 1.23-5.338-7.415-3.77-17.846 3.508-23.277 2.092-1.584 4.57-2.615 7.185-3.046m2.446.322c-.339 1.016-.662 2.047-1 3.093-1.062 0-2.139-.016-3.2.015q1.292.945 2.584 1.939c-.323 1.015-.661 2.046-.984 3.092.861-.63 1.723-1.277 2.584-1.908.862.63 1.723 1.277 2.585 1.908-.323-1.016-.662-2.062-.985-3.092q1.292-.946 2.585-1.939c-1.062-.015-2.139 0-3.2 0-.308-1.061-.646-2.092-.97-3.108m-7.431 4.016c-.108.523-.185 1.046-.292 1.569l-1.57.2 1.385.77c-.092.522-.185 1.06-.277 1.568.385-.369.77-.723 1.154-1.107.461.246.908.523 1.384.754-.23-.477-.461-.985-.676-1.462.384-.37.769-.754 1.138-1.108-.523.062-1.046.139-1.57.2-.215-.4-.445-.877-.676-1.384m14.184 1.461-1.569-.2c.385.385.754.754 1.139 1.108-.231.477-.462.985-.677 1.461l1.384-.753c.385.369.77.753 1.154 1.107-.107-.523-.184-1.061-.277-1.584.462-.246.908-.523 1.385-.77l-1.57-.2c-.107-.523-.184-1.061-.292-1.569zm-19.153 2.293c.015.323.046.63.061.953l-.892.37.908.23c.015.323.046.631.061.954.154-.277.323-.538.492-.8l.908.2-.585-.723.493-.815-.892.37a5 5 0 0 0-.554-.74m24.2.723-.862-.37.492.816c-.2.246-.415.477-.615.723l.908-.2.492.8.062-.954.907-.23-.846-.355.062-.953zm-21.8 1.661c-1 .277-1.954.908-2.462 1.846-.046 3.277 0 6.539-.015 9.846.754.524 1.569.893 2.461 1.108 1.016.277 2.062.2 3.108.139 1.046-.062 2.108-.339 2.892-1.062 1.2-1.061 1.57-2.954.939-4.461-.339-.847-1.093-1.431-1.893-1.8.8-.493 1.416-1.37 1.37-2.339.015-1.754-1.477-3.277-3.139-3.461-1.077-.108-2.184-.108-3.261.184m4.507-.246c1.185.43 1.954 1.523 2.37 2.677h1.569V47h2.677V36.477h1.477c.8-1.2 1.907-2.23 3.277-2.677-3.8.015-7.6 0-11.37 0m11.708.354a5.87 5.87 0 0 0-3.323 2.984c-.754 1.524-.862 3.277-.615 4.939.23 1.57 1 3.046 2.246 4.015 1.184.939 2.723 1.231 4.154 1.108 1.461-.108 2.984-.523 4.138-1.477v-6.292h-4.37v2.415h1.708v2.416c-.892.615-2.061.615-3.061.246-1.092-.431-1.846-1.523-2.062-2.662-.23-1.154-.153-2.369.277-3.461.416-1 1.247-1.816 2.293-2.016 1.292-.338 2.63.231 3.615 1.062.385-.754.754-1.492 1.154-2.246-1.63-1.523-4.108-1.708-6.154-1.031M66.739 38.708c.415.369.846.723 1.276 1.092-.276.2-.569.385-.846.585.539.892.57 2.015.108 2.954-.492.892-1.492 1.384-2.492 1.384-.431.016-.893-.154-1.293.092-.184.062-.461.339-.153.477.322.139.676.016 1.015-.015.984-.185 2.092-.2 2.954.338 1.046.754.907 2.523-.154 3.185-1.8 1.154-4.246.954-6-.23q.577-.693 1.154-1.34c.984.862 2.461 1.109 3.615.478.277-.139.37-.477.23-.754a.64.64 0 0 0-.322-.277c-1.046-.323-2.108.154-3.154-.015-.57-.047-1.2-.385-1.246-1.016-.108-.677.477-1.154 1-1.461-1.292-.723-1.723-2.662-.8-3.846 1.015-1.339 2.984-1.477 4.43-.847zm-2.985 1.954c-.892.338-1.015 1.661-.385 2.276.416.416 1.046.462 1.57.293.8-.293 1-1.462.538-2.108-.354-.584-1.123-.692-1.723-.461m82.431-1.185c.23-.246.477-.523.707-.77.416.37.846.724 1.277 1.093-.277.2-.569.385-.846.585.477.8.569 1.8.231 2.661a2.68 2.68 0 0 1-2.062 1.616c-.477.092-.954 0-1.43 0-.277.092-.677.153-.708.523.277.292.677.154 1.015.107.985-.2 2.062-.246 2.985.277 1.046.616 1.061 2.323.154 3.062-.908.754-2.093.984-3.231.938a5.73 5.73 0 0 1-3-1c.385-.461.769-.892 1.138-1.338.677.584 1.57.892 2.462.815.492-.061 1.138-.108 1.431-.615.154-.385-.2-.77-.57-.8-1.107-.154-2.276.323-3.369-.062-.492-.107-.846-.569-.846-1.092-.015-.615.539-1.015 1-1.292-1.292-.708-1.723-2.662-.8-3.846 1.077-1.339 3.031-1.493 4.462-.862m-2.293 1.185c-.984.384-1 1.984-.107 2.461.584.323 1.477.246 1.861-.37.323-.568.323-1.368-.154-1.845-.4-.416-1.077-.462-1.6-.246m-61.384-.77c1.154-1.092 3.092-.984 4.292 0 1.062-.892 2.723-1.046 3.908-.292.677.462 1 1.292 1 2.092v4.97h-1.816v-4.523c0-.462-.061-.985-.43-1.277-.677-.523-1.77-.293-2.2.43-.047 1.8 0 3.57-.016 5.37h-1.815c0-1.662.015-3.323 0-4.97.015-.984-1.231-1.369-1.954-.938-.277.184-.708.385-.708.77-.015 1.707 0 3.414 0 5.138h-1.815v-7.385H82.2zm10.846.539c1.338-1.57 3.861-1.723 5.477-.477 1.046.815 1.431 2.292 1.046 3.538h-5.57c.062.723.478 1.431 1.154 1.662.954.338 2.139.246 2.985-.43.23.43.477.891.708 1.338-1.062.723-2.415.8-3.662.677-1.23-.108-2.43-.985-2.846-2.2-.461-1.354-.292-3.016.708-4.108m2.17.277c-.632.2-1 .846-1.155 1.477h3.816c-.108-.477-.231-.954-.631-1.247-.57-.415-1.37-.446-2.03-.23m15.784-1.17a5.85 5.85 0 0 1 4.092-.107c.769.277 1.292 1.015 1.431 1.815.277 1.292.061 2.585.2 3.892.046.462.246.862.569 1.154-.323.477-.908.57-1.431.462-.415-.108-.631-.477-.846-.8-.492.57-1.292.8-2.015.846-.8.015-1.631-.138-2.231-.723-.615-.615-.708-1.615-.462-2.43.247-.816 1-1.34 1.8-1.616a5.95 5.95 0 0 1 2.754-.185c-.061-.461-.246-.938-.707-1.092-.893-.339-1.908-.2-2.77.138-.138-.446-.277-.892-.384-1.354m1.492 3.939c-.631.385-.677 1.57.062 1.846.615.185 1.384.154 1.907-.292.477-.477.369-1.2.385-1.846-.785-.123-1.677-.139-2.354.292m6.969-3.585c1.139-1.092 3.093-.984 4.277 0 1.062-.892 2.723-1.046 3.892-.292.677.462 1.016 1.292 1 2.092.016 1.662 0 3.323 0 5h-1.815V42.17c0-.461-.061-.984-.431-1.292-.677-.523-1.769-.292-2.23.43-.047 1.8 0 3.57-.016 5.37h-1.831c-.015-1.662.016-3.323-.015-4.97 0-.984-1.246-1.368-1.985-.938-.277.185-.707.385-.707.77v5.138h-1.816v-7.385h1.246c.185.185.324.385.431.6m15.739.046c.892-.892 2.292-.984 3.43-.615 1.016.339 1.708 1.37 1.754 2.462.046 1.63 0 3.277.016 4.907h-1.816v-4.369c0-.57-.138-1.23-.661-1.523-.846-.43-1.862-.154-2.493.477-.015 1.8 0 3.585 0 5.385h-1.815v-7.385h1.323c.046.215.139.43.262.661m-77.97-.661h2.847v7.385h-1.846v-5.97h-1c.015-.461 0-.938 0-1.415m19.17 0h2.846v7.385h-1.846v-5.97h-1zm52.954 0h2.846v7.385h-1.816v-5.97h-1c-.03-.492-.03-.938-.03-1.415m-26.354-1.846c1.092-.846 2.538-1.108 3.907-1.016.908.062 1.8.385 2.539.985-.277.477-.523.985-.8 1.462-.908-.616-2-1.016-3.092-.754-1.185.2-2.108 1.23-2.37 2.384-.246 1.108-.2 2.37.416 3.37.892 1.461 3.015 1.846 4.415.892v-2h-1.477v-1.539h3.369v4.539c-1.138.8-2.538 1.092-3.892 1.092-1.323.016-2.723-.43-3.615-1.461-1.185-1.246-1.477-3.093-1.231-4.77a4.87 4.87 0 0 1 1.831-3.184m-53.247-.892c1.047-.016 2.062-.093 3.108-.093.908.016 1.862.185 2.585.754.708.57.985 1.57.723 2.43-.185.616-.708 1-1.23 1.293.707.246 1.384.708 1.676 1.416.43 1 .37 2.276-.415 3.092-.8.861-1.985 1.2-3.093 1.2-1.138.015-2.292 0-3.43 0zM51.939 38v2.415c.708.016 1.477.108 2.139-.2.754-.338.861-1.569.138-1.984-.677-.37-1.507-.231-2.277-.231m0 3.846v3.323c.8.046 1.616.108 2.37-.154 1.246-.384 1.292-2.584.046-2.984-.754-.277-1.6-.216-2.416-.185m5.616-5.277h2.815v1.585h-2.846c.015-.523.03-1.062.03-1.585m11.03-.03h7.54v1.615h-2.247v8.492h-1.908v-8.492h-3.384zm8.124 1.615v-1.585h2.815v1.585zm52.984-1.585h2.846v1.585h-2.815c-.031-.523-.031-1.062-.031-1.585"/><path d="M20.215 36.846c.677-.846 2.246-.707 2.708.339.185.569-.062 1.369-.708 1.523-.723.2-1.477.092-2.23.107.046-.63-.154-1.384.23-1.969M19.985 41c.938.046 1.907-.138 2.8.23 1.292.524 1.2 2.77-.093 3.232-.892.107-1.861.184-2.707-.247zm5.138 8.43c4.754.478 9.477 1.77 14.277 1.2a12.2 12.2 0 0 0 3.338-.815c-.846 1.108-1.723 2.185-2.846 3.016-.892.154-1.769.061-2.63-.016-2.57-.338-5.016-1.138-7.477-1.953-1.539-.477-3.062-1.062-4.662-1.431m-3.108 1.016c2.046.046 4 .754 5.954 1.385 3.23 1.046 6.416 2.323 9.816 2.584-1.462.816-2.985 1.477-4.616 1.847-.23.061-.415-.108-.615-.185-2.016-1.139-3.954-2.43-5.97-3.63-1.461-.832-2.953-1.6-4.569-2m-2.554 2.739c1.431.092 2.893.292 4.185.938 1.477.662 2.77 1.616 4.092 2.523-3-.4-5.861-1.584-8.277-3.461"/></g><defs><clipPath id="a"><path fill="#fff" d="M10.77 22H149.23v36H10.77z"/></clipPath></defs></svg>