<svg width="201" height="110" viewBox="0 0 201 110" fill="none" xmlns="http://www.w3.org/2000/svg">
<g id="Background" clip-path="url(#clip0_2470_5151)">
<g id="Background_2">
<path id="Vector" d="M101.004 0.00430632L-19 4.69735V-4.69714L101.004 0.00430632Z" fill="url(#paint0_radial_2470_5151)"/>
<path id="Vector_2" d="M221 -4.69714V4.69735L101.004 0.00430632L221 -4.69714Z" fill="url(#paint1_radial_2470_5151)"/>
<path id="Vector_3" d="M101.005 0.00378418L-8.06886 50.2673L-11.6621 41.578L101.005 0.00378418Z" fill="url(#paint2_radial_2470_5151)"/>
<path id="Vector_4" d="M210.069 -50.2593L213.671 -41.5784L101.004 0.00419617L210.069 -50.2593Z" fill="url(#paint3_radial_2470_5151)"/>
<path id="Vector_5" d="M101.004 0.00378418L19.4679 88.1811L12.8271 81.5319L101.004 0.00378418Z" fill="url(#paint4_radial_2470_5151)"/>
<path id="Vector_6" d="M182.532 -88.1726L189.181 -81.5318L101.004 0.00467682L182.532 -88.1726Z" fill="url(#paint5_radial_2470_5151)"/>
<path id="Vector_7" d="M101.005 0.00378418L59.4221 112.671L50.7412 109.069L101.005 0.00378418Z" fill="url(#paint6_radial_2470_5151)"/>
<path id="Vector_8" d="M142.578 -112.663L151.267 -109.07L101.004 0.0038147L142.578 -112.663Z" fill="url(#paint7_radial_2470_5151)"/>
<path id="Vector_9" d="M101.004 0.00378418L105.697 120H96.3027L101.004 0.00378418Z" fill="url(#paint8_radial_2470_5151)"/>
<path id="Vector_10" d="M96.3027 -120H105.697L101.004 0.00437164L96.3027 -120Z" fill="url(#paint9_radial_2470_5151)"/>
<path id="Vector_11" d="M101.004 0.00378418L151.267 109.069L142.578 112.671L101.004 0.00378418Z" fill="url(#paint10_radial_2470_5151)"/>
<path id="Vector_12" d="M50.7412 -109.07L59.4221 -112.663L101.005 0.0038147L50.7412 -109.07Z" fill="url(#paint11_radial_2470_5151)"/>
<path id="Vector_13" d="M101.004 0.00378418L189.181 81.5319L182.532 88.1811L101.004 0.00378418Z" fill="url(#paint12_radial_2470_5151)"/>
<path id="Vector_14" d="M12.8271 -81.5318L19.4679 -88.1726L101.004 0.00467682L12.8271 -81.5318Z" fill="url(#paint13_radial_2470_5151)"/>
<path id="Vector_15" d="M101.004 0.00378418L213.671 41.578L210.069 50.2673L101.004 0.00378418Z" fill="url(#paint14_radial_2470_5151)"/>
<path id="Vector_16" d="M-11.6621 -41.5784L-8.06886 -50.2593L101.005 0.00419617L-11.6621 -41.5784Z" fill="url(#paint15_radial_2470_5151)"/>
<path id="Vector_17" d="M101.004 0.00378418L-15.7761 28.0194L-17.6147 18.8012L101.004 0.00378418Z" fill="url(#paint16_radial_2470_5151)"/>
<path id="Vector_18" d="M217.776 -28.0193L219.615 -18.8011L101.004 0.00468826L217.776 -28.0193Z" fill="url(#paint17_radial_2470_5151)"/>
<path id="Vector_19" d="M101.005 0.00378418L3.83574 70.5758L-1.38623 62.7597L101.005 0.00378418Z" fill="url(#paint18_radial_2470_5151)"/>
<path id="Vector_20" d="M198.164 -70.5762L203.386 -62.76L101.004 0.00428772L198.164 -70.5762Z" fill="url(#paint19_radial_2470_5151)"/>
<path id="Vector_21" d="M101.003 0.00378418L38.239 102.386L30.4229 97.1642L101.003 0.00378418Z" fill="url(#paint20_radial_2470_5151)"/>
<path id="Vector_22" d="M163.76 -102.387L171.576 -97.1648L101.004 0.00402832L163.76 -102.387Z" fill="url(#paint21_radial_2470_5151)"/>
<path id="Vector_23" d="M101.004 0.00378418L82.1987 118.615L72.9805 116.776L101.004 0.00378418Z" fill="url(#paint22_radial_2470_5151)"/>
<path id="Vector_24" d="M119.801 -118.615L129.019 -116.776L101.004 0.00448608L119.801 -118.615Z" fill="url(#paint23_radial_2470_5151)"/>
<path id="Vector_25" d="M101.004 0.00378418L129.019 116.776L119.801 118.615L101.004 0.00378418Z" fill="url(#paint24_radial_2470_5151)"/>
<path id="Vector_26" d="M72.9805 -116.776L82.1987 -118.615L101.004 0.00448608L72.9805 -116.776Z" fill="url(#paint25_radial_2470_5151)"/>
<path id="Vector_27" d="M101.004 0.00378418L171.576 97.1642L163.76 102.386L101.004 0.00378418Z" fill="url(#paint26_radial_2470_5151)"/>
<path id="Vector_28" d="M30.4229 -97.1648L38.239 -102.387L101.003 0.00402832L30.4229 -97.1648Z" fill="url(#paint27_radial_2470_5151)"/>
<path id="Vector_29" d="M101.004 0.00378418L203.386 62.7597L198.164 70.5758L101.004 0.00378418Z" fill="url(#paint28_radial_2470_5151)"/>
<path id="Vector_30" d="M-1.38623 -62.76L3.83574 -70.5762L101.005 0.00428772L-1.38623 -62.76Z" fill="url(#paint29_radial_2470_5151)"/>
<path id="Vector_31" d="M101.004 0.00378418L219.615 18.8012L217.776 28.0194L101.004 0.00378418Z" fill="url(#paint30_radial_2470_5151)"/>
<path id="Vector_32" d="M-17.6147 -18.8011L-15.7761 -28.0193L101.004 0.00468826L-17.6147 -18.8011Z" fill="url(#paint31_radial_2470_5151)"/>
</g>
</g>
<defs>
<radialGradient id="paint0_radial_2470_5151" cx="0" cy="0" r="1" gradientUnits="userSpaceOnUse" gradientTransform="translate(41.0022 0.000104353) rotate(62.5577) scale(6.51017 65.6063)">
<stop stop-color="#333333"/>
<stop offset="1" stop-color="#191919" stop-opacity="0"/>
</radialGradient>
<radialGradient id="paint1_radial_2470_5151" cx="0" cy="0" r="1" gradientUnits="userSpaceOnUse" gradientTransform="translate(161.002 0.000104353) rotate(62.5593) scale(6.51007 65.6027)">
<stop stop-color="#333333"/>
<stop offset="1" stop-color="#191919" stop-opacity="0"/>
</radialGradient>
<radialGradient id="paint2_radial_2470_5151" cx="0" cy="0" r="1" gradientUnits="userSpaceOnUse" gradientTransform="translate(44.6713 25.1355) rotate(84.7934) scale(31.0401 69.1182)">
<stop stop-color="#333333"/>
<stop offset="1" stop-color="#191919" stop-opacity="0"/>
</radialGradient>
<radialGradient id="paint3_radial_2470_5151" cx="0" cy="0" r="1" gradientUnits="userSpaceOnUse" gradientTransform="translate(157.337 -25.1275) rotate(84.7934) scale(31.0401 69.1182)">
<stop stop-color="#333333"/>
<stop offset="1" stop-color="#191919" stop-opacity="0"/>
</radialGradient>
<radialGradient id="paint4_radial_2470_5151" cx="0" cy="0" r="1" gradientUnits="userSpaceOnUse" gradientTransform="translate(56.9158 44.0924) rotate(87.6721) scale(54.2738 54.2738)">
<stop stop-color="#333333"/>
<stop offset="1" stop-color="#191919" stop-opacity="0"/>
</radialGradient>
<radialGradient id="paint5_radial_2470_5151" cx="0" cy="0" r="1" gradientUnits="userSpaceOnUse" gradientTransform="translate(145.093 -44.084) rotate(87.6721) scale(54.2738 54.2738)">
<stop stop-color="#333333"/>
<stop offset="1" stop-color="#191919" stop-opacity="0"/>
</radialGradient>
<radialGradient id="paint6_radial_2470_5151" cx="0" cy="0" r="1" gradientUnits="userSpaceOnUse" gradientTransform="translate(75.873 56.3372) rotate(88.961) scale(69.3015 30.958)">
<stop stop-color="#333333"/>
<stop offset="1" stop-color="#191919" stop-opacity="0"/>
</radialGradient>
<radialGradient id="paint7_radial_2470_5151" cx="0" cy="0" r="1" gradientUnits="userSpaceOnUse" gradientTransform="translate(126.136 -56.3296) rotate(88.961) scale(69.3015 30.958)">
<stop stop-color="#333333"/>
<stop offset="1" stop-color="#191919" stop-opacity="0"/>
</radialGradient>
<radialGradient id="paint8_radial_2470_5151" cx="0" cy="0" r="1" gradientUnits="userSpaceOnUse" gradientTransform="translate(101 60.0018) rotate(89.8176) scale(73.7979 5.78713)">
<stop stop-color="#333333"/>
<stop offset="1" stop-color="#191919" stop-opacity="0"/>
</radialGradient>
<radialGradient id="paint9_radial_2470_5151" cx="0" cy="0" r="1" gradientUnits="userSpaceOnUse" gradientTransform="translate(101 -59.9978) rotate(89.8177) scale(73.8031 5.78713)">
<stop stop-color="#333333"/>
<stop offset="1" stop-color="#191919" stop-opacity="0"/>
</radialGradient>
<radialGradient id="paint10_radial_2470_5151" cx="0" cy="0" r="1" gradientUnits="userSpaceOnUse" gradientTransform="translate(126.136 56.3372) rotate(88.961) scale(69.3015 30.958)">
<stop stop-color="#333333"/>
<stop offset="1" stop-color="#191919" stop-opacity="0"/>
</radialGradient>
<radialGradient id="paint11_radial_2470_5151" cx="0" cy="0" r="1" gradientUnits="userSpaceOnUse" gradientTransform="translate(75.873 -56.3296) rotate(88.961) scale(69.3015 30.958)">
<stop stop-color="#333333"/>
<stop offset="1" stop-color="#191919" stop-opacity="0"/>
</radialGradient>
<radialGradient id="paint12_radial_2470_5151" cx="0" cy="0" r="1" gradientUnits="userSpaceOnUse" gradientTransform="translate(145.093 44.0924) rotate(87.6721) scale(54.2738 54.2738)">
<stop stop-color="#333333"/>
<stop offset="1" stop-color="#191919" stop-opacity="0"/>
</radialGradient>
<radialGradient id="paint13_radial_2470_5151" cx="0" cy="0" r="1" gradientUnits="userSpaceOnUse" gradientTransform="translate(56.9158 -44.084) rotate(87.6721) scale(54.2738 54.2738)">
<stop stop-color="#333333"/>
<stop offset="1" stop-color="#191919" stop-opacity="0"/>
</radialGradient>
<radialGradient id="paint14_radial_2470_5151" cx="0" cy="0" r="1" gradientUnits="userSpaceOnUse" gradientTransform="translate(157.337 25.1355) rotate(84.7934) scale(31.0401 69.1182)">
<stop stop-color="#333333"/>
<stop offset="1" stop-color="#191919" stop-opacity="0"/>
</radialGradient>
<radialGradient id="paint15_radial_2470_5151" cx="0" cy="0" r="1" gradientUnits="userSpaceOnUse" gradientTransform="translate(44.6713 -25.1275) rotate(84.7934) scale(31.0401 69.1182)">
<stop stop-color="#333333"/>
<stop offset="1" stop-color="#191919" stop-opacity="0"/>
</radialGradient>
<radialGradient id="paint16_radial_2470_5151" cx="0" cy="0" r="1" gradientUnits="userSpaceOnUse" gradientTransform="translate(41.6948 14.0116) rotate(80.2338) scale(17.4829 72.0124)">
<stop stop-color="#333333"/>
<stop offset="1" stop-color="#191919" stop-opacity="0"/>
</radialGradient>
<radialGradient id="paint17_radial_2470_5151" cx="0" cy="0" r="1" gradientUnits="userSpaceOnUse" gradientTransform="translate(160.309 -14.0073) rotate(80.2373) scale(17.488 72.0081)">
<stop stop-color="#333333"/>
<stop offset="1" stop-color="#191919" stop-opacity="0"/>
</radialGradient>
<radialGradient id="paint18_radial_2470_5151" cx="0" cy="0" r="1" gradientUnits="userSpaceOnUse" gradientTransform="translate(49.8092 35.2898) rotate(86.6245) scale(43.4772 62.965)">
<stop stop-color="#333333"/>
<stop offset="1" stop-color="#191919" stop-opacity="0"/>
</radialGradient>
<radialGradient id="paint19_radial_2470_5151" cx="0" cy="0" r="1" gradientUnits="userSpaceOnUse" gradientTransform="translate(152.195 -35.2859) rotate(86.6252) scale(43.4824 62.9599)">
<stop stop-color="#333333"/>
<stop offset="1" stop-color="#191919" stop-opacity="0"/>
</radialGradient>
<radialGradient id="paint20_radial_2470_5151" cx="0" cy="0" r="1" gradientUnits="userSpaceOnUse" gradientTransform="translate(65.7131 51.195) rotate(88.3947) scale(62.9899 43.4616)">
<stop stop-color="#333333"/>
<stop offset="1" stop-color="#191919" stop-opacity="0"/>
</radialGradient>
<radialGradient id="paint21_radial_2470_5151" cx="0" cy="0" r="1" gradientUnits="userSpaceOnUse" gradientTransform="translate(136.29 -51.1913) rotate(88.395) scale(62.995 43.4565)">
<stop stop-color="#333333"/>
<stop offset="1" stop-color="#191919" stop-opacity="0"/>
</radialGradient>
<radialGradient id="paint22_radial_2470_5151" cx="0" cy="0" r="1" gradientUnits="userSpaceOnUse" gradientTransform="translate(86.9925 59.3092) rotate(89.4497) scale(72.949 17.2624)">
<stop stop-color="#333333"/>
<stop offset="1" stop-color="#191919" stop-opacity="0"/>
</radialGradient>
<radialGradient id="paint23_radial_2470_5151" cx="0" cy="0" r="1" gradientUnits="userSpaceOnUse" gradientTransform="translate(115.012 -59.3051) rotate(89.4499) scale(72.9541 17.2573)">
<stop stop-color="#333333"/>
<stop offset="1" stop-color="#191919" stop-opacity="0"/>
</radialGradient>
<radialGradient id="paint24_radial_2470_5151" cx="0" cy="0" r="1" gradientUnits="userSpaceOnUse" gradientTransform="translate(115.012 59.3092) rotate(89.4499) scale(72.949 17.2573)">
<stop stop-color="#333333"/>
<stop offset="1" stop-color="#191919" stop-opacity="0"/>
</radialGradient>
<radialGradient id="paint25_radial_2470_5151" cx="0" cy="0" r="1" gradientUnits="userSpaceOnUse" gradientTransform="translate(86.9925 -59.3051) rotate(89.4497) scale(72.9541 17.2624)">
<stop stop-color="#333333"/>
<stop offset="1" stop-color="#191919" stop-opacity="0"/>
</radialGradient>
<radialGradient id="paint26_radial_2470_5151" cx="0" cy="0" r="1" gradientUnits="userSpaceOnUse" gradientTransform="translate(136.29 51.195) rotate(88.3949) scale(62.9899 43.4565)">
<stop stop-color="#333333"/>
<stop offset="1" stop-color="#191919" stop-opacity="0"/>
</radialGradient>
<radialGradient id="paint27_radial_2470_5151" cx="0" cy="0" r="1" gradientUnits="userSpaceOnUse" gradientTransform="translate(65.7131 -51.1913) rotate(88.3948) scale(62.995 43.4617)">
<stop stop-color="#333333"/>
<stop offset="1" stop-color="#191919" stop-opacity="0"/>
</radialGradient>
<radialGradient id="paint28_radial_2470_5151" cx="0" cy="0" r="1" gradientUnits="userSpaceOnUse" gradientTransform="translate(152.195 35.2898) rotate(86.6248) scale(43.4772 62.9598)">
<stop stop-color="#333333"/>
<stop offset="1" stop-color="#191919" stop-opacity="0"/>
</radialGradient>
<radialGradient id="paint29_radial_2470_5151" cx="0" cy="0" r="1" gradientUnits="userSpaceOnUse" gradientTransform="translate(49.8092 -35.2859) rotate(86.6249) scale(43.4824 62.965)">
<stop stop-color="#333333"/>
<stop offset="1" stop-color="#191919" stop-opacity="0"/>
</radialGradient>
<radialGradient id="paint30_radial_2470_5151" cx="0" cy="0" r="1" gradientUnits="userSpaceOnUse" gradientTransform="translate(160.309 14.0116) rotate(80.2344) scale(17.4829 72.0074)">
<stop stop-color="#333333"/>
<stop offset="1" stop-color="#191919" stop-opacity="0"/>
</radialGradient>
<radialGradient id="paint31_radial_2470_5151" cx="0" cy="0" r="1" gradientUnits="userSpaceOnUse" gradientTransform="translate(41.6948 -14.0073) rotate(80.2366) scale(17.488 72.013)">
<stop stop-color="#333333"/>
<stop offset="1" stop-color="#191919" stop-opacity="0"/>
</radialGradient>
<clipPath id="clip0_2470_5151">
<rect width="201" height="110" fill="white"/>
</clipPath>
</defs>
</svg>
