<svg xmlns="http://www.w3.org/2000/svg" width="160" height="80" fill="none"><rect width="160" height="80" fill="#312359" rx="40"/><path fill="#D79AF3" fill-rule="evenodd" d="M71.753 26.553h-1.919a2 2 0 0 1-.287.029h-.002c-.097.005-.192.01-.283.029a.97.97 0 0 0-.644.72c-.634 2.883-1.289 5.764-1.944 8.643v.004l-1.11 4.897c-.024.098-.048.197-.053.296a.55.55 0 0 0 .558.524c1.26 0 2.52 0 3.78-.008q.141-.003.281-.002c.283-.002.566-.003.849-.041.695-.088 1.39-.328 1.955-.757a3.97 3.97 0 0 0 1.34-1.76c.13-.356-.196-.749-.558-.749a52 52 0 0 0-.893-.005q-.327 0-.653.002-.408.001-.815.001-.366 0-.731-.005c-.203.014-.377-.138-.435-.327-.08-.23-.023-.472.032-.7l.026-.115q.421-1.873.845-3.747l.002-.007c.47-2.08.941-4.159 1.398-6.239.065-.21-.044-.436-.217-.56-.111-.084-.245-.096-.376-.107h-.001a2 2 0 0 1-.145-.016M32.39 35.81c.68-.11 1.39.138 1.883.618.39.378.623.91.652 1.447a2.27 2.27 0 0 1-1 1.971 2.3 2.3 0 0 1-1.006.35 2.21 2.21 0 0 1-2.071-1.07c-.297-.48-.355-1.076-.254-1.621.181-.859.934-1.557 1.796-1.695m20.334 8.306c.84-.182 1.738-.146 2.549.152q-.096.447-.18.893l-.001.002c-.695-.284-1.485-.393-2.216-.19-.384.103-.768.299-1.014.626-.37.466-.514 1.07-.521 1.658-.007.306.065.626.253.873.174.218.45.335.717.393.377.08.76.036 1.13-.022q.081-.393.159-.785.078-.393.16-.786h.984l-.144.724v.003c-.1.506-.2 1.011-.312 1.513-.948.313-2.006.4-2.954.05-.674-.246-1.08-.988-1.029-1.686 0-.837.218-1.695.724-2.378.399-.56 1.036-.902 1.695-1.04m75.919.138c-1.043-.306-2.195-.386-3.216.036-.811.327-1.252 1.302-1.071 2.146.072.276.297.487.557.589.35.129.717.121 1.084.114.296-.006.592-.012.879.053.195.044.318.262.289.458-.036.4-.362.735-.746.83-.796.152-1.629.057-2.396-.212a18 18 0 0 0-.174.902c.76.218 1.557.327 2.339.218.449-.05.89-.189 1.252-.465.522-.4.768-1.084.732-1.731a.9.9 0 0 0-.55-.786c-.4-.173-.824-.169-1.25-.165a5 5 0 0 1-.756-.03c-.196-.03-.312-.248-.283-.437.008-.386.326-.713.688-.808.811-.203 1.666-.087 2.448.19l.048-.25.077-.399zM70.95 44.05h1.064l.62 2.666.618 2.665h-1.02l-.156-.724-.076-.347-.035-.166-.045-.21-.408-.003-.479-.001q-.437.001-.873-.004l.106-.18.184-.313q.103-.175.203-.357c.207-.009.414-.008.62-.006q.23.001.459-.002l-.123-.564V46.5c-.1-.466-.2-.934-.32-1.393-.245.37-.475.753-.704 1.137l-.003.005-.015.024-.01.017-.07.118-.09.148-.133.22-.063.102-.04.064-.03.048-.516.86-.024.039q-.448.745-.9 1.494h-.056q-.051.002-.102.002h-.069l-.166.002h-.468l-.19.003q.824-1.332 1.65-2.66zm17.958 0-.372.002q-.325.003-.649-.002c-.355 1.775-.71 3.55-1.079 5.331h.912l.74-3.702q.2 1.005.398 2.017.165.842.332 1.685h.833c.535-.89 1.058-1.786 1.58-2.683l.6-1.026a676 676 0 0 1-.731 3.709h.912l.374-1.881.001-.006.006-.029v-.005l.002-.006q.336-1.703.681-3.404h-.992q-.813 1.297-1.634 2.588l-.019.03-.018.029-.885 1.397a829 829 0 0 0-.992-4.044m18.516.007c.908-.01 1.819-.01 2.728-.008l.908.001q-.04.213-.084.426l-.001.007-.082.418h-2.65c-.087.444-.181.895-.268 1.338h2.527l-.174.88h-2.542q-.07.35-.137.703-.068.352-.138.7h2.716q-.089.426-.167.852c-1.231.007-2.455.007-3.686.007q.21-1.065.422-2.13c.212-1.065.424-2.13.628-3.194M95.932 26.553h7.473l.087.008c.185.016.378.033.522.159.159.116.217.327.181.516-.037.203-.084.406-.131.61l-.016.072q-.025.107-.048.215l-.017.077-.02.095q-.803 3.605-1.618 7.206v.003l-.004.017q-.563 2.49-1.123 4.985l-.017.09c-.066.335-.14.708-.439.921-.217.184-.516.175-.785.168h-.026a9 9 0 0 0-.471-.001c-.224.004-.447.007-.673-.014-.297-.022-.492-.364-.42-.647.427-1.942.87-3.883 1.311-5.823.442-1.94.883-3.88 1.31-5.821.044-.24.087-.545-.115-.727-.399-.291-1.058-.044-1.144.45-.265 1.14-.521 2.28-.777 3.419l-.134.598-.094.419-.08.356-.27 1.187c-.101.444-.565.705-.992.698a7 7 0 0 0-.28-.008h-.297c-.219 0-.437.002-.654-.014a.54.54 0 0 1-.492-.53q.005-.093.027-.183l.024-.102q.015-.06.028-.123.61-2.793 1.253-5.585c.058-.211.015-.48-.18-.611-.392-.218-.957-.044-1.116.385-.108.284-.17.583-.233.882q-.048.24-.107.478-.589 2.63-1.184 5.254l-.008.036q-.598 2.641-1.19 5.285a.94.94 0 0 1-.652.712 1.4 1.4 0 0 1-.39.03h-.096q-.321-.003-.642-.002h-.315c-.424.001-.847.003-1.273-.006a.524.524 0 0 1-.5-.516c.006-.121.038-.242.069-.364l.01-.042.008-.03c.402-1.81.813-3.617 1.223-5.423q.62-2.711 1.225-5.428a4.33 4.33 0 0 1 1.064-2.051c.565-.611 1.34-1.011 2.158-1.164.213-.045.434-.062.655-.08q.199-.014.395-.036m-62.11.029c-.187 0-.383-.007-.571.043-.485.131-.898.531-.992 1.026-.406 1.796-.804 3.585-1.202 5.382-.058.233-.065.502.065.712.174.291.514.422.84.422h3.418c.63.015 1.274-.429 1.42-1.062q.275-1.251.558-2.508l.358-1.605.064-.286.065-.297.094-.426.048-.216.01-.051.008-.034c.026-.117.051-.236.04-.358a.87.87 0 0 0-.565-.699.7.7 0 0 0-.204-.035c-.06-.003-.12 0-.18 0a121 121 0 0 0-1.868-.007q-.702.002-1.405-.001m13.253.05c.166-.05.347-.057.528-.05q.75.003 1.502.001c.665-.001 1.33-.002 1.996.006.478 0 .89.487.79.967q-.352 1.607-.712 3.21l-.002.009-.395 1.77c-.224 1.011-.84 1.913-1.658 2.539-1.086.85-2.375 1.403-3.693 1.774-.898.255-1.818.444-2.737.626l-.039.01c-.1.025-.208.052-.266.142-.021.08.037.168.116.19.2.053.404.076.61.1h.002q.195.02.388.052c1.223.204 2.425.648 3.41 1.411.855.676 1.412 1.738 1.427 2.836.006.275-.04.55-.086.825l-.016.092c-.176 1.04-.41 2.065-.646 3.092a86 86 0 0 0-.44 1.991c-.116.64-.724 1.157-1.376 1.142-1.209 0-2.425 0-3.635-.007-.485.022-.912-.473-.81-.953q.191-.895.394-1.788.192-.845.373-1.688l.007-.034c.172-.856.352-1.752.109-2.606-.116-.473-.319-.945-.688-1.265-.565-.473-1.217-.851-1.926-1.048-.25-.072-.507-.126-.764-.18-.412-.085-.825-.17-1.213-.336-.319-.146-.638-.328-.826-.633-.413-.64-.326-1.6.268-2.095.456-.363 1.043-.509 1.608-.61q.415-.072.832-.135h.002c.975-.151 1.954-.302 2.866-.687.601-.262 1.188-.568 1.673-1.011.398-.356.717-.822.847-1.346q.363-1.584.714-3.168.235-1.056.474-2.112c.116-.501.521-.894.992-1.032m11.217-.05c-.32 0-.638-.007-.95.029-1.18.116-2.31.77-2.968 1.782-.377.552-.58 1.2-.724 1.854-.398 1.796-.806 3.59-1.214 5.383l-.003.014-.003.013a920 920 0 0 0-1.213 5.383c-.094.313.188.67.514.647h2.505c.406 0 .768-.334.848-.727q.57-2.54 1.146-5.08l.003-.015.001-.004.001-.005.001-.004c.5-2.207 1-4.414 1.49-6.623a.91.91 0 0 1 .826-.69c.695-.01 1.386-.008 2.079-.007q.78.002 1.564-.001.06.002.123.002c.135 0 .27 0 .398.056a.51.51 0 0 1 .333.422c.01.18-.029.361-.068.54l-.04.195q-.194.888-.396 1.774l-.075.335a.77.77 0 0 1-.768.618c-.832.014-1.694.065-2.447.443a3.95 3.95 0 0 0-1.934 2.08c-.145.328.094.779.464.786.503.014 1.009.011 1.514.008.555-.002 1.111-.005 1.665.014.347.043.521.458.441.77-.203.864-.396 1.73-.59 2.597l-.152.682-.264 1.165c-.08.306.16.67.485.67.26.008.52.006.781.005h.297q.146 0 .29.002a.87.87 0 0 0 .768-.43c.102-.175.142-.368.182-.562l.035-.165.965-4.276q.968-4.276 1.925-8.553.014-.07.032-.141c.047-.198.095-.402.055-.6-.066-.24-.312-.393-.55-.386zm22.448.05c.395-.062.798-.058 1.2-.053l.118.002h7.162a.59.59 0 0 1 .572.357c.036.131.021.27 0 .4-.662 2.982-1.337 5.96-2.011 8.94v.004l-.001.003-.006.023q-.535 2.362-1.067 4.725c-.102.334-.398.632-.76.647-.316.016-.631.013-.947.01l-.236-.002h-.182l-.09-.001a1 1 0 0 1-.133-.017.548.548 0 0 1-.36-.674q.186-.82.37-1.644l.002-.01c.195-.873.39-1.746.598-2.615.029-.174.058-.363.022-.538a.546.546 0 0 0-.544-.4c-.468-.007-.937-.004-1.407-.002-.548.004-1.096.007-1.641-.005-.37.007-.623-.436-.485-.771a3.94 3.94 0 0 1 2.331-2.262c.666-.247 1.374-.262 2.069-.276h.002a.76.76 0 0 0 .746-.59q.104-.474.215-.949v-.002l.001-.002.001-.005c.137-.587.274-1.175.377-1.769.043-.232-.116-.465-.319-.56-.11-.055-.236-.053-.36-.051h-.067q-1.227-.005-2.451-.001l-.664.001h-.57a.93.93 0 0 0-.899.713c-.628 2.823-1.267 5.643-1.907 8.464l-.003.013-.733 3.232c-.08.407-.456.75-.876.735q-.423 0-.848.002-.853.003-1.7-.002c-.298-.03-.53-.364-.443-.655q.62-2.763 1.249-5.524.629-2.764 1.25-5.53c.174-.771.521-1.506 1.05-2.087.6-.706 1.47-1.135 2.375-1.273m29.081-.014c-.76.03-1.528.226-2.165.64-.76.495-1.325 1.251-1.629 2.095-.127.36-.206.734-.283 1.102l-.007.032q-.594 2.651-1.195 5.298t-1.195 5.299c-.05.24.095.48.305.581.108.06.233.06.359.058h7.179l.261.002c.263.001.528.002.789-.009 1.158-.087 2.303-.712 2.911-1.723.478-.815.724-1.739.905-2.655l.028-.153.001-.004c.08-.429.16-.863.109-1.297-.066-.706-.413-1.404-.992-1.826.666-.298 1.281-.756 1.651-1.396.398-.698.586-1.491.76-2.27q.127-.564.25-1.127c.149-.675.297-1.348.46-2.021.072-.248-.087-.502-.305-.604-.11-.055-.236-.053-.356-.052l-.036.001h-5.037a80 80 0 0 0-2.768.03m.022 2.64a.93.93 0 0 1 .63-.662c.771-.062 1.544-.052 2.319-.041.405.005.81.01 1.215.005q.108.002.22-.002c.213-.006.428-.012.627.075.188.08.326.276.311.487-.012.2-.057.396-.102.59l-.021.094-.067.29-.172.742-.143.618-.096.415a.68.68 0 0 1-.362.502c-.291.146-.612.145-.927.143h-.151q-.063 0-.124.002c-1.064.037-2.143.451-2.875 1.244-.318.356-.622.742-.767 1.2l-.004.012c-.042.142-.089.298-.04.446.08.24.333.407.587.4q.628.004 1.255 0a75 75 0 0 1 1.888.007c.239-.007.412.197.463.415.037.13.011.262-.016.393l-.013.065q-.146.682-.302 1.366l-.154.685q-.021.086-.04.175c-.034.165-.069.33-.17.465a.88.88 0 0 1-.724.378q-.967-.004-1.934-.003h-.863l-.563-.002-.507-.002c-.254.007-.529-.16-.572-.422-.015-.189.014-.385.05-.582.732-3.163 1.442-6.327 2.144-9.498m13.556-2.625c.378-.063.762-.06 1.147-.059h7.376a.58.58 0 0 1 .558.393c.036.102.014.211-.008.313a2825 2825 0 0 1-3.079 13.639l-.002.009-.004.017c-.079.393-.427.742-.84.735q-.236 0-.471.002c-.313.001-.625.003-.933-.002-.239.007-.442-.196-.493-.422-.029-.112-.001-.225.026-.333l.018-.074q.172-.757.34-1.514l.001-.006c.191-.855.381-1.71.586-2.56.05-.24.101-.524-.044-.75-.109-.174-.326-.24-.521-.24h-.751l-.452.001c-.601.003-1.203.006-1.802-.007-.377-.008-.609-.466-.471-.8a4 4 0 0 1 1.557-1.862c.832-.553 1.861-.655 2.831-.655a.77.77 0 0 0 .768-.618q.091-.413.187-.827c.143-.62.287-1.24.392-1.864.072-.334-.253-.64-.572-.625q-.567-.004-1.132-.004l-1.295.002-1.215.002h-.043c-.183 0-.376-.001-.544.08a.92.92 0 0 0-.529.64q-.642 2.88-1.296 5.756c-.434 1.918-.869 3.836-1.296 5.756-.043.306-.188.626-.456.793-.194.136-.439.134-.664.132h-2.262c-.282.02-.536-.24-.536-.517.006-.106.031-.208.056-.308l.002-.007.015-.063c.401-1.81.812-3.618 1.223-5.427q.463-2.033.92-4.064.073-.305.136-.612c.151-.708.303-1.418.668-2.05.579-1.07 1.694-1.826 2.904-2M30.05 41.76a1.42 1.42 0 0 0-1.325 1.047c-.348 1.564-.695 3.135-1.05 4.706l-.04.177c-.055.242-.11.488-.134.74v.26c.058.4.478.67.862.663 1.166.007 2.339.007 3.505.007.63.007 1.26-.436 1.397-1.07l.191-.857q.525-2.347 1.04-4.699c.116-.487-.326-.974-.81-.974l-.598-.004a121 121 0 0 0-3.038.004" clip-rule="evenodd"/></svg>