<svg xmlns="http://www.w3.org/2000/svg" width="160" height="80" fill="none"><rect width="160" height="80" fill="#312359" rx="40"/><g clip-path="url(#a)"><path fill="#fff" d="M61.232 41.237v6.069h-2.954V41.67c0-1.232-.77-1.8-1.72-1.8-1.086 0-1.848.634-1.848 2.037v5.399h-2.965v-9.884h2.965v.928c.534-.73 1.514-1.2 2.826-1.2 1.997 0 3.696 1.418 3.696 4.087M67.794 44.933a2.59 2.59 0 0 0 1.898-.75l2.371 1.362c-.968 1.346-2.43 2.036-4.314 2.036-3.38 0-5.475-2.272-5.475-5.218s2.14-5.212 5.263-5.212c2.887 0 5.021 2.235 5.021 5.218q.003.6-.119 1.187h-7.016c.374 1.021 1.278 1.377 2.371 1.377m1.818-3.597c-.316-1.147-1.206-1.562-2.095-1.562-1.126 0-1.878.553-2.153 1.562zM77.2 40.27v3.492c0 .85.732.93 2.037.85v2.694c-3.873.394-5-.773-5-3.54v-3.493h-1.578v-2.851h1.58v-1.878l2.964-.89v2.768h2.03v2.847zM90.366 37.422v9.384c0 3.322-2.589 4.725-5.219 4.725-2.054 0-3.776-.772-4.684-2.393l2.53-1.46c.375.69.949 1.244 2.26 1.244 1.382 0 2.232-.712 2.232-2.116v-.904c-.65.81-1.6 1.284-2.886 1.284-2.806 0-4.86-2.292-4.86-5.02 0-2.729 2.047-5.015 4.854-5.015 1.286 0 2.235.474 2.886 1.286v-1.015zm-2.887 4.744c0-1.365-.988-2.293-2.391-2.293s-2.391.928-2.391 2.293c0 1.364.988 2.292 2.39 2.292 1.404 0 2.392-.928 2.392-2.292M102.184 37.422v9.884H99.22v-.929c-.653.75-1.621 1.204-2.946 1.204-2.589 0-4.725-2.272-4.725-5.218s2.136-5.212 4.735-5.212c1.325 0 2.293.456 2.946 1.206v-.935zm-2.964 4.94c0-1.48-.988-2.41-2.352-2.41s-2.353.93-2.353 2.41c0 1.482.989 2.413 2.353 2.413s2.352-.929 2.352-2.412M118.687 41.237v6.069h-2.964v-5.812c0-.989-.475-1.621-1.424-1.621-.988 0-1.541.692-1.541 1.849v5.584h-2.966v-5.812c0-.989-.473-1.621-1.422-1.621-.988 0-1.543.692-1.543 1.849v5.584h-2.964v-9.884h2.964v.91c.456-.672 1.325-1.187 2.65-1.187 1.165 0 2.036.474 2.589 1.304.553-.789 1.463-1.304 2.866-1.304 2.272.006 3.755 1.62 3.755 4.092M119.932 34.774a1.775 1.775 0 0 1 1.098-1.644 1.78 1.78 0 1 1 .681 3.423 1.795 1.795 0 0 1-1.779-1.78m.296 2.648h2.969v9.884h-2.969zM134.36 41.237v6.069h-2.964V41.67c0-1.232-.773-1.8-1.72-1.8-1.089 0-1.838.634-1.838 2.037v5.399h-2.965v-9.884h2.965v.928c.534-.73 1.522-1.2 2.826-1.2 1.995 0 3.696 1.418 3.696 4.087M146.039 37.422v9.384c0 3.322-2.588 4.725-5.216 4.725-2.054 0-3.776-.772-4.686-2.393l2.531-1.46c.376.69.949 1.244 2.26 1.244 1.383 0 2.233-.712 2.233-2.116v-.904c-.653.81-1.6 1.284-2.876 1.284-2.806 0-4.863-2.292-4.863-5.02 0-2.729 2.04-5.015 4.847-5.015 1.286 0 2.233.474 2.876 1.286v-1.015zm-2.876 4.744c0-1.365-.988-2.293-2.391-2.293s-2.393.928-2.393 2.293c0 1.364.988 2.292 2.393 2.292s2.383-.928 2.383-2.292zM147.644 37.067v1.753h-.229v-1.753zm.563 0v.19h-1.354v-.19zm.334 0h.225l.574 1.43.573-1.43h.226l-.712 1.753h-.176zm-.074 0h.199l.032 1.07v.683h-.231zm1.546 0h.199v1.753h-.232v-.684z"/><path fill="url(#b)" d="M46.157 35.495a4.788 4.788 0 0 0-8.053-5.177l-5.095 7.92-5.064-7.924c0-.015-.022-.03-.03-.044a5 5 0 0 0-.183-.254q-.051-.069-.105-.138a7 7 0 0 0-.179-.205c-.061-.068-.096-.107-.148-.158l-.158-.148c-.068-.062-.133-.124-.205-.181-.072-.058-.09-.068-.136-.103a5 5 0 0 0-.255-.183l-.043-.03c-.033-.023-.068-.04-.103-.06a4 4 0 0 0-.258-.148c-.089-.045-.126-.062-.187-.092-.062-.031-.15-.07-.226-.101l-.235-.088-.193-.064a4 4 0 0 0-.263-.07c-.088-.02-.12-.029-.183-.041a9 9 0 0 0-.269-.047l-.205-.023-.24-.025h-.444c-.084 0-.169 0-.253.017-.084.016-.13.014-.193.024-.064.01-.18.027-.27.046-.088.018-.122.024-.182.039s-.177.051-.267.08l-.206.064c-.076.022-.156.055-.232.086q-.114.047-.226.1c-.074.035-.125.058-.187.09a8 8 0 0 0-.26.149c-.033.02-.068.037-.101.06l-.02.028q-.132.089-.258.18l-.135.106a4 4 0 0 0-.206.18c-.065.062-.106.097-.156.146q-.075.077-.148.158c-.047.054-.123.136-.18.206-.058.07-.07.09-.105.137a4 4 0 0 0-.183.255l-.03.043-9.137 14.186a4.78 4.78 0 0 0 1.438 6.613 4.783 4.783 0 0 0 6.614-1.438l5.088-7.91 5.072 7.926a4.786 4.786 0 0 0 6.612 1.453c.04-.027.078-.058.117-.084l.032-.023q.178-.122.34-.257l.038-.035c.107-.09.206-.187.309-.285l.039-.044q.145-.151.275-.31c.019-.02.033-.043.051-.065q.118-.153.224-.315l.027-.035z"/><path fill="#FF2805" d="M28.056 30.505a7 7 0 0 0-.142-.235l-.102-.147q-.04-.055-.08-.107c-.027-.035-.064-.093-.105-.138s-.12-.137-.179-.205a3 3 0 0 0-.148-.158q-.077-.077-.158-.148a6 6 0 0 0-.206-.181c-.071-.06-.09-.068-.135-.103a4 4 0 0 0-.255-.183l-.043-.03c-.033-.023-.068-.04-.103-.06-.086-.051-.172-.103-.259-.148a5.05 5.05 0 0 0-.647-.281l-.193-.064a4 4 0 0 0-.263-.07c-.088-.02-.121-.029-.183-.041a9 9 0 0 0-.269-.047l-.205-.023-.24-.025h-.444c-.084 0-.169 0-.253.017l-.205.024a4 4 0 0 0-.268.046c-.088.018-.123.024-.182.039-.06.014-.167.051-.257.08l-.206.064c-.076.022-.156.055-.232.086q-.115.047-.226.1c-.074.035-.125.058-.187.09a7 7 0 0 0-.26.149c-.033.02-.068.037-.103.06l-.019.028q-.131.089-.256.18-.07.052-.136.106c-.043.037-.14.119-.206.18-.065.062-.106.095-.158.146a4 4 0 0 0-.146.158c-.047.054-.123.134-.18.206-.058.072-.07.09-.105.137a4 4 0 0 0-.183.255l-.03.043-5.509 8.545-3.363 5.226a3.4 3.4 0 0 0 5.705-.025l4.333-6.73 1.66-2.58.05-.07a4.75 4.75 0 0 1 1.877-1.63 4.76 4.76 0 0 1 6.073 1.644z" opacity=".25"/><path fill="url(#c)" d="M23.752 41.989q.077-.113.158-.22v-.012z"/><path fill="url(#d)" d="M37.771 46.675a5.66 5.66 0 0 1-7.623-3.743v-.035l-.033-.136a3.547 3.547 0 0 0-6.19-1.002l3.589 5.608 1.46 2.316a4.79 4.79 0 0 0 6.612 1.45c.04-.027.078-.058.119-.084l.03-.023q.173-.12.342-.259l.037-.03c.106-.093.205-.188.308-.288l.039-.041q.145-.152.275-.313l.05-.065q.118-.151.225-.315l.027-.035 3.324-5.168a5.6 5.6 0 0 1-2.59 2.163"/><path fill="url(#e)" d="M33.01 38.24c.25.337.56.627.913.854a3.55 3.55 0 0 0 4.906-1.064l5.9-9.15a4.787 4.787 0 0 0-6.615 1.438l-1.5 2.33-1.799 2.798z"/></g><defs><linearGradient id="b" x1="9.521" x2="47.213" y1="48.847" y2="30.778" gradientUnits="userSpaceOnUse"><stop stop-color="#77001A"/><stop offset="1" stop-color="#FF2805"/></linearGradient><linearGradient id="c" x1="24.63" x2="24.64" y1="41.259" y2="41.265" gradientUnits="userSpaceOnUse"><stop stop-color="#77001A"/><stop offset="1" stop-color="#FF2805"/></linearGradient><linearGradient id="d" x1="25.317" x2="38.186" y1="40.213" y2="48.485" gradientUnits="userSpaceOnUse"><stop stop-color="#77001A"/><stop offset="1" stop-color="#FF2805"/></linearGradient><linearGradient id="e" x1="34.465" x2="44.172" y1="37.989" y2="28.972" gradientUnits="userSpaceOnUse"><stop stop-color="#77001A"/><stop offset=".5" stop-color="#AD0418"/><stop offset="1" stop-color="#FF2805"/></linearGradient><clipPath id="a"><path fill="#fff" d="M10 28.111h140v23.777H10z"/></clipPath></defs></svg>