<svg xmlns="http://www.w3.org/2000/svg" width="25" height="24" fill="none"><path fill="#C1AFF0" stroke="#C1AFF0" stroke-width=".3" d="M19.458 2.245a1.36 1.36 0 0 0-1.244-.163l-6.46 2.346H3.04A2.04 2.04 0 0 0 1 6.468v6.46a2.04 2.04 0 0 0 2.04 2.04h2.04v4.08a2.04 2.04 0 1 0 4.08 0v-4.08h2.628l6.535 1.782q.177.047.36.047a1.36 1.36 0 0 0 1.36-1.36V3.361c0-.445-.219-.862-.584-1.116ZM2.36 12.928v-6.46a.68.68 0 0 1 .68-.68h8.16v7.82H3.04a.68.68 0 0 1-.68-.68Zm5.44 6.12a.68.68 0 1 1-1.36 0v-4.08H7.8zm10.88-3.61-6.12-1.67V5.584l6.12-2.223z"/><rect width="3.809" height="1.904" x="20.995" y="8.665" fill="#C1AFF0" rx=".952"/><rect width="3.809" height="1.904" x="20.8" y="4.857" fill="#C1AFF0" rx=".952" transform="rotate(-17.106 20.8 4.857)"/><rect width="3.809" height="1.904" x="21.307" y="12.474" fill="#C1AFF0" rx=".952" transform="rotate(15 21.307 12.474)"/></svg>