<svg width="160" height="80" fill="none" xmlns="http://www.w3.org/2000/svg">
<rect width="160" height="80" rx="40" fill="#312359"/>
<path d="M23.0915 48.0505C21.7268 46.561 21.8882 44.7267 21.8882 44.646L21.9175 44.3232L22.233 44.4039C22.2624 44.4112 25.4981 45.2624 27.1049 43.8243C28.6604 42.4302 29.2327 39.1945 27.237 35.9294C25.3367 32.8185 20.7656 29.5901 19.8704 28.9738C18.9753 29.5901 14.4042 32.8185 12.5039 35.9294C10.5155 39.2018 11.0878 42.4375 12.6433 43.8316C14.2502 45.2697 17.4859 44.4186 17.5152 44.4112L17.8307 44.3305L17.8601 44.6534C17.8674 44.7341 18.0215 46.561 16.6568 48.0578C15.5342 49.2831 13.7586 49.9068 11.3593 49.9068V51C14.0814 51 16.1358 50.259 17.4712 48.7989C19.056 47.0673 18.9973 45.3064 18.968 44.5653C18.946 43.8243 18.7992 42.9438 18.7992 42.9438L17.2291 43.362C16.532 43.5454 14.3309 43.8756 13.3697 43.0245C12.1517 41.9313 11.7555 39.2825 13.4431 36.5237C14.9545 34.0438 18.3516 31.4391 19.8778 30.3385C21.3966 31.4317 24.7937 34.0438 26.3125 36.5237C27.9927 39.2825 27.6038 41.9313 26.3859 43.0245C25.4247 43.883 23.2235 43.5454 22.5265 43.362L20.9563 42.9438C20.9563 42.9438 20.8096 43.8316 20.7876 44.5653C20.7582 45.3064 20.7069 47.0673 22.2844 48.7989C23.6197 50.259 25.6742 51 28.3963 51V49.9068C25.997 49.8995 24.2141 49.2758 23.0915 48.0505Z" fill="#BA131A"/>
<path d="M28.213 45.0569C30.3114 43.1785 31.1405 39.1431 28.6532 35.0709C26.364 31.329 20.8684 27.6603 20.6336 27.5063L19.8779 27L19.1222 27.5063C18.8874 27.6603 13.3992 31.329 11.1026 35.0783C8.61532 39.1431 9.44442 43.1785 11.5429 45.0569C12.7975 46.1795 14.5218 46.3702 15.8791 46.3115C15.7691 46.5316 15.615 46.7518 15.4169 46.9645C14.6245 47.8157 13.2598 48.2485 11.3594 48.2485V49.3491C13.5899 49.3491 15.2408 48.7915 16.246 47.6836C17.1338 46.7151 17.2952 45.5705 17.3099 45.0202C16.3781 45.2109 13.788 45.5925 12.2766 44.2351C10.5157 42.6649 9.86264 39.2018 12.0418 35.6506C14.2063 32.1067 19.5037 28.5702 19.7312 28.4161L19.8853 28.3134L20.0393 28.4161C20.2594 28.5702 25.5642 32.1067 27.7287 35.6506C29.9005 39.2091 29.2549 42.6649 27.4939 44.2424C25.9825 45.5925 23.3851 45.2183 22.4606 45.0275C22.4826 45.5778 22.644 46.7297 23.5245 47.6909C24.5297 48.7915 26.1806 49.3565 28.4111 49.3565V48.2559C26.5107 48.2559 25.146 47.823 24.3536 46.9719C24.1555 46.7591 24.0088 46.539 23.8914 46.3189C25.2341 46.3702 26.9583 46.1795 28.213 45.0569Z" fill="#BA131A"/>
<path d="M41.2146 38.6735C40.114 37.8518 39.4023 37.3088 39.0868 37.0447C38.9034 36.8759 38.698 36.6411 38.4632 36.3623C38.2284 36.0835 38.111 35.7093 38.111 35.2397C38.111 34.6381 38.2871 34.1685 38.6393 33.809C38.9988 33.4568 39.4757 33.2733 40.092 33.2733C41.4054 33.2733 42.1758 34.0584 42.4179 35.6213H42.8948V33.2733C42.8948 33.1633 42.8728 33.0899 42.8215 33.0532C42.5647 32.7744 41.7209 32.635 40.2755 32.635C39.2042 32.635 38.2871 32.8918 37.5387 33.4054C36.6802 33.9924 36.2547 34.8068 36.2547 35.8267C36.2547 36.443 36.4161 36.964 36.7463 37.4042C37.0691 37.8371 37.6634 38.3654 38.5292 38.9744C39.8866 39.9282 40.7891 40.6619 41.2293 41.1829C41.6695 41.6965 41.8896 42.2761 41.8896 42.9291C41.8896 43.6188 41.6622 44.1838 41.1926 44.6387C40.7304 45.0862 40.1434 45.3137 39.4317 45.3137C38.4192 45.3137 37.6341 44.9102 37.0838 44.0957C36.8637 43.7656 36.6876 43.2006 36.5555 42.4155H36.0933V45.0055C36.0933 45.2036 36.1666 45.3284 36.2987 45.3944C36.5482 45.5191 36.9811 45.6365 37.6121 45.7539C38.2431 45.8713 38.808 45.9227 39.307 45.9227C40.6497 45.9227 41.7356 45.5999 42.5647 44.9322C43.3938 44.2718 43.8047 43.406 43.8047 42.3275C43.8047 41.6524 43.6212 41.0581 43.2544 40.5298C42.8802 40.0383 42.2051 39.4146 41.2146 38.6735Z" fill="#BD9A61"/>
<path d="M50.7674 36.3109C49.4688 36.3109 48.4195 36.8098 47.6124 37.815V36.3109C46.82 36.7585 45.7781 37.0153 44.4941 37.074V37.5362H44.9197C45.3159 37.5362 45.58 37.5949 45.7415 37.6976C45.8882 37.8077 45.9689 38.0572 45.9689 38.4314V47.9697C45.9689 48.7622 45.9029 49.2464 45.7635 49.4078C45.6241 49.5692 45.2058 49.7013 44.4941 49.804V50.281H49.4981V49.804C48.5736 49.716 48.0307 49.5913 47.8619 49.4372C47.6932 49.2758 47.6124 48.7842 47.6124 47.9624V45.4824C48.3242 45.7686 49.0139 45.9006 49.6889 45.9006C51.0829 45.9006 52.2422 45.409 53.1594 44.4185C54.0765 43.428 54.5314 42.1587 54.5314 40.6252C54.5314 39.3045 54.1866 38.2479 53.5042 37.4702C52.8219 36.6998 51.912 36.3109 50.7674 36.3109ZM51.912 44.1911C51.3838 44.9395 50.6427 45.3063 49.6889 45.3063C48.9552 45.3063 48.2655 45.0202 47.6124 44.4405V41.2048C47.6124 40.2216 47.6638 39.5099 47.7592 39.0697C48.038 37.8077 48.7717 37.1767 49.9457 37.1767C50.7968 37.1767 51.4718 37.5142 51.9707 38.1966C52.4623 38.8716 52.7118 39.8108 52.7118 40.9994C52.7191 42.3861 52.455 43.4427 51.912 44.1911Z" fill="#BD9A61"/>
<path d="M62.9326 44.69C62.6831 44.69 62.5217 44.5946 62.4263 44.3892C62.3383 44.1837 62.2869 43.8316 62.2869 43.3106V39.2385C62.2869 38.2113 62.0448 37.4629 61.5532 37.0006C61.0616 36.531 60.2765 36.3036 59.2053 36.3036C58.3395 36.3036 57.5544 36.4577 56.8574 36.7805C56.6006 36.8906 56.4392 37.0667 56.3805 37.3088L56.1017 38.336C56.0797 38.424 56.1237 38.4827 56.2484 38.5194L56.8207 38.6662C56.8721 38.6808 56.9161 38.6882 56.9675 38.6882C57.0628 38.6882 57.1949 38.5414 57.349 38.2479C57.8259 37.3528 58.3909 36.9126 59.0586 36.9126C60.0931 36.9126 60.6214 37.8004 60.6361 39.5833L58.6403 40.3537C57.8333 40.6546 57.2463 40.9187 56.8794 41.1388C55.9476 41.6891 55.4854 42.4522 55.4854 43.4207C55.4854 44.1544 55.7055 44.7487 56.1457 45.211C56.5859 45.6659 57.1582 45.9007 57.8699 45.9007C58.2588 45.9007 58.7064 45.7319 59.2053 45.3944L60.6141 44.4552C60.6434 44.9688 60.7901 45.4531 61.0616 45.908L63.6663 45.0789L63.5489 44.5726C63.2848 44.646 63.0793 44.69 62.9326 44.69ZM60.6361 41.7111C60.6361 43.7509 59.9684 44.7634 58.6403 44.7634C58.1854 44.7634 57.8259 44.624 57.5471 44.3305C57.2756 44.0443 57.1362 43.6628 57.1362 43.2079C57.1362 42.1954 57.7599 41.4323 59.0072 40.904C59.4181 40.7279 59.9684 40.5225 60.6361 40.2804V41.7111Z" fill="#BD9A61"/>
<path d="M73.5715 44.69C73.1313 44.69 72.9112 44.2278 72.9112 43.3106V32.1727C71.9207 32.5396 70.8788 32.723 69.7929 32.723V33.2146H70.2845C70.6367 33.2146 70.8935 33.2733 71.0402 33.3834C71.1869 33.4934 71.2603 33.7869 71.2603 34.2638V36.5971C70.6366 36.399 69.9763 36.3036 69.2646 36.3036C67.7898 36.3036 66.6012 36.7511 65.6987 37.6463C64.7816 38.5488 64.3267 39.7154 64.3267 41.1535C64.3267 42.4962 64.7229 43.6188 65.5079 44.5286C66.3004 45.4384 67.2689 45.8933 68.4135 45.8933C68.8537 45.8933 69.3893 45.7099 70.0277 45.3283L71.253 44.602V44.7267C71.2823 45.1963 71.4144 45.5778 71.6565 45.886L74.2979 45.0569L74.1732 44.5506C73.9017 44.646 73.7109 44.69 73.5715 44.69ZM71.2603 42.5475C71.2603 43.2813 71.1576 43.7655 70.9448 44.0003C70.732 44.2351 70.4532 44.4405 70.1084 44.6166C69.7342 44.8001 69.3747 44.8954 69.0445 44.8954C68.098 44.8954 67.3643 44.4039 66.8213 43.4133C66.3737 42.5916 66.1389 41.6744 66.1389 40.6472C66.1389 39.6493 66.3737 38.7982 66.836 38.1085C67.3716 37.3161 68.1127 36.9199 69.0591 36.9199C70.0056 36.9199 70.7394 37.2941 71.253 38.0352V42.5475H71.2603Z" fill="#BD9A61"/>
<path d="M82.4346 38.6515C81.9577 37.0813 80.8791 36.3036 79.2062 36.3036C77.9442 36.3036 76.9391 36.7291 76.1833 37.5876C75.3616 38.5048 74.958 39.6273 74.958 40.9407C74.958 42.3128 75.3689 43.5087 76.2053 44.5139C76.9757 45.4457 78.1644 45.908 79.7785 45.908H80.2555L82.6401 44.7707L82.3612 44.2204C81.5321 44.6387 80.8278 44.8514 80.2335 44.8514C79.5731 44.8514 79.0008 44.712 78.5239 44.4259C77.3499 43.7655 76.7556 42.4962 76.7263 40.6105H82.6327C82.6474 39.7961 82.5814 39.1431 82.4346 38.6515ZM79.8813 39.9575H76.7263C76.7776 39.4072 76.8437 38.9817 76.9317 38.6955C77.2839 37.5069 78.0029 36.9126 79.0815 36.9126C79.6538 36.9126 80.1307 37.1033 80.5049 37.4775C80.8791 37.8591 81.0626 38.3287 81.0626 38.8863C81.0552 39.598 80.6663 39.9575 79.8813 39.9575Z" fill="#BD9A61"/>
<path d="M92.6701 36.5384L92.4647 36.3109C91.6796 36.487 90.8065 36.5824 89.838 36.5824C89.6692 36.5824 89.5078 36.5824 89.3684 36.5677C88.8695 36.3916 88.3339 36.3109 87.7469 36.3109C86.661 36.3109 85.7732 36.5897 85.0908 37.162C84.4085 37.7343 84.0636 38.4754 84.0636 39.4072C84.0636 40.7279 84.7606 41.6964 86.1547 42.3201L84.4011 43.7729C84.4011 43.7949 84.4011 43.8462 84.4011 43.9196C84.3865 43.993 84.3791 44.0443 84.3791 44.081C84.3791 44.6313 84.7753 44.9982 85.5751 45.1889L83.6527 46.2308C83.506 46.3189 83.4326 46.539 83.4326 46.8912C83.4326 47.6396 83.6307 48.2706 84.0196 48.7842C84.3644 49.2317 84.8707 49.5986 85.5311 49.8774C86.1987 50.1562 86.9178 50.2883 87.6882 50.2883C88.8768 50.2883 89.8453 50.0095 90.6084 49.4518C91.5769 48.7475 92.0612 47.8743 92.0612 46.8398C92.0612 45.8126 91.5769 45.0862 90.6084 44.6533C90.1682 44.4552 89.4931 44.2938 88.5687 44.1617C87.6148 44.0223 86.9618 43.8902 86.6096 43.7582C86.3675 43.6628 86.2428 43.516 86.2428 43.3179C86.2428 43.0978 86.4115 42.8557 86.7564 42.5842C87.1012 42.5842 87.336 42.5842 87.4754 42.5842C88.5026 42.5842 89.3537 42.2834 90.0361 41.6817C90.7258 41.0801 91.0706 40.339 91.0706 39.4439C91.0706 38.6075 90.8065 37.9031 90.2782 37.3088H92.1639L92.6701 36.5384ZM86.3968 45.3283L88.1945 45.6438C88.62 45.7172 88.9942 45.7979 89.3097 45.9006C90.1682 46.1574 90.5937 46.7004 90.5937 47.5222C90.5937 48.1458 90.3296 48.6668 89.8086 49.0703C89.2804 49.4739 88.6053 49.672 87.7909 49.672C86.9618 49.672 86.2721 49.4518 85.7218 49.019C85.1789 48.5861 84.9074 48.0284 84.9074 47.3534C84.9074 46.9352 85.0101 46.5903 85.2229 46.3042C85.4357 46.0254 85.8172 45.7025 86.3968 45.3283ZM87.7909 42.0706C87.2259 42.0706 86.7637 41.7845 86.4042 41.2342C86.0447 40.6765 85.8612 39.9795 85.8612 39.1357C85.8612 38.3947 86.0226 37.8297 86.3381 37.4115C86.6536 36.9933 87.0939 36.7878 87.6588 36.7878C88.1871 36.7878 88.598 37.0373 88.8988 37.5436C89.1997 38.0425 89.3537 38.7469 89.3537 39.6347C89.3464 41.2562 88.8255 42.0706 87.7909 42.0706Z" fill="#BD9A61"/>
<path d="M100.118 44.69C99.8755 44.69 99.6994 44.5946 99.6114 44.3892C99.5234 44.1837 99.472 43.8316 99.472 43.3106V39.2385C99.472 38.2113 99.2299 37.4629 98.7383 37.0006C98.2467 36.531 97.4689 36.3036 96.3904 36.3036C95.5246 36.3036 94.7395 36.4577 94.0425 36.7805C93.793 36.8906 93.6316 37.0667 93.5655 37.3088L93.2941 38.336C93.2721 38.424 93.3161 38.4827 93.4408 38.5194L94.0131 38.6662C94.0571 38.6808 94.1085 38.6882 94.1599 38.6882C94.2552 38.6882 94.3873 38.5414 94.5414 38.2479C95.0183 37.3528 95.5833 36.9126 96.2436 36.9126C97.2855 36.9126 97.8064 37.8004 97.8211 39.5833L95.8181 40.3537C95.011 40.6546 94.424 40.9187 94.0571 41.1388C93.1327 41.6891 92.6704 42.4522 92.6704 43.4207C92.6704 44.1544 92.8832 44.7487 93.3308 45.211C93.771 45.6659 94.3433 45.9007 95.055 45.9007C95.4512 45.9007 95.8988 45.7319 96.3977 45.3944L97.8064 44.4552C97.8358 44.9688 97.9825 45.4531 98.254 45.908L100.859 45.0789L100.749 44.5726C100.47 44.646 100.264 44.69 100.118 44.69ZM97.8211 41.7111C97.8211 43.7509 97.1534 44.7634 95.8181 44.7634C95.3705 44.7634 95.0036 44.624 94.7248 44.3305C94.4534 44.0443 94.3139 43.6628 94.3139 43.2079C94.3139 42.1954 94.9376 41.4323 96.1849 40.904C96.6031 40.7279 97.1461 40.5225 97.8211 40.2804V41.7111Z" fill="#BD9A61"/>
<path d="M116.149 43.3987V39.5686C116.149 38.923 116.113 38.4314 116.039 38.0792C115.768 36.8979 114.939 36.3036 113.544 36.3036C112.297 36.3036 111.189 36.8392 110.228 37.9178C109.957 37.3161 109.648 36.8979 109.296 36.6631C108.944 36.421 108.46 36.3109 107.821 36.3109C106.479 36.3109 105.364 36.8465 104.483 37.9251V36.3109C103.661 36.7732 102.627 37.0373 101.365 37.096V37.5509H101.783C102.187 37.5509 102.465 37.6096 102.612 37.727C102.759 37.8371 102.832 38.0792 102.832 38.4461V43.3987C102.832 44.2204 102.766 44.712 102.641 44.8661C102.509 45.0275 102.091 45.1449 101.365 45.2183V45.7025H105.965V45.2183C105.231 45.1449 104.806 45.0275 104.674 44.8661C104.542 44.712 104.476 44.2204 104.476 43.3987V41.2562C104.476 39.642 104.696 38.5708 105.143 38.0498C105.54 37.5583 106.127 37.3088 106.882 37.3088C107.557 37.3088 108.02 37.5142 108.276 37.9178C108.533 38.3213 108.658 39.033 108.658 40.0456V43.3987C108.658 44.2204 108.599 44.712 108.467 44.8661C108.335 45.0275 107.91 45.1449 107.19 45.2183V45.7025H111.791V45.2183C111.057 45.1449 110.624 45.0275 110.5 44.8661C110.367 44.712 110.301 44.2204 110.301 43.3987V41.2562C110.301 40.4638 110.323 39.9135 110.36 39.6053C110.441 38.9743 110.639 38.4607 110.932 38.0865C111.336 37.5729 111.916 37.3161 112.686 37.3161C113.346 37.3161 113.816 37.5289 114.08 37.9324C114.352 38.336 114.484 39.0477 114.484 40.0529V43.3987C114.484 44.2204 114.418 44.712 114.293 44.8661C114.161 45.0275 113.735 45.1449 113.016 45.2183V45.7025H117.602V45.2183C116.868 45.1449 116.435 45.0349 116.318 44.8808C116.208 44.7267 116.149 44.2351 116.149 43.3987Z" fill="#BD9A61"/>
<path d="M120.295 35.093C120.603 35.093 120.86 34.9903 121.065 34.7922C121.278 34.5941 121.381 34.3373 121.381 34.0364C121.381 33.7429 121.271 33.4935 121.058 33.2807C120.845 33.0753 120.596 32.9725 120.317 32.9725C120.023 32.9725 119.767 33.0753 119.554 33.2807C119.341 33.4935 119.231 33.7356 119.231 34.0144C119.231 34.3226 119.334 34.5794 119.539 34.7922C119.745 34.9903 120.001 35.093 120.295 35.093Z" fill="#BD9A61"/>
<path d="M121.469 44.7634C121.344 44.5873 121.285 44.1031 121.285 43.3107V36.2156C120.464 36.6778 119.429 36.942 118.167 37.0007V37.4556H118.585C118.989 37.4556 119.268 37.5069 119.414 37.6243C119.561 37.7344 119.634 37.9765 119.634 38.358V43.3107C119.634 44.1324 119.568 44.624 119.444 44.7781C119.312 44.9395 118.893 45.0569 118.167 45.1303V45.6145H122.753V45.1303C122.019 45.0569 121.593 44.9395 121.469 44.7634Z" fill="#BD9A61"/>
<path d="M133.062 44.7414C132.951 44.6093 132.893 44.1324 132.893 43.3106V39.4439C132.893 38.6515 132.834 38.0939 132.724 37.7784C132.357 36.7365 131.506 36.2229 130.171 36.2229C128.718 36.2229 127.493 36.7512 126.502 37.8151V36.2229C125.71 36.6705 124.668 36.9273 123.384 36.986V37.4482H123.809C124.198 37.4482 124.47 37.5069 124.624 37.6096C124.778 37.7197 124.851 37.9692 124.851 38.3434V43.3106C124.851 44.0957 124.785 44.5726 124.646 44.7341C124.514 44.8955 124.088 45.0275 123.384 45.1229V45.6072H127.984V45.1229C127.25 45.0275 126.818 44.8955 126.693 44.7414C126.568 44.58 126.502 44.1031 126.502 43.3106V41.0581C126.502 40.2364 126.553 39.6127 126.649 39.1725C126.942 37.8664 127.779 37.2134 129.158 37.2134C129.929 37.2134 130.472 37.4189 130.772 37.8224C131.081 38.226 131.235 38.9303 131.235 39.9282V43.318C131.235 44.1031 131.183 44.5726 131.088 44.712C130.956 44.9175 130.516 45.0569 129.767 45.1303V45.6145H134.353V45.1303C133.619 45.0569 133.186 44.9248 133.062 44.7414Z" fill="#BD9A61"/>
<path d="M144.251 36.443L144.045 36.2156C143.268 36.3917 142.394 36.4871 141.426 36.4871C141.257 36.4871 141.096 36.4871 140.956 36.4724C140.45 36.2963 139.914 36.2156 139.335 36.2156C138.249 36.2156 137.361 36.4944 136.679 37.0667C135.989 37.639 135.652 38.3801 135.652 39.3119C135.652 40.6326 136.349 41.6011 137.743 42.2247L135.982 43.6775C135.982 43.6995 135.982 43.7509 135.982 43.8243C135.967 43.8976 135.96 43.949 135.96 43.9857C135.96 44.536 136.363 44.9028 137.156 45.0936L135.233 46.1355C135.087 46.2235 135.013 46.4436 135.013 46.7958C135.013 47.5442 135.204 48.1752 135.6 48.6888C135.945 49.1364 136.444 49.5033 137.112 49.7821C137.779 50.0609 138.498 50.193 139.269 50.193C140.457 50.193 141.433 49.9141 142.189 49.3565C143.15 48.6521 143.642 47.779 143.642 46.7445C143.642 45.7246 143.157 44.9909 142.189 44.558C141.741 44.3599 141.066 44.1985 140.149 44.0664C139.195 43.927 138.542 43.7949 138.19 43.6628C137.948 43.5675 137.823 43.4207 137.823 43.2226C137.823 43.0025 137.999 42.7604 138.344 42.4962C138.682 42.4962 138.924 42.4962 139.056 42.4962C140.083 42.4962 140.942 42.1954 141.624 41.5937C142.306 40.9921 142.651 40.2437 142.651 39.3559C142.651 38.5195 142.387 37.8151 141.866 37.2208H143.752L144.251 36.443ZM137.977 45.2403L139.775 45.5558C140.201 45.6292 140.575 45.7099 140.898 45.8126C141.749 46.0694 142.182 46.6124 142.182 47.4342C142.182 48.0578 141.917 48.5788 141.389 48.9823C140.861 49.3859 140.193 49.584 139.371 49.584C138.542 49.584 137.853 49.3639 137.31 48.931C136.767 48.4981 136.488 47.9404 136.488 47.2654C136.488 46.8472 136.591 46.5023 136.803 46.2162C137.009 45.93 137.405 45.6072 137.977 45.2403ZM139.371 41.9753C138.814 41.9753 138.352 41.6891 137.985 41.1388C137.625 40.5812 137.442 39.8842 137.442 39.0404C137.442 38.3067 137.596 37.7344 137.919 37.3162C138.234 36.8979 138.682 36.6925 139.239 36.6925C139.768 36.6925 140.179 36.942 140.479 37.4482C140.78 37.9472 140.927 38.6515 140.927 39.5393C140.927 41.1609 140.413 41.9753 139.371 41.9753Z" fill="#BD9A61"/>
<path d="M28.191 45.0642C30.2894 43.1859 31.1185 39.1504 28.6312 35.0856C26.342 31.3436 20.8538 27.675 20.619 27.5209L19.8633 27.0146L19.1075 27.5209C18.8727 27.675 13.3845 31.3436 11.0953 35.0856C8.608 39.1504 9.4371 43.1859 11.5355 45.0642C12.7902 46.1794 14.5144 46.3775 15.8645 46.3188C15.7544 46.539 15.6003 46.7591 15.4022 46.9718C14.6098 47.823 13.2451 48.2559 11.3521 48.2559V49.3491C13.5826 49.3491 15.2261 48.7915 16.2387 47.6909C17.1191 46.7297 17.2879 45.5778 17.3026 45.0275C16.3708 45.2183 13.7807 45.5998 12.2693 44.2424C10.5083 42.6649 9.85532 39.2091 12.0345 35.6579C14.1989 32.114 19.4891 28.5848 19.7165 28.4307L19.8706 28.328L20.0247 28.4307C20.2448 28.5848 25.5349 32.114 27.6994 35.6579C29.8712 39.2091 29.2255 42.6649 27.4646 44.2424C25.9531 45.5925 23.3631 45.2183 22.4313 45.0275C22.4533 45.5778 22.6147 46.7224 23.5025 47.6909C24.515 48.7915 26.1586 49.3491 28.3891 49.3491V48.2559C26.4961 48.2559 25.1314 47.823 24.3316 46.9718C24.1335 46.7591 23.9868 46.539 23.8767 46.3188C25.2121 46.3775 26.9436 46.1794 28.191 45.0642Z" fill="#BA131A"/>
<path d="M146.107 37.206H145.256V36.8685H147.318V37.206H146.466V39.5173H146.107V37.206Z" fill="#BD9A61"/>
<path d="M147.677 36.8685H148.213L149.057 38.8716H149.071L149.908 36.8685H150.436V39.5173H150.077V37.3381H150.069L149.174 39.5173H148.932L148.037 37.3381H148.029V39.5173H147.67V36.8685H147.677Z" fill="#BD9A61"/>
</svg>
