<svg width="160" height="80" fill="none" xmlns="http://www.w3.org/2000/svg">
<rect width="160" height="80" rx="40" fill="#312359"/>
<g clip-path="url(#clip0_7819_888)">
<path d="M49.1439 40.3389C49.6972 39.5054 49.9865 38.5244 49.9739 37.524L49.9619 30.222C49.9739 30.0699 49.9739 29.917 49.9619 29.7649C49.871 28.4638 49.2805 27.2482 48.3138 26.3726C47.359 25.4716 46.0898 24.9794 44.7771 25.0012H39.9292V40.3389H49.1439ZM45.92 28.9349C46.242 29.231 46.4361 29.6409 46.4613 30.0777L46.4733 30.222L46.4853 37.524C46.4863 37.7518 46.4421 37.9775 46.3554 38.1881C46.2687 38.3987 46.1411 38.59 45.9801 38.751C45.8191 38.9121 45.6277 39.0396 45.4171 39.1264C45.2065 39.2131 44.9808 39.2572 44.7531 39.2563H43.3576V28.4777H44.729C45.1704 28.4691 45.5977 28.6331 45.92 28.9349Z" fill="white"/>
<path d="M50.3109 44.0321C50.2489 43.1881 49.9759 42.3732 49.517 41.6622H39.9414V56.988H45.1262C45.8099 56.9995 46.4887 56.8697 47.1201 56.6069C47.7514 56.344 48.3217 55.9536 48.7952 55.4602C49.2835 54.9803 49.6704 54.4072 49.9328 53.7748C50.1953 53.1424 50.328 52.4638 50.323 51.7791L50.3109 44.4772C50.323 44.329 50.323 44.1802 50.3109 44.0321ZM46.8344 51.7791C46.8363 52.0099 46.7915 52.2387 46.7026 52.4516C46.6137 52.6646 46.4826 52.8573 46.3171 53.0182C46.1626 53.178 45.9776 53.3051 45.773 53.3919C45.5684 53.4787 45.3484 53.5234 45.1262 53.5234H43.4059V42.7449H45.1382C45.568 42.7408 45.9824 42.9049 46.293 43.202C46.6139 43.5003 46.8114 43.9081 46.8464 44.3448L46.8584 44.4892L46.8344 51.7791Z" fill="white"/>
<path d="M115.367 40.3029H118.831V28.4778H121.959L121.971 25.0012H111.914L111.902 28.4778H115.367V40.3029Z" fill="#FDE100"/>
<path d="M115.367 41.6262V56.988H118.832V41.6262H115.367Z" fill="#FDE100"/>
<path d="M110.579 40.3029V39.2563H104.998V28.4778H110.579L110.591 25.0012L101.521 25.0133V40.3029H110.579Z" fill="#FDE100"/>
<path d="M101.521 41.6262V56.988H105.01L105.022 42.7329H110.603L110.591 41.6262H101.521Z" fill="#FDE100"/>
<path d="M92.2823 40.3029L92.2944 30.2221C92.2924 29.9913 92.3373 29.7626 92.4262 29.5496C92.5151 29.3366 92.6462 29.1439 92.8116 28.983C93.1251 28.6681 93.5486 28.487 93.9929 28.4781C94.4371 28.4691 94.8676 28.6329 95.1935 28.9349C95.5144 29.2332 95.7118 29.641 95.7469 30.0777L95.7589 30.2221V40.3029H99.1994V30.21C99.2114 30.0579 99.2114 29.9051 99.1994 29.7529C99.1033 28.4532 98.5136 27.2395 97.5513 26.3606C96.6014 25.4684 95.3417 24.9809 94.0387 25.0012C93.3605 24.9914 92.6876 25.1221 92.0624 25.3851C91.4371 25.648 90.8731 26.0375 90.4057 26.529C89.9196 27.0106 89.5343 27.584 89.272 28.216C89.0097 28.848 88.8757 29.5258 88.878 30.21V40.2909L92.2823 40.3029Z" fill="#FDE100"/>
<path d="M95.7466 41.6262V51.7792C95.7463 52.2376 95.5657 52.6775 95.2439 53.0039C94.922 53.3302 94.4847 53.5169 94.0264 53.5235C93.5872 53.5309 93.1622 53.3687 92.8396 53.0707C92.5169 52.7728 92.3216 52.3619 92.2941 51.9236C92.2941 51.8755 92.2821 51.8273 92.2821 51.7792L92.2941 41.6262H88.8777V51.7792C88.8656 51.9314 88.8656 52.0842 88.8777 52.2363C88.9738 53.5361 89.5634 54.7498 90.5257 55.6287C91.5034 56.5367 92.7963 57.0282 94.1302 56.999C95.4642 56.9698 96.7343 56.4222 97.6713 55.4723C98.1574 54.9907 98.5428 54.4173 98.8051 53.7853C99.0674 53.1533 99.2013 52.4755 99.1991 51.7913V41.6383H95.7466V41.6262Z" fill="#FDE100"/>
<path d="M78.1111 40.3029H83.765C83.1394 39.7856 82.5139 39.2563 81.8884 38.7391C80.7696 37.7165 80.1441 36.4173 80.0117 34.8415C79.9877 34.5888 79.9756 34.3242 79.9756 34.0355L79.9997 30.2101C79.9984 29.8751 80.0945 29.547 80.2763 29.2656C80.4581 28.9843 80.7178 28.7619 81.0237 28.6255C81.3297 28.4891 81.6687 28.4446 81.9995 28.4974C82.3302 28.5502 82.6385 28.698 82.8868 28.9229C83.2077 29.2212 83.4051 29.629 83.4402 30.0657L83.4522 30.2101V32.64H86.8927V30.2221C86.9047 30.0699 86.9047 29.9171 86.8927 29.765C86.8018 28.4638 86.2112 27.2483 85.2446 26.3726C84.2668 25.4649 82.974 24.9736 81.6401 25.0028C80.3063 25.032 79.0362 25.5794 78.099 26.529C77.6114 27.0101 77.2242 27.5832 76.9599 28.2151C76.6956 28.847 76.5594 29.5251 76.5592 30.2101L76.5472 35.0821C76.5352 35.467 76.5472 35.8519 76.5713 36.2249C76.7156 37.8609 77.2209 39.2082 78.1111 40.3029Z" fill="#FDE100"/>
<path d="M85.2207 41.6262H79.5548C80.2044 42.1676 80.866 42.7209 81.5276 43.2623C82.6464 44.2848 83.2238 45.584 83.3561 47.1598C83.3802 47.4125 83.3682 47.9779 83.3682 47.9538L83.3802 51.7792C83.3827 52.0112 83.3369 52.2411 83.2458 52.4544C83.1547 52.6677 83.0202 52.8597 82.8509 53.0183C82.5342 53.3318 82.1091 53.5117 81.6636 53.5207C81.218 53.5296 80.786 53.367 80.457 53.0664C80.135 52.7702 79.9408 52.3604 79.9157 51.9236C79.9157 51.8755 79.9036 51.8273 79.9036 51.7792L79.9397 49.3492H76.4993V51.7792C76.4872 51.9314 76.4872 52.0842 76.4993 52.2363C76.5855 53.5361 77.1719 54.7519 78.1353 55.6287C78.8798 56.3037 79.8041 56.7483 80.7962 56.9087C81.7883 57.069 82.8056 56.9382 83.7248 56.532C84.6441 56.1259 85.4258 55.4618 85.9753 54.6204C86.5248 53.779 86.8184 52.7962 86.8207 51.7913L86.8327 46.9193C86.8447 46.5343 86.8327 46.1494 86.8086 45.7764C86.6643 44.1043 86.135 42.7209 85.2207 41.6262Z" fill="#FDE100"/>
<path d="M67.7059 40.3029H71.1584V28.4778H74.2741L74.2861 25.0012L64.2654 25.0133L64.2534 28.4898H67.7059V40.3029Z" fill="white"/>
<path d="M67.7059 41.6262L67.6938 56.988H71.1463L71.1584 41.6262H67.7059Z" fill="white"/>
<path d="M61.7991 40.3029V39.2563H56.2535V28.4778L61.7751 28.4898L61.7871 25.0133L52.825 25.0012L52.813 40.3029H61.7991Z" fill="white"/>
<path d="M56.2775 42.7329L61.7871 42.745V41.6262H52.813V56.988H61.7751L61.7991 53.5235L56.2655 53.5115L56.2775 42.7329Z" fill="white"/>
<path d="M30.6304 46.9071V34.8895L36.6933 40.9525L30.6304 46.9071Z" fill="#FDE100"/>
<path d="M129.37 46.9793V34.9617L123.307 40.9765L129.37 46.9793Z" fill="#FDE100"/>
</g>
<defs>
<clipPath id="clip0_7819_888">
<rect width="98.7391" height="32" fill="white" transform="translate(30.6304 25)"/>
</clipPath>
</defs>
</svg>
