<svg xmlns="http://www.w3.org/2000/svg" width="28" height="29" fill="none"><g clip-path="url(#a)"><path fill="#383859" d="M14.607.5h-1.526a6.755 6.755 0 0 0-6.748 6.747v5.79q0 .099.005.199v.025c0 .22.147.457 1.243.542l.446.021.163.002c1.23 0 1.853-.19 1.853-.565l-.003-.055q-.008-.084-.009-.17V7.249a3.05 3.05 0 0 1 3.05-3.05h1.526a3.05 3.05 0 0 1 3.049 3.05v5.789q-.002.084-.009.167l-.003.057c0 .22.148.457 1.243.542l.446.021.163.002c1.23 0 1.853-.19 1.853-.565v-.026q.004-.099.005-.198v-5.79A6.755 6.755 0 0 0 14.607.501zm6.236 12.536q0 .062-.003.122c-.161.065-.63.156-1.343.156q-.077 0-.153-.002l-.416-.02c-.424-.033-.66-.092-.764-.131q.005-.06.005-.125V7.247a3.565 3.565 0 0 0-3.561-3.56H13.08a3.565 3.565 0 0 0-3.561 3.56v5.79q0 .064.004.125c-.17.064-.634.151-1.333.151q-.078 0-.154-.002l-.415-.02c-.439-.033-.676-.096-.774-.134l-.002-.121v-5.79a6.24 6.24 0 0 1 6.236-6.235h1.526a6.24 6.24 0 0 1 6.235 6.236v5.789Z"/><path fill="url(#b)" d="M21.098 7.247a6.5 6.5 0 0 0-6.49-6.491H13.08a6.5 6.5 0 0 0-6.49 6.491v5.79q.001.107.005.216v.008c0 .17.714.309 1.596.309s1.597-.139 1.597-.31q-.01-.11-.011-.224V7.247a3.31 3.31 0 0 1 3.305-3.305h1.527a3.31 3.31 0 0 1 3.304 3.305v5.79q-.002.108-.01.214l-.002.01c0 .17.715.309 1.597.309s1.597-.139 1.597-.31v-.004q.004-.109.005-.22V7.249Z"/><g fill="#545454" opacity=".81" style="mix-blend-mode:multiply"><path d="M14.607 3.28H13.08c-2.93 0-4.485 2.49-4.485 3.968v5.789q.002.113.011.224c0 .13-.417.242-1.006.287q.275.021.59.021c.882 0 1.597-.138 1.597-.308-.005-.075-.012-.149-.012-.225V7.247a3.31 3.31 0 0 1 3.305-3.305h-.353a3 3 0 0 1 .353-.019h1.527a3.31 3.31 0 0 1 3.305 3.305v-.644a3.31 3.31 0 0 0-3.305-3.304" opacity=".62" style="mix-blend-mode:multiply"/><path d="M21.098 7.247A6.5 6.5 0 0 0 14.607.756h-1.18a6.5 6.5 0 0 1 6.491 6.491v5.79q-.001.11-.005.219v.004c0 .13-.417.242-1.007.287q.276.021.59.022c.883 0 1.598-.139 1.598-.31v-.004q.004-.108.005-.22V7.248Z" opacity=".62" style="mix-blend-mode:multiply"/></g><path fill="#fff" d="M16.127 1.692c-1.248-.67-2.868-.724-3.907-.5-1.004.218-1.985.364-3.594 1.964-1.61 1.6-1.77 4.278-1.79 4.989-.023.756-.197 5.308.753 5.081.576-.137-.068-6.014 1.09-8.268 1.16-2.253 2.893-2.822 4.598-2.822 2.833 0 4.818.612 2.85-.445Z" opacity=".56" style="mix-blend-mode:overlay"/><path fill="#fff" d="M13.746 1.401c-1.434-.057-3.846.507-3.66.958.207.506.684-.068 2.6-.336 1.662-.232 1.894-.589 1.061-.622Z"/><path fill="#640099" d="M13.845 8.795c-5.262 0-9.542 4.28-9.542 9.542s4.28 9.541 9.541 9.541 9.542-4.28 9.542-9.541-4.28-9.542-9.541-9.542m0 18.47c-4.923 0-8.928-4.005-8.928-8.928 0-4.922 4.005-8.927 8.928-8.927 4.922 0 8.927 4.005 8.927 8.927 0 4.923-4.005 8.927-8.927 8.927Z"/><path fill="url(#c)" d="M23.079 18.337a9.235 9.235 0 1 0-18.47 0 9.235 9.235 0 0 0 18.47 0"/><path fill="#FF24A3" d="M13.844 26.933a9.234 9.234 0 0 1-9.229-8.916 9.235 9.235 0 0 0 9.229 9.554 9.234 9.234 0 0 0 9.229-9.554 9.235 9.235 0 0 1-9.229 8.916" opacity=".4" style="mix-blend-mode:multiply"/><path fill="#fff" d="M4.817 18.865a9.235 9.235 0 0 1 17.874-3.266 9.235 9.235 0 1 0-17.487 5.918 9.2 9.2 0 0 1-.387-2.652" opacity=".56" style="mix-blend-mode:overlay"/><g opacity=".2" style="mix-blend-mode:overlay"><path fill="url(#d)" d="M23.229 18.337c0-.778-.097-1.533-.278-2.254l-5.73-6.4a9.2 9.2 0 0 0-3.227-.58c-.95 0-1.865.143-2.726.409l9.102 15.505a9.2 9.2 0 0 0 2.859-6.68"/><path fill="url(#e)" d="m5.9 13.887 4.185 12.818a9.2 9.2 0 0 0 3.909.866c.93 0 1.83-.138 2.677-.395L8.573 10.861A9.3 9.3 0 0 0 5.9 13.887"/></g><path fill="#640099" d="M13.845 11.16c-3.958 0-7.177 3.22-7.177 7.177s3.22 7.177 7.177 7.177 7.176-3.22 7.176-7.177-3.22-7.176-7.176-7.176Zm0 13.891a6.72 6.72 0 0 1-6.715-6.714 6.72 6.72 0 0 1 6.715-6.715 6.72 6.72 0 0 1 6.714 6.715 6.72 6.72 0 0 1-6.714 6.714"/><path fill="#fff" d="M13.773 11.623a6.72 6.72 0 0 0-6.714 6.714 6.72 6.72 0 0 0 6.714 6.715 6.72 6.72 0 0 0 6.714-6.715 6.72 6.72 0 0 0-6.714-6.714m0 12.996c-3.464 0-5.706-2.651-5.706-6.115s2.598-6.115 6.062-6.115 5.925 2.485 5.925 5.948a6.29 6.29 0 0 1-6.281 6.282" style="mix-blend-mode:overlay"/><path fill="#fff" d="m16.34 21.98-1.518-3.696a1.622 1.622 0 0 0 .158-2.666c-.775-.581-2.286-.447-2.286.43 0 .589-.342 1.952.127 2.236l-1.471 3.7 4.99-.005Z" style="mix-blend-mode:overlay"/><path fill="#640099" d="M14.502 18.284a1.62 1.62 0 0 0 .77-1.568l-.008-.056a2 2 0 0 0-.021-.119l-.016-.062a1.6 1.6 0 0 0-.1-.272l-.025-.053a2 2 0 0 0-.062-.109q-.011-.019-.024-.038a1.6 1.6 0 0 0-.22-.268l-.015-.014a2 2 0 0 0-.112-.098l-.01-.01-.006-.002a1.622 1.622 0 1 0-1.834 2.67l-1.47 3.698.84-.305h3.7z"/><path fill="#1F1F38" d="m15.9 21.678-1.386-3.394a1.622 1.622 0 0 0 .157-2.666c-.998-.546-2.003.344-2.003 1.22 0 .589.313 1.104.781 1.389l-1.247 3.451z"/><path fill="url(#f)" d="M8.86 11.055c-1.51 0-2.735 1.14-2.735 2.547s1.225 2.546 2.735 2.546 2.734-1.141 2.734-2.546-1.225-2.547-2.734-2.547" style="mix-blend-mode:overlay"/><path fill="#fff" d="M6.362 16.953c.734-.823 2.892-3.35 2.892-3.35s1.802-3.383 1.846-3.478c.012-.027-2.303 3.18-2.303 3.18z" opacity=".7"/><path fill="#fff" d="M9.455 12.997c-.665-.52-.544-1.982-.55-2.396v.396c0-.063-.004-.131-.004-.146v-.25a5 5 0 0 1-.037.523s-.195 1.467-.547 1.77c-.791.695-2.785.561-2.02.58 2.58.055 2.58 2.574 2.604 3.4v-.415q.004.045.005.07v.346c.054-1.956.048-3.194 2.3-3.36.746-.057-.973.087-1.75-.518Z"/></g><defs><linearGradient id="b" x1="10.737" x2="17.437" y1="1.791" y2="18.706" gradientUnits="userSpaceOnUse"><stop stop-color="#C3C3CD"/><stop offset="1" stop-color="#383859"/></linearGradient><linearGradient id="c" x1="7" x2="19.25" y1="9.688" y2="29.375" gradientUnits="userSpaceOnUse"><stop stop-color="#FF68E8"/><stop offset="1" stop-color="#3D45BF"/></linearGradient><linearGradient id="d" x1="21.706" x2="12.292" y1="20.616" y2="6.899" gradientUnits="userSpaceOnUse"><stop stop-color="#fff"/><stop offset="1" stop-color="#fff"/></linearGradient><linearGradient id="e" x1="14.715" x2="5.424" y1="26.631" y2="13.093" gradientUnits="userSpaceOnUse"><stop stop-color="#fff"/><stop offset="1" stop-color="#fff"/></linearGradient><radialGradient id="f" cx="0" cy="0" r="1" gradientTransform="translate(8.86 13.601)scale(2.64194)" gradientUnits="userSpaceOnUse"><stop stop-color="#fff"/><stop offset="1" stop-color="#fff" stop-opacity="0"/></radialGradient><clipPath id="a"><path fill="#fff" d="M0 .5h28v28H0z"/></clipPath></defs></svg>